<svg width="200" height="67" viewBox="0 0 200 67" fill="none" xmlns="http://www.w3.org/2000/svg">
<g filter="url(#filter0_d_55_269)">
<rect x="1.5" width="197" height="63.0135" rx="3.9798" fill="white"/>
<path d="M13.6524 50.5801C13.1699 50.5801 12.7521 50.4716 12.399 50.2546C12.0493 50.0344 11.7788 49.7316 11.5877 49.3461C11.3966 48.9575 11.3011 48.5122 11.3011 48.0101V47.33C11.3011 46.6401 11.3983 46.0426 11.5926 45.5373C11.7902 45.0321 12.0687 44.6256 12.4282 44.318C12.7877 44.0103 13.212 43.8078 13.701 43.7107C14.1091 43.6362 14.4038 43.5471 14.5852 43.4435C14.7698 43.3398 14.8621 43.1698 14.8621 42.9334H15.6006L15.6103 42.9625C15.6168 43.2475 15.586 43.4791 15.518 43.6572C15.4532 43.8354 15.3496 43.9779 15.2071 44.0848C15.0645 44.1916 14.8832 44.2758 14.6629 44.3374C14.4427 44.3989 14.182 44.4556 13.8808 44.5074C13.586 44.556 13.3172 44.6483 13.0743 44.7843C12.8347 44.9171 12.6355 45.1001 12.4768 45.3333C12.3213 45.5633 12.2193 45.8499 12.1707 46.1932L12.1901 46.2175C12.3812 46.0134 12.6209 45.8467 12.9091 45.7171C13.2006 45.5875 13.5099 45.5228 13.8371 45.5228C14.2808 45.5228 14.6646 45.6248 14.9884 45.8288C15.3123 46.0329 15.5617 46.3147 15.7366 46.6742C15.9147 47.0304 16.0038 47.4401 16.0038 47.9033V48.0101C16.0038 48.5122 15.9082 48.9575 15.7172 49.3461C15.5261 49.7316 15.254 50.0344 14.901 50.2546C14.5512 50.4716 14.135 50.5801 13.6524 50.5801ZM13.6524 49.832C13.9569 49.832 14.2127 49.7542 14.42 49.5988C14.6273 49.4401 14.7828 49.2247 14.8864 48.9526C14.9933 48.6773 15.0467 48.3632 15.0467 48.0101V47.9033C15.0467 47.5923 14.9933 47.3138 14.8864 47.0677C14.7795 46.8215 14.6225 46.6272 14.4152 46.4847C14.2079 46.3422 13.9504 46.2709 13.6427 46.2709C13.3383 46.2709 13.0824 46.3422 12.8751 46.4847C12.6711 46.6272 12.5173 46.8215 12.4136 47.0677C12.31 47.3138 12.2582 47.5923 12.2582 47.9033V48.0101C12.2582 48.3632 12.31 48.6773 12.4136 48.9526C12.5173 49.2247 12.6727 49.4401 12.88 49.5988C13.0873 49.7542 13.3448 49.832 13.6524 49.832ZM19.1859 50.5801C18.7001 50.5801 18.2806 50.4668 17.9276 50.24C17.5778 50.0101 17.3074 49.6943 17.1163 49.2927C16.9252 48.8879 16.8297 48.4263 16.8297 47.9081V47.8012C16.8297 47.283 16.9252 46.8231 17.1163 46.4215C17.3074 46.0167 17.5778 45.6993 17.9276 45.4693C18.2806 45.2394 18.6968 45.1244 19.1762 45.1244C19.662 45.1244 20.0798 45.2394 20.4296 45.4693C20.7826 45.6993 21.0546 46.0151 21.2457 46.4167C21.4368 46.8183 21.5324 47.2798 21.5324 47.8012V47.9081C21.5324 48.4296 21.4368 48.8927 21.2457 49.2976C21.0546 49.6992 20.7842 50.0133 20.4344 50.24C20.0846 50.4668 19.6685 50.5801 19.1859 50.5801ZM19.1859 49.832C19.4903 49.832 19.7446 49.7494 19.9486 49.5842C20.1559 49.4158 20.3113 49.1874 20.415 48.8992C20.5219 48.6077 20.5753 48.2773 20.5753 47.9081V47.8012C20.5753 47.432 20.5219 47.1033 20.415 46.815C20.3113 46.5236 20.1559 46.2952 19.9486 46.13C19.7413 45.9616 19.4838 45.8774 19.1762 45.8774C18.8717 45.8774 18.6159 45.9616 18.4086 46.13C18.2013 46.2952 18.0458 46.5236 17.9422 46.815C17.8386 47.1033 17.7867 47.432 17.7867 47.8012V47.9081C17.7867 48.2773 17.8386 48.6077 17.9422 48.8992C18.0458 49.1874 18.2013 49.4158 18.4086 49.5842C18.6191 49.7494 18.8782 49.832 19.1859 49.832ZM23.5145 50.4781V49.866L24.3064 49.7299V45.9649H23.1987L23.1258 46.7859H22.3097V45.2216H27.2844V46.7859H26.4634L26.3905 45.9649H25.2634V49.7299L26.0553 49.866V50.4781H23.5145Z" fill="#212B36"/>
<rect x="1.83165" y="0.33165" width="196.337" height="62.3502" rx="3.64815" stroke="#212B36" stroke-width="0.6633"/>
</g>
<path d="M176.945 49.0834C177.495 49.0834 177.94 48.6379 177.94 48.0884C177.94 47.5389 177.495 47.0935 176.945 47.0935V49.0834ZM83.4175 48.0884L93.367 53.8328V42.3441L83.4175 48.0884ZM176.945 47.0935H92.372V49.0834H176.945V47.0935Z" fill="black"/>
<path d="M184.46 34.6557C182.404 40.1743 181.917 48.4269 176.912 48.0719" stroke="black" stroke-width="1.9899" stroke-linecap="round"/>
<defs>
<filter id="filter0_d_55_269" x="0.173401" y="0" width="199.653" height="66.9933" filterUnits="userSpaceOnUse" color-interpolation-filters="sRGB">
<feFlood flood-opacity="0" result="BackgroundImageFix"/>
<feColorMatrix in="SourceAlpha" type="matrix" values="0 0 0 0 0 0 0 0 0 0 0 0 0 0 0 0 0 0 127 0" result="hardAlpha"/>
<feMorphology radius="1.3266" operator="dilate" in="SourceAlpha" result="effect1_dropShadow_55_269"/>
<feOffset dy="2.6532"/>
<feColorMatrix type="matrix" values="0 0 0 0 0 0 0 0 0 0 0 0 0 0 0 0 0 0 1 0"/>
<feBlend mode="normal" in2="BackgroundImageFix" result="effect1_dropShadow_55_269"/>
<feBlend mode="normal" in="SourceGraphic" in2="effect1_dropShadow_55_269" result="shape"/>
</filter>
</defs>
</svg>
