<svg width="240" height="191" viewBox="0 0 240 191" fill="none" xmlns="http://www.w3.org/2000/svg">
<path d="M24.5 0.5H24.9H25.3489H25.797H26.2443H26.6909H27.1367H27.5817H28.0261H28.4696H28.9125H29.3545H29.7959H30.2365H30.6764H31.1155H31.554H31.9917H32.4287H32.8649H33.3005H33.7353H34.1695H34.6029H35.0356H35.4677H35.899H36.3297H36.7596H37.1889H37.6175H38.0454H38.4726H38.8992H39.3251H39.7503H40.1749H40.5988H41.022H41.4446H41.8665H42.2878H42.7084H43.1284H43.5478H43.9665H44.3845H44.802H45.2188H45.635H46.0506H46.4655H46.8798H47.2935H47.7067H48.1192H48.531H48.9423H49.353H49.7631H50.1726H50.5816H50.9899H51.3976H51.8048H52.2114H52.6174H53.0229H53.4277H53.8321H54.2358H54.639H55.0416H55.4437H55.8453H56.2462H56.6467H57.0466H57.4459H57.8448H58.2431H58.6408H59.0381H59.4348H59.831H60.2267H60.6218H61.0165H61.4107H61.8043H62.1974H62.5901H62.9822H63.3739H63.7651H64.1558H64.5459H64.9357H65.3249H65.7137H66.102H66.4898H66.8771H67.264H67.6505H68.0365H68.422H68.8071H69.1917H69.5759H69.9596H70.3429H70.7258H71.1083H71.4903H71.8719H72.253H72.6338H73.0141H73.394H73.7735H74.1526H74.5313H74.9096H75.2874H75.6649H76.042H76.4187H76.7951H77.171H77.5466H77.9217H78.2965H78.671H79.045H79.4187H79.7921H80.165H80.5377H80.9099H81.2818H81.6534H82.0246H82.3955H82.7661H83.1363H83.5061H83.8757H84.2449H84.6138H84.9824H85.3506H85.7186H86.0862H86.4535H86.8205H87.1873H87.5537H87.9198H88.2856H88.6512H89.0164H89.3814H89.7461H90.1105H90.4746H90.8385H91.2021H91.5654H91.9285H92.2913H92.6538H93.0161H93.3782H93.7399H94.1015H94.4628H94.8239H95.1847H95.5453H95.9057H96.2658H96.6257H96.9854H97.3449H97.7042H98.0632H98.4221H98.7807H99.1392H99.4974H99.8555H100.213H100.571H100.928H101.286H101.643H102H102.357H102.713H103.07H103.426H103.782H104.138H104.494H104.849H105.205H105.56H105.915H106.27H106.625H106.98H107.334H107.689H108.043H108.397H108.752H109.106H109.459H109.813H110.167H110.52H110.874H111.227H111.58H111.934H112.287H112.64H112.993H113.345H113.698H114.051H114.403H114.756H115.108H115.461H115.813H116.165H116.518H116.87H117.222H117.574H117.926H118.278H118.63H118.982H119.334H119.686H120.038H120.389H120.741H121.093H121.445H121.796H122.148H122.5H122.852H123.204H123.555H123.907H124.259H124.611H124.962H125.314H125.666H126.018H126.37H126.722H127.074H127.426H127.778H128.13H128.482H128.835H129.187H129.539H129.892H130.244H130.597H130.949H131.302H131.655H132.007H132.36H132.713H133.066H133.42H133.773H134.126H134.48H134.833H135.187H135.541H135.894H136.248H136.603H136.957H137.311H137.666H138.02H138.375H138.73H139.085H139.44H139.795H140.151H140.506H140.862H141.218H141.574H141.93H142.287H142.643H143H143.357H143.714H144.072H144.429H144.787H145.145H145.503H145.861H146.219H146.578H146.937H147.296H147.655H148.015H148.374H148.734H149.094H149.455H149.815H150.176H150.537H150.899H151.26H151.622H151.984H152.346H152.709H153.072H153.435H153.798H154.162H154.525H154.89H155.254H155.619H155.984H156.349H156.714H157.08H157.446H157.813H158.179H158.546H158.914H159.281H159.649H160.018H160.386H160.755H161.124H161.494H161.864H162.234H162.604H162.975H163.347H163.718H164.09H164.462H164.835H165.208H165.581H165.955H166.329H166.703H167.078H167.453H167.829H168.205H168.581H168.958H169.335H169.713H170.09H170.469H170.847H171.227H171.606H171.986H172.366H172.747H173.128H173.51H173.892H174.274H174.657H175.04H175.424H175.808H176.193H176.578H176.964H177.35H177.736H178.123H178.51H178.898H179.286H179.675H180.064H180.454H180.844H181.235H181.626H182.018H182.41H182.803H183.196H183.589H183.983H184.378H184.773H185.169H185.565H185.962H186.359H186.757H187.155H187.554H187.953H188.353H188.754H189.155H189.556H189.958H190.361H190.764H191.168H191.572H191.977H192.383H192.789H193.195H193.602H194.01H194.418H194.827H195.237H195.647H196.058H196.469H196.881H197.293H197.706H198.12H198.535H198.949H199.365H199.781H200.198H200.615H201.034H201.452H201.872H202.292H202.712H203.133H203.555H203.978H204.401H204.825H205.25H205.675H206.101H206.527H206.955H207.383H207.811H208.24H208.67H209.101H209.532H209.964H210.397H210.831H211.265H211.7H212.135H212.571H213.008H213.446H213.884H214.324H214.764H215.204H215.645H216.088H216.53H216.974H217.418H217.863H218.309H218.756H219.203H219.651H220.1H220.5V68.5H24.5V0.5Z" fill="white" stroke="black"/>
<rect x="0.5" y="64.5" width="199" height="69" fill="#FF7A00" fill-opacity="0.46" stroke="black"/>
<path d="M5.5 67.5H5.89088H6.33518H6.77872H7.22151H7.66355H8.10484H8.54539H8.98519H9.42426H9.86259H10.3002H10.737H11.1732H11.6086H12.0433H12.4773H12.9105H13.3431H13.7749H14.2061H14.6365H15.0662H15.4953H15.9236H16.3513H16.7782H17.2045H17.6301H18.055H18.4792H18.9028H19.3257H19.7479H20.1695H20.5904H21.0107H21.4302H21.8492H22.2675H22.6851H23.1021H23.5185H23.9342H24.3493H24.7638H25.1776H25.5908H26.0034H26.4153H26.8267H27.2374H27.6475H28.0571H28.466H28.8743H29.282H29.6891H30.0956H30.5016H30.9069H31.3117H31.7159H32.1195H32.5225H32.925H33.3269H33.7282H34.129H34.5292H34.9289H35.3279H35.7265H36.1245H36.522H36.9189H37.3152H37.7111H38.1064H38.5012H38.8954H39.2892H39.6824H40.0751H40.4672H40.8589H41.2501H41.6407H42.0309H42.4205H42.8097H43.1983H43.5865H43.9742H44.3614H44.7481H45.1343H45.5201H45.9054H46.2902H46.6745H47.0584H47.4418H47.8248H48.2073H48.5894H48.971H49.3522H49.7329H50.1132H50.493H50.8725H51.2514H51.63H52.0081H52.3858H52.7631H53.14H53.5165H53.8925H54.2682H54.6434H55.0183H55.3927H55.7668H56.1404H56.5137H56.8866H57.2591H57.6312H58.0029H58.3743H58.7453H59.1159H59.4862H59.8561H60.2256H60.5948H60.9637H61.3322H61.7003H62.0681H62.4355H62.8027H63.1694H63.5359H63.902H64.2678H64.6333H64.9984H65.3633H65.7278H66.092H66.4559H66.8195H67.1828H67.5458H67.9085H68.2709H68.633H68.9948H69.3564H69.7176H70.0786H70.4393H70.7998H71.1599H71.5198H71.8795H72.2388H72.598H72.9568H73.3154H73.6738H74.0319H74.3898H74.7474H75.1049H75.462H75.819H76.1757H76.5322H76.8884H77.2445H77.6003H77.9559H78.3113H78.6665H79.0215H79.3763H79.7309H80.0854H80.4396H80.7936H81.1474H81.5011H81.8546H82.2079H82.561H82.914H83.2668H83.6194H83.9719H84.3242H84.6763H85.0283H85.3802H85.7319H86.0835H86.4349H86.7862H87.1373H87.4883H87.8392H88.19H88.5406H88.8911H89.2415H89.5918H89.942H90.2921H90.6421H90.9919H91.3417H91.6914H92.0409H92.3904H92.7398H93.0891H93.4384H93.7875H94.1366H94.4856H94.8346H95.1835H95.5323H95.881H96.2297H96.5784H96.927H97.2755H97.624H97.9725H98.3209H98.6693H99.0176H99.366H99.7143H100.063H100.411H100.759H101.107H101.455H101.804H102.152H102.5H102.848H103.196H103.545H103.893H104.241H104.589H104.937H105.286H105.634H105.982H106.331H106.679H107.028H107.376H107.724H108.073H108.422H108.77H109.119H109.468H109.817H110.165H110.514H110.863H111.212H111.562H111.911H112.26H112.61H112.959H113.309H113.658H114.008H114.358H114.708H115.058H115.408H115.758H116.109H116.459H116.81H117.161H117.512H117.863H118.214H118.565H118.917H119.268H119.62H119.972H120.324H120.676H121.028H121.381H121.733H122.086H122.439H122.792H123.145H123.499H123.853H124.206H124.56H124.915H125.269H125.624H125.978H126.333H126.689H127.044H127.4H127.756H128.112H128.468H128.824H129.181H129.538H129.895H130.253H130.61H130.968H131.326H131.685H132.043H132.402H132.761H133.121H133.48H133.84H134.2H134.561H134.921H135.282H135.644H136.005H136.367H136.729H137.092H137.454H137.817H138.181H138.544H138.908H139.272H139.637H140.002H140.367H140.732H141.098H141.464H141.831H142.197H142.564H142.932H143.3H143.668H144.036H144.405H144.774H145.144H145.514H145.884H146.255H146.626H146.997H147.369H147.741H148.113H148.486H148.86H149.233H149.607H149.982H150.357H150.732H151.107H151.484H151.86H152.237H152.614H152.992H153.37H153.749H154.128H154.507H154.887H155.267H155.648H156.029H156.411H156.793H157.175H157.558H157.942H158.325H158.71H159.095H159.48H159.866H160.252H160.639H161.026H161.414H161.802H162.19H162.579H162.969H163.359H163.75H164.141H164.533H164.925H165.318H165.711H166.105H166.499H166.894H167.289H167.685H168.081H168.478H168.876H169.273H169.672H170.071H170.471H170.871H171.272H171.673H172.075H172.477H172.881H173.284H173.688H174.093H174.498H174.904H175.311H175.718H176.126H176.534H176.943H177.352H177.763H178.173H178.585H178.997H179.409H179.822H180.236H180.651H181.066H181.482H181.898H182.315H182.733H183.151H183.57H183.989H184.41H184.83H185.252H185.674H186.097H186.521H186.945H187.37H187.796H188.222H188.649H189.076H189.505H189.934H190.364H190.794H191.225H191.657H192.089H192.523H192.957H193.391H193.827H194.263H194.7H195.137H195.576H196.015H196.455H196.895H197.336H197.778H198.221H198.665H199.109H199.5V134.5H5.5V67.5Z" fill="white" stroke="black"/>
<rect x="40.5" y="122.5" width="199" height="68" fill="#FF7A00" fill-opacity="0.46" stroke="black"/>
<path d="M38.5 118.5H38.8909H39.3352H39.7787H40.2215H40.6636H41.1048H41.5454H41.9852H42.4243H42.8626H43.3002H43.737H44.1732H44.6086H45.0433H45.4773H45.9105H46.3431H46.7749H47.2061H47.6365H48.0662H48.4953H48.9236H49.3513H49.7782H50.2045H50.6301H51.055H51.4792H51.9028H52.3257H52.7479H53.1695H53.5904H54.0107H54.4302H54.8492H55.2675H55.6851H56.1021H56.5185H56.9342H57.3493H57.7638H58.1776H58.5908H59.0034H59.4153H59.8267H60.2374H60.6475H61.0571H61.466H61.8743H62.282H62.6891H63.0956H63.5016H63.9069H64.3117H64.7159H65.1195H65.5225H65.925H66.3269H66.7282H67.129H67.5292H67.9289H68.3279H68.7265H69.1245H69.522H69.9189H70.3152H70.7111H71.1064H71.5012H71.8954H72.2892H72.6824H73.0751H73.4672H73.8589H74.2501H74.6407H75.0309H75.4205H75.8097H76.1983H76.5865H76.9742H77.3614H77.7481H78.1343H78.5201H78.9054H79.2902H79.6745H80.0584H80.4418H80.8248H81.2073H81.5894H81.971H82.3522H82.7329H83.1132H83.493H83.8725H84.2514H84.63H85.0081H85.3858H85.7631H86.14H86.5165H86.8925H87.2682H87.6434H88.0183H88.3927H88.7668H89.1404H89.5137H89.8866H90.2591H90.6312H91.0029H91.3743H91.7453H92.1159H92.4862H92.8561H93.2256H93.5948H93.9637H94.3322H94.7003H95.0681H95.4355H95.8027H96.1694H96.5359H96.902H97.2678H97.6333H97.9984H98.3633H98.7278H99.092H99.4559H99.8195H100.183H100.546H100.908H101.271H101.633H101.995H102.356H102.718H103.079H103.439H103.8H104.16H104.52H104.879H105.239H105.598H105.957H106.315H106.674H107.032H107.39H107.747H108.105H108.462H108.819H109.176H109.532H109.888H110.244H110.6H110.956H111.311H111.667H112.022H112.376H112.731H113.085H113.44H113.794H114.147H114.501H114.855H115.208H115.561H115.914H116.267H116.619H116.972H117.324H117.676H118.028H118.38H118.732H119.083H119.435H119.786H120.137H120.488H120.839H121.19H121.541H121.891H122.242H122.592H122.942H123.292H123.642H123.992H124.342H124.691H125.041H125.39H125.74H126.089H126.438H126.788H127.137H127.486H127.835H128.183H128.532H128.881H129.23H129.578H129.927H130.276H130.624H130.972H131.321H131.669H132.018H132.366H132.714H133.063H133.411H133.759H134.107H134.455H134.804H135.152H135.5H135.848H136.196H136.545H136.893H137.241H137.589H137.937H138.286H138.634H138.982H139.331H139.679H140.028H140.376H140.724H141.073H141.422H141.77H142.119H142.468H142.817H143.165H143.514H143.863H144.212H144.562H144.911H145.26H145.61H145.959H146.309H146.658H147.008H147.358H147.708H148.058H148.408H148.758H149.109H149.459H149.81H150.161H150.512H150.863H151.214H151.565H151.917H152.268H152.62H152.972H153.324H153.676H154.028H154.381H154.733H155.086H155.439H155.792H156.145H156.499H156.853H157.206H157.56H157.915H158.269H158.624H158.978H159.333H159.689H160.044H160.4H160.756H161.112H161.468H161.824H162.181H162.538H162.895H163.253H163.61H163.968H164.326H164.685H165.043H165.402H165.761H166.121H166.48H166.84H167.2H167.561H167.921H168.282H168.644H169.005H169.367H169.729H170.092H170.454H170.817H171.181H171.544H171.908H172.272H172.637H173.002H173.367H173.732H174.098H174.464H174.831H175.197H175.564H175.932H176.3H176.668H177.036H177.405H177.774H178.144H178.514H178.884H179.255H179.626H179.997H180.369H180.741H181.113H181.486H181.86H182.233H182.607H182.982H183.357H183.732H184.107H184.484H184.86H185.237H185.614H185.992H186.37H186.749H187.128H187.507H187.887H188.267H188.648H189.029H189.411H189.793H190.175H190.558H190.942H191.325H191.71H192.095H192.48H192.866H193.252H193.639H194.026H194.414H194.802H195.19H195.579H195.969H196.359H196.75H197.141H197.533H197.925H198.318H198.711H199.105H199.499H199.894H200.289H200.685H201.081H201.478H201.876H202.273H202.672H203.071H203.471H203.871H204.272H204.673H205.075H205.477H205.881H206.284H206.688H207.093H207.498H207.904H208.311H208.718H209.126H209.534H209.943H210.352H210.763H211.173H211.585H211.997H212.409H212.822H213.236H213.651H214.066H214.482H214.898H215.315H215.733H216.151H216.57H216.989H217.41H217.83H218.252H218.674H219.097H219.521H219.945H220.37H220.796H221.222H221.649H222.076H222.505H222.934H223.364H223.794H224.225H224.657H225.089H225.523H225.957H226.391H226.827H227.263H227.7H228.137H228.576H229.015H229.455H229.895H230.336H230.778H231.221H231.665H232.109H232.5V185.5H38.5V118.5Z" fill="white" stroke="black"/>
</svg>
