<svg width="47" height="48" viewBox="0 0 47 48" fill="none" xmlns="http://www.w3.org/2000/svg">
<g filter="url(#filter0_d_76_271)">
<g clip-path="url(#clip0_76_271)">
<rect y="12.9307" width="36" height="36" rx="6" transform="rotate(-21.0502 0 12.9307)" fill="white"/>
<path d="M19.8134 17.3051L17.7551 11.9571L18.8324 11.5425L20.8907 16.8905L19.8134 17.3051ZM20.8194 19.919L20.3901 18.8035L21.4674 18.3889L21.8967 19.5044L20.8194 19.919Z" fill="#212B36"/>
<path d="M25.5468 36.3152L25.2374 35.5114L26.6041 34.7803L23.9253 27.82L22.4741 28.4078L22.1721 27.6231L24.664 25.9902L27.8609 34.2966L29.3587 33.9252L29.6681 34.7291L25.5468 36.3152Z" fill="#212B36"/>
</g>
<rect x="0.646226" y="13.2177" width="35" height="35" rx="5.5" transform="rotate(-21.0502 0.646226 13.2177)" stroke="#212B36"/>
</g>
<defs>
<filter id="filter0_d_76_271" x="-1" y="0" width="48.5283" height="49.5282" filterUnits="userSpaceOnUse" color-interpolation-filters="sRGB">
<feFlood flood-opacity="0" result="BackgroundImageFix"/>
<feColorMatrix in="SourceAlpha" type="matrix" values="0 0 0 0 0 0 0 0 0 0 0 0 0 0 0 0 0 0 127 0" result="hardAlpha"/>
<feMorphology radius="1" operator="dilate" in="SourceAlpha" result="effect1_dropShadow_76_271"/>
<feOffset dy="2"/>
<feColorMatrix type="matrix" values="0 0 0 0 0 0 0 0 0 0 0 0 0 0 0 0 0 0 1 0"/>
<feBlend mode="normal" in2="BackgroundImageFix" result="effect1_dropShadow_76_271"/>
<feBlend mode="normal" in="SourceGraphic" in2="effect1_dropShadow_76_271" result="shape"/>
</filter>
<clipPath id="clip0_76_271">
<rect y="12.9307" width="36" height="36" rx="6" transform="rotate(-21.0502 0 12.9307)" fill="white"/>
</clipPath>
</defs>
</svg>
