<svg width="51" height="52" viewBox="0 0 51 52" fill="none" xmlns="http://www.w3.org/2000/svg">
<g filter="url(#filter0_d_113_88)">
<rect width="36.2165" height="36.4358" rx="6" transform="matrix(0.834081 -0.551641 0.554942 0.831889 0.464844 20.3574)" fill="white"/>
<path d="M26.0892 23.9673C26.819 23.4846 27.5112 23.2945 28.1658 23.3971C28.8178 23.4958 29.3411 23.8409 29.7356 24.4323C30.1327 25.0275 30.2537 25.6523 30.0986 26.3067C29.9473 26.9587 29.5086 27.5247 28.7826 28.0049L25.2019 30.373L24.7239 29.6565L25.5471 28.8826L22.6147 24.4868L21.5791 24.9422L21.0973 24.22L24.0793 22.2478L24.5611 22.97L23.7379 23.7439L24.5611 24.9779L26.0892 23.9673ZM28.1984 27.1291C28.6051 26.8601 28.8327 26.5566 28.8811 26.2186C28.9308 25.8743 28.8482 25.541 28.6332 25.2188C28.4259 24.9079 28.1481 24.7009 27.8 24.5979C27.4518 24.4948 27.0763 24.5766 26.6734 24.843L25.1453 25.8537L26.6703 28.1397L28.1984 27.1291Z" fill="#212B36"/>
<rect x="0.694512" y="0.140124" width="35.2165" height="35.4358" rx="5.5" transform="matrix(0.834081 -0.551641 0.554942 0.831889 0.502316 20.7641)" stroke="#212B36"/>
</g>
<defs>
<filter id="filter0_d_113_88" x="-0.535156" y="0.378906" width="52.4272" height="53.2891" filterUnits="userSpaceOnUse" color-interpolation-filters="sRGB">
<feFlood flood-opacity="0" result="BackgroundImageFix"/>
<feColorMatrix in="SourceAlpha" type="matrix" values="0 0 0 0 0 0 0 0 0 0 0 0 0 0 0 0 0 0 127 0" result="hardAlpha"/>
<feMorphology radius="1" operator="dilate" in="SourceAlpha" result="effect1_dropShadow_113_88"/>
<feOffset dy="2"/>
<feColorMatrix type="matrix" values="0 0 0 0 0 0 0 0 0 0 0 0 0 0 0 0 0 0 1 0"/>
<feBlend mode="normal" in2="BackgroundImageFix" result="effect1_dropShadow_113_88"/>
<feBlend mode="normal" in="SourceGraphic" in2="effect1_dropShadow_113_88" result="shape"/>
</filter>
</defs>
</svg>
