<svg width="46" height="47" viewBox="0 0 46 47" fill="none" xmlns="http://www.w3.org/2000/svg">
<g filter="url(#filter0_d_76_275)">
<rect width="36.2165" height="36.4358" rx="6" transform="matrix(0.957556 0.288246 -0.284449 0.958691 10.3643 0)" fill="white"/>
<path d="M20.5189 23.0263L20.0688 22.0199L26.0834 18.3549L26.1193 18.33L25.433 18.0235L25.68 17.1912L28.7369 18.1114L28.4899 18.9437L27.5445 18.8375L20.5189 23.0263ZM17.4355 25.1036L17.6805 24.2778L18.8019 24.4155L21.0322 16.8986L20.0197 16.3939L20.2666 15.5616L23.6901 16.5922L23.4431 17.4245L22.3217 17.2868L20.0914 24.8037L21.1039 25.3084L20.8589 26.1341L17.4355 25.1036ZM23.0648 26.7982L23.3098 25.9724L24.1226 26.1171L24.118 26.1086L22.567 21.6511L23.5884 20.852L25.6626 26.5022L26.4911 26.93L26.2461 27.7558L23.0648 26.7982Z" fill="#212B36"/>
<rect x="0.336554" y="0.623469" width="35.2165" height="35.4358" rx="5.5" transform="matrix(0.957556 0.288246 -0.284449 0.958691 10.5559 -0.0712555)" stroke="#212B36"/>
</g>
<defs>
<filter id="filter0_d_76_275" x="-1" y="0" width="47.0437" height="48.3701" filterUnits="userSpaceOnUse" color-interpolation-filters="sRGB">
<feFlood flood-opacity="0" result="BackgroundImageFix"/>
<feColorMatrix in="SourceAlpha" type="matrix" values="0 0 0 0 0 0 0 0 0 0 0 0 0 0 0 0 0 0 127 0" result="hardAlpha"/>
<feMorphology radius="1" operator="dilate" in="SourceAlpha" result="effect1_dropShadow_76_275"/>
<feOffset dy="2"/>
<feColorMatrix type="matrix" values="0 0 0 0 0 0 0 0 0 0 0 0 0 0 0 0 0 0 1 0"/>
<feBlend mode="normal" in2="BackgroundImageFix" result="effect1_dropShadow_76_275"/>
<feBlend mode="normal" in="SourceGraphic" in2="effect1_dropShadow_76_275" result="shape"/>
</filter>
</defs>
</svg>
