<svg width="51" height="52" viewBox="0 0 51 52" fill="none" xmlns="http://www.w3.org/2000/svg">
<g filter="url(#filter0_d_113_92)">
<rect width="36.2165" height="36.4358" rx="6" transform="matrix(0.855171 0.518346 -0.514952 0.857219 19.2275 0.378906)" fill="white"/>
<path d="M23.9879 29.1495C23.2474 28.7007 22.7053 28.1163 22.3616 27.3964C22.0179 26.6765 21.8803 25.8923 21.9487 25.0438C22.0172 24.1953 22.3002 23.357 22.7977 22.5288L22.8716 22.4057C23.3738 21.5697 23.9775 20.9231 24.6828 20.466C25.3943 20.0073 26.1472 19.7629 26.9415 19.7327C27.7357 19.7026 28.509 19.9155 29.2612 20.3714C29.9081 20.7635 30.4008 21.2354 30.7393 21.7869C31.0802 22.3346 31.2795 22.8391 31.3373 23.3005L30.4256 24.8182L29.613 24.3256L30.1219 22.9874C30.0451 22.6904 29.9055 22.4006 29.7031 22.1181C29.5007 21.8355 29.2105 21.5797 28.8324 21.3505C28.2868 21.0198 27.7409 20.8621 27.1948 20.8775C26.6486 20.8928 26.1276 21.0566 25.6316 21.3688C25.1396 21.6835 24.6962 22.1208 24.3013 22.6808L24.3363 22.702L27.762 24.7785L27.2199 25.6809L23.7884 23.6009L23.7533 23.5797C23.427 24.2025 23.2345 24.8106 23.1758 25.4039C23.1171 25.9971 23.197 26.5412 23.4155 27.0359C23.6402 27.5292 24.0117 27.9329 24.53 28.2471C24.9159 28.4809 25.303 28.633 25.6914 28.7032C26.0798 28.7735 26.4126 28.7727 26.6897 28.7008L27.6311 27.6248L28.4437 28.1173L27.532 29.635C27.0964 29.8026 26.5579 29.8626 25.9167 29.815C25.2778 29.7635 24.6349 29.5416 23.9879 29.1495Z" fill="#212B36"/>
<rect x="0.170109" y="0.687782" width="35.2165" height="35.4358" rx="5.5" transform="matrix(0.855171 0.518346 -0.514952 0.857219 19.6064 0.388933)" stroke="#212B36"/>
</g>
<defs>
<filter id="filter0_d_113_92" x="-0.535156" y="0.378906" width="51.7341" height="53.0059" filterUnits="userSpaceOnUse" color-interpolation-filters="sRGB">
<feFlood flood-opacity="0" result="BackgroundImageFix"/>
<feColorMatrix in="SourceAlpha" type="matrix" values="0 0 0 0 0 0 0 0 0 0 0 0 0 0 0 0 0 0 127 0" result="hardAlpha"/>
<feMorphology radius="1" operator="dilate" in="SourceAlpha" result="effect1_dropShadow_113_92"/>
<feOffset dy="2"/>
<feColorMatrix type="matrix" values="0 0 0 0 0 0 0 0 0 0 0 0 0 0 0 0 0 0 1 0"/>
<feBlend mode="normal" in2="BackgroundImageFix" result="effect1_dropShadow_113_92"/>
<feBlend mode="normal" in="SourceGraphic" in2="effect1_dropShadow_113_92" result="shape"/>
</filter>
</defs>
</svg>
