<svg width="65" height="80" viewBox="0 0 65 80" fill="none" xmlns="http://www.w3.org/2000/svg">
<g filter="url(#filter0_d_98_36)">
<g clip-path="url(#clip0_98_36)">
<rect x="40.3992" y="28" width="36" height="36.1315" rx="6" transform="rotate(46.9401 40.3992 28)" fill="white"/>
<path d="M41.6073 53.4423C41.1837 52.6219 41.0425 51.8868 41.1838 51.237C41.3283 50.5906 41.6835 50.0029 42.2496 49.4739L43.2735 48.5171C43.6464 48.1686 43.8567 47.813 43.9045 47.4503C43.9556 47.0845 43.8162 46.7251 43.4864 46.3721L44.2206 45.686C44.5504 46.039 44.8962 46.2054 45.258 46.1855C45.6232 46.1624 45.9939 45.975 46.3701 45.6234L47.399 44.6619C47.9684 44.1299 48.5788 43.8152 49.2302 43.718C49.888 43.6209 50.6118 43.8115 51.4017 44.2897L51.0041 45.0355C50.5452 44.7782 50.0912 44.7128 49.642 44.8395C49.1992 44.9663 48.758 45.2351 48.3185 45.6459L47.2896 46.6073C46.94 46.934 46.5666 47.1519 46.1695 47.261C45.7725 47.3701 45.3668 47.3531 44.9525 47.2101C45.0638 47.6363 45.0499 48.0453 44.9109 48.4372C44.7752 48.826 44.5359 49.1806 44.1929 49.5011L43.169 50.4579C42.7295 50.8686 42.4331 51.289 42.2799 51.7191C42.1265 52.1556 42.161 52.6131 42.3834 53.0913L41.6073 53.4423Z" fill="#212B36"/>
<path d="M26.8018 63.4415L36.6712 54.2189L38.4634 56.1368L37.6892 56.8602L36.8165 55.9262L28.4954 63.702L29.3682 64.636L28.5941 65.3594L26.8018 63.4415Z" fill="#212B36"/>
</g>
<rect x="40.3752" y="28.7067" width="35" height="35.1315" rx="5.5" transform="rotate(46.9401 40.3752 28.7067)" stroke="#212B36"/>
</g>
<g filter="url(#filter1_d_98_36)">
<g clip-path="url(#clip1_98_36)">
<rect y="12.4714" width="36" height="34.5546" rx="6" transform="rotate(-20.2691 0 12.4714)" fill="white"/>
<path d="M19.9608 21.6107L19.4249 20.9487C19.8298 20.6243 20.0616 20.2326 20.1205 19.7736C20.1809 19.319 20.1069 18.8095 19.8985 18.2451L19.413 16.9306C19.2441 16.4731 19.1927 16.0379 19.2587 15.6248C19.3248 15.2118 19.5248 14.8391 19.8588 14.5069C19.3922 14.48 18.9996 14.3311 18.6809 14.0601C18.3622 13.7892 18.1168 13.4207 17.9447 12.9547L17.4569 11.6337C17.2485 11.0694 16.9728 10.632 16.6298 10.3214C16.2852 10.0066 15.8544 9.85962 15.3374 9.8805L15.3169 9.03549C16.2331 8.96434 16.9612 9.12054 17.5012 9.50409C18.0439 9.88178 18.4502 10.4362 18.7202 11.1672L19.208 12.4882C19.3864 12.9713 19.6336 13.3051 19.9495 13.4896C20.2638 13.6699 20.6497 13.6756 21.1072 13.5066L21.4553 14.4493C20.9979 14.6182 20.7099 14.8776 20.5913 15.2274C20.4711 15.573 20.4995 15.9852 20.6763 16.464L21.1618 17.7786C21.4302 18.5054 21.4817 19.1908 21.3163 19.8348C21.1552 20.4773 20.7034 21.0692 19.9608 21.6107Z" fill="#212B36"/>
<path d="M26.2723 38.0892L25.9053 37.0952L27.1108 36.65L23.1655 25.9666L21.9599 26.4118L21.5928 25.4178L24.0617 24.5061L28.7412 37.1774L26.2723 38.0892Z" fill="#212B36"/>
</g>
<rect x="0.642253" y="12.7673" width="35" height="33.5546" rx="5.5" transform="rotate(-20.2691 0.642253 12.7673)" stroke="#212B36"/>
</g>
<defs>
<filter id="filter0_d_98_36" x="13" y="28" width="52.9785" height="53.9723" filterUnits="userSpaceOnUse" color-interpolation-filters="sRGB">
<feFlood flood-opacity="0" result="BackgroundImageFix"/>
<feColorMatrix in="SourceAlpha" type="matrix" values="0 0 0 0 0 0 0 0 0 0 0 0 0 0 0 0 0 0 127 0" result="hardAlpha"/>
<feMorphology radius="1" operator="dilate" in="SourceAlpha" result="effect1_dropShadow_98_36"/>
<feOffset dy="2"/>
<feColorMatrix type="matrix" values="0 0 0 0 0 0 0 0 0 0 0 0 0 0 0 0 0 0 1 0"/>
<feBlend mode="normal" in2="BackgroundImageFix" result="effect1_dropShadow_98_36"/>
<feBlend mode="normal" in="SourceGraphic" in2="effect1_dropShadow_98_36" result="shape"/>
</filter>
<filter id="filter1_d_98_36" x="-1" y="0" width="47.7415" height="47.8862" filterUnits="userSpaceOnUse" color-interpolation-filters="sRGB">
<feFlood flood-opacity="0" result="BackgroundImageFix"/>
<feColorMatrix in="SourceAlpha" type="matrix" values="0 0 0 0 0 0 0 0 0 0 0 0 0 0 0 0 0 0 127 0" result="hardAlpha"/>
<feMorphology radius="1" operator="dilate" in="SourceAlpha" result="effect1_dropShadow_98_36"/>
<feOffset dy="2"/>
<feColorMatrix type="matrix" values="0 0 0 0 0 0 0 0 0 0 0 0 0 0 0 0 0 0 1 0"/>
<feBlend mode="normal" in2="BackgroundImageFix" result="effect1_dropShadow_98_36"/>
<feBlend mode="normal" in="SourceGraphic" in2="effect1_dropShadow_98_36" result="shape"/>
</filter>
<clipPath id="clip0_98_36">
<rect x="40.3992" y="28" width="36" height="36.1315" rx="6" transform="rotate(46.9401 40.3992 28)" fill="white"/>
</clipPath>
<clipPath id="clip1_98_36">
<rect y="12.4714" width="36" height="34.5546" rx="6" transform="rotate(-20.2691 0 12.4714)" fill="white"/>
</clipPath>
</defs>
</svg>
