<svg width="389" height="615" viewBox="0 0 389 615" fill="none" xmlns="http://www.w3.org/2000/svg">
<path d="M38 365L38 614" stroke="black" stroke-opacity="0.6" stroke-linecap="round"/>
<path d="M348 325L348 565" stroke="black" stroke-opacity="0.6" stroke-linecap="round"/>
<path d="M8 538L382 538" stroke="black" stroke-opacity="0.6" stroke-linecap="round"/>
<path d="M0 398L363 398" stroke="black" stroke-opacity="0.6" stroke-linecap="round"/>
<path d="M305 394H357" stroke="black" stroke-opacity="0.6" stroke-linecap="round"/>
<path d="M35 490V594" stroke="black" stroke-opacity="0.6" stroke-linecap="round"/>
<path d="M34.0335 1.52154C34.0782 2.24209 34.1195 3.1535 34.1347 4.03985C34.1347 4.03986 34.1347 4.03986 34.1347 4.03987C34.2361 6.27061 34.11 8.0262 34.4358 10.2351C34.5579 11.0626 34.8744 12.1229 35.1504 12.7882C35.4731 13.5661 35.7543 14.3761 36.1254 15.0596C36.3876 15.5424 36.663 15.9837 36.9251 16.4663C37.226 17.0204 37.5496 17.6622 37.8811 18.1206C38.5047 18.9827 39.2508 19.3833 39.9437 19.7518C40.72 20.1646 41.9257 20.581 42.7094 20.5509C43.471 20.5216 44.2217 20.3822 42.9785 20.7584C42.8311 20.7675 42.6967 20.8261 42.5526 20.8637C41.9256 21.0271 41.2733 21.2298 40.666 21.5369C40.3016 21.7211 39.9658 22.0273 39.6186 22.2949C39.3302 22.5172 39.0274 22.7219 38.7612 23.037C38.2336 23.6616 37.7994 24.7416 37.4739 25.8057C37.1927 26.7248 36.9014 27.6302 36.6212 28.5475C36.4414 29.1358 36.2912 29.7927 36.2009 30.4823C36.1072 31.1968 35.9875 31.8558 35.9127 32.5873C35.8336 33.3613 35.7651 34.1451 35.677 34.9132C35.5224 36.2599 35.3745 37.7694 35.4579 39.2172C35.5193 40.2824 35.6651 41.4138 35.536 42.4322C35.4497 43.1135 35.3415 43.7839 35.2663 44.4744C35.266 44.5268 35.2657 44.5792 35.2654 44.6316C35.2638 44.9175 35.2145 45.2355 35.2237 45.5139C35.2256 45.571 35.2014 45.2074 35.2072 45.1249C35.2226 44.9055 35.2429 44.689 35.2663 44.4744C35.2761 42.7447 35.2922 41.0247 35.1838 39.2799C35.075 37.5274 34.8976 35.791 34.7887 34.0389C34.7231 32.9821 34.691 31.9023 34.4997 30.8784C34.3067 29.8457 34.0476 28.7807 33.7051 27.9071C33.0529 26.2434 32.0783 25.1729 31.2012 24.2096L31.189 24.1962C30.4724 23.4091 29.739 22.2974 28.961 21.8906C28.2884 21.539 27.6873 21.4096 27.0111 21.4516L25.2227 21.5627C25.0878 21.5711 25.8183 21.4326 26.2537 21.3551C28.7732 20.7258 29.4667 20.3573 30.1283 19.7599C30.652 19.2871 31.1228 18.7799 31.5489 17.987C32.0899 16.9805 32.546 15.8241 32.9258 14.5156C33.6645 11.971 33.9209 9.07971 34.1067 6.05639C34.1421 5.48132 34.1472 4.76906 34.1347 4.03985C34.1234 3.79073 33.961 1.60977 34.0335 1.52154Z" fill="#FF7A00" fill-opacity="0.46"/>
<path d="M42.9785 20.7584C42.8311 20.7675 42.6967 20.8261 42.5526 20.8637C41.9256 21.0271 41.2733 21.2298 40.666 21.5369C40.3016 21.7211 39.9658 22.0273 39.6186 22.2949C39.3302 22.5172 39.0274 22.7219 38.7612 23.037C38.2336 23.6616 37.7994 24.7416 37.4739 25.8057C37.1927 26.7248 36.9014 27.6302 36.6212 28.5475C36.4414 29.1358 36.2912 29.7927 36.2009 30.4823C36.1072 31.1968 35.9875 31.8558 35.9127 32.5873C35.8336 33.3613 35.7651 34.1451 35.677 34.9132C35.5224 36.2599 35.3745 37.7695 35.4579 39.2172C35.5193 40.2824 35.6651 41.4138 35.536 42.4322C35.4229 43.3252 35.2722 44.1996 35.2072 45.1249C35.2014 45.2074 35.2256 45.571 35.2237 45.5139C35.2145 45.2355 35.2638 44.9175 35.2654 44.6316C35.275 42.8489 35.2955 41.0775 35.1838 39.2799C35.075 37.5274 34.8976 35.791 34.7887 34.0389C34.7231 32.9821 34.691 31.9023 34.4997 30.8784C34.3067 29.8457 34.0476 28.7807 33.7051 27.9071C33.0498 26.2357 32.0692 25.163 31.189 24.1962C30.4724 23.4091 29.739 22.2974 28.961 21.8906C28.2884 21.539 27.6873 21.4096 27.0111 21.4516C26.415 21.4887 25.8188 21.5257 25.2227 21.5627C24.9711 21.5784 27.7283 21.0834 25.9709 21.425C28.7226 20.7524 29.4426 20.3791 30.1283 19.7599C30.652 19.2871 31.1228 18.7799 31.5489 17.987C32.0899 16.9805 32.546 15.8241 32.9258 14.5156C33.6645 11.971 33.9209 9.07971 34.1067 6.05639C34.185 4.78234 34.115 2.8349 34.0335 1.52154C33.961 1.60977 34.1234 3.79084 34.1347 4.03987C34.2361 6.27061 34.11 8.0262 34.4358 10.2351C34.5579 11.0626 34.8744 12.1229 35.1504 12.7882C35.4731 13.5661 35.7543 14.3761 36.1254 15.0596C36.3876 15.5424 36.663 15.9837 36.9251 16.4663C37.226 17.0204 37.5496 17.6622 37.8811 18.1206C38.5047 18.9827 39.2508 19.3833 39.9437 19.7518C40.72 20.1646 41.9257 20.581 42.7094 20.5509C43.471 20.5216 44.2217 20.3822 42.9785 20.7584ZM42.9785 20.7584C43.0503 20.7539 43.0384 20.7546 42.9785 20.7584Z" stroke="black" stroke-opacity="0.6" stroke-linecap="round"/>
<g filter="url(#filter0_d_249_107)">
<rect x="189.889" y="341" width="36.5559" height="36.5559" rx="2.43706" transform="rotate(31.1123 189.889 341)" fill="white"/>
<path d="M189.57 367.747L190.035 366.977L190.886 367.307L195.824 365.358L195.364 360.344L194.669 359.741L195.137 358.965L198.023 360.706L197.554 361.482L196.669 361.056L196.98 364.989L200.507 363.373L199.7 362.777L200.168 362.001L203.072 363.753L202.603 364.53L201.709 364.173L197.199 366.188L197.696 371.417L198.403 372.027L197.939 372.797L195.017 371.034L195.482 370.264L196.391 370.704L196.027 366.54L192.18 368.162L192.945 368.733L192.48 369.503L189.57 367.747Z" fill="#212B36"/>
<rect x="189.958" y="341.279" width="36.1497" height="36.1497" rx="2.23397" transform="rotate(31.1123 189.958 341.279)" stroke="#212B36" stroke-width="0.406177"/>
</g>
<g filter="url(#filter1_d_249_107)">
<rect x="147" y="331.027" width="36.5559" height="36.5559" rx="2.43706" transform="rotate(-22.5635 147 331.027)" fill="white"/>
<path d="M166.963 347.708L166.617 346.877L167.615 346.246L164.473 338.683L163.322 338.945L162.974 338.108L164.048 337.662L165.783 336.941L171.902 342.942L171.942 342.925L171.908 334.396L174.802 333.193L175.15 334.031L174.152 334.662L177.294 342.224L178.446 341.962L178.791 342.793L175.343 344.226L174.998 343.395L176.055 342.739L174.899 339.957L173.225 335.928L173.189 335.936L173.183 344.721L172.319 345.08L165.988 338.943L165.958 338.963L167.673 342.96L168.829 345.742L170.066 345.444L170.411 346.275L166.963 347.708Z" fill="#212B36"/>
<rect x="147.265" y="331.136" width="36.1497" height="36.1497" rx="2.23397" transform="rotate(-22.5635 147.265 331.136)" stroke="#212B36" stroke-width="0.406177"/>
</g>
<path d="M169.172 54.4166H388.239" stroke="black" stroke-opacity="0.6" stroke-linecap="round"/>
<path d="M304.829 48.0005H383.656" stroke="black" stroke-opacity="0.6" stroke-linecap="round"/>
<path d="M352.492 24.1689V199.239" stroke="black" stroke-opacity="0.6" stroke-linecap="round"/>
<defs>
<filter id="filter0_d_249_107" x="170.188" y="341" width="51.8112" height="52.6237" filterUnits="userSpaceOnUse" color-interpolation-filters="sRGB">
<feFlood flood-opacity="0" result="BackgroundImageFix"/>
<feColorMatrix in="SourceAlpha" type="matrix" values="0 0 0 0 0 0 0 0 0 0 0 0 0 0 0 0 0 0 127 0" result="hardAlpha"/>
<feMorphology radius="0.812353" operator="dilate" in="SourceAlpha" result="effect1_dropShadow_249_107"/>
<feOffset dy="1.62471"/>
<feColorMatrix type="matrix" values="0 0 0 0 0 0 0 0 0 0 0 0 0 0 0 0 0 0 1 0"/>
<feBlend mode="normal" in2="BackgroundImageFix" result="effect1_dropShadow_249_107"/>
<feBlend mode="normal" in="SourceGraphic" in2="effect1_dropShadow_249_107" result="shape"/>
</filter>
<filter id="filter1_d_249_107" x="146.188" y="317" width="49.4094" height="50.2215" filterUnits="userSpaceOnUse" color-interpolation-filters="sRGB">
<feFlood flood-opacity="0" result="BackgroundImageFix"/>
<feColorMatrix in="SourceAlpha" type="matrix" values="0 0 0 0 0 0 0 0 0 0 0 0 0 0 0 0 0 0 127 0" result="hardAlpha"/>
<feMorphology radius="0.812353" operator="dilate" in="SourceAlpha" result="effect1_dropShadow_249_107"/>
<feOffset dy="1.62471"/>
<feColorMatrix type="matrix" values="0 0 0 0 0 0 0 0 0 0 0 0 0 0 0 0 0 0 1 0"/>
<feBlend mode="normal" in2="BackgroundImageFix" result="effect1_dropShadow_249_107"/>
<feBlend mode="normal" in="SourceGraphic" in2="effect1_dropShadow_249_107" result="shape"/>
</filter>
</defs>
</svg>
