<svg width="69" height="80" viewBox="0 0 69 80" fill="none" xmlns="http://www.w3.org/2000/svg">
<path d="M29.0971 13.5821C25.2156 13.5821 22.7429 14.1373 21.911 9.56184C21.1019 5.11205 25.2961 1.93799 29.2981 1.11939C40.104 -1.09089 38.6021 13.5552 37.5898 20.4164C35.1371 37.0404 25.1997 55.6073 13.7198 67.8047C11.0482 70.6433 1.96069 80.4202 1.96069 71.2721C1.96069 65.9371 2.65119 59.9303 9.29758 60.6688C17.2569 61.5532 27.0203 66.6825 33.8209 70.5686C40.2399 74.2366 50.5147 79.5242 51.7108 68.7595" stroke="black" stroke-opacity="0.6" stroke-linecap="round"/>
<path d="M24.5744 15.3914C18.9905 15.3914 19.1471 11.1512 19.1471 6.34596C19.1471 0.720778 33.2169 2.19036 35.7808 5.89369C37.737 8.71938 36.5211 16.8057 36.1325 19.9142C35.4383 25.4683 34.1578 32.2394 32.2631 37.5026C28.2996 48.5124 20.7873 59.5494 9.39812 64.036C7.32814 64.8515 5.5085 65.1416 3.31755 65.1416C0.80218 65.1416 0.764952 63.3108 3.06629 62.6289C8.67663 60.9666 21.2604 61.2232 26.3835 63.7848C29.6446 65.4153 31.7122 65.847 34.3234 68.5588C36.5735 70.8953 37.3359 74.3429 39.9517 76.3982C42.3958 78.3185 48.9029 80.7076 50.8063 76.9007" stroke="black" stroke-opacity="0.6" stroke-linecap="round"/>
<path d="M65.2791 71.4726C61.6454 71.0184 59.6966 71.0535 58.9975 76.2969C58.4234 80.6025 65.4075 75.6568 66.1836 74.1863C74.7812 57.8961 52.7747 77.8045 60.3041 77.8045C62.0652 77.8045 68.6258 74.35 65.2791 72.5782C62.1735 70.9341 60.7563 73.9032 60.7563 76.4476C60.7563 79.2373 67.0882 78.0168 67.0882 75.0908C67.0882 72.1404 62.2179 75.2289 61.6609 76.8999" stroke="black" stroke-opacity="0.6" stroke-linecap="round"/>
</svg>
