<svg width="377" height="156" viewBox="0 0 377 156" fill="none" xmlns="http://www.w3.org/2000/svg">
<rect x="45.5" y="67.5" width="331" height="88" fill="#FF7A00" fill-opacity="0.46" stroke="black"/>
<path d="M42.5 62.5H42.7385H43.4757H44.2116H44.9463H45.6797H46.4119H47.1429H47.8726H48.6011H49.3284H50.0544H50.7793H51.5029H52.2253H52.9466H53.6666H54.3854H55.1031H55.8196H56.5349H57.249H57.962H58.6738H59.3845H60.094H60.8023H61.5096H62.2156H62.9206H63.6244H64.3272H65.0288H65.7292H66.4286H67.1269H67.8241H68.5202H69.2152H69.9092H70.602H71.2938H71.9845H72.6742H73.3628H74.0504H74.7369H75.4224H76.1068H76.7902H77.4726H78.1539H78.8343H79.5136H80.192H80.8693H81.5456H82.221H82.8953H83.5687H84.2411H84.9125H85.583H86.2525H86.921H87.5886H88.2552H88.921H89.5857H90.2496H90.9125H91.5745H92.2355H92.8957H93.5549H94.2133H94.8707H95.5273H96.183H96.8378H97.4917H98.1447H98.7969H99.4482H100.099H100.748H101.397H102.045H102.692H103.338H103.984H104.628H105.272H105.915H106.557H107.199H107.839H108.479H109.118H109.756H110.393H111.03H111.666H112.301H112.935H113.569H114.202H114.834H115.465H116.096H116.726H117.355H117.984H118.611H119.238H119.865H120.49H121.115H121.74H122.363H122.986H123.608H124.23H124.851H125.471H126.091H126.71H127.328H127.945H128.562H129.179H129.795H130.41H131.024H131.638H132.251H132.864H133.476H134.088H134.699H135.309H135.919H136.528H137.137H137.745H138.352H138.959H139.566H140.172H140.777H141.382H141.986H142.59H143.193H143.796H144.398H145H145.601H146.202H146.803H147.402H148.002H148.601H149.199H149.797H150.394H150.991H151.588H152.184H152.78H153.375H153.97H154.564H155.158H155.752H156.345H156.938H157.53H158.122H158.714H159.305H159.896H160.487H161.077H161.666H162.256H162.845H163.434H164.022H164.61H165.198H165.785H166.372H166.959H167.545H168.131H168.717H169.303H169.888H170.473H171.058H171.642H172.226H172.81H173.393H173.977H174.56H175.143H175.725H176.307H176.89H177.471H178.053H178.635H179.216H179.797H180.378H180.958H181.539H182.119H182.699H183.279H183.858H184.438H185.017H185.596H186.176H186.754H187.333H187.912H188.49H189.069H189.647H190.225H190.803H191.381H191.959H192.536H193.114H193.691H194.269H194.846H195.423H196.001H196.578H197.155H197.732H198.309H198.886H199.463H200.039H200.616H201.193H201.77H202.347H202.923H203.5H204.077H204.653H205.23H205.807H206.384H206.961H207.537H208.114H208.691H209.268H209.845H210.422H210.999H211.577H212.154H212.731H213.309H213.886H214.464H215.041H215.619H216.197H216.775H217.353H217.931H218.51H219.088H219.667H220.246H220.825H221.404H221.983H222.562H223.142H223.721H224.301H224.881H225.461H226.042H226.622H227.203H227.784H228.365H228.947H229.529H230.11H230.693H231.275H231.857H232.44H233.023H233.607H234.19H234.774H235.358H235.942H236.527H237.112H237.697H238.283H238.869H239.455H240.041H240.628H241.215H241.802H242.39H242.978H243.566H244.155H244.744H245.334H245.923H246.513H247.104H247.695H248.286H248.878H249.47H250.062H250.655H251.248H251.842H252.436H253.03H253.625H254.22H254.816H255.412H256.009H256.606H257.203H257.801H258.399H258.998H259.598H260.197H260.798H261.399H262H262.602H263.204H263.807H264.41H265.014H265.618H266.223H266.828H267.434H268.041H268.648H269.255H269.863H270.472H271.081H271.691H272.301H272.912H273.524H274.136H274.749H275.362H275.976H276.59H277.205H277.821H278.438H279.055H279.672H280.29H280.909H281.529H282.149H282.77H283.392H284.014H284.637H285.26H285.885H286.51H287.135H287.762H288.389H289.016H289.645H290.274H290.904H291.535H292.166H292.798H293.431H294.065H294.699H295.334H295.97H296.607H297.244H297.882H298.521H299.161H299.801H300.443H301.085H301.728H302.372H303.016H303.662H304.308H304.955H305.603H306.252H306.901H307.552H308.203H308.855H309.508H310.162H310.817H311.473H312.129H312.787H313.445H314.104H314.764H315.426H316.088H316.75H317.414H318.079H318.745H319.411H320.079H320.748H321.417H322.087H322.759H323.431H324.105H324.779H325.454H326.131H326.808H327.486H328.166H328.846H329.527H330.21H330.893H331.578H332.263H332.95H333.637H334.326H335.015H335.706H336.398H337.091H337.785H338.48H339.176H339.873H340.571H341.271H341.971H342.673H343.376H344.079H344.784H345.49H346.198H346.906H347.616H348.326H349.038H349.751H350.465H351.18H351.897H352.615H353.333H354.053H354.775H355.497H356.221H356.946H357.672H358.399H359.127H359.857H360.588H361.32H362.054H362.788H363.524H364.262H364.5V149.5H42.5V62.5Z" fill="white" stroke="black"/>
<path d="M10.7551 1.22705V92.3318" stroke="black" stroke-opacity="0.6" stroke-linecap="round"/>
<path d="M0.755859 24.5588H125.192" stroke="black" stroke-opacity="0.6" stroke-linecap="round"/>
</svg>
