<svg width="398" height="772" viewBox="0 0 398 772" fill="none" xmlns="http://www.w3.org/2000/svg">
<path d="M8 633H263" stroke="black" stroke-opacity="0.6" stroke-linecap="round"/>
<path d="M8.07617 637.562H123.497" stroke="black" stroke-opacity="0.6" stroke-linecap="round"/>
<path d="M22.355 0.963379V40.8251" stroke="black" stroke-opacity="0.6" stroke-linecap="round"/>
<path d="M23.9529 8.68359V30.2855" stroke="black" stroke-opacity="0.6" stroke-linecap="round"/>
<path d="M1 16H296" stroke="black" stroke-opacity="0.6" stroke-linecap="round"/>
<path d="M106.838 332.946H177.638" stroke="black" stroke-opacity="0.6" stroke-linecap="round"/>
<path d="M5 328H296" stroke="black" stroke-opacity="0.6" stroke-linecap="round"/>
<path d="M137 175L397 175" stroke="black" stroke-opacity="0.6" stroke-linecap="round"/>
<path d="M337.085 178.854H397.175" stroke="black" stroke-opacity="0.6" stroke-linecap="round"/>
<path d="M130 464L396 464" stroke="black" stroke-opacity="0.6" stroke-linecap="round"/>
<path d="M369.212 437.063V472.76" stroke="black" stroke-opacity="0.6" stroke-linecap="round"/>
<path d="M351.856 465.978H391.439" stroke="black" stroke-opacity="0.6" stroke-linecap="round"/>
<path d="M238.327 737.396C238.299 737.948 238.276 738.647 238.272 739.326C238.214 741.036 238.326 742.38 238.096 744.075C238.01 744.71 237.777 745.525 237.571 746.038C237.331 746.636 237.122 747.259 236.844 747.786C236.648 748.159 236.44 748.499 236.244 748.871C236.018 749.298 235.776 749.793 235.526 750.147C235.056 750.813 234.488 751.127 233.96 751.415C233.369 751.738 232.449 752.068 231.849 752.052C231.265 752.036 230.688 751.936 231.644 752.213C231.757 752.219 231.861 752.262 231.971 752.29C232.453 752.41 232.955 752.559 233.423 752.789C233.704 752.927 233.964 753.158 234.232 753.36C234.455 753.528 234.689 753.682 234.895 753.921C235.305 754.395 235.647 755.219 235.906 756.031C236.13 756.733 236.361 757.424 236.584 758.124C236.727 758.573 236.848 759.075 236.923 759.603C237.001 760.149 237.098 760.653 237.162 761.213C237.23 761.805 237.289 762.405 237.363 762.993C237.494 764.023 237.62 765.178 237.569 766.288C237.532 767.105 237.43 767.973 237.538 768.752C237.61 769.273 237.699 769.786 237.763 770.314C237.763 770.354 237.764 770.395 237.765 770.435C237.769 770.654 237.809 770.897 237.805 771.11C237.804 771.154 237.819 770.875 237.814 770.812C237.8 770.644 237.783 770.479 237.763 770.314C237.74 768.989 237.712 767.672 237.78 766.334C237.848 764.99 237.968 763.658 238.036 762.315C238.077 761.505 238.092 760.677 238.23 759.891C238.368 759.098 238.557 758.28 238.812 757.608C239.297 756.327 240.034 755.499 240.698 754.753L240.707 754.742C241.249 754.133 241.801 753.275 242.394 752.956C242.906 752.681 243.365 752.577 243.884 752.603L245.255 752.672C245.358 752.677 244.797 752.578 244.463 752.522C242.527 752.062 241.993 751.786 241.48 751.334C241.075 750.977 240.71 750.592 240.376 749.989C239.953 749.222 239.593 748.34 239.291 747.341C238.702 745.398 238.48 743.185 238.311 740.871C238.279 740.431 238.269 739.885 238.272 739.326C238.278 739.135 238.383 737.463 238.327 737.396Z" fill="#FF7A00" fill-opacity="0.46"/>
<path d="M231.644 752.213C231.757 752.219 231.861 752.262 231.971 752.29C232.453 752.41 232.955 752.559 233.423 752.789C233.704 752.927 233.964 753.158 234.232 753.36C234.455 753.528 234.689 753.682 234.895 753.921C235.305 754.395 235.647 755.219 235.906 756.031C236.13 756.733 236.361 757.424 236.584 758.124C236.727 758.573 236.848 759.075 236.923 759.603C237.001 760.149 237.098 760.653 237.162 761.213C237.23 761.805 237.289 762.405 237.363 762.993C237.494 764.023 237.62 765.178 237.569 766.288C237.532 767.105 237.43 767.973 237.538 768.752C237.633 769.435 237.756 770.104 237.814 770.812C237.819 770.875 237.804 771.154 237.805 771.11C237.809 770.897 237.769 770.654 237.765 770.435C237.742 769.069 237.71 767.712 237.78 766.334C237.848 764.99 237.968 763.658 238.036 762.315C238.077 761.505 238.092 760.677 238.23 759.891C238.368 759.098 238.557 758.28 238.812 757.608C239.299 756.321 240.041 755.491 240.707 754.742C241.249 754.133 241.801 753.275 242.394 752.956C242.906 752.681 243.365 752.577 243.884 752.603C244.341 752.626 244.798 752.649 245.255 752.672C245.448 752.682 243.331 752.327 244.68 752.573C242.566 752.082 242.011 751.803 241.48 751.334C241.075 750.977 240.71 750.592 240.376 749.989C239.953 749.222 239.593 748.34 239.291 747.341C238.702 745.398 238.48 743.185 238.311 740.871C238.24 739.895 238.276 738.403 238.327 737.396C238.383 737.463 238.278 739.135 238.272 739.326C238.214 741.036 238.326 742.38 238.096 744.075C238.01 744.71 237.777 745.525 237.571 746.038C237.331 746.636 237.122 747.259 236.844 747.786C236.648 748.159 236.44 748.499 236.244 748.871C236.018 749.298 235.776 749.793 235.526 750.147C235.056 750.813 234.488 751.127 233.96 751.415C233.369 751.738 232.449 752.068 231.849 752.052C231.265 752.036 230.688 751.936 231.644 752.213ZM231.644 752.213C231.589 752.21 231.598 752.211 231.644 752.213Z" stroke="black" stroke-opacity="0.6" stroke-linecap="round"/>
</svg>
