<svg width="447" height="130" viewBox="0 0 447 130" fill="none" xmlns="http://www.w3.org/2000/svg">
<rect x="4.50293" y="7.41479" width="441.997" height="122.085" fill="#FF7A00" fill-opacity="0.46" stroke="black"/>
<path d="M0.5 0.5H0.985354H1.96902H2.95101H3.93133H4.90998H5.88697H6.86231H7.836H8.80805H9.77847H10.7473H11.7144H12.68H13.6439H14.6063H15.5671H16.5262H17.4838H18.4398H19.3943H20.3472H21.2985H22.2483H23.1966H24.1433H25.0885H26.0322H26.9743H27.915H28.8541H29.7918H30.7279H31.6626H32.5958H33.5276H34.4578H35.3867H36.3141H37.24H38.1645H39.0876H40.0092H40.9295H41.8483H42.7657H43.6818H44.5964H45.5097H46.4216H47.3321H48.2412H49.149H50.0555H50.9606H51.8644H52.7668H53.668H54.5678H55.4663H56.3635H57.2594H58.154H59.0473H59.9394H60.8302H61.7197H62.608H63.495H64.3807H65.2653H66.1486H67.0307H67.9116H68.7912H69.6697H70.5469H71.423H72.2979H73.1716H74.0441H74.9155H75.7857H76.6548H77.5227H78.3895H79.2552H80.1197H80.9831H81.8454H82.7066H83.5667H84.4257H85.2837H86.1405H86.9963H87.851H88.7047H89.5573H90.4088H91.2594H92.1088H92.9573H93.8048H94.6512H95.4966H96.3411H97.1845H98.027H98.8684H99.709H100.548H101.387H102.225H103.061H103.897H104.732H105.566H106.399H107.231H108.062H108.892H109.722H110.55H111.378H112.204H113.03H113.855H114.679H115.503H116.325H117.147H117.968H118.788H119.607H120.425H121.243H122.059H122.875H123.691H124.505H125.319H126.132H126.944H127.755H128.566H129.376H130.185H130.993H131.801H132.608H133.415H134.22H135.025H135.829H136.633H137.436H138.238H139.04H139.841H140.641H141.441H142.24H143.039H143.836H144.634H145.43H146.226H147.022H147.817H148.611H149.405H150.198H150.99H151.783H152.574H153.365H154.155H154.945H155.735H156.524H157.312H158.1H158.887H159.674H160.461H161.247H162.032H162.817H163.602H164.386H165.17H165.953H166.736H167.519H168.301H169.082H169.864H170.645H171.425H172.205H172.985H173.764H174.543H175.322H176.1H176.878H177.656H178.433H179.21H179.987H180.763H181.539H182.315H183.091H183.866H184.641H185.416H186.19H186.964H187.738H188.512H189.286H190.059H190.832H191.605H192.377H193.15H193.922H194.694H195.466H196.238H197.009H197.781H198.552H199.323H200.094H200.865H201.635H202.406H203.177H203.947H204.717H205.487H206.257H207.027H207.797H208.567H209.337H210.107H210.876H211.646H212.416H213.185H213.955H214.724H215.494H216.264H217.033H217.803H218.572H219.342H220.112H220.881H221.651H222.421H223.191H223.961H224.731H225.501H226.271H227.041H227.812H228.582H229.353H230.123H230.894H231.665H232.436H233.207H233.979H234.75H235.522H236.294H237.066H237.838H238.611H239.383H240.156H240.929H241.702H242.476H243.25H244.024H244.798H245.572H246.347H247.122H247.897H248.673H249.449H250.225H251.001H251.778H252.555H253.332H254.11H254.888H255.666H256.445H257.224H258.003H258.783H259.563H260.344H261.124H261.906H262.687H263.469H264.252H265.035H265.818H266.602H267.386H268.171H268.956H269.741H270.527H271.314H272.101H272.888H273.676H274.464H275.253H276.043H276.833H277.623H278.414H279.206H279.998H280.79H281.583H282.377H283.171H283.966H284.762H285.558H286.354H287.152H287.949H288.748H289.547H290.347H291.147H291.948H292.75H293.552H294.355H295.159H295.963H296.768H297.573H298.38H299.187H299.995H300.803H301.612H302.422H303.233H304.044H304.856H305.669H306.483H307.297H308.113H308.929H309.745H310.563H311.381H312.2H313.02H313.841H314.663H315.485H316.309H317.133H317.958H318.784H319.61H320.438H321.266H322.096H322.926H323.757H324.589H325.422H326.256H327.091H327.927H328.763H329.601H330.44H331.279H332.12H332.961H333.804H334.647H335.491H336.337H337.183H338.031H338.879H339.729H340.579H341.431H342.283H343.137H343.992H344.848H345.704H346.562H347.421H348.281H349.143H350.005H350.868H351.733H352.599H353.465H354.333H355.202H356.073H356.944H357.816H358.69H359.565H360.441H361.318H362.197H363.076H363.957H364.839H365.723H366.607H367.493H368.38H369.268H370.158H371.049H371.941H372.834H373.729H374.625H375.522H376.42H377.32H378.221H379.124H380.027H380.933H381.839H382.747H383.656H384.566H385.478H386.392H387.306H388.222H389.14H390.059H390.979H391.9H392.824H393.748H394.674H395.601H396.53H397.46H398.392H399.325H400.26H401.196H402.134H403.073H404.014H404.956H405.9H406.845H407.791H408.74H409.69H410.641H411.594H412.548H413.504H414.462H415.421H416.382H417.344H418.308H419.274H420.241H421.21H422.18H423.152H424.126H425.101H426.078H427.057H428.037H429.019H430.003H430.488V121.202H0.5V0.5Z" fill="white" stroke="black"/>
</svg>
