<svg width="343" height="303" viewBox="0 0 343 303" fill="none" xmlns="http://www.w3.org/2000/svg">
    <path d="M335.549 168.653C335.525 169.119 335.505 169.708 335.502 170.28C335.502 170.28 335.502 170.28 335.502 170.281C335.453 171.722 335.548 172.855 335.354 174.284C335.281 174.82 335.085 175.507 334.912 175.938C334.709 176.443 334.533 176.969 334.299 177.413C334.133 177.727 333.958 178.014 333.793 178.327C333.602 178.687 333.398 179.104 333.188 179.403C332.791 179.964 332.312 180.229 331.868 180.472C331.369 180.744 330.594 181.022 330.087 181.009C329.595 180.995 329.109 180.911 329.915 181.145C330.01 181.149 330.097 181.186 330.191 181.209C330.597 181.31 331.02 181.436 331.414 181.63C331.651 181.746 331.87 181.942 332.097 182.112C332.284 182.253 332.482 182.383 332.656 182.585C333.001 182.984 333.29 183.679 333.508 184.364C333.696 184.955 333.891 185.538 334.079 186.128C334.2 186.507 334.302 186.93 334.365 187.375C334.431 187.835 334.513 188.26 334.567 188.732C334.624 189.231 334.674 189.737 334.737 190.232C334.846 191.101 334.953 192.075 334.91 193.011C334.878 193.699 334.793 194.431 334.884 195.088C334.944 195.527 335.019 195.959 335.073 196.405C335.074 196.439 335.074 196.473 335.075 196.506C335.078 196.691 335.112 196.896 335.108 197.076C335.108 197.113 335.12 196.878 335.116 196.825C335.105 196.683 335.09 196.543 335.073 196.405C335.054 195.288 335.031 194.177 335.088 193.049C335.145 191.916 335.246 190.794 335.304 189.661C335.338 188.978 335.351 188.28 335.467 187.618C335.584 186.949 335.743 186.259 335.958 185.693C336.367 184.613 336.988 183.915 337.547 183.286L337.555 183.277C338.012 182.763 338.478 182.04 338.977 181.771C339.409 181.539 339.796 181.451 340.233 181.473L341.389 181.532C341.476 181.536 341.003 181.452 340.722 181.405C339.09 181.018 338.639 180.785 338.207 180.404C337.865 180.102 337.558 179.778 337.276 179.269C336.92 178.623 336.616 177.88 336.361 177.038C335.865 175.4 335.678 173.534 335.535 171.583C335.508 171.212 335.5 170.752 335.502 170.28C335.508 170.12 335.596 168.71 335.549 168.653Z"
          fill="#FF7A00" fill-opacity="0.46"/>
    <path d="M329.915 181.145C330.01 181.149 330.097 181.186 330.191 181.209C330.597 181.31 331.02 181.436 331.414 181.63C331.651 181.746 331.87 181.942 332.097 182.112C332.284 182.253 332.482 182.383 332.656 182.585C333.001 182.984 333.29 183.679 333.508 184.364C333.696 184.955 333.891 185.538 334.079 186.128C334.2 186.507 334.302 186.93 334.365 187.375C334.431 187.835 334.513 188.26 334.567 188.732C334.624 189.231 334.674 189.737 334.737 190.232C334.846 191.101 334.953 192.075 334.91 193.011C334.878 193.699 334.793 194.431 334.884 195.088C334.963 195.664 335.067 196.227 335.116 196.825C335.12 196.878 335.108 197.113 335.108 197.076C335.112 196.896 335.078 196.691 335.075 196.506C335.055 195.355 335.029 194.211 335.088 193.049C335.145 191.916 335.246 190.794 335.304 189.661C335.338 188.978 335.351 188.28 335.467 187.618C335.584 186.949 335.743 186.259 335.958 185.693C336.369 184.608 336.994 183.908 337.555 183.277C338.012 182.763 338.478 182.04 338.977 181.771C339.409 181.539 339.796 181.451 340.233 181.473C340.618 181.493 341.004 181.512 341.389 181.532C341.552 181.54 339.767 181.241 340.905 181.448C339.123 181.034 338.655 180.799 338.207 180.404C337.865 180.102 337.558 179.778 337.276 179.269C336.92 178.623 336.616 177.88 336.361 177.038C335.865 175.4 335.678 173.534 335.535 171.583C335.475 170.76 335.506 169.502 335.549 168.653C335.596 168.71 335.508 170.12 335.502 170.281C335.453 171.722 335.548 172.855 335.354 174.284C335.281 174.82 335.085 175.507 334.912 175.938C334.709 176.443 334.533 176.969 334.299 177.413C334.133 177.727 333.958 178.014 333.793 178.327C333.602 178.687 333.398 179.104 333.188 179.403C332.791 179.964 332.312 180.229 331.868 180.472C331.369 180.744 330.594 181.022 330.087 181.009C329.595 180.995 329.109 180.911 329.915 181.145ZM329.915 181.145C329.869 181.142 329.876 181.143 329.915 181.145Z"
          stroke="black" stroke-opacity="0.6" stroke-linecap="round"/>
    <path d="M70.5062 190.163L109.811 212.989C110.285 213.264 110.849 213.34 111.379 213.199C111.908 213.059 112.36 212.714 112.636 212.24C112.911 211.766 112.986 211.202 112.846 210.673C112.705 210.143 112.36 209.691 111.886 209.416L72.5813 186.59C72.1074 186.315 71.5437 186.239 71.0141 186.38C70.4845 186.52 70.0323 186.865 69.7572 187.339C69.482 187.813 69.4063 188.377 69.5468 188.907C69.6873 189.436 70.0324 189.888 70.5062 190.163Z"
          fill="black" fill-opacity="0.2"/>
    <path d="M65.3185 199.096L93.9041 215.696C94.3779 215.971 94.9417 216.047 95.4713 215.907C96.0009 215.766 96.453 215.421 96.7282 214.947C97.0034 214.473 97.079 213.91 96.9386 213.38C96.7981 212.85 96.453 212.398 95.9791 212.123L67.3935 195.523C66.9197 195.248 66.356 195.172 65.8263 195.313C65.2967 195.453 64.8446 195.798 64.5694 196.272C64.2943 196.746 64.2186 197.31 64.3591 197.839C64.4995 198.369 64.8447 198.821 65.3185 199.096Z"
          fill="black" fill-opacity="0.2"/>
    <path d="M101.511 227.282L62.2073 204.457C61.7334 204.182 61.1697 204.106 60.6401 204.247C60.1104 204.387 59.6583 204.732 59.3831 205.206C59.108 205.68 59.0323 206.244 59.1728 206.773C59.3133 207.303 59.6584 207.755 60.1322 208.03L99.4361 230.855C99.9099 231.13 100.474 231.206 101.003 231.065C101.533 230.925 101.985 230.579 102.26 230.106C102.535 229.632 102.611 229.068 102.471 228.538C102.33 228.009 101.985 227.557 101.511 227.282Z"
          fill="black" fill-opacity="0.2"/>
    <path d="M85.604 229.99L57.0198 213.39C56.5459 213.115 55.9822 213.039 55.4526 213.18C54.9229 213.32 54.4708 213.665 54.1956 214.139C53.9205 214.613 53.8448 215.177 53.9853 215.706C54.1258 216.236 54.4709 216.688 54.9447 216.963L83.529 233.563C84.0028 233.838 84.5666 233.914 85.0962 233.773C85.6258 233.633 86.0779 233.288 86.3531 232.814C86.6283 232.34 86.7039 231.776 86.5635 231.246C86.423 230.717 86.0779 230.265 85.604 229.99Z"
          fill="black" fill-opacity="0.2"/>
</svg>
