<svg width="386" height="58" viewBox="0 0 386 58" fill="none" xmlns="http://www.w3.org/2000/svg">
<g filter="url(#filter0_d_235_99)">
<rect width="36.2165" height="36.4358" rx="6" transform="matrix(0.855171 0.518346 -0.514952 0.857219 19.4514 0.378906)" fill="white"/>
<path d="M24.2118 29.1495C23.4713 28.7007 22.9292 28.1163 22.5855 27.3964C22.2418 26.6765 22.1042 25.8923 22.1726 25.0438C22.241 24.1953 22.524 23.357 23.0215 22.5288L23.0955 22.4057C23.5977 21.5697 24.2014 20.9231 24.9067 20.466C25.6181 20.0073 26.371 19.7629 27.1653 19.7327C27.9596 19.7026 28.7329 19.9155 29.485 20.3714C30.132 20.7635 30.6247 21.2354 30.9632 21.7869C31.3041 22.3346 31.5034 22.8391 31.5612 23.3005L30.6495 24.8182L29.8369 24.3256L30.3457 22.9874C30.269 22.6904 30.1294 22.4006 29.927 22.1181C29.7246 21.8355 29.4344 21.5797 29.0563 21.3505C28.5107 21.0198 27.9648 20.8621 27.4186 20.8775C26.8725 20.8928 26.3514 21.0566 25.8555 21.3688C25.3635 21.6835 24.92 22.1208 24.5251 22.6808L24.5602 22.702L27.9859 24.7785L27.4438 25.6809L24.0123 23.6009L23.9772 23.5797C23.6509 24.2025 23.4584 24.8106 23.3997 25.4039C23.341 25.9971 23.4209 26.5412 23.6394 27.0359C23.864 27.5292 24.2356 27.9329 24.7539 28.2471C25.1397 28.4809 25.5269 28.633 25.9153 28.7032C26.3037 28.7735 26.6365 28.7727 26.9136 28.7008L27.855 27.6248L28.6676 28.1173L27.7559 29.635C27.3203 29.8026 26.7818 29.8626 26.1406 29.815C25.5017 29.7635 24.8587 29.5416 24.2118 29.1495Z" fill="#212B36"/>
<rect x="0.170109" y="0.687782" width="35.2165" height="35.4358" rx="5.5" transform="matrix(0.855171 0.518346 -0.514952 0.857219 19.8302 0.388933)" stroke="#212B36"/>
</g>
<path d="M361.549 28.6527C361.525 29.1184 361.505 29.7074 361.502 30.28C361.502 30.28 361.502 30.28 361.502 30.28C361.453 31.7216 361.548 32.8545 361.354 34.2836C361.281 34.819 361.085 35.5062 360.912 35.938C360.709 36.4428 360.533 36.9681 360.299 37.4123C360.133 37.7261 359.958 38.0131 359.793 38.3268C359.602 38.687 359.398 39.1039 359.188 39.4024C358.791 39.9639 358.312 40.2282 357.868 40.4714C357.369 40.7438 356.594 41.0218 356.087 41.0081C355.595 40.9949 355.109 40.9105 355.915 41.1441C356.01 41.149 356.097 41.1858 356.191 41.209C356.597 41.3099 357.02 41.4359 357.414 41.6297C357.651 41.746 357.87 41.9412 358.097 42.1115C358.284 42.2529 358.482 42.3829 358.656 42.5844C359.001 42.9839 359.29 43.6782 359.508 44.3631C359.696 44.9546 359.891 45.5372 360.079 46.1276C360.2 46.5062 360.302 46.9293 360.365 47.3741C360.431 47.8349 360.513 48.2596 360.567 48.7315C360.624 49.2308 360.674 49.7366 360.737 50.232C360.846 51.1007 360.953 52.0745 360.91 53.0102C360.878 53.6987 360.793 54.4305 360.884 55.0874C360.944 55.5267 361.019 55.9589 361.073 56.4043C361.074 56.4382 361.074 56.472 361.075 56.5059C361.078 56.6905 361.112 56.8956 361.108 57.0754C361.108 57.1123 361.12 56.8773 361.116 56.824C361.105 56.6824 361.09 56.5428 361.073 56.4043C361.054 55.2872 361.031 54.1764 361.088 53.0487C361.145 51.916 361.246 50.7932 361.304 49.6607C361.338 48.9776 361.351 48.2799 361.467 47.6172C361.584 46.9488 361.743 46.259 361.958 45.6922C362.367 44.6128 362.988 43.9141 363.547 43.2854L363.555 43.2766C364.012 42.7629 364.478 42.0394 364.977 41.7709C365.409 41.5387 365.796 41.4507 366.233 41.4728L367.389 41.5312C367.476 41.5356 367.003 41.4516 366.722 41.4048C365.09 41.0171 364.639 40.7843 364.207 40.4034C363.865 40.1019 363.558 39.7778 363.276 39.2689C362.92 38.6229 362.616 37.8794 362.361 37.0371C361.865 35.3991 361.678 33.5336 361.535 31.5822C361.508 31.2111 361.5 30.7511 361.502 30.28C361.508 30.1191 361.596 28.7092 361.549 28.6527Z" fill="#FF7A00" fill-opacity="0.46"/>
<path d="M355.915 41.1441C356.01 41.149 356.097 41.1858 356.191 41.209C356.597 41.3099 357.02 41.4359 357.414 41.6297C357.651 41.746 357.87 41.9412 358.097 42.1115C358.284 42.2529 358.482 42.3829 358.656 42.5844C359.001 42.9839 359.29 43.6782 359.508 44.3631C359.696 44.9546 359.891 45.5372 360.079 46.1276C360.2 46.5062 360.302 46.9293 360.365 47.3741C360.431 47.8349 360.513 48.2596 360.567 48.7315C360.624 49.2308 360.674 49.7366 360.737 50.232C360.846 51.1007 360.953 52.0745 360.91 53.0102C360.878 53.6987 360.793 54.4305 360.884 55.0874C360.963 55.6633 361.067 56.2269 361.116 56.824C361.12 56.8773 361.108 57.1123 361.108 57.0754C361.112 56.8956 361.078 56.6905 361.075 56.5059C361.055 55.3545 361.029 54.2106 361.088 53.0487C361.145 51.916 361.246 50.7932 361.304 49.6607C361.338 48.9776 361.351 48.2799 361.467 47.6173C361.584 46.9488 361.743 46.259 361.958 45.6922C362.369 44.6078 362.994 43.9076 363.555 43.2766C364.012 42.7629 364.478 42.0394 364.977 41.7709C365.409 41.5387 365.796 41.4507 366.233 41.4728C366.618 41.4922 367.004 41.5117 367.389 41.5312C367.552 41.5394 365.767 41.2403 366.905 41.4478C365.123 41.0339 364.655 40.7982 364.207 40.4034C363.865 40.1019 363.558 39.7778 363.276 39.2689C362.92 38.6229 362.616 37.8794 362.361 37.0371C361.865 35.3991 361.678 33.5336 361.535 31.5822C361.475 30.7599 361.506 29.5016 361.549 28.6527C361.596 28.7092 361.508 30.1191 361.502 30.28C361.453 31.7216 361.548 32.8545 361.354 34.2836C361.281 34.819 361.085 35.5062 360.912 35.938C360.709 36.4428 360.533 36.9681 360.299 37.4123C360.133 37.7261 359.958 38.0131 359.793 38.3268C359.602 38.687 359.398 39.1039 359.188 39.4024C358.791 39.9639 358.312 40.2282 357.868 40.4714C357.369 40.7438 356.594 41.0218 356.087 41.0081C355.595 40.9949 355.109 40.9105 355.915 41.1441ZM355.915 41.1441C355.869 41.1418 355.876 41.1422 355.915 41.1441Z" stroke="black" stroke-opacity="0.6" stroke-linecap="round"/>
<path d="M175.689 5.37891H384.639" stroke="black" stroke-opacity="0.6" stroke-linecap="round"/>
<path d="M189.689 9.37891H281.953" stroke="black" stroke-opacity="0.6" stroke-linecap="round"/>
<defs>
<filter id="filter0_d_235_99" x="-0.311279" y="0.378906" width="51.7341" height="53.0059" filterUnits="userSpaceOnUse" color-interpolation-filters="sRGB">
<feFlood flood-opacity="0" result="BackgroundImageFix"/>
<feColorMatrix in="SourceAlpha" type="matrix" values="0 0 0 0 0 0 0 0 0 0 0 0 0 0 0 0 0 0 127 0" result="hardAlpha"/>
<feMorphology radius="1" operator="dilate" in="SourceAlpha" result="effect1_dropShadow_235_99"/>
<feOffset dy="2"/>
<feColorMatrix type="matrix" values="0 0 0 0 0 0 0 0 0 0 0 0 0 0 0 0 0 0 1 0"/>
<feBlend mode="normal" in2="BackgroundImageFix" result="effect1_dropShadow_235_99"/>
<feBlend mode="normal" in="SourceGraphic" in2="effect1_dropShadow_235_99" result="shape"/>
</filter>
</defs>
</svg>
