<svg width="32" height="32" viewBox="0 0 32 32" fill="none" xmlns="http://www.w3.org/2000/svg">
<path d="M16 1.90918C16.2426 11.6143 16.2854 21.296 16 31" stroke="black" stroke-opacity="0.6" stroke-linecap="round"/>
<path d="M15.091 5.54527C15.091 1.05021 15.1067 14.5365 14.99 19.0301C14.9169 21.843 14.812 30.2728 14.6364 27.4644C14.5473 26.0381 14.3701 24.6843 14.1819 23.2725" stroke="black" stroke-opacity="0.6" stroke-linecap="round"/>
<path d="M14.6364 1C14.4399 9.94182 14.7532 18.9623 14.1819 27.8181" stroke="black" stroke-opacity="0.6" stroke-linecap="round"/>
<path d="M15.0911 5.54492C15.1286 11.1373 15.2635 16.7231 15.4446 22.3126C15.577 26.3991 15.1703 21.6729 15.0911 20.9994" stroke="black" stroke-opacity="0.6" stroke-linecap="round"/>
<path d="M16.4546 5.09082V28.7271" stroke="black" stroke-opacity="0.6" stroke-linecap="round"/>
<path d="M1.55371 17.1992C11.2588 16.9566 20.9405 16.9138 30.6445 17.1992" stroke="black" stroke-opacity="0.6" stroke-linecap="round"/>
<path d="M3.84678 16.5255C-0.64828 16.5255 12.838 16.5098 17.3316 16.6265C20.1446 16.6996 28.5743 16.8045 25.7659 16.98C24.3397 17.0692 22.9858 17.2463 21.574 17.4346" stroke="black" stroke-opacity="0.6" stroke-linecap="round"/>
<path d="M1 14.8267C9.94182 15.0232 18.9623 14.7099 27.8181 15.2813" stroke="black" stroke-opacity="0.6" stroke-linecap="round"/>
<path d="M6.07397 15.5869C11.6664 15.5494 17.2521 15.4145 22.8416 15.2334C26.9281 15.1009 22.2019 15.5077 21.5285 15.5869" stroke="black" stroke-opacity="0.6" stroke-linecap="round"/>
<path d="M4.63647 17.5537H28.2728" stroke="black" stroke-opacity="0.6" stroke-linecap="round"/>
</svg>
