<svg width="169" height="528" viewBox="0 0 169 528" fill="none" xmlns="http://www.w3.org/2000/svg">
<g filter="url(#filter0_d_198_103)">
<rect x="116.303" y="283.772" width="36" height="36" rx="1.39027" transform="rotate(46.9401 116.303 283.772)" fill="white"/>
<path d="M119.076 307.219C118.824 306.73 118.739 306.292 118.824 305.905C118.91 305.519 119.121 305.169 119.459 304.854L120.069 304.284C120.291 304.076 120.416 303.865 120.445 303.648C120.475 303.43 120.392 303.216 120.196 303.006L120.633 302.597C120.83 302.807 121.036 302.907 121.251 302.895C121.469 302.881 121.69 302.769 121.914 302.56L122.527 301.987C122.866 301.67 123.23 301.483 123.618 301.425C124.01 301.367 124.441 301.48 124.912 301.765L124.675 302.21C124.402 302.056 124.131 302.017 123.863 302.093C123.599 302.168 123.337 302.329 123.075 302.573L122.462 303.146C122.253 303.341 122.031 303.471 121.794 303.536C121.558 303.601 121.316 303.591 121.069 303.505C121.135 303.759 121.127 304.003 121.044 304.236C120.964 304.468 120.821 304.679 120.617 304.87L120.007 305.44C119.745 305.685 119.568 305.936 119.477 306.192C119.385 306.452 119.406 306.725 119.538 307.01L119.076 307.219Z" fill="#212B36"/>
<path d="M105.525 317.104L115.395 307.882L117.187 309.8L116.413 310.523L115.54 309.589L107.219 317.365L108.092 318.299L107.317 319.022L105.525 317.104Z" fill="#212B36"/>
<rect x="116.297" y="283.935" width="35.7683" height="35.7683" rx="1.27442" transform="rotate(46.9401 116.297 283.935)" stroke="#212B36" stroke-width="0.231712"/>
</g>
<g filter="url(#filter1_d_198_103)">
<g clip-path="url(#clip0_198_103)">
<rect x="101.761" y="275.471" width="36" height="36" rx="1.39027" transform="rotate(-20.2691 101.761 275.471)" fill="white"/>
<path d="M122.429 285.416L121.893 284.754C122.298 284.429 122.529 284.038 122.588 283.579C122.649 283.124 122.575 282.615 122.366 282.05L121.881 280.736C121.712 280.278 121.66 279.843 121.727 279.43C121.793 279.017 121.993 278.644 122.327 278.312C121.86 278.285 121.467 278.136 121.149 277.865C120.83 277.594 120.585 277.226 120.413 276.76L119.925 275.439C119.716 274.874 119.441 274.437 119.098 274.126C118.753 273.812 118.322 273.665 117.805 273.686L117.785 272.841C118.701 272.769 119.429 272.926 119.969 273.309C120.512 273.687 120.918 274.241 121.188 274.972L121.676 276.293C121.854 276.776 122.101 277.11 122.417 277.295C122.732 277.475 123.118 277.481 123.575 277.312L123.923 278.254C123.466 278.423 123.178 278.683 123.059 279.033C122.939 279.378 122.967 279.79 123.144 280.269L123.63 281.584C123.898 282.31 123.949 282.996 123.784 283.64C123.623 284.282 123.171 284.874 122.429 285.416Z" fill="#212B36"/>
<path d="M128.74 301.894L128.373 300.9L129.579 300.455L125.633 289.772L124.428 290.217L124.061 289.223L126.529 288.311L131.209 300.982L128.74 301.894Z" fill="#212B36"/>
</g>
<rect x="101.91" y="275.54" width="35.7683" height="35.7683" rx="1.27442" transform="rotate(-20.2691 101.91 275.54)" stroke="#212B36" stroke-width="0.231712"/>
</g>
<path d="M27.5442 67.692C32.0202 68.8101 22.1149 84.1637 23.2039 87.9725C24.1455 91.2655 46.8041 82.5394 46.2504 81.9861" stroke="black" stroke-opacity="0.6" stroke-linecap="round"/>
<path d="M12.1393 80.8866C12.1393 89.9141 7.69921 98.2436 4.19222 106.421C3.36442 108.351 -2.0866 117.726 3.45864 117.111C12.9622 116.055 23.2514 110.608 31.8847 106.726C35.0112 105.32 38.548 104.672 38.548 100.678" stroke="black" stroke-opacity="0.6" stroke-linecap="round"/>
<path d="M89.1211 21.4658C89.4082 19.1703 102.674 17.1959 104.771 17.0676C111.475 16.6574 113.565 15.193 108.866 23.1151C105.433 28.9045 102.124 35.0109 98.5353 40.6468C97.8723 41.688 97.924 42.6334 97.924 43.8233C97.924 45.8121 98.395 39.8458 99.0244 37.9591" stroke="black" stroke-opacity="0.6" stroke-linecap="round"/>
<path d="M104.825 1C112.429 4.57594 121.35 4.29865 129.583 4.29865C131.298 4.29865 141.137 3.26664 141.137 5.3982C141.137 8.18014 138.188 10.6256 136.674 12.6674C133.268 17.2624 129.978 21.9614 126.893 26.7783C125.353 29.1829 123.225 37.4381 121.33 38.3847" stroke="black" stroke-opacity="0.6" stroke-linecap="round"/>
<path d="M48.4512 38.0043C48.7783 41.2733 52.5973 43.9754 54.0141 46.9839C56.3745 51.9961 58.5557 57.2674 60.5552 62.4387C61.1687 64.0255 65.346 77.1989 67.1573 75.3889" stroke="black" stroke-opacity="0.6" stroke-linecap="round"/>
<path d="M26.4441 32.5064C26.4441 35.2621 25.655 38.7958 28.0947 40.6919C31.3256 43.203 31.4211 37.6488 30.6011 35.8051C28.1893 30.3826 20.1116 42.4024 29.7452 42.4024C32.0342 42.4024 34.7012 39.78 32.435 37.5155C30.1971 35.2792 25.4609 38.7321 27.789 41.0585C30.3636 43.6311 32.3849 37.0653 31.8848 35.3164C30.8438 31.6757 27.8647 39.5634 29.7452 35.8051" stroke="black" stroke-opacity="0.6" stroke-linecap="round"/>
<path d="M50.6519 21.5109C46.9007 21.9274 47.7045 29.3424 52.2413 28.0472C55.2207 27.1965 50.6128 19.8396 47.5953 22.8548C44.0082 26.4393 46.7214 29.9497 51.1409 29.1467C57.3073 28.0264 53.4951 21.7272 49.796 25.0539C48.5174 26.2039 55.722 28.5226 53.8918 22.1218C52.4405 17.046 48.2905 28.7575 53.0971 23.9544C56.5228 20.5313 50.6519 16.9916 50.6519 22.0607C50.6519 26.6497 50.6519 21.0312 50.6519 27.0087" stroke="black" stroke-opacity="0.6" stroke-linecap="round"/>
<path d="M115.432 183.478C115.466 184.03 115.521 184.727 115.594 185.402C115.728 187.107 115.991 188.43 115.952 190.141C115.938 190.781 115.798 191.617 115.651 192.149C115.48 192.772 115.343 193.414 115.125 193.969C114.972 194.361 114.804 194.722 114.651 195.114C114.474 195.564 114.289 196.083 114.081 196.463C113.688 197.177 113.159 197.553 112.667 197.898C112.116 198.286 111.239 198.717 110.64 198.768C110.059 198.818 109.475 198.783 110.455 198.951C110.568 198.944 110.676 198.976 110.789 198.991C111.281 199.056 111.797 199.148 112.287 199.324C112.582 199.43 112.866 199.631 113.156 199.801C113.396 199.943 113.646 200.07 113.878 200.284C114.338 200.709 114.771 201.489 115.119 202.267C115.42 202.939 115.728 203.6 116.028 204.271C116.22 204.701 116.397 205.186 116.531 205.702C116.67 206.236 116.823 206.726 116.949 207.275C117.083 207.856 117.209 208.445 117.349 209.021C117.594 210.03 117.85 211.164 117.924 212.272C117.978 213.088 117.975 213.962 118.169 214.724C118.3 215.234 118.445 215.733 118.568 216.251C118.573 216.291 118.579 216.331 118.584 216.371C118.612 216.588 118.68 216.825 118.699 217.037C118.703 217.081 118.687 216.802 118.675 216.74C118.642 216.575 118.606 216.412 118.568 216.251C118.397 214.937 118.221 213.631 118.138 212.294C118.055 210.951 118.025 209.614 117.942 208.272C117.891 207.462 117.813 206.638 117.862 205.842C117.91 205.038 118.006 204.204 118.184 203.507C118.522 202.18 119.161 201.274 119.737 200.459L119.745 200.447C120.215 199.781 120.667 198.866 121.22 198.483C121.698 198.152 122.143 197.996 122.661 197.964L124.031 197.879C124.135 197.873 123.566 197.837 123.228 197.819C121.253 197.58 120.69 197.365 120.131 196.974C119.688 196.664 119.282 196.323 118.882 195.761C118.376 195.047 117.919 194.211 117.506 193.252C116.703 191.387 116.234 189.213 115.806 186.932C115.725 186.498 115.653 185.957 115.594 185.402C115.579 185.211 115.495 183.538 115.432 183.478Z" fill="#FF7A00" fill-opacity="0.46"/>
<path d="M110.455 198.951C110.568 198.944 110.676 198.976 110.789 198.991C111.281 199.056 111.797 199.148 112.287 199.324C112.582 199.43 112.866 199.631 113.156 199.801C113.396 199.943 113.646 200.07 113.878 200.284C114.338 200.709 114.771 201.489 115.119 202.267C115.42 202.939 115.728 203.6 116.028 204.271C116.22 204.701 116.397 205.186 116.531 205.702C116.67 206.236 116.823 206.726 116.949 207.275C117.083 207.856 117.209 208.445 117.349 209.021C117.594 210.03 117.85 211.164 117.924 212.272C117.978 213.088 117.975 213.962 118.169 214.724C118.34 215.392 118.538 216.043 118.675 216.74C118.687 216.802 118.703 217.081 118.699 217.037C118.68 216.825 118.612 216.588 118.584 216.371C118.407 215.016 118.224 213.671 118.138 212.294C118.055 210.951 118.025 209.614 117.942 208.272C117.891 207.462 117.813 206.638 117.862 205.842C117.91 205.038 118.006 204.204 118.184 203.507C118.524 202.174 119.167 201.266 119.745 200.447C120.215 199.781 120.667 198.866 121.22 198.483C121.698 198.152 122.143 197.996 122.661 197.964C123.118 197.936 123.575 197.908 124.031 197.879C124.224 197.867 122.081 197.752 123.449 197.845C121.294 197.595 120.711 197.379 120.131 196.974C119.688 196.664 119.282 196.323 118.882 195.761C118.376 195.047 117.919 194.211 117.506 193.252C116.703 191.387 116.234 189.213 115.806 186.932C115.626 185.971 115.494 184.484 115.432 183.478C115.495 183.538 115.579 185.211 115.594 185.402C115.728 187.107 115.991 188.43 115.952 190.141C115.938 190.781 115.798 191.617 115.651 192.149C115.48 192.772 115.343 193.414 115.125 193.969C114.972 194.361 114.804 194.722 114.651 195.114C114.474 195.564 114.289 196.083 114.081 196.463C113.688 197.177 113.159 197.553 112.667 197.898C112.116 198.286 111.239 198.717 110.64 198.768C110.059 198.818 109.475 198.783 110.455 198.951ZM110.455 198.951C110.4 198.955 110.41 198.954 110.455 198.951Z" stroke="black" stroke-opacity="0.6" stroke-linecap="round"/>
<path d="M145.538 405.233V526.966" stroke="black" stroke-opacity="0.6" stroke-linecap="round"/>
<path d="M140.005 453.65V514.516" stroke="black" stroke-opacity="0.6" stroke-linecap="round"/>
<path d="M24.4973 508.982H167.671" stroke="black" stroke-opacity="0.6" stroke-linecap="round"/>
<defs>
<filter id="filter0_d_198_103" x="89.5366" y="283.772" width="51.8092" height="52.2727" filterUnits="userSpaceOnUse" color-interpolation-filters="sRGB">
<feFlood flood-opacity="0" result="BackgroundImageFix"/>
<feColorMatrix in="SourceAlpha" type="matrix" values="0 0 0 0 0 0 0 0 0 0 0 0 0 0 0 0 0 0 127 0" result="hardAlpha"/>
<feMorphology radius="0.463425" operator="dilate" in="SourceAlpha" result="effect1_dropShadow_198_103"/>
<feOffset dy="0.926849"/>
<feColorMatrix type="matrix" values="0 0 0 0 0 0 0 0 0 0 0 0 0 0 0 0 0 0 1 0"/>
<feBlend mode="normal" in2="BackgroundImageFix" result="effect1_dropShadow_198_103"/>
<feBlend mode="normal" in="SourceGraphic" in2="effect1_dropShadow_198_103" result="shape"/>
</filter>
<filter id="filter1_d_198_103" x="101.298" y="263" width="47.169" height="47.6325" filterUnits="userSpaceOnUse" color-interpolation-filters="sRGB">
<feFlood flood-opacity="0" result="BackgroundImageFix"/>
<feColorMatrix in="SourceAlpha" type="matrix" values="0 0 0 0 0 0 0 0 0 0 0 0 0 0 0 0 0 0 127 0" result="hardAlpha"/>
<feMorphology radius="0.463425" operator="dilate" in="SourceAlpha" result="effect1_dropShadow_198_103"/>
<feOffset dy="0.926849"/>
<feColorMatrix type="matrix" values="0 0 0 0 0 0 0 0 0 0 0 0 0 0 0 0 0 0 1 0"/>
<feBlend mode="normal" in2="BackgroundImageFix" result="effect1_dropShadow_198_103"/>
<feBlend mode="normal" in="SourceGraphic" in2="effect1_dropShadow_198_103" result="shape"/>
</filter>
<clipPath id="clip0_198_103">
<rect x="101.761" y="275.471" width="36" height="36" rx="1.39027" transform="rotate(-20.2691 101.761 275.471)" fill="white"/>
</clipPath>
</defs>
</svg>
