<svg width="46" height="93" viewBox="0 0 46 93" fill="none" xmlns="http://www.w3.org/2000/svg">
<path d="M1.29248 52.1317C4.02719 51.8279 8.26299 46.8876 10.0364 45.3979C18.5389 38.2559 25.9528 31.554 31.1928 21.7289C33.1892 17.9857 36.5698 13.7076 36.5698 9.26621C36.5698 5.12915 35.1316 17.4415 33.8562 21.3771C27.6209 40.6175 23.1144 60.5039 18.0266 80.0722C17.0486 83.8338 15.9782 87.5935 14.911 91.3288C14.04 94.3772 15.9009 85.0575 16.6698 81.9818" stroke="black" stroke-opacity="0.6" stroke-linecap="round"/>
<path d="M2.19702 49.4183C9.62189 49.4183 18.1829 39.893 23.2529 35.3475C29.4545 29.7875 33.8285 23.0772 37.9267 15.95C40.3788 11.6855 43.0345 6.60001 44.5098 1.87928C45.8024 -2.25711 41.8131 10.1235 40.188 14.1409C35.0174 26.924 31.4911 40.0351 27.0218 53.0365C25.1331 58.5309 21.1925 64.2846 21.1925 70.2229" stroke="black" stroke-opacity="0.6" stroke-linecap="round"/>
<path d="M2.19702 81.9822C6.47409 78.1804 15.8689 77.3375 21.1925 78.8163C22.747 79.2481 30.5599 80.1731 26.1173 80.1731C20.7158 80.1731 15.4396 81.0777 10.0867 81.0777C6.33861 81.0777 17.4598 82.4972 21.1925 82.8365C24.5766 83.1442 29.8247 83.6644 32.9516 82.1832C37.8479 79.864 31.7132 78.0197 29.3335 77.6605C23.8311 76.83 19.2298 78.7135 13.9561 79.2686C10.8706 79.5934 15.0156 79.82 16.6698 79.2686" stroke="black" stroke-opacity="0.6" stroke-linecap="round"/>
<path d="M39.2834 70.2229C39.2834 73.6555 38.8074 75.6638 43.2031 73.8411C45.8384 72.7485 45.1899 68.7273 42.9016 67.7103C35.8706 64.5854 35.9538 75.8251 43.3036 72.4843C45.3479 71.5551 45.4738 67.8874 42.8513 67.5596C40.7949 67.3025 36.1016 71.1876 38.8814 71.9818C40.6366 72.4833 44.6177 70.0026 42.3991 69.3687C39.7622 68.6153 39.8727 71.2851 38.3788 72.032" stroke="black" stroke-opacity="0.6" stroke-linecap="round"/>
</svg>
