<svg width="142" height="118" viewBox="0 0 142 118" fill="none" xmlns="http://www.w3.org/2000/svg">
<path d="M27.5442 67.692C32.0202 68.8101 22.1149 84.1637 23.2039 87.9725C24.1455 91.2655 46.8041 82.5394 46.2504 81.9861" stroke="black" stroke-opacity="0.6" stroke-linecap="round"/>
<path d="M12.1393 80.8866C12.1393 89.9141 7.69921 98.2436 4.19222 106.421C3.36442 108.351 -2.0866 117.726 3.45864 117.111C12.9622 116.055 23.2514 110.608 31.8847 106.726C35.0112 105.32 38.548 104.672 38.548 100.678" stroke="black" stroke-opacity="0.6" stroke-linecap="round"/>
<path d="M89.1211 21.4658C89.4082 19.1703 102.674 17.1959 104.771 17.0676C111.475 16.6574 113.565 15.193 108.866 23.1151C105.433 28.9045 102.124 35.0109 98.5353 40.6468C97.8723 41.688 97.924 42.6334 97.924 43.8233C97.924 45.8121 98.395 39.8458 99.0244 37.9591" stroke="black" stroke-opacity="0.6" stroke-linecap="round"/>
<path d="M104.825 1C112.429 4.57594 121.35 4.29865 129.583 4.29865C131.298 4.29865 141.137 3.26664 141.137 5.3982C141.137 8.18014 138.188 10.6256 136.674 12.6674C133.268 17.2624 129.978 21.9614 126.893 26.7783C125.353 29.1829 123.225 37.4381 121.33 38.3847" stroke="black" stroke-opacity="0.6" stroke-linecap="round"/>
<path d="M48.4512 38.0043C48.7783 41.2733 52.5973 43.9754 54.0141 46.9839C56.3745 51.9961 58.5557 57.2674 60.5552 62.4387C61.1687 64.0255 65.346 77.1989 67.1573 75.3889" stroke="black" stroke-opacity="0.6" stroke-linecap="round"/>
<path d="M26.4441 32.5064C26.4441 35.2621 25.655 38.7958 28.0947 40.6919C31.3256 43.203 31.4211 37.6488 30.6011 35.8051C28.1893 30.3826 20.1116 42.4024 29.7452 42.4024C32.0342 42.4024 34.7012 39.78 32.435 37.5155C30.1971 35.2792 25.4609 38.7321 27.789 41.0585C30.3636 43.6311 32.3849 37.0653 31.8848 35.3164C30.8438 31.6757 27.8647 39.5634 29.7452 35.8051" stroke="black" stroke-opacity="0.6" stroke-linecap="round"/>
<path d="M50.6519 21.5109C46.9007 21.9274 47.7045 29.3424 52.2413 28.0472C55.2207 27.1965 50.6128 19.8396 47.5953 22.8548C44.0082 26.4393 46.7214 29.9497 51.1409 29.1467C57.3073 28.0264 53.4951 21.7272 49.796 25.0539C48.5174 26.2039 55.722 28.5226 53.8918 22.1218C52.4405 17.046 48.2905 28.7575 53.0971 23.9544C56.5228 20.5313 50.6519 16.9916 50.6519 22.0607C50.6519 26.6497 50.6519 21.0312 50.6519 27.0087" stroke="black" stroke-opacity="0.6" stroke-linecap="round"/>
</svg>
