<svg width="200" height="402" viewBox="0 0 200 402" fill="none" xmlns="http://www.w3.org/2000/svg">
<path d="M98.4319 1.47761C98.4662 2.02968 98.5213 2.72654 98.5938 3.40187C98.7282 5.10749 98.9906 6.4303 98.9524 8.14059C98.9381 8.78133 98.798 9.61745 98.6512 10.1495C98.4796 10.7715 98.3427 11.414 98.1253 11.9688C97.9718 12.3608 97.8042 12.7224 97.6507 13.1142C97.4745 13.564 97.2894 14.0826 97.0808 14.4626C96.6885 15.1772 96.1592 15.5526 95.6673 15.8984C95.1162 16.2859 94.2391 16.7168 93.6404 16.7682C93.0586 16.8182 92.4746 16.7834 93.4555 16.9515C93.5684 16.9445 93.6761 16.9763 93.7893 16.9912C94.2815 17.056 94.7966 17.1482 95.2875 17.3241C95.5819 17.4296 95.8663 17.6305 96.1557 17.8011C96.396 17.9427 96.6456 18.0696 96.8779 18.2839C97.3383 18.7088 97.7708 19.4887 98.1192 20.2669C98.4202 20.939 98.7275 21.5998 99.0276 22.2706C99.22 22.7008 99.3965 23.186 99.5306 23.7017C99.6696 24.2361 99.8231 24.7258 99.9493 25.2748C100.083 25.8558 100.209 26.4452 100.349 27.0208C100.594 28.0301 100.85 29.1637 100.924 30.2724C100.978 31.088 100.975 31.962 101.169 32.7241C101.3 33.2339 101.445 33.7334 101.568 34.2512C101.573 34.291 101.579 34.3308 101.584 34.3706C101.612 34.5878 101.68 34.8249 101.699 35.0374C101.703 35.081 101.687 34.8023 101.675 34.7401C101.642 34.5748 101.606 34.4121 101.568 34.2512C101.397 32.937 101.221 31.6308 101.138 30.294C101.055 28.9513 101.025 27.6143 100.942 26.2719C100.891 25.4622 100.813 24.6381 100.862 23.8416C100.91 23.0381 101.006 22.2038 101.184 21.5071C101.522 20.1804 102.161 19.2741 102.737 18.4585L102.745 18.4472C103.215 17.7808 103.667 16.866 104.22 16.483C104.698 16.1519 105.143 15.9965 105.661 15.9643L107.031 15.8791C107.135 15.8727 106.566 15.8367 106.228 15.8191C104.253 15.5796 103.69 15.3652 103.131 14.9737C102.688 14.6639 102.282 14.3229 101.882 13.7605C101.376 13.0466 100.919 12.2106 100.506 11.2518C99.7034 9.38724 99.2343 7.21333 98.8063 4.93235C98.7249 4.49849 98.6534 3.95746 98.5938 3.40187C98.5788 3.21146 98.4954 1.53782 98.4319 1.47761Z" fill="#FF7A00" fill-opacity="0.46"/>
<path d="M93.4555 16.9515C93.5684 16.9445 93.6761 16.9763 93.7893 16.9912C94.2815 17.056 94.7966 17.1482 95.2875 17.3241C95.5819 17.4296 95.8663 17.6305 96.1557 17.8011C96.396 17.9427 96.6456 18.0696 96.8779 18.2839C97.3383 18.7088 97.7708 19.4887 98.1192 20.2669C98.4202 20.939 98.7275 21.5998 99.0276 22.2706C99.22 22.7008 99.3965 23.186 99.5306 23.7017C99.6696 24.2361 99.8231 24.7258 99.9493 25.2748C100.083 25.8558 100.209 26.4452 100.349 27.0208C100.594 28.0301 100.85 29.1637 100.924 30.2723C100.978 31.088 100.975 31.962 101.169 32.7241C101.34 33.3923 101.538 34.0428 101.675 34.7401C101.687 34.8023 101.703 35.081 101.699 35.0374C101.68 34.8249 101.612 34.5878 101.584 34.3706C101.407 33.0161 101.224 31.6713 101.138 30.294C101.055 28.9513 101.025 27.6143 100.942 26.2719C100.891 25.4622 100.813 24.6381 100.862 23.8416C100.91 23.0381 101.006 22.2038 101.184 21.5071C101.524 20.1742 102.167 19.2657 102.745 18.4472C103.215 17.7808 103.667 16.866 104.22 16.483C104.698 16.1519 105.143 15.9965 105.661 15.9643C106.118 15.9359 106.575 15.9075 107.031 15.8791C107.224 15.8672 105.081 15.7524 106.449 15.8454C104.294 15.595 103.711 15.3794 103.131 14.9737C102.688 14.6639 102.282 14.3229 101.882 13.7605C101.376 13.0466 100.919 12.2106 100.506 11.2518C99.7034 9.38724 99.2343 7.21333 98.8063 4.93235C98.6259 3.97113 98.4944 2.48388 98.4319 1.47761C98.4954 1.53782 98.5788 3.21146 98.5938 3.40187C98.7282 5.10749 98.9906 6.4303 98.9524 8.14059C98.9381 8.78133 98.798 9.61745 98.6512 10.1495C98.4796 10.7715 98.3427 11.414 98.1253 11.9688C97.9718 12.3608 97.8042 12.7224 97.6507 13.1142C97.4745 13.564 97.2894 14.0826 97.0808 14.4626C96.6885 15.1772 96.1592 15.5526 95.6673 15.8984C95.1162 16.2859 94.2391 16.7168 93.6404 16.7682C93.0586 16.8182 92.4746 16.7834 93.4555 16.9515ZM93.4555 16.9515C93.4004 16.9549 93.4096 16.9543 93.4555 16.9515Z" stroke="black" stroke-opacity="0.6" stroke-linecap="round"/>
<path d="M1 78H198.64" stroke="black" stroke-opacity="0.6" stroke-linecap="round"/>
<path d="M45 45V293.815" stroke="black" stroke-opacity="0.6" stroke-linecap="round"/>
<path d="M40.1125 132.206V401.314" stroke="black" stroke-opacity="0.6" stroke-linecap="round"/>
</svg>
