<svg width="204" height="956" viewBox="0 0 204 956" fill="none" xmlns="http://www.w3.org/2000/svg">
<g filter="url(#filter0_d_178_82)">
<g clip-path="url(#clip0_178_82)">
<rect x="137" y="280.931" width="36" height="36" rx="6" transform="rotate(-21.0502 137 280.931)" fill="white"/>
<path d="M156.813 285.305L154.755 279.957L155.832 279.542L157.891 284.891L156.813 285.305ZM157.819 287.919L157.39 286.803L158.467 286.389L158.897 287.504L157.819 287.919Z" fill="#212B36"/>
<path d="M162.547 304.315L162.237 303.511L163.604 302.78L160.925 295.82L159.474 296.408L159.172 295.623L161.664 293.99L164.861 302.297L166.359 301.925L166.668 302.729L162.547 304.315Z" fill="#212B36"/>
</g>
<rect x="137.646" y="281.218" width="35" height="35" rx="5.5" transform="rotate(-21.0502 137.646 281.218)" stroke="#212B36"/>
</g>
<path d="M121 585L191 585" stroke="black" stroke-opacity="0.6" stroke-linecap="round"/>
<path d="M91 505L191 505" stroke="black" stroke-opacity="0.6" stroke-linecap="round"/>
<path d="M51 677L196 677" stroke="black" stroke-opacity="0.6" stroke-linecap="round"/>
<path d="M139.141 582.83H187.491" stroke="black" stroke-opacity="0.6" stroke-linecap="round"/>
<path d="M168.929 475.869V797.536" stroke="black" stroke-opacity="0.6" stroke-linecap="round"/>
<path d="M176 654L176 955" stroke="black" stroke-opacity="0.6" stroke-linecap="round"/>
<path d="M116.432 767.478C116.466 768.03 116.521 768.727 116.594 769.402C116.728 771.107 116.991 772.43 116.952 774.141C116.938 774.781 116.798 775.617 116.651 776.149C116.48 776.772 116.343 777.414 116.125 777.969C115.972 778.361 115.804 778.722 115.651 779.114C115.474 779.564 115.289 780.083 115.081 780.463C114.688 781.177 114.159 781.553 113.667 781.898C113.116 782.286 112.239 782.717 111.64 782.768C111.059 782.818 110.475 782.783 111.455 782.951C111.568 782.944 111.676 782.976 111.789 782.991C112.281 783.056 112.797 783.148 113.287 783.324C113.582 783.43 113.866 783.631 114.156 783.801C114.396 783.943 114.646 784.07 114.878 784.284C115.338 784.709 115.771 785.489 116.119 786.267C116.42 786.939 116.728 787.6 117.028 788.271C117.22 788.701 117.397 789.186 117.531 789.702C117.67 790.236 117.823 790.726 117.949 791.275C118.083 791.856 118.209 792.445 118.349 793.021C118.594 794.03 118.85 795.164 118.924 796.272C118.978 797.088 118.975 797.962 119.169 798.724C119.3 799.234 119.445 799.733 119.568 800.251C119.573 800.291 119.579 800.331 119.584 800.371C119.612 800.588 119.68 800.825 119.699 801.037C119.703 801.081 119.687 800.802 119.675 800.74C119.642 800.575 119.606 800.412 119.568 800.251C119.397 798.937 119.221 797.631 119.138 796.294C119.055 794.951 119.025 793.614 118.942 792.272C118.891 791.462 118.813 790.638 118.862 789.842C118.91 789.038 119.006 788.204 119.184 787.507C119.522 786.18 120.161 785.274 120.737 784.459L120.745 784.447C121.215 783.781 121.667 782.866 122.22 782.483C122.698 782.152 123.143 781.996 123.661 781.964L125.031 781.879C125.135 781.873 124.566 781.837 124.228 781.819C122.253 781.58 121.69 781.365 121.131 780.974C120.688 780.664 120.282 780.323 119.882 779.761C119.376 779.047 118.919 778.211 118.506 777.252C117.703 775.387 117.234 773.213 116.806 770.932C116.725 770.498 116.653 769.957 116.594 769.402C116.579 769.211 116.495 767.538 116.432 767.478Z" fill="#FF7A00" fill-opacity="0.46"/>
<path d="M111.455 782.951C111.568 782.944 111.676 782.976 111.789 782.991C112.281 783.056 112.797 783.148 113.287 783.324C113.582 783.43 113.866 783.631 114.156 783.801C114.396 783.943 114.646 784.07 114.878 784.284C115.338 784.709 115.771 785.489 116.119 786.267C116.42 786.939 116.728 787.6 117.028 788.271C117.22 788.701 117.397 789.186 117.531 789.702C117.67 790.236 117.823 790.726 117.949 791.275C118.083 791.856 118.209 792.445 118.349 793.021C118.594 794.03 118.85 795.164 118.924 796.272C118.978 797.088 118.975 797.962 119.169 798.724C119.34 799.392 119.538 800.043 119.675 800.74C119.687 800.802 119.703 801.081 119.699 801.037C119.68 800.825 119.612 800.588 119.584 800.371C119.407 799.016 119.224 797.671 119.138 796.294C119.055 794.951 119.025 793.614 118.942 792.272C118.891 791.462 118.813 790.638 118.862 789.842C118.91 789.038 119.006 788.204 119.184 787.507C119.524 786.174 120.167 785.266 120.745 784.447C121.215 783.781 121.667 782.866 122.22 782.483C122.698 782.152 123.143 781.996 123.661 781.964C124.118 781.936 124.575 781.908 125.031 781.879C125.224 781.867 123.081 781.752 124.449 781.845C122.294 781.595 121.711 781.379 121.131 780.974C120.688 780.664 120.282 780.323 119.882 779.761C119.376 779.047 118.919 778.211 118.506 777.252C117.703 775.387 117.234 773.213 116.806 770.932C116.626 769.971 116.494 768.484 116.432 767.478C116.495 767.538 116.579 769.211 116.594 769.402C116.728 771.107 116.991 772.43 116.952 774.141C116.938 774.781 116.798 775.617 116.651 776.149C116.48 776.772 116.343 777.414 116.125 777.969C115.972 778.361 115.804 778.722 115.651 779.114C115.474 779.564 115.289 780.083 115.081 780.463C114.688 781.177 114.159 781.553 113.667 781.898C113.116 782.286 112.239 782.717 111.64 782.768C111.059 782.818 110.475 782.783 111.455 782.951ZM111.455 782.951C111.4 782.955 111.41 782.954 111.455 782.951Z" stroke="black" stroke-opacity="0.6" stroke-linecap="round"/>
<path d="M1 22H203.381" stroke="black" stroke-opacity="0.6" stroke-linecap="round"/>
<path d="M81 143H193.816" stroke="black" stroke-opacity="0.6" stroke-linecap="round"/>
<path d="M166.486 17.5472V97.8346" stroke="black" stroke-opacity="0.6" stroke-linecap="round"/>
<path d="M169 1L169 162" stroke="black" stroke-opacity="0.6" stroke-linecap="round"/>
<defs>
<filter id="filter0_d_178_82" x="136" y="268" width="48.5283" height="49.5282" filterUnits="userSpaceOnUse" color-interpolation-filters="sRGB">
<feFlood flood-opacity="0" result="BackgroundImageFix"/>
<feColorMatrix in="SourceAlpha" type="matrix" values="0 0 0 0 0 0 0 0 0 0 0 0 0 0 0 0 0 0 127 0" result="hardAlpha"/>
<feMorphology radius="1" operator="dilate" in="SourceAlpha" result="effect1_dropShadow_178_82"/>
<feOffset dy="2"/>
<feColorMatrix type="matrix" values="0 0 0 0 0 0 0 0 0 0 0 0 0 0 0 0 0 0 1 0"/>
<feBlend mode="normal" in2="BackgroundImageFix" result="effect1_dropShadow_178_82"/>
<feBlend mode="normal" in="SourceGraphic" in2="effect1_dropShadow_178_82" result="shape"/>
</filter>
<clipPath id="clip0_178_82">
<rect x="137" y="280.931" width="36" height="36" rx="6" transform="rotate(-21.0502 137 280.931)" fill="white"/>
</clipPath>
</defs>
</svg>
