<svg width="51" height="82" viewBox="0 0 51 82" fill="none" xmlns="http://www.w3.org/2000/svg">
<g filter="url(#filter0_d_86_36)">
<rect width="36.2776" height="36.375" rx="6" transform="matrix(0.826069 -0.563569 0.558016 0.82983 0 20.445)" fill="white"/>
<path d="M25.6605 29.5702L25.1799 28.8555L25.9936 28.0687L21.5954 21.5281L19.7319 22.7994L20.3387 24.057L19.5029 24.6272L18.164 22.6361L24.9968 17.9745L26.3357 19.9656L25.5113 20.5281L24.5713 19.4978L22.7078 20.7691L27.106 27.3097L28.1333 26.8406L28.6139 27.5554L25.6605 29.5702Z" fill="#212B36"/>
<rect x="0.692043" y="0.13313" width="35.2776" height="35.375" rx="5.5" transform="matrix(0.826069 -0.563569 0.558016 0.82983 0.0460788 20.8576)" stroke="#212B36"/>
</g>
<g filter="url(#filter1_d_86_36)">
<rect width="36.2165" height="36.4358" rx="6" transform="matrix(0.957556 0.288246 -0.284449 0.958691 12.9751 35)" fill="white"/>
<path d="M19.9472 60.0737L20.1922 59.248L21.3136 59.3857L23.5439 51.8687L22.5314 51.364L22.7764 50.5383L27.0246 51.8171C27.7185 52.026 28.2721 52.3069 28.6855 52.6598C29.1046 53.0096 29.3802 53.4186 29.5123 53.8867C29.6444 54.3547 29.6261 54.8728 29.4576 55.4408C29.2917 56 29.0302 56.4329 28.673 56.7394C28.3202 57.0473 27.8921 57.2325 27.3886 57.2951C26.8865 57.3534 26.328 57.2971 25.7132 57.1263L23.5676 56.5233L22.6031 59.7738L23.6156 60.2785L23.3706 61.1043L19.9472 60.0737ZM26.2377 61.9673L25.5305 56.5645L26.8239 56.9395L27.453 61.2837L28.0791 61.6007L27.8283 62.4461L26.2377 61.9673ZM23.869 55.5075L25.6298 56.0375C26.3498 56.2543 26.9143 56.2743 27.3233 56.0975C27.7322 55.9208 28.0151 55.5681 28.172 55.0395C28.3211 54.537 28.2819 54.0922 28.0546 53.7049C27.8272 53.3175 27.3841 53.0247 26.7252 52.8264L24.8334 52.2569L23.869 55.5075Z" fill="#212B36"/>
<rect x="0.336554" y="0.623469" width="35.2165" height="35.4358" rx="5.5" transform="matrix(0.957556 0.288246 -0.284449 0.958691 13.1667 34.9287)" stroke="#212B36"/>
</g>
<defs>
<filter id="filter0_d_86_36" x="-1" y="0" width="52.2656" height="53.63" filterUnits="userSpaceOnUse" color-interpolation-filters="sRGB">
<feFlood flood-opacity="0" result="BackgroundImageFix"/>
<feColorMatrix in="SourceAlpha" type="matrix" values="0 0 0 0 0 0 0 0 0 0 0 0 0 0 0 0 0 0 127 0" result="hardAlpha"/>
<feMorphology radius="1" operator="dilate" in="SourceAlpha" result="effect1_dropShadow_86_36"/>
<feOffset dy="2"/>
<feColorMatrix type="matrix" values="0 0 0 0 0 0 0 0 0 0 0 0 0 0 0 0 0 0 1 0"/>
<feBlend mode="normal" in2="BackgroundImageFix" result="effect1_dropShadow_86_36"/>
<feBlend mode="normal" in="SourceGraphic" in2="effect1_dropShadow_86_36" result="shape"/>
</filter>
<filter id="filter1_d_86_36" x="1.61084" y="35" width="47.0437" height="48.37" filterUnits="userSpaceOnUse" color-interpolation-filters="sRGB">
<feFlood flood-opacity="0" result="BackgroundImageFix"/>
<feColorMatrix in="SourceAlpha" type="matrix" values="0 0 0 0 0 0 0 0 0 0 0 0 0 0 0 0 0 0 127 0" result="hardAlpha"/>
<feMorphology radius="1" operator="dilate" in="SourceAlpha" result="effect1_dropShadow_86_36"/>
<feOffset dy="2"/>
<feColorMatrix type="matrix" values="0 0 0 0 0 0 0 0 0 0 0 0 0 0 0 0 0 0 1 0"/>
<feBlend mode="normal" in2="BackgroundImageFix" result="effect1_dropShadow_86_36"/>
<feBlend mode="normal" in="SourceGraphic" in2="effect1_dropShadow_86_36" result="shape"/>
</filter>
</defs>
</svg>
