<svg width="169" height="528" viewBox="0 0 169 528" fill="none" xmlns="http://www.w3.org/2000/svg">
<path d="M27.5442 67.692C32.0202 68.8101 22.1149 84.1637 23.2039 87.9725C24.1455 91.2655 46.8041 82.5394 46.2504 81.9861" stroke="black" stroke-opacity="0.6" stroke-linecap="round"/>
<path d="M12.1393 80.8866C12.1393 89.9141 7.69921 98.2436 4.19222 106.421C3.36442 108.351 -2.0866 117.726 3.45864 117.111C12.9622 116.055 23.2514 110.608 31.8847 106.726C35.0112 105.32 38.548 104.672 38.548 100.678" stroke="black" stroke-opacity="0.6" stroke-linecap="round"/>
<path d="M89.1211 21.4658C89.4082 19.1703 102.674 17.1959 104.771 17.0676C111.475 16.6574 113.565 15.193 108.866 23.1151C105.433 28.9045 102.124 35.0109 98.5353 40.6468C97.8723 41.688 97.924 42.6334 97.924 43.8233C97.924 45.8121 98.395 39.8458 99.0244 37.9591" stroke="black" stroke-opacity="0.6" stroke-linecap="round"/>
<path d="M104.825 1C112.429 4.57594 121.35 4.29865 129.583 4.29865C131.298 4.29865 141.137 3.26664 141.137 5.3982C141.137 8.18014 138.188 10.6256 136.674 12.6674C133.268 17.2624 129.978 21.9614 126.893 26.7783C125.353 29.1829 123.225 37.4381 121.33 38.3847" stroke="black" stroke-opacity="0.6" stroke-linecap="round"/>
<path d="M48.4512 38.0043C48.7783 41.2733 52.5973 43.9754 54.0141 46.9839C56.3745 51.9961 58.5557 57.2674 60.5552 62.4387C61.1687 64.0255 65.346 77.1989 67.1573 75.3889" stroke="black" stroke-opacity="0.6" stroke-linecap="round"/>
<path d="M26.4441 32.5064C26.4441 35.2621 25.655 38.7958 28.0947 40.6919C31.3256 43.203 31.4211 37.6488 30.6011 35.8051C28.1893 30.3826 20.1116 42.4024 29.7452 42.4024C32.0342 42.4024 34.7012 39.78 32.435 37.5155C30.1971 35.2792 25.4609 38.7321 27.789 41.0585C30.3636 43.6311 32.3849 37.0653 31.8848 35.3164C30.8438 31.6757 27.8647 39.5634 29.7452 35.8051" stroke="black" stroke-opacity="0.6" stroke-linecap="round"/>
<path d="M50.6519 21.5109C46.9007 21.9274 47.7045 29.3424 52.2413 28.0472C55.2207 27.1965 50.6128 19.8396 47.5953 22.8548C44.0082 26.4393 46.7214 29.9497 51.1409 29.1467C57.3073 28.0264 53.4951 21.7272 49.796 25.0539C48.5174 26.2039 55.722 28.5226 53.8918 22.1218C52.4405 17.046 48.2905 28.7575 53.0971 23.9544C56.5228 20.5313 50.6519 16.9916 50.6519 22.0607C50.6519 26.6497 50.6519 21.0312 50.6519 27.0087" stroke="black" stroke-opacity="0.6" stroke-linecap="round"/>
<path d="M115.432 183.478C115.466 184.03 115.521 184.727 115.594 185.402C115.728 187.107 115.991 188.43 115.952 190.141C115.938 190.781 115.798 191.617 115.651 192.149C115.48 192.772 115.343 193.414 115.125 193.969C114.972 194.361 114.804 194.722 114.651 195.114C114.474 195.564 114.289 196.083 114.081 196.463C113.688 197.177 113.159 197.553 112.667 197.898C112.116 198.286 111.239 198.717 110.64 198.768C110.059 198.818 109.475 198.783 110.455 198.951C110.568 198.944 110.676 198.976 110.789 198.991C111.281 199.056 111.797 199.148 112.287 199.324C112.582 199.43 112.866 199.631 113.156 199.801C113.396 199.943 113.646 200.07 113.878 200.284C114.338 200.709 114.771 201.489 115.119 202.267C115.42 202.939 115.728 203.6 116.028 204.271C116.22 204.701 116.397 205.186 116.531 205.702C116.67 206.236 116.823 206.726 116.949 207.275C117.083 207.856 117.209 208.445 117.349 209.021C117.594 210.03 117.85 211.164 117.924 212.272C117.978 213.088 117.975 213.962 118.169 214.724C118.3 215.234 118.445 215.733 118.568 216.251C118.573 216.291 118.579 216.331 118.584 216.371C118.612 216.588 118.68 216.825 118.699 217.037C118.703 217.081 118.687 216.802 118.675 216.74C118.642 216.575 118.606 216.412 118.568 216.251C118.397 214.937 118.221 213.631 118.138 212.294C118.055 210.951 118.025 209.614 117.942 208.272C117.891 207.462 117.813 206.638 117.862 205.842C117.91 205.038 118.006 204.204 118.184 203.507C118.522 202.18 119.161 201.274 119.737 200.459L119.745 200.447C120.215 199.781 120.667 198.866 121.22 198.483C121.698 198.152 122.143 197.996 122.661 197.964L124.031 197.879C124.135 197.873 123.566 197.837 123.228 197.819C121.253 197.58 120.69 197.365 120.131 196.974C119.688 196.664 119.282 196.323 118.882 195.761C118.376 195.047 117.919 194.211 117.506 193.252C116.703 191.387 116.234 189.213 115.806 186.932C115.725 186.498 115.653 185.957 115.594 185.402C115.579 185.211 115.495 183.538 115.432 183.478Z" fill="#FF7A00" fill-opacity="0.46"/>
<path d="M110.455 198.951C110.568 198.944 110.676 198.976 110.789 198.991C111.281 199.056 111.797 199.148 112.287 199.324C112.582 199.43 112.866 199.631 113.156 199.801C113.396 199.943 113.646 200.07 113.878 200.284C114.338 200.709 114.771 201.489 115.119 202.267C115.42 202.939 115.728 203.6 116.028 204.271C116.22 204.701 116.397 205.186 116.531 205.702C116.67 206.236 116.823 206.726 116.949 207.275C117.083 207.856 117.209 208.445 117.349 209.021C117.594 210.03 117.85 211.164 117.924 212.272C117.978 213.088 117.975 213.962 118.169 214.724C118.34 215.392 118.538 216.043 118.675 216.74C118.687 216.802 118.703 217.081 118.699 217.037C118.68 216.825 118.612 216.588 118.584 216.371C118.407 215.016 118.224 213.671 118.138 212.294C118.055 210.951 118.025 209.614 117.942 208.272C117.891 207.462 117.813 206.638 117.862 205.842C117.91 205.038 118.006 204.204 118.184 203.507C118.524 202.174 119.167 201.266 119.745 200.447C120.215 199.781 120.667 198.866 121.22 198.483C121.698 198.152 122.143 197.996 122.661 197.964C123.118 197.936 123.575 197.908 124.031 197.879C124.224 197.867 122.081 197.752 123.449 197.845C121.294 197.595 120.711 197.379 120.131 196.974C119.688 196.664 119.282 196.323 118.882 195.761C118.376 195.047 117.919 194.211 117.506 193.252C116.703 191.387 116.234 189.213 115.806 186.932C115.626 185.971 115.494 184.484 115.432 183.478C115.495 183.538 115.579 185.211 115.594 185.402C115.728 187.107 115.991 188.43 115.952 190.141C115.938 190.781 115.798 191.617 115.651 192.149C115.48 192.772 115.343 193.414 115.125 193.969C114.972 194.361 114.804 194.722 114.651 195.114C114.474 195.564 114.289 196.083 114.081 196.463C113.688 197.177 113.159 197.553 112.667 197.898C112.116 198.286 111.239 198.717 110.64 198.768C110.059 198.818 109.475 198.783 110.455 198.951ZM110.455 198.951C110.4 198.955 110.41 198.954 110.455 198.951Z" stroke="black" stroke-opacity="0.6" stroke-linecap="round"/>
<g filter="url(#filter0_d_170_74)">
<g clip-path="url(#clip0_170_74)">
<rect x="117.399" y="336" width="36" height="36.1315" rx="6" transform="rotate(46.9401 117.399 336)" fill="white"/>
<path d="M118.607 361.442C118.184 360.622 118.043 359.887 118.184 359.237C118.328 358.591 118.684 358.003 119.25 357.474L120.273 356.517C120.646 356.169 120.857 355.813 120.904 355.45C120.956 355.084 120.816 354.725 120.486 354.372L121.221 353.686C121.55 354.039 121.896 354.205 122.258 354.185C122.623 354.162 122.994 353.975 123.37 353.623L124.399 352.662C124.968 352.13 125.579 351.815 126.23 351.718C126.888 351.621 127.612 351.812 128.402 352.29L128.004 353.036C127.545 352.778 127.091 352.713 126.642 352.839C126.199 352.966 125.758 353.235 125.318 353.646L124.29 354.607C123.94 354.934 123.567 355.152 123.17 355.261C122.772 355.37 122.367 355.353 121.952 355.21C122.064 355.636 122.05 356.045 121.911 356.437C121.775 356.826 121.536 357.181 121.193 357.501L120.169 358.458C119.729 358.869 119.433 359.289 119.28 359.719C119.126 360.156 119.161 360.613 119.383 361.091L118.607 361.442Z" fill="#212B36"/>
<path d="M103.802 371.441L113.671 362.219L115.463 364.137L114.689 364.86L113.816 363.926L105.495 371.702L106.368 372.636L105.594 373.359L103.802 371.441Z" fill="#212B36"/>
</g>
<rect x="117.375" y="336.707" width="35" height="35.1315" rx="5.5" transform="rotate(46.9401 117.375 336.707)" stroke="#212B36"/>
</g>
<g filter="url(#filter1_d_170_74)">
<g clip-path="url(#clip1_170_74)">
<rect x="77" y="320.471" width="36" height="34.5546" rx="6" transform="rotate(-20.2691 77 320.471)" fill="white"/>
<path d="M96.9608 329.611L96.4249 328.949C96.8298 328.624 97.0616 328.233 97.1205 327.774C97.1809 327.319 97.1069 326.809 96.8985 326.245L96.413 324.931C96.2441 324.473 96.1927 324.038 96.2587 323.625C96.3248 323.212 96.5248 322.839 96.8588 322.507C96.3922 322.48 95.9996 322.331 95.6809 322.06C95.3622 321.789 95.1168 321.421 94.9447 320.955L94.4569 319.634C94.2485 319.069 93.9728 318.632 93.6298 318.321C93.2852 318.007 92.8544 317.86 92.3374 317.88L92.3169 317.035C93.2331 316.964 93.9612 317.121 94.5012 317.504C95.0439 317.882 95.4502 318.436 95.7202 319.167L96.208 320.488C96.3864 320.971 96.6336 321.305 96.9495 321.49C97.2638 321.67 97.6497 321.676 98.1072 321.507L98.4553 322.449C97.9979 322.618 97.7099 322.878 97.5913 323.227C97.4711 323.573 97.4995 323.985 97.6763 324.464L98.1618 325.779C98.4302 326.505 98.4817 327.191 98.3163 327.835C98.1552 328.477 97.7034 329.069 96.9608 329.611Z" fill="#212B36"/>
<path d="M103.272 346.089L102.905 345.095L104.111 344.65L100.165 333.967L98.9599 334.412L98.5928 333.418L101.062 332.506L105.741 345.177L103.272 346.089Z" fill="#212B36"/>
</g>
<rect x="77.6423" y="320.767" width="35" height="33.5546" rx="5.5" transform="rotate(-20.2691 77.6423 320.767)" stroke="#212B36"/>
</g>
<path d="M145.538 405.233V526.966" stroke="black" stroke-opacity="0.6" stroke-linecap="round"/>
<path d="M140.005 453.65V514.516" stroke="black" stroke-opacity="0.6" stroke-linecap="round"/>
<path d="M24.4973 508.982H167.671" stroke="black" stroke-opacity="0.6" stroke-linecap="round"/>
<defs>
<filter id="filter0_d_170_74" x="90" y="336" width="52.9785" height="53.9723" filterUnits="userSpaceOnUse" color-interpolation-filters="sRGB">
<feFlood flood-opacity="0" result="BackgroundImageFix"/>
<feColorMatrix in="SourceAlpha" type="matrix" values="0 0 0 0 0 0 0 0 0 0 0 0 0 0 0 0 0 0 127 0" result="hardAlpha"/>
<feMorphology radius="1" operator="dilate" in="SourceAlpha" result="effect1_dropShadow_170_74"/>
<feOffset dy="2"/>
<feColorMatrix type="matrix" values="0 0 0 0 0 0 0 0 0 0 0 0 0 0 0 0 0 0 1 0"/>
<feBlend mode="normal" in2="BackgroundImageFix" result="effect1_dropShadow_170_74"/>
<feBlend mode="normal" in="SourceGraphic" in2="effect1_dropShadow_170_74" result="shape"/>
</filter>
<filter id="filter1_d_170_74" x="76" y="308" width="47.7415" height="47.8862" filterUnits="userSpaceOnUse" color-interpolation-filters="sRGB">
<feFlood flood-opacity="0" result="BackgroundImageFix"/>
<feColorMatrix in="SourceAlpha" type="matrix" values="0 0 0 0 0 0 0 0 0 0 0 0 0 0 0 0 0 0 127 0" result="hardAlpha"/>
<feMorphology radius="1" operator="dilate" in="SourceAlpha" result="effect1_dropShadow_170_74"/>
<feOffset dy="2"/>
<feColorMatrix type="matrix" values="0 0 0 0 0 0 0 0 0 0 0 0 0 0 0 0 0 0 1 0"/>
<feBlend mode="normal" in2="BackgroundImageFix" result="effect1_dropShadow_170_74"/>
<feBlend mode="normal" in="SourceGraphic" in2="effect1_dropShadow_170_74" result="shape"/>
</filter>
<clipPath id="clip0_170_74">
<rect x="117.399" y="336" width="36" height="36.1315" rx="6" transform="rotate(46.9401 117.399 336)" fill="white"/>
</clipPath>
<clipPath id="clip1_170_74">
<rect x="77" y="320.471" width="36" height="34.5546" rx="6" transform="rotate(-20.2691 77 320.471)" fill="white"/>
</clipPath>
</defs>
</svg>
