<svg width="250" height="579" viewBox="0 0 250 579" fill="none" xmlns="http://www.w3.org/2000/svg">
<path d="M34.5489 489.653C34.5253 490.118 34.5055 490.707 34.5023 491.28C34.5023 491.28 34.5023 491.28 34.5023 491.28C34.4534 492.722 34.5479 493.855 34.354 495.284C34.2814 495.819 34.0848 496.506 33.9115 496.938C33.7089 497.443 33.5333 497.968 33.2987 498.412C33.133 498.726 32.9584 499.013 32.7927 499.327C32.6025 499.687 32.3983 500.104 32.1876 500.402C31.7913 500.964 31.3123 501.228 30.8676 501.471C30.3692 501.744 29.5936 502.022 29.0872 502.008C28.5951 501.995 28.1092 501.911 28.915 502.144C29.0102 502.149 29.0975 502.186 29.1908 502.209C29.597 502.31 30.0198 502.436 30.4144 502.63C30.6511 502.746 30.8703 502.941 31.0966 503.111C31.2845 503.253 31.4816 503.383 31.6558 503.584C32.0013 503.984 32.2897 504.678 32.5079 505.363C32.6964 505.955 32.8913 506.537 33.0792 507.128C33.1997 507.506 33.3016 507.929 33.3651 508.374C33.4309 508.835 33.5131 509.26 33.5669 509.732C33.6237 510.231 33.6738 510.737 33.7365 511.232C33.8464 512.101 33.9532 513.075 33.9101 514.01C33.8784 514.699 33.7927 515.431 33.8836 516.087C33.9445 516.527 34.0193 516.959 34.0731 517.404C34.0737 517.438 34.0743 517.472 34.0749 517.506C34.078 517.691 34.1122 517.896 34.1084 518.075C34.1076 518.112 34.1205 517.877 34.1161 517.824C34.1045 517.682 34.0898 517.543 34.0731 517.404C34.0539 516.287 34.0306 515.176 34.0876 514.049C34.1448 512.916 34.2464 511.793 34.3037 510.661C34.3382 509.978 34.3508 509.28 34.4668 508.617C34.5837 507.949 34.7431 507.259 34.9578 506.692C35.3667 505.613 35.9882 504.914 36.5474 504.285L36.5552 504.277C37.0122 503.763 37.4776 503.039 37.9771 502.771C38.4089 502.539 38.7961 502.451 39.2332 502.473L40.3891 502.531C40.4763 502.536 40.0034 502.452 39.7216 502.405C38.0897 502.017 37.639 501.784 37.2072 501.403C36.8654 501.102 36.5576 500.778 36.2764 500.269C35.9195 499.623 35.6163 498.879 35.3612 498.037C34.8652 496.399 34.678 494.534 34.5354 492.582C34.5083 492.211 34.4996 491.751 34.5023 491.28C34.5077 491.119 34.5963 489.709 34.5489 489.653Z" fill="#FF7A00" fill-opacity="0.46"/>
<path d="M28.915 502.144C29.0102 502.149 29.0975 502.186 29.1908 502.209C29.597 502.31 30.0198 502.436 30.4144 502.63C30.6511 502.746 30.8703 502.941 31.0966 503.111C31.2845 503.253 31.4816 503.383 31.6558 503.584C32.0013 503.984 32.2897 504.678 32.5079 505.363C32.6964 505.955 32.8913 506.537 33.0792 507.128C33.1997 507.506 33.3016 507.929 33.3651 508.374C33.4309 508.835 33.5131 509.26 33.5669 509.732C33.6237 510.231 33.6738 510.737 33.7365 511.232C33.8464 512.101 33.9532 513.075 33.9101 514.01C33.8784 514.699 33.7927 515.431 33.8836 516.087C33.9634 516.663 34.0672 517.227 34.1161 517.824C34.1205 517.877 34.1076 518.112 34.1084 518.075C34.1122 517.896 34.078 517.691 34.0749 517.506C34.0554 516.355 34.0289 515.211 34.0876 514.049C34.1448 512.916 34.2464 511.793 34.3037 510.661C34.3382 509.978 34.3508 509.28 34.4668 508.617C34.5837 507.949 34.7431 507.259 34.9578 506.692C35.3686 505.608 35.9939 504.908 36.5552 504.277C37.0122 503.763 37.4776 503.039 37.9771 502.771C38.4089 502.539 38.7961 502.451 39.2332 502.473C39.6185 502.492 40.0038 502.512 40.3891 502.531C40.5517 502.539 38.7672 502.24 39.9048 502.448C38.1226 502.034 37.6547 501.798 37.2072 501.403C36.8654 501.102 36.5576 500.778 36.2764 500.269C35.9195 499.623 35.6163 498.879 35.3612 498.037C34.8651 496.399 34.678 494.534 34.5354 492.582C34.4753 491.76 34.506 490.502 34.5489 489.653C34.5963 489.709 34.5077 491.119 34.5023 491.28C34.4534 492.722 34.5479 493.855 34.354 495.284C34.2814 495.819 34.0848 496.506 33.9115 496.938C33.7089 497.443 33.5333 497.968 33.2987 498.412C33.133 498.726 32.9584 499.013 32.7927 499.327C32.6025 499.687 32.3983 500.104 32.1876 500.402C31.7913 500.964 31.3123 501.228 30.8676 501.471C30.3692 501.744 29.5936 502.022 29.0872 502.008C28.5951 501.995 28.1092 501.911 28.915 502.144ZM28.915 502.144C28.8686 502.142 28.8763 502.142 28.915 502.144Z" stroke="black" stroke-opacity="0.6" stroke-linecap="round"/>
<g filter="url(#filter0_d_235_98)">
<rect width="36.2165" height="36.4358" rx="6" transform="matrix(0.726276 0.687403 -0.684519 0.728995 33.1648 0)" fill="white"/>
<path d="M28.9051 26.2601L29.4947 25.6322L30.435 26.2586L35.8022 20.5427L35.124 19.6372L35.7182 19.0043L40.961 23.9665L39.4543 25.5712L38.6152 24.777L39.3222 23.8743L36.7803 21.4684L31.4131 27.1843L32.0913 28.0898L31.5017 28.7177L28.9051 26.2601Z" fill="#212B36"/>
<rect x="0.0208786" y="0.708199" width="35.2165" height="35.4358" rx="5.5" transform="matrix(0.726276 0.687403 -0.684519 0.728995 33.6553 0.177573)" stroke="#212B36"/>
</g>
<path d="M0.688721 524.379H248.535" stroke="black" stroke-opacity="0.6" stroke-linecap="round"/>
<path d="M93.6887 518.379H248.366" stroke="black" stroke-opacity="0.6" stroke-linecap="round"/>
<path d="M10.6887 243.379L10.6887 578.379" stroke="black" stroke-opacity="0.6" stroke-linecap="round"/>
<defs>
<filter id="filter0_d_235_98" x="7.22388" y="0" width="53.2441" height="54.457" filterUnits="userSpaceOnUse" color-interpolation-filters="sRGB">
<feFlood flood-opacity="0" result="BackgroundImageFix"/>
<feColorMatrix in="SourceAlpha" type="matrix" values="0 0 0 0 0 0 0 0 0 0 0 0 0 0 0 0 0 0 127 0" result="hardAlpha"/>
<feMorphology radius="1" operator="dilate" in="SourceAlpha" result="effect1_dropShadow_235_98"/>
<feOffset dy="2"/>
<feColorMatrix type="matrix" values="0 0 0 0 0 0 0 0 0 0 0 0 0 0 0 0 0 0 1 0"/>
<feBlend mode="normal" in2="BackgroundImageFix" result="effect1_dropShadow_235_98"/>
<feBlend mode="normal" in="SourceGraphic" in2="effect1_dropShadow_235_98" result="shape"/>
</filter>
</defs>
</svg>
