<svg width="47" height="79" viewBox="0 0 47 79" fill="none" xmlns="http://www.w3.org/2000/svg">
<path d="M4.70826 14.746C0.736669 12.1857 1.67519 0.312015 7.59247 1.03135C15.2417 1.96122 14.3659 17.0128 14.3027 21.9015C14.2225 28.0974 13.9401 34.8446 12.2425 40.8634C12.1743 41.1052 12.3447 40.36 12.478 40.1479C13.5061 38.5111 15.2167 37.5888 17.128 37.4348C23.4707 36.9237 26.3572 43.238 26.0749 48.7941C25.6174 57.799 19.2635 66.7142 11.9482 71.453C9.55492 73.0034 7.09395 74.1335 4.20794 73.9873C-0.156697 73.7662 2.13687 71.3672 1 68.9486" stroke="black" stroke-opacity="0.6" stroke-linecap="round"/>
<path d="M6.98951 14.746C3.01792 12.1857 3.95644 0.312015 9.87372 1.03135C17.5229 1.96122 16.6471 17.0128 16.5839 21.9015C16.5038 28.0974 16.2213 34.8446 14.5238 40.8634C14.4556 41.1052 14.626 40.36 14.7592 40.1479C15.7874 38.5111 17.4979 37.5888 19.4092 37.4348C25.7519 36.9237 28.6385 43.238 28.3562 48.7941C27.8986 57.799 21.5448 66.7142 14.2295 71.453C11.8362 73.0034 9.3752 74.1335 6.48919 73.9873C2.12455 73.7662 4.41812 71.3672 3.28125 68.9486" stroke="black" stroke-opacity="0.6" stroke-linecap="round"/>
<path d="M39.6014 70C36.9315 71.7102 37.9712 75.1275 40.0185 76.9854C43.6715 80.3004 45.8947 74.6197 43.6208 72.4087C42.1055 70.9354 39.5396 76.9424 43.3554 76.6412C45.274 76.4898 47.6478 73.1658 44.3792 73.1658C42.362 73.1658 42.4997 74.8835 43.6966 74.6798C44.6928 74.5103 42.272 68.4563 39.9047 72.7528C37.6065 76.924 45.2614 78.6513 45.6684 74.5422C46.0809 70.3779 41.5833 68.97 40.2839 73.097" stroke="black" stroke-opacity="0.6" stroke-linecap="round"/>
</svg>
