<svg width="325" height="94" viewBox="0 0 325 94" fill="none" xmlns="http://www.w3.org/2000/svg">
<rect x="0.5" y="5.5" width="324" height="88" fill="#FF7A00" fill-opacity="0.46" stroke="black"/>
<path d="M2.5 0.5H2.73846H3.47567H4.21161H4.9463H5.67974H6.41193H7.14289H7.87262H8.60111H9.32838H10.0544H10.7793H11.5029H12.2253H12.9466H13.6666H14.3854H15.1031H15.8196H16.5349H17.249H17.962H18.6738H19.3845H20.094H20.8023H21.5096H22.2156H22.9206H23.6244H24.3272H25.0288H25.7292H26.4286H27.1269H27.8241H28.5202H29.2152H29.9092H30.602H31.2938H31.9845H32.6742H33.3628H34.0504H34.7369H35.4224H36.1068H36.7902H37.4726H38.1539H38.8343H39.5136H40.192H40.8693H41.5456H42.221H42.8953H43.5687H44.2411H44.9125H45.583H46.2525H46.921H47.5886H48.2552H48.921H49.5857H50.2496H50.9125H51.5745H52.2355H52.8957H53.5549H54.2133H54.8707H55.5273H56.183H56.8378H57.4917H58.1447H58.7969H59.4482H60.0987H60.7483H61.397H62.045H62.692H63.3383H63.9837H64.6283H65.2721H65.9151H66.5572H67.1986H67.8391H68.4789H69.1179H69.7561H70.3935H71.0301H71.666H72.3011H72.9355H73.5691H74.2019H74.834H75.4654H76.096H76.726H77.3551H77.9836H78.6114H79.2384H79.8648H80.4904H81.1153H81.7396H82.3632H82.9861H83.6083H84.2299H84.8508H85.471H86.0906H86.7095H87.3278H87.9454H88.5625H89.1788H89.7946H90.4097H91.0243H91.6382H92.2515H92.8642H93.4763H94.0879H94.6988H95.3092H95.919H96.5282H97.1368H97.7449H98.3525H98.9594H99.5659H100.172H100.777H101.382H101.986H102.59H103.193H103.796H104.398H105H105.601H106.202H106.803H107.402H108.002H108.601H109.199H109.797H110.394H110.991H111.588H112.184H112.78H113.375H113.97H114.564H115.158H115.752H116.345H116.938H117.53H118.122H118.714H119.305H119.896H120.487H121.077H121.666H122.256H122.845H123.434H124.022H124.61H125.198H125.785H126.372H126.959H127.545H128.131H128.717H129.303H129.888H130.473H131.058H131.642H132.226H132.81H133.393H133.977H134.56H135.143H135.725H136.307H136.89H137.471H138.053H138.635H139.216H139.797H140.378H140.958H141.539H142.119H142.699H143.279H143.858H144.438H145.017H145.596H146.176H146.754H147.333H147.912H148.49H149.069H149.647H150.225H150.803H151.381H151.959H152.536H153.114H153.691H154.269H154.846H155.423H156.001H156.578H157.155H157.732H158.309H158.886H159.463H160.039H160.616H161.193H161.77H162.347H162.923H163.5H164.077H164.653H165.23H165.807H166.384H166.961H167.537H168.114H168.691H169.268H169.845H170.422H170.999H171.577H172.154H172.731H173.309H173.886H174.464H175.041H175.619H176.197H176.775H177.353H177.931H178.51H179.088H179.667H180.246H180.825H181.404H181.983H182.562H183.142H183.721H184.301H184.881H185.461H186.042H186.622H187.203H187.784H188.365H188.947H189.529H190.11H190.693H191.275H191.857H192.44H193.023H193.607H194.19H194.774H195.358H195.942H196.527H197.112H197.697H198.283H198.869H199.455H200.041H200.628H201.215H201.802H202.39H202.978H203.566H204.155H204.744H205.334H205.923H206.513H207.104H207.695H208.286H208.878H209.47H210.062H210.655H211.248H211.842H212.436H213.03H213.625H214.22H214.816H215.412H216.009H216.606H217.203H217.801H218.399H218.998H219.598H220.197H220.798H221.399H222H222.602H223.204H223.807H224.41H225.014H225.618H226.223H226.828H227.434H228.041H228.648H229.255H229.863H230.472H231.081H231.691H232.301H232.912H233.524H234.136H234.749H235.362H235.976H236.59H237.205H237.821H238.438H239.055H239.672H240.29H240.909H241.529H242.149H242.77H243.392H244.014H244.637H245.26H245.885H246.51H247.135H247.762H248.389H249.016H249.645H250.274H250.904H251.535H252.166H252.798H253.431H254.065H254.699H255.334H255.97H256.607H257.244H257.882H258.521H259.161H259.801H260.443H261.085H261.728H262.372H263.016H263.662H264.308H264.955H265.603H266.252H266.901H267.552H268.203H268.855H269.508H270.162H270.817H271.473H272.129H272.787H273.445H274.104H274.764H275.426H276.088H276.75H277.414H278.079H278.745H279.411H280.079H280.748H281.417H282.087H282.759H283.431H284.105H284.779H285.454H286.131H286.808H287.486H288.166H288.846H289.527H290.21H290.893H291.578H292.263H292.95H293.637H294.326H295.015H295.706H296.398H297.091H297.785H298.48H299.176H299.873H300.571H301.271H301.971H302.673H303.376H304.079H304.784H305.49H306.198H306.906H307.616H308.326H309.038H309.751H310.465H311.18H311.897H312.615H313.333H314.053H314.775H315.497H316.221H316.946H317.672H318.399H319.127H319.857H320.588H321.32H322.054H322.788H323.524H324.262H324.5V87.5H2.5V0.5Z" fill="white" stroke="black"/>
</svg>
