<svg width="52" height="254" viewBox="0 0 52 254" fill="none" xmlns="http://www.w3.org/2000/svg">
<g filter="url(#filter0_d_198_116)">
<rect y="196.574" width="36.5559" height="36.5559" rx="2.43706" transform="rotate(-42.2404 0 196.574)" fill="white"/>
<path d="M27.7648 202.517L27.16 201.851L27.8872 200.92L22.3532 194.826L20.6089 196.41L21.4251 197.617L20.6428 198.327L18.9581 196.472L25.354 190.664L27.0387 192.519L26.2669 193.22L25.1388 192.296L23.3945 193.88L28.9285 199.975L29.9245 199.341L30.5293 200.007L27.7648 202.517Z" fill="#212B36"/>
<rect x="0.286877" y="196.588" width="36.1497" height="36.1497" rx="2.23397" transform="rotate(-42.2404 0.286877 196.588)" stroke="#212B36" stroke-width="0.406177"/>
</g>
<g filter="url(#filter1_d_198_116)">
<rect x="9.75977" y="210.993" width="36.5559" height="36.5559" rx="2.43706" transform="rotate(5.70207 9.75977 210.993)" fill="white"/>
<path d="M21.2539 235.319L21.3433 234.424L22.5212 234.341L23.3349 226.192L22.1967 225.878L22.2868 224.975L29.9454 225.74L29.6971 228.227L28.5746 228.114L28.5588 226.692L24.7366 226.311L24.4003 229.678L28.2154 230.059L28.1055 231.16L24.2904 230.779L23.9165 234.523L27.9661 234.928L28.265 233.515L29.3804 233.627L29.1328 236.106L21.2539 235.319Z" fill="#212B36"/>
<rect x="9.94167" y="211.215" width="36.1497" height="36.1497" rx="2.23397" transform="rotate(5.70207 9.94167 211.215)" stroke="#212B36" stroke-width="0.406177"/>
</g>
<path d="M26 1V153" stroke="black" stroke-opacity="0.6" stroke-linecap="round"/>
<path d="M28.4651 42.3478V114.698" stroke="black" stroke-opacity="0.6" stroke-linecap="round"/>
<defs>
<filter id="filter0_d_198_116" x="-0.812353" y="172" width="53.2626" height="54.0749" filterUnits="userSpaceOnUse" color-interpolation-filters="sRGB">
<feFlood flood-opacity="0" result="BackgroundImageFix"/>
<feColorMatrix in="SourceAlpha" type="matrix" values="0 0 0 0 0 0 0 0 0 0 0 0 0 0 0 0 0 0 127 0" result="hardAlpha"/>
<feMorphology radius="0.812353" operator="dilate" in="SourceAlpha" result="effect1_dropShadow_198_116"/>
<feOffset dy="1.62471"/>
<feColorMatrix type="matrix" values="0 0 0 0 0 0 0 0 0 0 0 0 0 0 0 0 0 0 1 0"/>
<feBlend mode="normal" in2="BackgroundImageFix" result="effect1_dropShadow_198_116"/>
<feBlend mode="normal" in="SourceGraphic" in2="effect1_dropShadow_198_116" result="shape"/>
</filter>
<filter id="filter1_d_198_116" x="5.31533" y="210.993" width="41.6318" height="42.4441" filterUnits="userSpaceOnUse" color-interpolation-filters="sRGB">
<feFlood flood-opacity="0" result="BackgroundImageFix"/>
<feColorMatrix in="SourceAlpha" type="matrix" values="0 0 0 0 0 0 0 0 0 0 0 0 0 0 0 0 0 0 127 0" result="hardAlpha"/>
<feMorphology radius="0.812353" operator="dilate" in="SourceAlpha" result="effect1_dropShadow_198_116"/>
<feOffset dy="1.62471"/>
<feColorMatrix type="matrix" values="0 0 0 0 0 0 0 0 0 0 0 0 0 0 0 0 0 0 1 0"/>
<feBlend mode="normal" in2="BackgroundImageFix" result="effect1_dropShadow_198_116"/>
<feBlend mode="normal" in="SourceGraphic" in2="effect1_dropShadow_198_116" result="shape"/>
</filter>
</defs>
</svg>
