<svg width="179" height="815" viewBox="0 0 179 815" fill="none" xmlns="http://www.w3.org/2000/svg">
<path d="M28 1L28 734" stroke="black" stroke-opacity="0.6" stroke-linecap="round"/>
<path d="M17 74H166.025" stroke="black" stroke-opacity="0.6" stroke-linecap="round"/>
<path d="M21 150H144.702" stroke="black" stroke-opacity="0.6" stroke-linecap="round"/>
<path d="M28 431H178" stroke="black" stroke-opacity="0.6" stroke-linecap="round"/>
<path d="M13 510H171" stroke="black" stroke-opacity="0.6" stroke-linecap="round"/>
<path d="M13 599H166" stroke="black" stroke-opacity="0.6" stroke-linecap="round"/>
<path d="M-14 689H135" stroke="black" stroke-opacity="0.6" stroke-linecap="round"/>
<path d="M80.6682 156.519H140.379" stroke="black" stroke-opacity="0.6" stroke-linecap="round"/>
<path d="M21.8618 495.786V799.77" stroke="black" stroke-opacity="0.6" stroke-linecap="round"/>
<path d="M86.0964 512.976H154.855" stroke="black" stroke-opacity="0.6" stroke-linecap="round"/>
<path d="M65.0872 685.597H109.569" stroke="black" stroke-opacity="0.6" stroke-linecap="round"/>
<path d="M79.4319 21.4776C79.4662 22.0297 79.5213 22.7265 79.5938 23.4019C79.7282 25.1075 79.9906 26.4303 79.9524 28.1406C79.9381 28.7813 79.798 29.6175 79.6512 30.1495C79.4796 30.7715 79.3427 31.414 79.1253 31.9688C78.9718 32.3608 78.8042 32.7224 78.6507 33.1142C78.4745 33.564 78.2894 34.0826 78.0808 34.4626C77.6885 35.1772 77.1592 35.5526 76.6673 35.8984C76.1162 36.2859 75.2391 36.7168 74.6404 36.7682C74.0586 36.8182 73.4746 36.7834 74.4555 36.9515C74.5684 36.9445 74.6761 36.9763 74.7893 36.9912C75.2815 37.056 75.7966 37.1482 76.2875 37.3241C76.5819 37.4296 76.8663 37.6305 77.1557 37.8011C77.396 37.9427 77.6456 38.0696 77.8779 38.2839C78.3383 38.7088 78.7708 39.4887 79.1192 40.2669C79.4202 40.939 79.7275 41.5998 80.0276 42.2706C80.22 42.7008 80.3965 43.186 80.5306 43.7017C80.6696 44.2361 80.8231 44.7258 80.9493 45.2748C81.0829 45.8558 81.2093 46.4452 81.3491 47.0208C81.5944 48.0301 81.85 49.1637 81.9239 50.2724C81.9782 51.088 81.9747 51.962 82.1694 52.7241C82.2996 53.2339 82.4454 53.7334 82.5682 54.2512C82.5733 54.291 82.5785 54.3308 82.5837 54.3706C82.612 54.5878 82.6797 54.8249 82.6991 55.0374C82.7031 55.081 82.6869 54.8023 82.6747 54.7401C82.6422 54.5748 82.6063 54.4121 82.5682 54.2512C82.3966 52.937 82.2212 51.6308 82.1382 50.294C82.0548 48.9513 82.0249 47.6143 81.9415 46.2719C81.8912 45.4622 81.8132 44.6381 81.8615 43.8416C81.9103 43.0381 82.0063 42.2038 82.1839 41.5071C82.522 40.1804 83.1614 39.2741 83.7369 38.4585L83.7449 38.4472C84.2151 37.7808 84.6673 36.866 85.2202 36.483C85.6982 36.1519 86.143 35.9965 86.6611 35.9643L88.0313 35.8791C88.1347 35.8727 87.5661 35.8367 87.2278 35.8191C85.2525 35.5796 84.6903 35.3652 84.1306 34.9737C83.6876 34.6639 83.2816 34.3229 82.8824 33.7605C82.3757 33.0466 81.9192 32.2106 81.5064 31.2518C80.7034 29.3872 80.2343 27.2133 79.8063 24.9324C79.7249 24.4985 79.6534 23.9575 79.5938 23.4019C79.5788 23.2115 79.4954 21.5378 79.4319 21.4776Z" fill="#FF7A00" fill-opacity="0.46"/>
<path d="M74.4555 36.9515C74.5684 36.9445 74.6761 36.9763 74.7893 36.9912C75.2815 37.056 75.7966 37.1482 76.2875 37.3241C76.5819 37.4296 76.8663 37.6305 77.1557 37.8011C77.396 37.9427 77.6456 38.0696 77.8779 38.2839C78.3383 38.7088 78.7708 39.4887 79.1192 40.2669C79.4202 40.939 79.7275 41.5998 80.0276 42.2706C80.22 42.7008 80.3965 43.186 80.5306 43.7017C80.6696 44.2361 80.8231 44.7258 80.9493 45.2748C81.0829 45.8558 81.2093 46.4452 81.3491 47.0208C81.5944 48.0301 81.85 49.1637 81.9239 50.2723C81.9782 51.088 81.9747 51.962 82.1694 52.7241C82.3401 53.3923 82.5376 54.0428 82.6747 54.7401C82.6869 54.8023 82.7031 55.081 82.6991 55.0374C82.6797 54.8249 82.612 54.5878 82.5837 54.3706C82.4074 53.0161 82.2237 51.6713 82.1382 50.294C82.0548 48.9513 82.0249 47.6143 81.9415 46.2719C81.8912 45.4622 81.8132 44.6381 81.8615 43.8416C81.9103 43.0381 82.0063 42.2038 82.1839 41.5071C82.5236 40.1742 83.1674 39.2657 83.7449 38.4472C84.2151 37.7808 84.6673 36.866 85.2202 36.483C85.6982 36.1519 86.143 35.9965 86.6611 35.9643C87.1178 35.9359 87.5745 35.9075 88.0313 35.8791C88.2241 35.8672 86.0809 35.7524 87.4494 35.8454C85.2935 35.595 84.7107 35.3794 84.1306 34.9737C83.6876 34.6639 83.2816 34.3229 82.8824 33.7605C82.3757 33.0466 81.9192 32.2106 81.5064 31.2518C80.7034 29.3872 80.2343 27.2133 79.8063 24.9324C79.6259 23.9711 79.4944 22.4839 79.4319 21.4776C79.4954 21.5378 79.5788 23.2115 79.5938 23.4019C79.7282 25.1075 79.9906 26.4303 79.9524 28.1406C79.9381 28.7813 79.798 29.6175 79.6512 30.1495C79.4796 30.7715 79.3427 31.414 79.1253 31.9688C78.9718 32.3608 78.8042 32.7224 78.6507 33.1142C78.4745 33.564 78.2894 34.0826 78.0808 34.4626C77.6885 35.1772 77.1592 35.5526 76.6673 35.8984C76.1162 36.2859 75.2391 36.7168 74.6404 36.7682C74.0586 36.8182 73.4746 36.7834 74.4555 36.9515ZM74.4555 36.9515C74.4004 36.9549 74.4096 36.9543 74.4555 36.9515Z" stroke="black" stroke-opacity="0.6" stroke-linecap="round"/>
<g filter="url(#filter0_d_178_83)">
<rect x="73.6321" y="772" width="36.5559" height="36.5559" rx="2.43706" transform="rotate(5.70207 73.6321 772)" fill="white"/>
<path d="M85.0341 796.317L85.1235 795.422L86.3014 795.339L87.115 787.19L85.9769 786.876L86.0669 785.973L89.7826 786.344L89.6925 787.247L88.5146 787.33L88.1592 790.889L89.2888 791.002L91.9624 787.868C92.3991 787.376 92.7689 787.049 93.072 786.888C93.3756 786.722 93.7144 786.658 94.0886 786.695C94.3112 786.718 94.4955 786.765 94.6414 786.837C94.7925 786.904 94.9481 786.999 95.1082 787.12L94.8035 788.087C94.678 788.05 94.5662 788.02 94.4682 787.996C94.3754 787.968 94.2816 787.949 94.1868 787.939C93.9642 787.917 93.7689 787.957 93.6007 788.06C93.4374 788.163 93.2397 788.347 93.0076 788.611L90.4746 791.486L93.489 796.078L94.4446 796.353L94.3552 797.248L90.9592 796.909L91.0486 796.014L91.8471 795.993L91.8223 795.955L89.3771 792.202L88.0415 792.069L87.7009 795.479L88.8391 795.793L88.7497 796.688L85.0341 796.317Z" fill="#212B36"/>
<rect x="73.814" y="772.222" width="36.1497" height="36.1497" rx="2.23397" transform="rotate(5.70207 73.814 772.222)" stroke="#212B36" stroke-width="0.406177"/>
</g>
<defs>
<filter id="filter0_d_178_83" x="69.1876" y="772" width="41.6318" height="42.4441" filterUnits="userSpaceOnUse" color-interpolation-filters="sRGB">
<feFlood flood-opacity="0" result="BackgroundImageFix"/>
<feColorMatrix in="SourceAlpha" type="matrix" values="0 0 0 0 0 0 0 0 0 0 0 0 0 0 0 0 0 0 127 0" result="hardAlpha"/>
<feMorphology radius="0.812353" operator="dilate" in="SourceAlpha" result="effect1_dropShadow_178_83"/>
<feOffset dy="1.62471"/>
<feColorMatrix type="matrix" values="0 0 0 0 0 0 0 0 0 0 0 0 0 0 0 0 0 0 1 0"/>
<feBlend mode="normal" in2="BackgroundImageFix" result="effect1_dropShadow_178_83"/>
<feBlend mode="normal" in="SourceGraphic" in2="effect1_dropShadow_178_83" result="shape"/>
</filter>
</defs>
</svg>
