<svg width="89" height="263" viewBox="0 0 89 263" fill="none" xmlns="http://www.w3.org/2000/svg">
<g filter="url(#filter0_d_202_117)">
<g clip-path="url(#clip0_202_117)">
<rect x="58.8088" width="36" height="36" rx="2.47371" transform="rotate(35.3118 58.8088 0)" fill="white"/>
<path d="M65.1877 21.0682L65.7211 20.3152C65.4438 20.0714 65.2357 19.7996 65.0967 19.4999C64.9596 19.1975 64.9142 18.8772 64.9604 18.5389C65.0066 18.2006 65.1608 17.8519 65.423 17.4929L65.4449 17.4788L66.1939 18.0094C66.004 18.2775 65.8964 18.527 65.8711 18.7577C65.8485 18.9903 65.8903 19.2015 65.9966 19.3913C66.1048 19.5785 66.2575 19.7419 66.4546 19.8815C66.6807 20.0416 66.8999 20.1417 67.1124 20.1816C67.3248 20.2216 67.5215 20.2031 67.7025 20.126C67.886 20.0507 68.0448 19.9185 68.1789 19.7292C68.2906 19.5715 68.3543 19.4035 68.3701 19.2253C68.3885 19.0488 68.3538 18.8526 68.2661 18.6365C68.181 18.4223 68.0404 18.1806 67.8442 17.9114C67.5684 17.5541 67.3648 17.2146 67.2337 16.8927C67.1025 16.5708 67.0527 16.2593 67.0845 15.9582C67.1181 15.6544 67.2401 15.354 67.4505 15.0569C67.7577 14.6233 68.133 14.3582 68.5763 14.2617C69.0196 14.1652 69.479 14.2439 69.9544 14.4978L70.5716 13.6265L71.1945 14.0677L70.5745 14.943C70.9688 15.317 71.1751 15.7473 71.1935 16.234C71.2164 16.7199 71.0407 17.227 70.6665 17.7554L70.6113 17.7163L69.8937 17.208C70.1469 16.8505 70.269 16.5028 70.2598 16.1647C70.2532 15.8285 70.1027 15.5561 69.8083 15.3476C69.4982 15.1279 69.2079 15.0446 68.9374 15.0977C68.6687 15.1482 68.4348 15.314 68.2356 15.5953C68.1164 15.7635 68.0463 15.9349 68.0253 16.1095C68.0061 16.2814 68.0413 16.4741 68.1309 16.6875C68.2205 16.901 68.3711 17.1537 68.5827 17.4457C68.8582 17.8145 69.0589 18.158 69.1849 18.4762C69.3127 18.7917 69.3599 19.0955 69.3266 19.3877C69.2933 19.6799 69.1715 19.9745 68.9611 20.2715C68.6409 20.7236 68.2505 20.9878 67.7898 21.0641C67.3292 21.1405 66.8447 21.036 66.3362 20.7508L65.8028 21.5039L65.1877 21.0682Z" fill="#212B36"/>
<path d="M56.0541 34.1998L56.552 33.4969L57.5719 33.9848L58.291 32.9696L54.6428 30.3854L55.0814 29.7662L62.6496 26.6745L63.8099 27.4964L59.9928 32.885L61.1141 33.6792L60.5056 34.5383L59.3843 33.744L58.6652 34.7593L59.4638 35.5595L58.9659 36.2624L56.0541 34.1998ZM56.4228 30.3561L58.8995 32.1105L61.6062 28.2894L61.5806 28.2546L61.2596 28.4712L56.4228 30.3561Z" fill="black"/>
</g>
<rect x="58.8579" y="0.287371" width="35.5877" height="35.5877" rx="2.26756" transform="rotate(35.3118 58.8579 0.287371)" stroke="#212B36" stroke-width="0.412284"/>
</g>
<path d="M60.4319 228.478C60.4662 229.03 60.5213 229.727 60.5938 230.402C60.7282 232.107 60.9906 233.43 60.9524 235.141C60.9381 235.781 60.798 236.617 60.6512 237.149C60.4796 237.772 60.3427 238.414 60.1253 238.969C59.9718 239.361 59.8042 239.722 59.6507 240.114C59.4745 240.564 59.2894 241.083 59.0808 241.463C58.6885 242.177 58.1592 242.553 57.6673 242.898C57.1162 243.286 56.2391 243.717 55.6404 243.768C55.0586 243.818 54.4746 243.783 55.4555 243.951C55.5684 243.944 55.6761 243.976 55.7893 243.991C56.2815 244.056 56.7966 244.148 57.2875 244.324C57.5819 244.43 57.8663 244.631 58.1557 244.801C58.396 244.943 58.6456 245.07 58.8779 245.284C59.3383 245.709 59.7708 246.489 60.1192 247.267C60.4202 247.939 60.7275 248.6 61.0276 249.271C61.22 249.701 61.3965 250.186 61.5306 250.702C61.6696 251.236 61.8231 251.726 61.9493 252.275C62.0829 252.856 62.2093 253.445 62.3491 254.021C62.5944 255.03 62.85 256.164 62.9239 257.272C62.9782 258.088 62.9747 258.962 63.1694 259.724C63.2996 260.234 63.4454 260.733 63.5682 261.251C63.5733 261.291 63.5785 261.331 63.5837 261.371C63.612 261.588 63.6797 261.825 63.6991 262.037C63.7031 262.081 63.6869 261.802 63.6747 261.74C63.6422 261.575 63.6063 261.412 63.5682 261.251C63.3966 259.937 63.2212 258.631 63.1382 257.294C63.0548 255.951 63.0249 254.614 62.9415 253.272C62.8912 252.462 62.8132 251.638 62.8615 250.842C62.9103 250.038 63.0063 249.204 63.1839 248.507C63.522 247.18 64.1614 246.274 64.7369 245.459L64.7449 245.447C65.2151 244.781 65.6673 243.866 66.2202 243.483C66.6982 243.152 67.143 242.996 67.6611 242.964L69.0313 242.879C69.1347 242.873 68.5661 242.837 68.2278 242.819C66.2525 242.58 65.6903 242.365 65.1306 241.974C64.6876 241.664 64.2816 241.323 63.8824 240.761C63.3757 240.047 62.9192 239.211 62.5064 238.252C61.7034 236.387 61.2343 234.213 60.8063 231.932C60.7249 231.498 60.6534 230.957 60.5938 230.402C60.5788 230.211 60.4954 228.538 60.4319 228.478Z" fill="#FF7A00" fill-opacity="0.46"/>
<path d="M55.4555 243.951C55.5684 243.944 55.6761 243.976 55.7893 243.991C56.2815 244.056 56.7966 244.148 57.2875 244.324C57.5819 244.43 57.8663 244.631 58.1557 244.801C58.396 244.943 58.6456 245.07 58.8779 245.284C59.3383 245.709 59.7708 246.489 60.1192 247.267C60.4202 247.939 60.7275 248.6 61.0276 249.271C61.22 249.701 61.3965 250.186 61.5306 250.702C61.6696 251.236 61.8231 251.726 61.9493 252.275C62.0829 252.856 62.2093 253.445 62.3491 254.021C62.5944 255.03 62.85 256.164 62.9239 257.272C62.9782 258.088 62.9747 258.962 63.1694 259.724C63.3401 260.392 63.5376 261.043 63.6747 261.74C63.6869 261.802 63.7031 262.081 63.6991 262.037C63.6797 261.825 63.612 261.588 63.5837 261.371C63.4074 260.016 63.2237 258.671 63.1382 257.294C63.0548 255.951 63.0249 254.614 62.9415 253.272C62.8912 252.462 62.8132 251.638 62.8615 250.842C62.9103 250.038 63.0063 249.204 63.1839 248.507C63.5236 247.174 64.1674 246.266 64.7449 245.447C65.2151 244.781 65.6673 243.866 66.2202 243.483C66.6982 243.152 67.143 242.996 67.6611 242.964C68.1178 242.936 68.5745 242.908 69.0313 242.879C69.2241 242.867 67.0809 242.752 68.4494 242.845C66.2935 242.595 65.7107 242.379 65.1306 241.974C64.6876 241.664 64.2816 241.323 63.8824 240.761C63.3757 240.047 62.9192 239.211 62.5064 238.252C61.7034 236.387 61.2343 234.213 60.8063 231.932C60.6259 230.971 60.4944 229.484 60.4319 228.478C60.4954 228.538 60.5788 230.211 60.5938 230.402C60.7282 232.107 60.9906 233.43 60.9524 235.141C60.9381 235.781 60.798 236.617 60.6512 237.149C60.4796 237.772 60.3427 238.414 60.1253 238.969C59.9718 239.361 59.8042 239.722 59.6507 240.114C59.4745 240.564 59.2894 241.083 59.0808 241.463C58.6885 242.177 58.1592 242.553 57.6673 242.898C57.1162 243.286 56.2391 243.717 55.6404 243.768C55.0586 243.818 54.4746 243.783 55.4555 243.951ZM55.4555 243.951C55.4004 243.955 55.4096 243.954 55.4555 243.951Z" stroke="black" stroke-opacity="0.6" stroke-linecap="round"/>
<path d="M3.0694 113C1.66823 113 8.85786 114.003 10.1408 114.565C13.2825 115.939 15.8867 117.401 16.1427 121.1C16.4854 126.054 13.4458 129.379 10.166 132.713C6.85471 136.078 2.80638 139.74 1.23896 144.325C0.14386 147.529 3.02454 149.413 5.57641 150.609C14.9526 155.003 26.2353 155.233 36.2664 157.019C42.7572 158.174 50.1422 160.076 54.7006 165.188C57.5216 168.351 57.4125 172.049 59.0381 175.694C61.5023 181.221 66.8414 183.552 72 186" stroke="black" stroke-opacity="0.6" stroke-linecap="round"/>
<defs>
<filter id="filter0_d_202_117" x="37.1754" y="0" width="51.8347" height="52.6593" filterUnits="userSpaceOnUse" color-interpolation-filters="sRGB">
<feFlood flood-opacity="0" result="BackgroundImageFix"/>
<feColorMatrix in="SourceAlpha" type="matrix" values="0 0 0 0 0 0 0 0 0 0 0 0 0 0 0 0 0 0 127 0" result="hardAlpha"/>
<feMorphology radius="0.824568" operator="dilate" in="SourceAlpha" result="effect1_dropShadow_202_117"/>
<feOffset dy="1.64914"/>
<feColorMatrix type="matrix" values="0 0 0 0 0 0 0 0 0 0 0 0 0 0 0 0 0 0 1 0"/>
<feBlend mode="normal" in2="BackgroundImageFix" result="effect1_dropShadow_202_117"/>
<feBlend mode="normal" in="SourceGraphic" in2="effect1_dropShadow_202_117" result="shape"/>
</filter>
<clipPath id="clip0_202_117">
<rect x="58.8088" width="36" height="36" rx="2.47371" transform="rotate(35.3118 58.8088 0)" fill="white"/>
</clipPath>
</defs>
</svg>
