<svg width="50" height="51" viewBox="0 0 50 51" fill="none" xmlns="http://www.w3.org/2000/svg">
<g filter="url(#filter0_d_76_44)">
<g clip-path="url(#clip0_76_44)">
<rect width="36" height="36.0958" rx="6" transform="matrix(0.825135 0.564936 -0.559382 0.82891 20.1914 0)" fill="white"/>
<path d="M25.7073 22.22L26.3334 21.2923C25.9921 21.0019 25.7338 20.6759 25.5584 20.3144C25.3851 19.9496 25.3223 19.5609 25.3697 19.1485C25.4172 18.736 25.5949 18.3085 25.9029 17.8661L25.929 17.8484L26.8476 18.4773C26.6247 18.8076 26.5008 19.1134 26.476 19.3946C26.4543 19.678 26.5102 19.934 26.6434 20.1625C26.7788 20.3878 26.9674 20.5832 27.2092 20.7487C27.4864 20.9385 27.7538 21.0553 28.0116 21.0993C28.2694 21.1432 28.5067 21.1163 28.7235 21.0186C28.9435 20.923 29.1321 20.7587 29.2895 20.5256C29.4206 20.3313 29.4934 20.1255 29.5081 19.9083C29.5259 19.6933 29.4792 19.4554 29.3678 19.1945C29.2596 18.9358 29.0836 18.6449 28.8399 18.3218C28.4975 17.8933 28.2431 17.4848 28.0765 17.0962C27.9099 16.7075 27.8421 16.3297 27.873 15.9627C27.9061 15.5924 28.0461 15.2244 28.293 14.8585C28.6536 14.3242 29.1006 13.9935 29.634 13.8664C30.1675 13.7393 30.7247 13.825 31.3056 14.1233L32.03 13.0499L32.7939 13.5729L32.0662 14.6511C32.5521 15.0974 32.8121 15.6163 32.8464 16.2079C32.8862 16.7984 32.6864 17.4191 32.2472 18.0699L32.1796 18.0236L31.2996 17.4211C31.5968 16.9808 31.7356 16.5551 31.7161 16.1441C31.6998 15.7353 31.5112 15.4073 31.1502 15.1601C30.7698 14.8997 30.4169 14.8048 30.0912 14.8754C29.7678 14.9427 29.4891 15.1496 29.2553 15.496C29.1155 15.7032 29.035 15.9133 29.0139 16.1261C28.995 16.3356 29.0424 16.5692 29.156 16.8269C29.2695 17.0845 29.4578 17.3886 29.7208 17.7391C30.063 18.1817 30.3142 18.5951 30.4743 18.9793C30.6366 19.3602 30.7013 19.7288 30.6683 20.0849C30.6353 20.4411 30.4954 20.8021 30.2485 21.1679C29.8726 21.7249 29.4073 22.0548 28.8524 22.1578C28.2975 22.2608 27.7093 22.1444 27.0876 21.8087L26.4616 22.7364L25.7073 22.22Z" fill="#212B36"/>
<path d="M17.0648 35.4281L17.5466 34.7141L18.5731 35.185L19.2691 34.1537L15.5801 31.628L16.0046 30.9991L23.4842 27.761L24.6574 28.5643L20.9635 34.038L22.0973 34.8142L21.5084 35.6868L20.3746 34.9106L19.6787 35.9419L20.491 36.73L20.0092 37.444L17.0648 35.4281ZM17.3535 31.5664L19.858 33.2811L22.4773 29.3996L22.4511 29.3651L22.1357 29.5882L17.3535 31.5664Z" fill="#212B36"/>
</g>
<rect x="0.132877" y="0.696923" width="35" height="35.0958" rx="5.5" transform="matrix(0.825135 0.564936 -0.559382 0.82891 20.6045 0.0441697)" stroke="#212B36"/>
</g>
<defs>
<filter id="filter0_d_76_44" x="-1" y="0" width="51.8962" height="53.2579" filterUnits="userSpaceOnUse" color-interpolation-filters="sRGB">
<feFlood flood-opacity="0" result="BackgroundImageFix"/>
<feColorMatrix in="SourceAlpha" type="matrix" values="0 0 0 0 0 0 0 0 0 0 0 0 0 0 0 0 0 0 127 0" result="hardAlpha"/>
<feMorphology radius="1" operator="dilate" in="SourceAlpha" result="effect1_dropShadow_76_44"/>
<feOffset dy="2"/>
<feColorMatrix type="matrix" values="0 0 0 0 0 0 0 0 0 0 0 0 0 0 0 0 0 0 1 0"/>
<feBlend mode="normal" in2="BackgroundImageFix" result="effect1_dropShadow_76_44"/>
<feBlend mode="normal" in="SourceGraphic" in2="effect1_dropShadow_76_44" result="shape"/>
</filter>
<clipPath id="clip0_76_44">
<rect width="36" height="36.0958" rx="6" transform="matrix(0.825135 0.564936 -0.559382 0.82891 20.1914 0)" fill="white"/>
</clipPath>
</defs>
</svg>
