<svg width="131" height="136" viewBox="0 0 131 136" fill="none" xmlns="http://www.w3.org/2000/svg">
<g filter="url(#filter0_d_55_255)">
<g clip-path="url(#clip0_55_255)">
<rect width="94.438" height="94.6893" rx="6" transform="matrix(0.825135 0.564936 -0.559382 0.82891 52.9673 0.483459)" fill="white"/>
<path d="M70.9705 55.1503L72.2226 53.2949C71.5401 52.7141 71.0235 52.0621 70.6726 51.339C70.3262 50.6095 70.2004 49.8322 70.2953 49.0072C70.3902 48.1822 70.7457 47.3273 71.3617 46.4425L71.4138 46.4071L73.251 47.665C72.8052 48.3255 72.5575 48.937 72.5078 49.4995C72.4646 50.0664 72.5762 50.5783 72.8427 51.0353C73.1135 51.4859 73.4907 51.8767 73.9742 52.2077C74.5286 52.5873 75.0636 52.821 75.5792 52.9089C76.0948 52.9968 76.5693 52.943 77.0029 52.7475C77.4428 52.5564 77.8201 52.2277 78.1348 51.7614C78.397 51.3729 78.5427 50.9614 78.572 50.527C78.6077 50.097 78.5142 49.6211 78.2914 49.0993C78.0751 48.5819 77.7231 48.0001 77.2356 47.3539C76.551 46.497 76.0421 45.6799 75.7089 44.9026C75.3758 44.1254 75.2401 43.3698 75.3019 42.6357C75.3681 41.8952 75.6481 41.1591 76.142 40.4273C76.863 39.3588 77.757 38.6974 78.8239 38.4432C79.8908 38.189 81.0052 38.3602 82.1671 38.9569L83.6158 36.8102L85.1436 37.8562L83.6883 40.0126C84.66 40.9051 85.1801 41.9429 85.2488 43.1261C85.3282 44.3072 84.9288 45.5485 84.0504 46.8502L83.915 46.7575L82.1551 45.5526C82.7495 44.6719 83.0271 43.8205 82.9881 42.9985C82.9555 42.1809 82.5782 41.5249 81.8562 41.0306C81.0956 40.5098 80.3896 40.3199 79.7383 40.461C79.0914 40.5957 78.5341 41.0094 78.0665 41.7024C77.7868 42.1168 77.6259 42.5368 77.5837 42.9624C77.5459 43.3815 77.6406 43.8488 77.8678 44.3641C78.095 44.8794 78.4715 45.4875 78.9975 46.1885C79.6819 47.0737 80.1843 47.9005 80.5045 48.6689C80.8292 49.4308 80.9585 50.1679 80.8925 50.8802C80.8265 51.5924 80.5466 52.3145 80.0528 53.0462C79.3011 54.1601 78.3704 54.82 77.2607 55.0259C76.151 55.2318 74.9744 54.9991 73.731 54.3277L72.479 56.1831L70.9705 55.1503Z" fill="#212B36"/>
<path d="M47.9628 89.7674L49.2017 87.9315L51.8413 89.1421L53.6308 86.4903L44.145 79.9957L45.2365 78.3784L64.4696 70.0519L67.4865 72.1175L57.988 86.1928L60.9033 88.1888L59.3891 90.4327L56.4737 88.4367L54.6841 91.0885L56.773 93.1152L55.5341 94.9511L47.9628 89.7674ZM48.7052 79.8372L55.1451 84.2464L61.8806 74.2655L61.8133 74.1768L61.002 74.7504L48.7052 79.8372Z" fill="#212B36"/>
</g>
<rect x="0.132877" y="0.696923" width="93.438" height="93.6893" rx="5.5" transform="matrix(0.825135 0.564936 -0.559382 0.82891 53.3804 0.527629)" stroke="#212B36"/>
</g>
<defs>
<filter id="filter0_d_55_255" x="-2" y="0.483459" width="134.892" height="137.84" filterUnits="userSpaceOnUse" color-interpolation-filters="sRGB">
<feFlood flood-opacity="0" result="BackgroundImageFix"/>
<feColorMatrix in="SourceAlpha" type="matrix" values="0 0 0 0 0 0 0 0 0 0 0 0 0 0 0 0 0 0 127 0" result="hardAlpha"/>
<feMorphology radius="2" operator="dilate" in="SourceAlpha" result="effect1_dropShadow_55_255"/>
<feOffset dy="4"/>
<feColorMatrix type="matrix" values="0 0 0 0 0 0 0 0 0 0 0 0 0 0 0 0 0 0 1 0"/>
<feBlend mode="normal" in2="BackgroundImageFix" result="effect1_dropShadow_55_255"/>
<feBlend mode="normal" in="SourceGraphic" in2="effect1_dropShadow_55_255" result="shape"/>
</filter>
<clipPath id="clip0_55_255">
<rect width="94.438" height="94.6893" rx="6" transform="matrix(0.825135 0.564936 -0.559382 0.82891 52.9673 0.483459)" fill="white"/>
</clipPath>
</defs>
</svg>
