<svg width="16" height="36" viewBox="0 0 16 36" fill="none" xmlns="http://www.w3.org/2000/svg">
<path d="M6.43193 1.47761C6.46623 2.02968 6.52129 2.72654 6.5938 3.40187C6.72824 5.10749 6.99059 6.4303 6.95238 8.14059C6.93806 8.78133 6.79798 9.61745 6.65123 10.1495C6.47964 10.7715 6.34268 11.414 6.12533 11.9688C5.97177 12.3608 5.80423 12.7224 5.65074 13.1142C5.4745 13.564 5.28938 14.0826 5.08078 14.4626C4.68847 15.1772 4.15916 15.5526 3.66731 15.8984C3.11623 16.2859 2.23907 16.7168 1.64038 16.7682C1.05856 16.8182 0.474555 16.7834 1.45549 16.9515C1.56838 16.9445 1.6761 16.9763 1.78925 16.9912C2.28146 17.056 2.79659 17.1482 3.28747 17.3241C3.58194 17.4296 3.86634 17.6305 4.15571 17.8011C4.39604 17.9427 4.64565 18.0696 4.87788 18.2839C5.3383 18.7088 5.7708 19.4887 6.11922 20.2669C6.42016 20.939 6.72752 21.5998 7.02758 22.2706C7.22004 22.7008 7.39651 23.186 7.53061 23.7017C7.66956 24.2361 7.82307 24.7258 7.94929 25.2748C8.08286 25.8558 8.20928 26.4452 8.34913 27.0208C8.59437 28.0301 8.85 29.1637 8.92386 30.2724C8.97819 31.088 8.97467 31.962 9.16936 32.7241C9.29959 33.2339 9.44542 33.7334 9.56815 34.2512C9.57335 34.291 9.57854 34.3308 9.58372 34.3706C9.61201 34.5878 9.67969 34.8249 9.6991 35.0374C9.70308 35.081 9.68694 34.8023 9.67471 34.7401C9.6422 34.5748 9.60629 34.4121 9.56815 34.2512C9.39665 32.937 9.22123 31.6308 9.13818 30.294C9.05476 28.9513 9.02494 27.6143 8.94154 26.2719C8.89123 25.4622 8.81318 24.6381 8.86154 23.8416C8.91033 23.0381 9.00633 22.2038 9.18387 21.5071C9.52199 20.1804 10.1614 19.2741 10.7369 18.4585L10.7449 18.4472C11.2151 17.7808 11.6673 16.866 12.2202 16.483C12.6982 16.1519 13.143 15.9965 13.6611 15.9643L15.0313 15.8791C15.1347 15.8727 14.5661 15.8367 14.2278 15.8191C12.2525 15.5796 11.6903 15.3652 11.1306 14.9737C10.6876 14.6639 10.2816 14.3229 9.88241 13.7605C9.37569 13.0466 8.91924 12.2106 8.50636 11.2518C7.70345 9.38724 7.23429 7.21333 6.8063 4.93235C6.7249 4.49849 6.65344 3.95746 6.5938 3.40187C6.57879 3.21146 6.49536 1.53782 6.43193 1.47761Z" fill="#FF7A00" fill-opacity="0.46"/>
<path d="M1.45549 16.9515C1.56838 16.9445 1.6761 16.9763 1.78925 16.9912C2.28146 17.056 2.79659 17.1482 3.28747 17.3241C3.58194 17.4296 3.86634 17.6305 4.15571 17.8011C4.39605 17.9427 4.64565 18.0696 4.87788 18.2839C5.3383 18.7088 5.7708 19.4887 6.11922 20.2669C6.42016 20.939 6.72752 21.5998 7.02758 22.2706C7.22004 22.7008 7.39651 23.186 7.53061 23.7017C7.66956 24.2361 7.82307 24.7258 7.94929 25.2748C8.08286 25.8558 8.20928 26.4452 8.34913 27.0208C8.59437 28.0301 8.85 29.1637 8.92385 30.2723C8.97819 31.088 8.97467 31.962 9.16936 32.7241C9.34006 33.3923 9.53756 34.0428 9.67471 34.7401C9.68694 34.8023 9.70308 35.081 9.6991 35.0374C9.67969 34.8249 9.61201 34.5878 9.58372 34.3706C9.40736 33.0161 9.22375 31.6713 9.13818 30.294C9.05476 28.9513 9.02494 27.6143 8.94154 26.2719C8.89123 25.4622 8.81318 24.6381 8.86154 23.8416C8.91033 23.0381 9.00633 22.2038 9.18387 21.5071C9.52356 20.1742 10.1674 19.2657 10.7449 18.4472C11.2151 17.7808 11.6673 16.866 12.2202 16.483C12.6982 16.1519 13.143 15.9965 13.6611 15.9643C14.1178 15.9359 14.5745 15.9075 15.0313 15.8791C15.2241 15.8672 13.0809 15.7524 14.4494 15.8454C12.2935 15.595 11.7107 15.3794 11.1306 14.9737C10.6876 14.6639 10.2816 14.3229 9.88241 13.7605C9.37569 13.0466 8.91924 12.2106 8.50636 11.2518C7.70345 9.38724 7.23429 7.21333 6.8063 4.93235C6.62594 3.97113 6.49445 2.48388 6.43193 1.47761C6.49536 1.53782 6.57879 3.21146 6.5938 3.40187C6.72824 5.10749 6.99059 6.4303 6.95238 8.14059C6.93806 8.78133 6.79798 9.61745 6.65123 10.1495C6.47964 10.7715 6.34268 11.414 6.12533 11.9688C5.97177 12.3608 5.80423 12.7224 5.65073 13.1142C5.4745 13.564 5.28938 14.0826 5.08078 14.4626C4.68847 15.1772 4.15916 15.5526 3.66731 15.8984C3.11623 16.2859 2.23907 16.7168 1.64038 16.7682C1.05856 16.8182 0.474555 16.7834 1.45549 16.9515ZM1.45549 16.9515C1.40043 16.9549 1.40956 16.9543 1.45549 16.9515Z" stroke="black" stroke-opacity="0.6" stroke-linecap="round"/>
</svg>
