<svg width="459" height="191" viewBox="0 0 459 191" fill="none" xmlns="http://www.w3.org/2000/svg">
<path d="M296.817 43.5126C294.196 39.7039 291.317 39.1984 286.658 38.3673C278.061 36.8337 269.295 35.7327 260.619 34.7402C236.244 31.9517 212.24 30.607 187.71 30.607C161.319 30.607 133.344 33.4343 109.765 46.1697C94.9302 54.1823 78.7507 67.8991 78.6039 86.0253C78.4459 105.542 95.481 119.181 109.765 130.436C133.129 148.845 160.981 160.422 189.247 169.364C221.339 179.515 253.3 181.965 286.786 182.817C316.175 183.566 348.195 182.093 375.147 169.068C395.439 159.262 419.158 145.731 430.169 125.333C438.453 109.987 435.64 93.1059 426.157 79.1507C409.825 55.1176 379.504 42.5431 352.736 33.981C317.074 22.5739 278.549 16.8963 241.154 15.4661C201.08 13.9334 159.127 16.2454 122.571 34.5715C103.696 44.0336 85.7866 60.792 79.1162 81.0908C72.7065 100.596 76.1584 121.683 90.4708 136.72C112.85 160.233 147.184 175.29 178.661 181.51C197.733 185.279 217.31 186.333 236.714 186.824C259.254 187.395 281.827 187.057 304.074 183.155C339.832 176.883 373.456 166.627 404.387 147.348C419.987 137.625 439.625 123.668 438.92 103.486C438.629 95.1431 435.101 88.4152 430.852 81.386C424.18 70.3472 416.472 61.0592 405.753 53.5503C394.215 45.4683 380.28 39.6624 367.164 34.5715C349.68 27.7851 331.35 22.4441 313.294 17.364C274.749 6.51914 236.072 1 195.992 1C162.844 1 126.813 5.92392 97.514 22.2985C78.0743 33.163 58.6326 50.8104 57.901 74.3006C57.2111 96.4559 76.0362 112.653 92.7758 124.742C122.02 145.862 153.792 161.617 188.564 171.768C233.623 184.921 280.555 191.022 327.551 189.861C362.348 189.001 399.684 180.515 428.505 160.38C438.588 153.336 448.042 145.273 453.092 133.852C458.282 122.116 460.147 107.877 454.757 95.8943C442.331 68.27 409.914 51.0606 383.172 40.1808C358.595 30.1822 332.117 24.145 306.037 19.5149C261.894 11.6779 216.259 15.4216 172.087 21.1598C138.357 25.5414 104.844 33.0878 71.8595 41.2352C47.9984 47.129 24.3749 53.4148 1 60.9732" stroke="black" stroke-opacity="0.6" stroke-linecap="round"/>
</svg>
