<svg width="336" height="836" viewBox="0 0 336 836" fill="none" xmlns="http://www.w3.org/2000/svg">
<path d="M15 1L15 261" stroke="black" stroke-opacity="0.6" stroke-linecap="round"/>
<path d="M186 415V694.122" stroke="black" stroke-opacity="0.6" stroke-linecap="round"/>
<path d="M162 651H334.953" stroke="black" stroke-opacity="0.6" stroke-linecap="round"/>
<path d="M297.178 629.223V834.712" stroke="black" stroke-opacity="0.6" stroke-linecap="round"/>
<path d="M67.7153 209.683V469.969" stroke="black" stroke-opacity="0.6" stroke-linecap="round"/>
<path d="M1 230L78 230" stroke="black" stroke-opacity="0.6" stroke-linecap="round"/>
<path d="M249.166 113.736C249.229 114.753 249.287 116.04 249.309 117.292C249.452 120.441 249.274 122.92 249.734 126.038C249.906 127.207 250.353 128.704 250.743 129.643C251.198 130.741 251.595 131.885 252.119 132.85C252.489 133.531 252.878 134.154 253.248 134.836C253.673 135.618 254.13 136.524 254.598 137.171C255.478 138.389 256.532 138.954 257.51 139.474C258.606 140.057 260.308 140.645 261.415 140.603C262.49 140.561 263.55 140.364 261.795 140.895C261.586 140.908 261.397 140.991 261.193 141.044C260.308 141.275 259.387 141.561 258.53 141.995C258.015 142.255 257.541 142.687 257.051 143.065C256.644 143.379 256.216 143.668 255.84 144.112C255.096 144.994 254.483 146.519 254.023 148.021C253.626 149.319 253.215 150.597 252.819 151.892C252.565 152.723 252.353 153.65 252.226 154.624C252.093 155.633 251.924 156.563 251.819 157.596C251.707 158.689 251.61 159.795 251.486 160.88C251.268 162.781 251.059 164.912 251.177 166.956C251.263 168.46 251.469 170.058 251.287 171.495C251.165 172.457 251.012 173.404 250.906 174.379C250.906 174.453 250.905 174.527 250.905 174.601C250.903 175.004 250.833 175.453 250.846 175.846C250.849 175.927 250.815 175.413 250.823 175.297C250.845 174.987 250.873 174.682 250.906 174.379C250.92 171.937 250.943 169.508 250.79 167.045C250.636 164.571 250.386 162.119 250.232 159.645C250.139 158.153 250.094 156.629 249.824 155.183C249.551 153.725 249.186 152.222 248.702 150.988C247.781 148.639 246.405 147.128 245.167 145.768L245.15 145.749C244.138 144.638 243.102 143.068 242.004 142.494C241.054 141.998 240.206 141.815 239.251 141.874L236.726 142.031C236.536 142.043 237.567 141.847 238.182 141.738C241.739 140.849 242.718 140.329 243.652 139.486C244.392 138.818 245.056 138.102 245.658 136.983C246.422 135.562 247.066 133.929 247.602 132.082C248.645 128.489 249.007 124.407 249.269 120.139C249.319 119.327 249.326 118.321 249.309 117.292C249.309 117.292 249.309 117.292 249.309 117.292C249.293 116.94 249.063 113.861 249.166 113.736Z" fill="#FF7A00" fill-opacity="0.46"/>
<path d="M261.795 140.895C261.586 140.908 261.397 140.991 261.193 141.044C260.308 141.275 259.387 141.561 258.53 141.995C258.015 142.255 257.541 142.687 257.051 143.065C256.644 143.379 256.216 143.668 255.84 144.112C255.096 144.994 254.483 146.519 254.023 148.021C253.626 149.319 253.215 150.597 252.819 151.892C252.565 152.723 252.353 153.65 252.226 154.624C252.093 155.633 251.924 156.563 251.819 157.596C251.707 158.689 251.61 159.795 251.486 160.88C251.268 162.781 251.059 164.912 251.177 166.956C251.263 168.46 251.469 170.058 251.287 171.495C251.127 172.756 250.915 173.991 250.823 175.297C250.815 175.413 250.849 175.927 250.846 175.846C250.833 175.453 250.903 175.004 250.905 174.601C250.918 172.084 250.947 169.583 250.79 167.045C250.636 164.571 250.386 162.119 250.232 159.645C250.139 158.153 250.094 156.629 249.824 155.183C249.551 153.725 249.186 152.222 248.702 150.988C247.777 148.628 246.392 147.114 245.15 145.749C244.138 144.638 243.102 143.068 242.004 142.494C241.054 141.998 240.206 141.815 239.251 141.874C238.41 141.926 237.568 141.979 236.726 142.031C236.371 142.053 240.264 141.354 237.783 141.837C241.668 140.887 242.684 140.36 243.652 139.486C244.392 138.818 245.056 138.102 245.658 136.983C246.422 135.562 247.066 133.929 247.602 132.082C248.645 128.489 249.007 124.407 249.269 120.139C249.38 118.34 249.281 115.59 249.166 113.736C249.063 113.861 249.293 116.94 249.309 117.292C249.452 120.441 249.274 122.92 249.734 126.038C249.906 127.207 250.353 128.704 250.743 129.643C251.198 130.741 251.595 131.885 252.119 132.85C252.489 133.531 252.878 134.154 253.248 134.836C253.673 135.618 254.13 136.524 254.598 137.171C255.478 138.389 256.532 138.954 257.51 139.474C258.606 140.057 260.308 140.645 261.415 140.603C262.49 140.561 263.55 140.364 261.795 140.895ZM261.795 140.895C261.896 140.889 261.879 140.89 261.795 140.895Z" stroke="black" stroke-opacity="0.6" stroke-linecap="round"/>
<path d="M40 460H207.816" stroke="black" stroke-opacity="0.6" stroke-linecap="round"/>
</svg>
