<svg width="295" height="818" viewBox="0 0 295 818" fill="none" xmlns="http://www.w3.org/2000/svg">
<path d="M277.012 655.832C277.083 656.982 277.149 658.437 277.173 659.851C277.173 659.851 277.173 659.851 277.173 659.851C277.335 663.411 277.134 666.213 277.654 669.738C277.849 671.058 278.354 672.75 278.794 673.812C279.309 675.053 279.758 676.346 280.35 677.437C280.769 678.207 281.208 678.911 281.626 679.682C282.107 680.566 282.623 681.59 283.152 682.322C284.147 683.697 285.338 684.337 286.443 684.925C287.682 685.583 289.606 686.248 290.857 686.2C292.072 686.153 293.27 685.931 291.286 686.531C291.051 686.546 290.837 686.639 290.607 686.699C289.606 686.96 288.565 687.283 287.596 687.773C287.015 688.067 286.479 688.556 285.925 688.983C285.464 689.338 284.981 689.664 284.556 690.167C283.714 691.164 283.022 692.888 282.502 694.586C282.053 696.053 281.588 697.497 281.141 698.961C280.854 699.9 280.615 700.948 280.47 702.049C280.321 703.189 280.13 704.241 280.011 705.408C279.884 706.643 279.775 707.894 279.634 709.12C279.388 711.269 279.152 713.678 279.285 715.988C279.383 717.688 279.615 719.494 279.41 721.119C279.272 722.206 279.099 723.276 278.979 724.378C278.979 724.461 278.978 724.545 278.978 724.629C278.975 725.085 278.896 725.592 278.911 726.037C278.914 726.128 278.876 725.548 278.885 725.416C278.909 725.066 278.942 724.72 278.979 724.378C278.995 721.617 279.02 718.873 278.848 716.088C278.674 713.292 278.391 710.521 278.217 707.724C278.112 706.038 278.061 704.315 277.756 702.681C277.448 701.033 277.034 699.333 276.488 697.939C275.447 695.284 273.892 693.576 272.492 692.039L272.472 692.017C271.329 690.761 270.158 688.987 268.917 688.338C267.844 687.777 266.884 687.57 265.805 687.637L262.951 687.815C262.736 687.828 263.902 687.607 264.596 687.483C268.617 686.479 269.724 685.891 270.78 684.938C271.615 684.183 272.367 683.374 273.047 682.108C273.91 680.502 274.638 678.657 275.244 676.569C276.423 672.508 276.832 667.894 277.129 663.069C277.185 662.151 277.193 661.015 277.173 659.851C277.155 659.454 276.896 655.973 277.012 655.832Z" fill="#FF7A00" fill-opacity="0.46"/>
<path d="M291.286 686.531C291.051 686.546 290.837 686.639 290.607 686.699C289.606 686.96 288.565 687.283 287.596 687.773C287.015 688.067 286.479 688.556 285.925 688.983C285.464 689.338 284.981 689.664 284.556 690.167C283.714 691.164 283.022 692.888 282.502 694.586C282.053 696.052 281.588 697.497 281.141 698.961C280.854 699.9 280.615 700.948 280.47 702.049C280.321 703.189 280.13 704.241 280.011 705.408C279.884 706.643 279.775 707.894 279.634 709.12C279.388 711.269 279.152 713.678 279.285 715.988C279.383 717.688 279.615 719.494 279.41 721.119C279.229 722.544 278.989 723.939 278.885 725.416C278.876 725.548 278.914 726.128 278.911 726.037C278.896 725.592 278.975 725.085 278.978 724.629C278.993 721.784 279.026 718.957 278.848 716.088C278.674 713.292 278.391 710.521 278.217 707.724C278.112 706.038 278.061 704.315 277.756 702.681C277.448 701.033 277.034 699.333 276.488 697.939C275.442 695.272 273.877 693.56 272.472 692.017C271.329 690.761 270.158 688.987 268.917 688.338C267.844 687.777 266.884 687.57 265.805 687.637C264.854 687.696 263.903 687.756 262.951 687.815C262.55 687.84 266.95 687.05 264.145 687.595C268.536 686.521 269.685 685.926 270.78 684.938C271.615 684.183 272.367 683.374 273.047 682.108C273.91 680.502 274.638 678.657 275.244 676.569C276.423 672.508 276.832 667.894 277.129 663.069C277.254 661.036 277.142 657.928 277.012 655.832C276.896 655.973 277.155 659.454 277.173 659.851C277.335 663.411 277.134 666.213 277.654 669.738C277.849 671.058 278.354 672.75 278.794 673.812C279.309 675.053 279.758 676.346 280.35 677.437C280.769 678.207 281.208 678.911 281.626 679.682C282.107 680.566 282.623 681.59 283.152 682.322C284.147 683.697 285.338 684.337 286.443 684.925C287.682 685.583 289.606 686.248 290.857 686.2C292.072 686.153 293.27 685.931 291.286 686.531ZM291.286 686.531C291.401 686.524 291.382 686.525 291.286 686.531Z" stroke="black" stroke-opacity="0.6" stroke-linecap="round"/>
<g filter="url(#filter0_d_249_109)">
<rect x="103.841" width="90" height="90" rx="6" transform="rotate(18.0199 103.841 0)" fill="white"/>
<path d="M121.211 65.5907L126.606 49.0085L126.689 49.0357L128.367 65.8113L130.841 66.616L142.068 54.0384L142.168 54.0711L136.774 70.6533L139.415 71.5124L146.838 48.6952L143.996 47.7708L130.72 62.9537L130.653 62.9319L128.835 42.8388L125.993 41.9144L118.57 64.7316L121.211 65.5907Z" fill="#212B36"/>
<rect x="104.162" y="0.630148" width="89" height="89" rx="5.5" transform="rotate(18.0199 104.162 0.630148)" stroke="#212B36"/>
</g>
<path d="M34 216L34 817" stroke="black" stroke-opacity="0.6" stroke-linecap="round"/>
<path d="M1 595H245" stroke="black" stroke-opacity="0.6" stroke-linecap="round"/>
<path d="M40 378L40 655" stroke="black" stroke-opacity="0.6" stroke-linecap="round"/>
<defs>
<filter id="filter0_d_249_109" x="74" y="0" width="117.427" height="119.427" filterUnits="userSpaceOnUse" color-interpolation-filters="sRGB">
<feFlood flood-opacity="0" result="BackgroundImageFix"/>
<feColorMatrix in="SourceAlpha" type="matrix" values="0 0 0 0 0 0 0 0 0 0 0 0 0 0 0 0 0 0 127 0" result="hardAlpha"/>
<feMorphology radius="2" operator="dilate" in="SourceAlpha" result="effect1_dropShadow_249_109"/>
<feOffset dy="4"/>
<feColorMatrix type="matrix" values="0 0 0 0 0 0 0 0 0 0 0 0 0 0 0 0 0 0 1 0"/>
<feBlend mode="normal" in2="BackgroundImageFix" result="effect1_dropShadow_249_109"/>
<feBlend mode="normal" in="SourceGraphic" in2="effect1_dropShadow_249_109" result="shape"/>
</filter>
</defs>
</svg>
