<svg width="258" height="790" viewBox="0 0 258 790" fill="none" xmlns="http://www.w3.org/2000/svg">
<g filter="url(#filter0_d_216_159)">
<rect x="0.874512" y="341.15" width="90" height="90" rx="6" transform="rotate(-25.7857 0.874512 341.15)" fill="white"/>
<path d="M56.5254 350.714C58.4247 349.797 60.0493 350.196 61.3992 351.913C61.729 352.326 62.0214 352.796 62.2763 353.324C63.5668 356.319 62.9506 358.464 60.4276 359.761L57.9902 360.939L53.7081 352.075L56.5254 350.714ZM65.6836 368.701C65.4593 368.237 65.163 368.055 64.7948 368.154C64.679 368.184 64.5684 368.225 64.4629 368.276L62.0887 369.423L58.4337 361.857L61.156 360.542C64.7437 358.809 66.5397 356.626 66.544 353.995C66.5452 353.136 66.3368 352.273 65.9188 351.408C64.9298 349.361 63.3294 348.338 61.1176 348.34C59.9014 348.354 58.6075 348.693 57.2357 349.356L47.3908 354.112L47.7884 354.935L50.3209 353.712L58.7016 371.059L56.1691 372.282L56.5667 373.106L65.6836 368.701Z" fill="#212B36"/>
<rect x="1.54223" y="341.383" width="89" height="89" rx="5.5" transform="rotate(-25.7857 1.54223 341.383)" stroke="#212B36"/>
</g>
<path d="M190.067 721.252L240.414 735.223C241.021 735.391 241.67 735.312 242.219 735.002C242.767 734.692 243.17 734.176 243.338 733.569C243.506 732.963 243.427 732.314 243.117 731.765C242.807 731.217 242.291 730.814 241.684 730.646L191.337 716.675C190.73 716.507 190.081 716.586 189.533 716.896C188.984 717.206 188.582 717.722 188.413 718.329C188.245 718.936 188.324 719.585 188.635 720.133C188.945 720.681 189.46 721.084 190.067 721.252Z" fill="black" fill-opacity="0.2"/>
<path d="M238.51 742.088L188.162 728.117C187.555 727.949 186.906 728.029 186.358 728.339C185.81 728.649 185.407 729.164 185.238 729.771C185.07 730.378 185.15 731.027 185.46 731.575C185.77 732.123 186.285 732.526 186.892 732.695L237.24 746.665C237.847 746.834 238.496 746.754 239.044 746.444C239.592 746.134 239.995 745.619 240.163 745.012C240.332 744.405 240.252 743.756 239.942 743.208C239.632 742.659 239.117 742.257 238.51 742.088Z" fill="black" fill-opacity="0.2"/>
<path d="M235.334 753.531L184.988 739.561C184.381 739.392 183.732 739.472 183.184 739.782C182.636 740.092 182.233 740.607 182.065 741.214C181.896 741.821 181.976 742.47 182.286 743.019C182.596 743.567 183.111 743.969 183.718 744.138L234.064 758.108C234.671 758.277 235.32 758.197 235.868 757.887C236.417 757.577 236.819 757.062 236.988 756.455C237.156 755.848 237.076 755.199 236.766 754.651C236.456 754.102 235.941 753.7 235.334 753.531Z" fill="black" fill-opacity="0.2"/>
<path d="M232.159 764.974L181.813 751.003C181.206 750.835 180.557 750.914 180.009 751.224C179.461 751.535 179.058 752.05 178.89 752.657C178.721 753.264 178.801 753.913 179.111 754.461C179.421 755.009 179.936 755.412 180.543 755.58L230.889 769.551C231.496 769.719 232.145 769.639 232.693 769.329C233.242 769.019 233.644 768.504 233.813 767.897C233.981 767.29 233.902 766.641 233.592 766.093C233.281 765.545 232.766 765.142 232.159 764.974Z" fill="black" fill-opacity="0.2"/>
<path d="M77.6999 1.91988C77.7788 3.191 77.8516 4.79881 77.8784 6.36242C78.0574 10.2976 77.835 13.3946 78.4097 17.2913C78.625 18.7511 79.1833 20.6215 79.6702 21.7952C80.2395 23.1676 80.7356 24.5965 81.3903 25.8021C81.8528 26.6539 82.3387 27.4323 82.801 28.2837C83.3319 29.2612 83.9026 30.3933 84.4875 31.202C85.5875 32.7229 86.9038 33.4296 88.1261 34.0796C89.4956 34.8078 91.6224 35.5424 93.0049 35.4893C94.3485 35.4376 95.6729 35.1918 93.4796 35.8553C93.2197 35.8714 92.9826 35.9747 92.7283 36.041C91.6223 36.3294 90.4716 36.687 89.4002 37.2286C88.7575 37.5535 88.165 38.0937 87.5525 38.5658C87.0437 38.958 86.5096 39.319 86.0401 39.8749C85.1093 40.9769 84.3434 42.882 83.7691 44.7592C83.2731 46.3806 82.7592 47.9778 82.2648 49.5959C81.9477 50.6338 81.6828 51.7925 81.5233 53.0091C81.3582 54.2696 81.147 55.4322 81.0151 56.7226C80.8755 58.0879 80.7547 59.4706 80.5992 60.8255C80.3265 63.2013 80.0655 65.8643 80.2127 68.4182C80.321 70.2972 80.5782 72.2932 80.3506 74.0898C80.1983 75.2917 80.0075 76.4743 79.8746 77.6924C79.8741 77.7848 79.8736 77.8773 79.8731 77.9697C79.8704 78.4741 79.7833 79.0351 79.7995 79.5261C79.8028 79.6268 79.7603 78.9854 79.7705 78.8398C79.7977 78.4528 79.8333 78.0709 79.8746 77.6924C79.8919 74.641 79.9205 71.6067 79.7292 68.5288C79.5372 65.4373 79.2243 62.3742 79.0322 59.2832C78.9164 57.4189 78.8599 55.514 78.5224 53.7079C78.1819 51.886 77.7249 50.0073 77.1207 48.4662C75.9701 45.5313 74.2508 43.6429 72.7036 41.9436L72.682 41.9199C71.4179 40.5314 70.124 38.5702 68.7516 37.8527C67.5651 37.2324 66.5047 37.0041 65.3118 37.0782L62.157 37.2742C61.9189 37.289 63.2076 37.0447 63.9756 36.908C68.4203 35.7978 69.6437 35.1478 70.8109 34.0939C71.7347 33.2598 72.5653 32.365 73.317 30.9664C74.2712 29.1909 75.0759 27.1508 75.7459 24.8425C77.049 20.3536 77.5013 15.2531 77.8291 9.91973C77.8914 8.90528 77.9005 7.64881 77.8784 6.36242C77.8585 5.92312 77.5721 2.07552 77.6999 1.91988Z" fill="#FF7A00" fill-opacity="0.46"/>
<path d="M93.4796 35.8553C93.2197 35.8714 92.9826 35.9747 92.7283 36.041C91.6223 36.3294 90.4716 36.687 89.4002 37.2286C88.7575 37.5535 88.165 38.0937 87.5525 38.5658C87.0437 38.958 86.5096 39.319 86.0401 39.8749C85.1093 40.9769 84.3434 42.882 83.7691 44.7592C83.2731 46.3806 82.7592 47.9778 82.2648 49.5959C81.9477 50.6338 81.6828 51.7925 81.5233 53.0091C81.3582 54.2696 81.147 55.4322 81.0151 56.7226C80.8755 58.0879 80.7547 59.4706 80.5992 60.8255C80.3265 63.2013 80.0655 65.8643 80.2127 68.4182C80.321 70.2972 80.5782 72.2932 80.3506 74.0898C80.151 75.6651 79.8851 77.2075 79.7705 78.8398C79.7603 78.9854 79.8028 79.6268 79.7995 79.5261C79.7833 79.0351 79.8704 78.4741 79.8731 77.9697C79.89 74.8248 79.9263 71.7 79.7292 68.5288C79.5372 65.4373 79.2243 62.3742 79.0322 59.2832C78.9164 57.4189 78.8599 55.514 78.5224 53.7079C78.1819 51.886 77.7249 50.0073 77.1207 48.4662C75.9647 45.5177 74.2348 43.6254 72.682 41.9199C71.4179 40.5314 70.124 38.5702 68.7516 37.8527C67.5651 37.2324 66.5047 37.0041 65.3118 37.0782C64.2602 37.1436 63.2086 37.2089 62.157 37.2742C61.713 37.3018 66.577 36.4287 63.4768 37.0312C68.331 35.8447 69.6012 35.1862 70.8109 34.0939C71.7347 33.2598 72.5653 32.365 73.317 30.9664C74.2712 29.1909 75.0759 27.1508 75.7459 24.8425C77.049 20.3536 77.5013 15.2531 77.8291 9.91973C77.9672 7.6722 77.8438 4.23676 77.6999 1.91988C77.5721 2.07552 77.8585 5.92312 77.8784 6.36242C78.0574 10.2976 77.835 13.3946 78.4097 17.2913C78.625 18.7511 79.1833 20.6215 79.6702 21.7952C80.2395 23.1676 80.7356 24.5965 81.3903 25.8021C81.8528 26.6539 82.3387 27.4323 82.801 28.2837C83.3319 29.2612 83.9026 30.3933 84.4875 31.202C85.5875 32.7229 86.9038 33.4296 88.1261 34.0796C89.4956 34.8078 91.6224 35.5424 93.0049 35.4893C94.3485 35.4376 95.6729 35.1918 93.4796 35.8553ZM93.4796 35.8553C93.6064 35.8474 93.5853 35.8487 93.4796 35.8553Z" stroke="black" stroke-opacity="0.6" stroke-linecap="round"/>
<defs>
<filter id="filter0_d_216_159" x="-1.12549" y="302" width="124.189" height="126.189" filterUnits="userSpaceOnUse" color-interpolation-filters="sRGB">
<feFlood flood-opacity="0" result="BackgroundImageFix"/>
<feColorMatrix in="SourceAlpha" type="matrix" values="0 0 0 0 0 0 0 0 0 0 0 0 0 0 0 0 0 0 127 0" result="hardAlpha"/>
<feMorphology radius="2" operator="dilate" in="SourceAlpha" result="effect1_dropShadow_216_159"/>
<feOffset dy="4"/>
<feColorMatrix type="matrix" values="0 0 0 0 0 0 0 0 0 0 0 0 0 0 0 0 0 0 1 0"/>
<feBlend mode="normal" in2="BackgroundImageFix" result="effect1_dropShadow_216_159"/>
<feBlend mode="normal" in="SourceGraphic" in2="effect1_dropShadow_216_159" result="shape"/>
</filter>
</defs>
</svg>
