<svg width="703" height="843" viewBox="0 0 703 843" fill="none" xmlns="http://www.w3.org/2000/svg">
    <path d="M1 397.464L701.699 397.464" stroke="black" stroke-opacity="0.6" stroke-linecap="round"/>
    <path d="M321 345.107L321 842" stroke="black" stroke-opacity="0.6" stroke-linecap="round"/>
    <path d="M337 169.268V422.832" stroke="black" stroke-opacity="0.6" stroke-linecap="round"/>
    <path d="M84.5442 711.12C89.0202 712.238 79.1149 727.592 80.2039 731.401C81.1455 734.694 103.804 725.968 103.25 725.414" stroke="black"
          stroke-opacity="0.6" stroke-linecap="round"/>
    <path d="M69.1393 724.315C69.1393 733.342 64.6992 741.672 61.1922 749.849C60.3644 751.779 54.9134 761.155 60.4586 760.539C69.9622 759.484 80.2514 754.036 88.8847 750.154C92.0112 748.748 95.548 748.101 95.548 744.107"
          stroke="black" stroke-opacity="0.6" stroke-linecap="round"/>
    <path d="M146.121 664.894C146.408 662.599 159.674 660.624 161.771 660.496C168.475 660.086 170.565 658.621 165.866 666.543C162.433 672.333 159.124 678.439 155.535 684.075C154.872 685.116 154.924 686.062 154.924 687.252C154.924 689.24 155.395 683.274 156.024 681.387"
          stroke="black" stroke-opacity="0.6" stroke-linecap="round"/>
    <path d="M161.825 644.428C169.429 648.004 178.35 647.727 186.583 647.727C188.298 647.727 198.137 646.695 198.137 648.826C198.137 651.608 195.188 654.054 193.674 656.096C190.268 660.691 186.978 665.39 183.893 670.207C182.353 672.611 180.225 680.866 178.33 681.813"
          stroke="black" stroke-opacity="0.6" stroke-linecap="round"/>
    <path d="M105.451 681.432C105.778 684.701 109.597 687.404 111.014 690.412C113.375 695.424 115.556 700.696 117.555 705.867C118.169 707.454 122.346 720.627 124.157 718.817"
          stroke="black" stroke-opacity="0.6" stroke-linecap="round"/>
    <path d="M83.4441 675.935C83.4441 678.69 82.655 682.224 85.0947 684.12C88.3256 686.631 88.4211 681.077 87.6011 679.233C85.1893 673.811 77.1116 685.831 86.7452 685.831C89.0342 685.831 91.7012 683.208 89.435 680.944C87.1971 678.708 82.4609 682.16 84.789 684.487C87.3636 687.059 89.3849 680.494 88.8848 678.745C87.8438 675.104 84.8647 682.992 86.7452 679.233"
          stroke="black" stroke-opacity="0.6" stroke-linecap="round"/>
    <path d="M107.652 664.939C103.901 665.356 104.704 672.771 109.241 671.475C112.221 670.625 107.613 663.268 104.595 666.283C101.008 669.868 103.721 673.378 108.141 672.575C114.307 671.455 110.495 665.156 106.796 668.482C105.517 669.632 112.722 671.951 110.892 665.55C109.441 660.474 105.291 672.186 110.097 667.383C113.523 663.96 107.652 660.42 107.652 665.489C107.652 670.078 107.652 664.459 107.652 670.437"
          stroke="black" stroke-opacity="0.6" stroke-linecap="round"/>
    <path d="M260.476 90.9604C260.558 92.2873 260.634 93.9656 260.662 95.5977C260.849 99.7055 260.617 102.938 261.217 107.006C261.442 108.53 262.024 110.482 262.533 111.707C263.127 113.14 263.645 114.631 264.328 115.89C264.811 116.779 265.318 117.591 265.801 118.48C266.355 119.501 266.951 120.682 267.561 121.526C268.709 123.114 270.083 123.852 271.359 124.53C272.789 125.29 275.009 126.057 276.452 126.002C277.854 125.948 279.237 125.691 276.948 126.384C276.676 126.401 276.429 126.508 276.163 126.578C275.009 126.879 273.808 127.252 272.689 127.817C272.018 128.156 271.4 128.72 270.76 129.213C270.229 129.622 269.672 129.999 269.182 130.58C268.21 131.73 267.411 133.719 266.811 135.678C266.293 137.371 265.757 139.038 265.241 140.727C264.91 141.81 264.633 143.02 264.467 144.29C264.295 145.605 264.074 146.819 263.936 148.166C263.791 149.591 263.665 151.034 263.502 152.449C263.218 154.929 262.945 157.708 263.099 160.374C263.212 162.336 263.48 164.419 263.243 166.295C263.084 167.549 262.885 168.784 262.746 170.055C262.745 170.152 262.745 170.248 262.744 170.345C262.742 170.871 262.651 171.457 262.668 171.969C262.671 172.074 262.627 171.405 262.637 171.253C262.666 170.849 262.703 170.45 262.746 170.055C262.764 166.87 262.794 163.703 262.594 160.49C262.394 157.263 262.067 154.065 261.867 150.839C261.746 148.893 261.687 146.904 261.335 145.019C260.979 143.117 260.502 141.156 259.871 139.548C258.67 136.484 256.876 134.513 255.261 132.739L255.238 132.714C253.919 131.265 252.568 129.218 251.135 128.469C249.897 127.821 248.79 127.583 247.545 127.66L244.252 127.865C244.003 127.88 245.348 127.625 246.15 127.483C250.789 126.324 252.067 125.645 253.285 124.545C254.249 123.674 255.116 122.74 255.901 121.28C256.897 119.427 257.737 117.298 258.436 114.888C259.796 110.202 260.269 104.878 260.611 99.311C260.676 98.2521 260.685 96.9405 260.662 95.5977C260.641 95.1392 260.343 91.1229 260.476 90.9604Z"
          fill="#FF7A00" fill-opacity="0.46"/>
    <path d="M276.948 126.384C276.676 126.401 276.429 126.508 276.163 126.578C275.009 126.879 273.808 127.252 272.689 127.817C272.018 128.156 271.4 128.72 270.76 129.213C270.229 129.622 269.672 129.999 269.182 130.58C268.21 131.73 267.411 133.719 266.811 135.678C266.293 137.371 265.757 139.038 265.241 140.727C264.91 141.81 264.633 143.02 264.467 144.29C264.295 145.605 264.074 146.819 263.936 148.166C263.791 149.591 263.665 151.034 263.502 152.449C263.218 154.929 262.945 157.708 263.099 160.374C263.212 162.336 263.48 164.419 263.243 166.295C263.034 167.939 262.757 169.549 262.637 171.253C262.627 171.405 262.671 172.074 262.668 171.969C262.651 171.457 262.742 170.871 262.744 170.345C262.762 167.062 262.8 163.8 262.594 160.49C262.394 157.263 262.067 154.065 261.867 150.839C261.746 148.893 261.687 146.904 261.335 145.019C260.979 143.117 260.502 141.156 259.871 139.548C258.665 136.47 256.859 134.495 255.238 132.714C253.919 131.265 252.568 129.218 251.135 128.469C249.897 127.821 248.79 127.583 247.545 127.66C246.447 127.728 245.349 127.797 244.252 127.865C243.788 127.894 248.865 126.982 245.629 127.611C250.696 126.373 252.022 125.685 253.285 124.545C254.249 123.674 255.116 122.74 255.901 121.28C256.897 119.427 257.737 117.298 258.436 114.888C259.796 110.202 260.269 104.878 260.611 99.311C260.755 96.965 260.626 93.3789 260.476 90.9604C260.343 91.1229 260.641 95.1392 260.662 95.5977C260.849 99.7055 260.617 102.938 261.217 107.006C261.442 108.53 262.024 110.482 262.533 111.707C263.127 113.14 263.645 114.631 264.328 115.89C264.811 116.779 265.318 117.591 265.801 118.48C266.355 119.501 266.951 120.682 267.561 121.526C268.709 123.114 270.083 123.852 271.359 124.53C272.789 125.29 275.009 126.057 276.452 126.002C277.854 125.948 279.237 125.691 276.948 126.384ZM276.948 126.384C277.08 126.375 277.058 126.377 276.948 126.384Z"
          stroke="black" stroke-opacity="0.6" stroke-linecap="round"/>
    <g filter="url(#filter0_d_166_72)">
        <rect width="94.4369" height="94.6903" rx="6" transform="matrix(0.826069 -0.563569 0.558016 0.82983 56.2812 247.511)" fill="white"/>
        <path d="M125.181 273.137L123.945 271.299L126.038 269.276L114.728 252.457L109.936 255.727L111.496 258.96L109.347 260.427L105.904 255.307L123.475 243.32L126.917 248.44L124.797 249.886L122.38 247.237L117.589 250.506L128.898 267.324L131.54 266.118L132.776 267.956L125.181 273.137Z"
              fill="#212B36"/>
        <rect x="0.692043" y="0.13313" width="93.4369" height="93.6903" rx="5.5"
              transform="matrix(0.826069 -0.563569 0.558016 0.82983 56.3273 247.924)" stroke="#212B36"/>
    </g>
    <g filter="url(#filter1_d_166_72)">
        <rect width="94.2778" height="94.8488" rx="6" transform="matrix(0.957556 0.288246 -0.284449 0.958691 76.9795 110.985)"
              fill="white"/>
        <path d="M95.0953 179.097L95.7253 176.973L98.6089 177.328L104.344 157.998L101.74 156.701L102.37 154.577L113.294 157.866C115.079 158.403 116.502 159.125 117.565 160.032C118.643 160.932 119.352 161.984 119.691 163.187C120.031 164.391 119.984 165.723 119.551 167.183C119.124 168.622 118.452 169.735 117.533 170.523C116.626 171.315 115.525 171.791 114.23 171.952C112.939 172.102 111.503 171.957 109.922 171.518L104.405 169.967L101.925 178.326L104.528 179.623L103.898 181.747L95.0953 179.097ZM111.271 183.966L109.452 170.073L112.778 171.037L114.396 182.208L116.006 183.023L115.361 185.197L111.271 183.966ZM105.18 167.355L109.708 168.718C111.559 169.275 113.011 169.327 114.062 168.872C115.114 168.418 115.841 167.511 116.245 166.152C116.628 164.86 116.528 163.716 115.943 162.72C115.358 161.724 114.219 160.971 112.524 160.461L107.66 158.996L105.18 167.355Z"
              fill="#212B36"/>
        <rect x="0.336554" y="0.623469" width="93.2778" height="93.8488" rx="5.5"
              transform="matrix(0.957556 0.288246 -0.284449 0.958691 77.1711 110.913)" stroke="#212B36"/>
    </g>
    <defs>
        <filter id="filter0_d_166_72" x="54.2812" y="194.29" width="134.85" height="137.799" filterUnits="userSpaceOnUse"
                color-interpolation-filters="sRGB">
            <feFlood flood-opacity="0" result="BackgroundImageFix"/>
            <feColorMatrix in="SourceAlpha" type="matrix" values="0 0 0 0 0 0 0 0 0 0 0 0 0 0 0 0 0 0 127 0" result="hardAlpha"/>
            <feMorphology radius="2" operator="dilate" in="SourceAlpha" result="effect1_dropShadow_166_72"/>
            <feOffset dy="4"/>
            <feColorMatrix type="matrix" values="0 0 0 0 0 0 0 0 0 0 0 0 0 0 0 0 0 0 1 0"/>
            <feBlend mode="normal" in2="BackgroundImageFix" result="effect1_dropShadow_166_72"/>
            <feBlend mode="normal" in="SourceGraphic" in2="effect1_dropShadow_166_72" result="shape"/>
        </filter>
        <filter id="filter1_d_166_72" x="48" y="110.985" width="121.256" height="124.106" filterUnits="userSpaceOnUse"
                color-interpolation-filters="sRGB">
            <feFlood flood-opacity="0" result="BackgroundImageFix"/>
            <feColorMatrix in="SourceAlpha" type="matrix" values="0 0 0 0 0 0 0 0 0 0 0 0 0 0 0 0 0 0 127 0" result="hardAlpha"/>
            <feMorphology radius="2" operator="dilate" in="SourceAlpha" result="effect1_dropShadow_166_72"/>
            <feOffset dy="4"/>
            <feColorMatrix type="matrix" values="0 0 0 0 0 0 0 0 0 0 0 0 0 0 0 0 0 0 1 0"/>
            <feBlend mode="normal" in2="BackgroundImageFix" result="effect1_dropShadow_166_72"/>
            <feBlend mode="normal" in="SourceGraphic" in2="effect1_dropShadow_166_72" result="shape"/>
        </filter>
    </defs>
</svg>
