<svg width="715" height="910" viewBox="0 0 715 910" fill="none" xmlns="http://www.w3.org/2000/svg">
<path d="M46.0005 1L46.0005 311" stroke="black" stroke-opacity="0.6" stroke-linecap="round"/>
<path d="M53.8823 69.9387V255.136" stroke="black" stroke-opacity="0.6" stroke-linecap="round"/>
<path d="M511 82V542.384" stroke="black" stroke-opacity="0.6" stroke-linecap="round"/>
<path d="M3.00049 114L594 114" stroke="black" stroke-opacity="0.6" stroke-linecap="round"/>
<g filter="url(#filter0_d_203_94)">
<g clip-path="url(#clip0_203_94)">
<rect x="652.758" y="255" width="90" height="90" rx="6" transform="rotate(46.9401 652.758 255)" fill="white"/>
<path d="M656.254 319.375C655.165 317.265 654.802 315.375 655.165 313.704C655.537 312.042 656.45 310.531 657.906 309.171L660.539 306.71C661.498 305.814 662.038 304.9 662.161 303.967C662.293 303.026 661.934 302.102 661.086 301.194L662.974 299.43C663.822 300.338 664.711 300.766 665.642 300.715C666.581 300.655 667.534 300.173 668.501 299.269L671.147 296.797C672.611 295.429 674.181 294.62 675.856 294.37C677.547 294.12 679.409 294.61 681.44 295.84L680.417 297.758C679.237 297.096 678.07 296.928 676.915 297.253C675.776 297.58 674.642 298.271 673.511 299.327L670.866 301.799C669.967 302.639 669.007 303.2 667.986 303.48C666.965 303.761 665.921 303.717 664.856 303.349C665.142 304.445 665.107 305.497 664.749 306.505C664.4 307.504 663.785 308.416 662.903 309.24L660.27 311.701C659.14 312.757 658.378 313.838 657.984 314.944C657.589 316.066 657.678 317.243 658.25 318.473L656.254 319.375Z" fill="#212B36"/>
<path d="M617.661 345.575L643.039 321.86L647.648 326.791L645.657 328.652L643.413 326.25L622.016 346.245L624.26 348.647L622.27 350.507L617.661 345.575Z" fill="#212B36"/>
</g>
<rect x="652.734" y="255.707" width="89" height="89" rx="5.5" transform="rotate(46.9401 652.734 255.707)" stroke="#212B36"/>
</g>
<g filter="url(#filter1_d_203_94)">
<g clip-path="url(#clip1_203_94)">
<rect x="590" y="219.179" width="90" height="90" rx="6" transform="rotate(-20.2691 590 219.179)" fill="white"/>
<path d="M641.404 244.327L640.026 242.625C641.067 241.79 641.663 240.783 641.814 239.603C641.969 238.434 641.779 237.124 641.243 235.673L639.995 232.292C639.561 231.116 639.428 229.997 639.598 228.935C639.768 227.873 640.282 226.914 641.141 226.06C639.941 225.991 638.932 225.608 638.112 224.911C637.293 224.214 636.662 223.267 636.219 222.069L634.965 218.672C634.429 217.221 633.72 216.096 632.838 215.297C631.952 214.488 630.844 214.11 629.515 214.164L629.462 211.991C631.818 211.808 633.69 212.209 635.079 213.196C636.474 214.167 637.519 215.592 638.213 217.472L639.468 220.869C639.927 222.111 640.562 222.97 641.375 223.444C642.183 223.908 643.175 223.922 644.351 223.488L645.247 225.912C644.07 226.346 643.33 227.013 643.025 227.913C642.716 228.802 642.789 229.861 643.243 231.093L644.492 234.473C645.182 236.342 645.314 238.104 644.889 239.76C644.475 241.413 643.313 242.935 641.404 244.327Z" fill="#212B36"/>
<path d="M657.88 287.37L656.937 284.814L660.037 283.669L649.891 256.198L646.791 257.343L645.847 254.787L652.196 252.442L664.229 285.026L657.88 287.37Z" fill="#212B36"/>
</g>
<rect x="590.643" y="219.475" width="89" height="89" rx="5.5" transform="rotate(-20.2691 590.643 219.475)" stroke="#212B36"/>
</g>
<path d="M90.7003 434.92C90.7793 436.191 90.8521 437.799 90.8789 439.363C91.0579 443.298 90.8354 446.395 91.4102 450.292C91.6255 451.751 92.1838 453.622 92.6707 454.795C93.24 456.168 93.7361 457.597 94.3908 458.802C94.8533 459.654 95.3391 460.433 95.8015 461.284C96.3323 462.261 96.9031 463.394 97.488 464.202C98.588 465.723 99.9042 466.43 101.127 467.08C102.496 467.808 104.623 468.543 106.005 468.49C107.349 468.438 108.673 468.192 106.48 468.855C106.22 468.872 105.983 468.975 105.729 469.041C104.623 469.33 103.472 469.687 102.401 470.229C101.758 470.554 101.165 471.094 100.553 471.566C100.044 471.958 99.5101 472.319 99.0406 472.875C98.1097 473.977 97.3439 475.882 96.7696 477.759C96.2736 479.381 95.7597 480.978 95.2653 482.596C94.9482 483.634 94.6832 484.793 94.5238 486.009C94.3587 487.27 94.1475 488.432 94.0156 489.723C93.876 491.088 93.7551 492.471 93.5996 493.826C93.327 496.202 93.066 498.865 93.2132 501.418C93.3215 503.297 93.5787 505.293 93.3511 507.09C93.1988 508.292 93.0079 509.475 92.8751 510.693C92.8746 510.785 92.8741 510.878 92.8736 510.97C92.8709 511.474 92.7838 512.035 92.8 512.526C92.8033 512.627 92.7608 511.986 92.771 511.84C92.7982 511.453 92.8338 511.071 92.8751 510.693C92.8924 507.641 92.9209 504.607 92.7297 501.529C92.5377 498.438 92.2248 495.374 92.0327 492.283C91.9169 490.419 91.8604 488.514 91.5229 486.708C91.1824 484.886 90.7253 483.008 90.1211 481.466C88.9705 478.532 87.2513 476.643 85.7041 474.944L85.6825 474.92C84.4184 473.532 83.1245 471.57 81.7521 470.853C80.5655 470.233 79.5052 470.004 78.3123 470.078L75.1575 470.274C74.9194 470.289 76.2081 470.045 76.9761 469.908C81.4207 468.798 82.6442 468.148 83.8113 467.094C84.7352 466.26 85.5658 465.365 86.3175 463.967C87.2717 462.191 88.0763 460.151 88.7464 457.843C90.0495 453.354 90.5018 448.253 90.8296 442.92C90.8919 441.906 90.901 440.649 90.8789 439.363C90.859 438.923 90.5726 435.076 90.7003 434.92Z" fill="#FF7A00" fill-opacity="0.46"/>
<path d="M106.48 468.855C106.22 468.872 105.983 468.975 105.729 469.041C104.623 469.33 103.472 469.687 102.401 470.229C101.758 470.554 101.165 471.094 100.553 471.566C100.044 471.958 99.5101 472.319 99.0406 472.875C98.1097 473.977 97.3439 475.882 96.7696 477.759C96.2736 479.381 95.7597 480.978 95.2653 482.596C94.9482 483.634 94.6832 484.793 94.5238 486.009C94.3587 487.27 94.1475 488.432 94.0156 489.723C93.876 491.088 93.7551 492.471 93.5996 493.826C93.327 496.202 93.066 498.865 93.2132 501.418C93.3215 503.297 93.5787 505.293 93.3511 507.09C93.1515 508.665 92.8856 510.208 92.771 511.84C92.7608 511.986 92.8033 512.627 92.8 512.526C92.7838 512.035 92.8709 511.474 92.8736 510.97C92.8905 507.825 92.9267 504.7 92.7297 501.529C92.5377 498.438 92.2248 495.374 92.0327 492.283C91.9169 490.419 91.8604 488.514 91.5229 486.708C91.1824 484.886 90.7253 483.008 90.1211 481.466C88.9652 478.518 87.2353 476.626 85.6825 474.92C84.4184 473.532 83.1245 471.57 81.7521 470.853C80.5655 470.233 79.5052 470.004 78.3123 470.078C77.2607 470.144 76.2091 470.209 75.1575 470.274C74.7135 470.302 79.5775 469.429 76.4773 470.031C81.3315 468.845 82.6017 468.186 83.8113 467.094C84.7352 466.26 85.5658 465.365 86.3175 463.967C87.2717 462.191 88.0763 460.151 88.7464 457.843C90.0495 453.354 90.5018 448.253 90.8296 442.92C90.9677 440.672 90.8443 437.237 90.7003 434.92C90.5726 435.076 90.859 438.923 90.8789 439.363C91.0578 443.298 90.8354 446.395 91.4102 450.292C91.6255 451.751 92.1838 453.622 92.6707 454.795C93.24 456.168 93.7361 457.597 94.3908 458.802C94.8533 459.654 95.3391 460.433 95.8015 461.284C96.3323 462.261 96.9031 463.394 97.488 464.202C98.588 465.723 99.9042 466.43 101.127 467.08C102.496 467.808 104.623 468.543 106.005 468.49C107.349 468.438 108.673 468.192 106.48 468.855ZM106.48 468.855C106.607 468.848 106.586 468.849 106.48 468.855Z" stroke="black" stroke-opacity="0.6" stroke-linecap="round"/>
<path d="M62.7411 658.521C110.347 658.521 157.957 660.073 205.589 659.902C262.072 659.699 318.538 656.683 375.001 659.902C410.657 661.934 446.082 665.393 481.61 668.491C486.191 668.89 492.47 670.639 497.091 669.488C498.284 669.19 486.507 666.259 485.304 666.113C458.909 662.917 430.447 665.423 403.853 665.423C357.903 665.423 312.041 666.278 266.106 666.88C219.511 667.491 172.93 670.945 126.337 670.945C110.123 670.945 77.6944 670.945 77.6944 670.945C77.6944 670.945 116.832 668.071 136.276 665.73C159.305 662.957 183.014 663.361 206.205 661.972C232.671 660.387 259.093 658.617 285.633 658.521C306.978 658.445 328.324 658.521 349.669 658.521C357.703 658.521 381.449 656.768 373.77 658.828C362.795 661.772 348.643 661.079 337.266 661.896C314.078 663.561 290.735 663.577 267.514 664.81C182.472 669.323 97.0049 662.865 12.4276 673.399C9.45997 673.768 3.28471 674.426 10.0526 673.552C27.088 671.352 44.0059 666.74 61.1578 664.35C115.149 656.825 169.658 658.521 224.149 658.521C263.741 658.521 303.885 656.933 343.336 660.592C344.092 660.662 355.922 661.872 355.298 662.356C351.053 665.646 330.989 662.663 325.744 662.663C282.68 662.663 239.66 661.282 196.617 661.282C175.732 661.282 154.793 660.759 133.989 662.663C122.578 663.707 109.44 663.506 98.2772 665.73C77.5707 669.856 140.51 661.727 161.609 659.595C221.607 653.534 282.313 654.38 342.632 654.38C386.872 654.38 431.073 653 475.277 653C483.369 653 491.461 653 499.554 653C506.027 653 490.386 653 489.262 653C422.203 653 355.652 660.049 289.24 667.494C278.309 668.719 267.299 670.794 256.255 670.945C249.245 671.04 248.516 670.945 256.167 670.945C287.733 670.945 319.713 670.415 351.252 669.258C394.048 667.687 437.567 666.713 480.378 668.491C495.75 669.129 510.965 671.256 526.294 672.325C527.844 672.433 541.731 673.812 538.52 674.396C515.484 678.58 489.948 676.466 466.569 676.466C453.345 676.466 440.122 676.466 426.898 676.466" stroke="black" stroke-opacity="0.5" stroke-linecap="round"/>
<path d="M64.3073 756C100.663 756 136.993 757.891 173.264 759.663C221.792 762.034 270.257 761.417 318.769 763.464C356.346 765.05 394.071 765.9 431.605 767.887C446.462 768.674 461.477 770.606 476.343 770.928C496.909 771.374 435.177 770.478 414.624 771.205C340.316 773.833 266.085 773.417 191.711 773.417C166.235 773.417 140.437 774.349 114.993 773.14C102.765 772.559 90.6118 770.928 78.3579 770.928C68.9332 770.928 58.8158 770.075 49.4809 771.205C38.9808 772.476 50.0713 773.417 54.4805 773.417C75.0931 773.417 95.307 772.179 115.855 770.928C149.29 768.894 182.945 769.684 216.45 769.684C300.209 769.684 383.818 773.417 467.551 773.417C502.264 773.417 398.069 772.951 363.421 774.661C299.779 777.801 235.752 779.515 172.057 781.848C146.504 782.784 119.388 783.591 93.7877 782.125C83.427 781.531 114.523 781.049 124.906 780.812C153.616 780.154 182.439 776.862 211.106 775.283C277.654 771.617 344.234 767.664 410.831 764.777C430.574 763.922 450.396 761.193 470.137 760.976C479.224 760.876 476.845 760.71 470.05 762.842C463.431 764.919 457.813 768.401 450.655 769.408C436.469 771.404 422.079 773.66 407.814 775.213C358.019 780.635 307.208 781.399 257.05 783.092C218.308 784.4 179.69 782.125 141.025 782.125C128.687 782.125 144.476 783.419 148.525 783.231C180.095 781.763 211.594 778.444 243.086 776.181C315.696 770.964 389.551 773.417 462.378 773.417C485.054 773.417 552.526 770.647 530.39 774.591C503.706 779.346 474.566 778.393 447.38 778.393C399.512 778.393 351.78 780.103 303.943 781.503C238.703 783.412 173.265 782.866 108.097 785.58C82.2818 786.656 53.0051 788.458 27.4137 784.889C20.7386 783.959 6.29017 787.305 1.03655 783.092C0.0814887 782.327 18.3961 778.069 20.2591 777.771C36.9826 775.089 53.5824 772.625 70.5137 770.928C119.301 766.039 169.448 768.44 218.519 768.44C292.259 768.44 365.937 769.684 439.622 769.684C463.509 769.684 487.35 770.928 511.168 770.928C521.752 770.928 532.154 772.172 542.717 772.172C546.492 772.172 540.916 772.444 539.096 773.417" stroke="black" stroke-opacity="0.5" stroke-linecap="round"/>
<path d="M79.8509 614C79.1148 634.611 72.0866 655.852 69.1319 676.203C65.0135 704.568 62.3107 732.833 62.3107 761.467C62.3107 767.32 60.9906 797.009 57.1949 775.922C51.3192 743.279 51.1671 706.743 58.0069 674.254C61.644 656.978 71.0808 640.074 71.0808 622.202C71.0808 620.307 71.0808 618.412 71.0808 616.517C71.0808 608.035 67.0586 633.001 65.2341 641.285C57.8905 674.628 50.059 708.073 48.0187 742.303C47.2483 755.23 44.8394 776.546 50.9421 788.752C51.2337 789.335 52.079 777.427 52.079 776.003C52.079 763.311 52.9844 750.737 55.3271 738.243C59.7421 714.696 67.0612 691.991 70.2688 668.163C70.913 663.378 72.5425 635.704 72.5425 655.495C72.5425 693.588 63.7733 732.646 57.9257 770.237C55.8894 783.328 54.3211 796.483 52.079 809.54C51.2027 814.643 52.0238 821.891 49.8864 826.593C48.5722 829.485 48.0318 827.081 47.6939 824.969C45.0873 808.678 46.262 791.575 48.0187 775.272C51.6013 742.026 54.0617 709.594 61.9859 677.177C62.9952 673.048 63.968 674.171 63.6912 677.908C62.9805 687.503 59.1741 696.93 56.464 706.086C50.1908 727.279 38.7494 748.409 36.0005 770.4" stroke="black" stroke-opacity="0.5" stroke-linecap="round"/>
<path d="M499.927 644.348C497.561 642.245 497.022 643.678 496.679 646.459C492.555 679.861 495.107 714.468 496.354 747.965C496.968 764.469 498.078 780.748 499.602 797.175C500.046 801.966 500.632 807.677 499.602 812.441C497.138 823.836 495.438 802.859 495.217 800.423C492.624 771.9 491.833 743.132 492.943 714.509C494.065 685.58 498.4 657.039 501.064 628.269C501.765 620.699 502.85 597.93 502.85 605.532C502.85 626.934 494.042 648.356 492.943 670.009C491.729 693.935 491.154 719.163 492.943 743.093C493.695 753.152 497.25 767.896 491.157 777.036C487.727 782.181 488.242 769.932 488.233 768.916C488.128 757.116 488.233 745.31 488.233 733.51C488.233 707.749 487.44 681.634 492.294 656.204C494.392 645.208 498.015 633.994 498.465 622.748C498.524 621.273 496.953 630.997 496.679 632.167C493.533 645.563 489.276 658.553 486.772 672.12C481.884 698.593 478.002 727 478.002 753.974C478.002 763.556 477.743 780.026 485.31 787.593C489.657 791.939 491.074 784.835 492.618 781.746" stroke="black" stroke-opacity="0.5" stroke-linecap="round"/>
<path d="M58.0005 903L695 903" stroke="black" stroke-opacity="0.6" stroke-linecap="round"/>
<path d="M321.688 908.956H472.45" stroke="black" stroke-opacity="0.6" stroke-linecap="round"/>
<defs>
<filter id="filter0_d_203_94" x="585" y="255" width="131.207" height="133.206" filterUnits="userSpaceOnUse" color-interpolation-filters="sRGB">
<feFlood flood-opacity="0" result="BackgroundImageFix"/>
<feColorMatrix in="SourceAlpha" type="matrix" values="0 0 0 0 0 0 0 0 0 0 0 0 0 0 0 0 0 0 127 0" result="hardAlpha"/>
<feMorphology radius="2" operator="dilate" in="SourceAlpha" result="effect1_dropShadow_203_94"/>
<feOffset dy="4"/>
<feColorMatrix type="matrix" values="0 0 0 0 0 0 0 0 0 0 0 0 0 0 0 0 0 0 1 0"/>
<feBlend mode="normal" in2="BackgroundImageFix" result="effect1_dropShadow_203_94"/>
<feBlend mode="normal" in="SourceGraphic" in2="effect1_dropShadow_203_94" result="shape"/>
</filter>
<filter id="filter1_d_203_94" x="588" y="188" width="119.605" height="121.606" filterUnits="userSpaceOnUse" color-interpolation-filters="sRGB">
<feFlood flood-opacity="0" result="BackgroundImageFix"/>
<feColorMatrix in="SourceAlpha" type="matrix" values="0 0 0 0 0 0 0 0 0 0 0 0 0 0 0 0 0 0 127 0" result="hardAlpha"/>
<feMorphology radius="2" operator="dilate" in="SourceAlpha" result="effect1_dropShadow_203_94"/>
<feOffset dy="4"/>
<feColorMatrix type="matrix" values="0 0 0 0 0 0 0 0 0 0 0 0 0 0 0 0 0 0 1 0"/>
<feBlend mode="normal" in2="BackgroundImageFix" result="effect1_dropShadow_203_94"/>
<feBlend mode="normal" in="SourceGraphic" in2="effect1_dropShadow_203_94" result="shape"/>
</filter>
<clipPath id="clip0_203_94">
<rect x="652.758" y="255" width="90" height="90" rx="6" transform="rotate(46.9401 652.758 255)" fill="white"/>
</clipPath>
<clipPath id="clip1_203_94">
<rect x="590" y="219.179" width="90" height="90" rx="6" transform="rotate(-20.2691 590 219.179)" fill="white"/>
</clipPath>
</defs>
</svg>
