<svg width="751" height="921" viewBox="0 0 751 921" fill="none" xmlns="http://www.w3.org/2000/svg">
<path d="M88 1L88 311" stroke="black" stroke-opacity="0.6" stroke-linecap="round"/>
<path d="M95.8818 69.9387V255.136" stroke="black" stroke-opacity="0.6" stroke-linecap="round"/>
<path d="M509 81V541.384" stroke="black" stroke-opacity="0.6" stroke-linecap="round"/>
<path d="M1 113L592 113" stroke="black" stroke-opacity="0.6" stroke-linecap="round"/>
<g filter="url(#filter0_d_171_75)">
<g clip-path="url(#clip0_171_75)">
<rect x="614.758" y="245" width="90" height="90" rx="6" transform="rotate(46.9401 614.758 245)" fill="white"/>
<path d="M618.254 309.375C617.164 307.265 616.801 305.375 617.165 303.704C617.536 302.042 618.45 300.531 619.905 299.171L622.538 296.71C623.497 295.814 624.038 294.9 624.161 293.967C624.292 293.026 623.934 292.102 623.086 291.194L624.974 289.43C625.822 290.338 626.711 290.766 627.641 290.715C628.58 290.655 629.533 290.173 630.501 289.269L633.147 286.797C634.611 285.429 636.18 284.62 637.855 284.37C639.547 284.12 641.408 284.61 643.439 285.84L642.417 287.758C641.237 287.096 640.069 286.928 638.914 287.253C637.776 287.58 636.641 288.271 635.511 289.327L632.865 291.799C631.966 292.639 631.006 293.2 629.985 293.48C628.964 293.761 627.921 293.717 626.856 293.349C627.142 294.445 627.106 295.497 626.749 296.505C626.4 297.504 625.784 298.416 624.902 299.24L622.27 301.701C621.139 302.757 620.377 303.838 619.983 304.944C619.589 306.066 619.677 307.243 620.249 308.473L618.254 309.375Z" fill="#212B36"/>
<path d="M579.661 335.575L605.039 311.86L609.648 316.791L607.657 318.652L605.412 316.25L584.016 336.245L586.26 338.647L584.269 340.507L579.661 335.575Z" fill="#212B36"/>
</g>
<rect x="614.734" y="245.707" width="89" height="89" rx="5.5" transform="rotate(46.9401 614.734 245.707)" stroke="#212B36"/>
</g>
<g filter="url(#filter1_d_171_75)">
<g clip-path="url(#clip1_171_75)">
<rect x="552" y="209.179" width="90" height="90" rx="6" transform="rotate(-20.2691 552 209.179)" fill="white"/>
<path d="M603.403 234.327L602.025 232.625C603.066 231.79 603.662 230.783 603.814 229.603C603.969 228.434 603.779 227.124 603.243 225.673L601.994 222.292C601.56 221.116 601.428 219.997 601.598 218.935C601.768 217.873 602.282 216.914 603.141 216.06C601.941 215.991 600.931 215.608 600.112 214.911C599.292 214.214 598.661 213.267 598.219 212.069L596.964 208.672C596.429 207.221 595.72 206.096 594.838 205.297C593.951 204.488 592.844 204.11 591.514 204.164L591.461 201.991C593.817 201.808 595.69 202.209 597.078 203.196C598.474 204.167 599.519 205.592 600.213 207.472L601.467 210.869C601.926 212.111 602.562 212.97 603.374 213.444C604.182 213.908 605.175 213.922 606.351 213.488L607.246 215.912C606.07 216.346 605.329 217.013 605.024 217.913C604.715 218.802 604.788 219.861 605.243 221.093L606.491 224.473C607.181 226.342 607.314 228.104 606.889 229.76C606.474 231.413 605.313 232.935 603.403 234.327Z" fill="#212B36"/>
<path d="M619.88 277.37L618.936 274.814L622.036 273.669L611.891 246.198L608.791 247.343L607.847 244.787L614.195 242.442L626.228 275.026L619.88 277.37Z" fill="#212B36"/>
</g>
<rect x="552.642" y="209.475" width="89" height="89" rx="5.5" transform="rotate(-20.2691 552.642 209.475)" stroke="#212B36"/>
</g>
<path d="M88.6999 433.92C88.7788 435.191 88.8516 436.799 88.8784 438.363C89.0574 442.298 88.835 445.395 89.4097 449.292C89.625 450.751 90.1833 452.622 90.6702 453.795C91.2395 455.168 91.7356 456.597 92.3903 457.802C92.8528 458.654 93.3387 459.433 93.801 460.284C94.3319 461.261 94.9026 462.394 95.4875 463.202C96.5875 464.723 97.9038 465.43 99.1261 466.08C100.496 466.808 102.622 467.543 104.005 467.49C105.348 467.438 106.673 467.192 104.48 467.855C104.22 467.872 103.983 467.975 103.728 468.041C102.622 468.33 101.472 468.687 100.4 469.229C99.7575 469.554 99.165 470.094 98.5525 470.566C98.0437 470.958 97.5096 471.319 97.0401 471.875C96.1093 472.977 95.3434 474.882 94.7691 476.759C94.2731 478.381 93.7592 479.978 93.2648 481.596C92.9477 482.634 92.6828 483.793 92.5233 485.009C92.3582 486.27 92.147 487.432 92.0151 488.723C91.8755 490.088 91.7547 491.471 91.5992 492.826C91.3265 495.202 91.0655 497.865 91.2127 500.418C91.321 502.297 91.5782 504.293 91.3506 506.09C91.1983 507.292 91.0075 508.475 90.8746 509.693C90.8741 509.785 90.8736 509.878 90.8731 509.97C90.8704 510.474 90.7833 511.035 90.7995 511.526C90.8028 511.627 90.7603 510.986 90.7705 510.84C90.7977 510.453 90.8333 510.071 90.8746 509.693C90.8919 506.641 90.9205 503.607 90.7292 500.529C90.5372 497.438 90.2243 494.374 90.0322 491.283C89.9164 489.419 89.8599 487.514 89.5224 485.708C89.1819 483.886 88.7249 482.008 88.1207 480.466C86.9701 477.532 85.2508 475.643 83.7036 473.944L83.682 473.92C82.4179 472.532 81.124 470.57 79.7516 469.853C78.5651 469.233 77.5047 469.004 76.3118 469.078L73.157 469.274C72.9189 469.289 74.2076 469.045 74.9756 468.908C79.4203 467.798 80.6437 467.148 81.8109 466.094C82.7347 465.26 83.5653 464.365 84.317 462.967C85.2712 461.191 86.0759 459.151 86.7459 456.843C88.049 452.354 88.5013 447.253 88.8291 441.92C88.8914 440.906 88.9005 439.649 88.8784 438.363C88.8585 437.923 88.5721 434.076 88.6999 433.92Z" fill="#FF7A00" fill-opacity="0.46"/>
<path d="M104.48 467.855C104.22 467.872 103.983 467.975 103.728 468.041C102.622 468.33 101.472 468.687 100.4 469.229C99.7575 469.554 99.165 470.094 98.5525 470.566C98.0437 470.958 97.5096 471.319 97.0401 471.875C96.1093 472.977 95.3434 474.882 94.7691 476.759C94.2731 478.381 93.7592 479.978 93.2648 481.596C92.9477 482.634 92.6828 483.793 92.5233 485.009C92.3582 486.27 92.147 487.432 92.0151 488.723C91.8755 490.088 91.7547 491.471 91.5992 492.826C91.3265 495.202 91.0655 497.865 91.2127 500.418C91.321 502.297 91.5782 504.293 91.3506 506.09C91.151 507.665 90.8851 509.208 90.7705 510.84C90.7603 510.986 90.8028 511.627 90.7995 511.526C90.7833 511.035 90.8704 510.474 90.8731 509.97C90.89 506.825 90.9263 503.7 90.7292 500.529C90.5372 497.438 90.2243 494.374 90.0322 491.283C89.9164 489.419 89.8599 487.514 89.5224 485.708C89.1819 483.886 88.7249 482.008 88.1207 480.466C86.9647 477.518 85.2348 475.626 83.682 473.92C82.4179 472.532 81.124 470.57 79.7516 469.853C78.5651 469.233 77.5047 469.004 76.3118 469.078C75.2602 469.144 74.2086 469.209 73.157 469.274C72.713 469.302 77.577 468.429 74.4768 469.031C79.331 467.845 80.6012 467.186 81.8109 466.094C82.7347 465.26 83.5653 464.365 84.317 462.967C85.2712 461.191 86.0759 459.151 86.7459 456.843C88.049 452.354 88.5013 447.253 88.8291 441.92C88.9672 439.672 88.8438 436.237 88.6999 433.92C88.5721 434.076 88.8585 437.923 88.8784 438.363C89.0574 442.298 88.835 445.395 89.4097 449.292C89.625 450.751 90.1833 452.622 90.6702 453.795C91.2395 455.168 91.7356 456.597 92.3903 457.802C92.8528 458.654 93.3387 459.433 93.801 460.284C94.3319 461.261 94.9026 462.394 95.4875 463.202C96.5875 464.723 97.9038 465.43 99.1261 466.08C100.496 466.808 102.622 467.543 104.005 467.49C105.348 467.438 106.673 467.192 104.48 467.855ZM104.48 467.855C104.606 467.848 104.585 467.849 104.48 467.855Z" stroke="black" stroke-opacity="0.6" stroke-linecap="round"/>
<path d="M719 325L719 920" stroke="black" stroke-opacity="0.6" stroke-linecap="round"/>
<path d="M70.7406 666.521C118.347 666.521 165.957 668.073 213.589 667.902C270.072 667.699 326.537 664.683 383.001 667.902C418.656 669.934 454.082 673.393 489.609 676.491C494.191 676.89 500.469 678.639 505.09 677.488C506.284 677.19 494.506 674.259 493.304 674.113C466.909 670.917 438.446 673.423 411.852 673.423C365.902 673.423 320.041 674.278 274.106 674.88C227.51 675.491 180.929 678.945 134.336 678.945C118.122 678.945 85.6939 678.945 85.6939 678.945C85.6939 678.945 124.832 676.071 144.276 673.73C167.304 670.957 191.013 671.361 214.204 669.972C240.67 668.387 267.092 666.617 293.633 666.521C314.977 666.445 336.324 666.521 357.668 666.521C365.703 666.521 389.449 664.768 381.77 666.828C370.795 669.772 356.643 669.079 345.266 669.896C322.077 671.561 298.734 671.577 275.513 672.81C190.471 677.323 105.004 670.865 20.4271 681.399C17.4595 681.768 11.2842 682.426 18.0521 681.552C35.0875 679.352 52.0054 674.74 69.1573 672.35C123.148 664.825 177.657 666.521 232.148 666.521C271.74 666.521 311.885 664.933 351.335 668.592C352.091 668.662 363.922 669.872 363.298 670.356C359.052 673.646 338.989 670.663 333.743 670.663C290.68 670.663 247.66 669.282 204.617 669.282C183.731 669.282 162.792 668.759 141.989 670.663C130.578 671.707 117.439 671.506 106.277 673.73C85.5702 677.856 148.509 669.727 169.608 667.595C229.607 661.534 290.312 662.38 350.631 662.38C394.872 662.38 439.073 661 483.276 661C491.369 661 499.461 661 507.553 661C514.026 661 498.386 661 497.262 661C430.203 661 363.652 668.049 297.239 675.494C286.309 676.719 275.298 678.794 264.254 678.945C257.244 679.04 256.515 678.945 264.166 678.945C295.732 678.945 327.713 678.415 359.252 677.258C402.048 675.687 445.566 674.713 488.378 676.491C503.75 677.129 518.965 679.256 534.293 680.325C535.844 680.433 549.731 681.812 546.52 682.396C523.484 686.58 497.947 684.466 474.568 684.466C461.345 684.466 448.121 684.466 434.898 684.466" stroke="black" stroke-opacity="0.5" stroke-linecap="round"/>
<path d="M72.3068 764C108.663 764 144.992 765.891 181.263 767.663C229.792 770.034 278.256 769.417 326.769 771.464C364.345 773.05 402.071 773.9 439.605 775.887C454.461 776.674 469.477 778.606 484.342 778.928C504.908 779.374 443.177 778.478 422.623 779.205C348.315 781.833 274.085 781.417 199.71 781.417C174.234 781.417 148.436 782.349 122.992 781.14C110.764 780.559 98.6113 778.928 86.3574 778.928C76.9327 778.928 66.8153 778.075 57.4804 779.205C46.9803 780.476 58.0708 781.417 62.48 781.417C83.0926 781.417 103.306 780.179 123.854 778.928C157.29 776.894 190.945 777.684 224.45 777.684C308.208 777.684 391.817 781.417 475.55 781.417C510.264 781.417 406.069 780.951 371.421 782.661C307.778 785.801 243.751 787.515 180.057 789.848C154.504 790.784 127.388 791.591 101.787 790.125C91.4265 789.531 122.522 789.049 132.905 788.812C161.615 788.154 190.438 784.862 219.105 783.283C285.654 779.617 352.234 775.664 418.83 772.777C438.573 771.922 458.396 769.193 478.136 768.976C487.223 768.876 484.845 768.71 478.05 770.842C471.43 772.919 465.812 776.401 458.655 777.408C444.468 779.404 430.078 781.66 415.813 783.213C366.019 788.635 315.208 789.399 265.05 791.092C226.307 792.4 187.689 790.125 149.025 790.125C136.687 790.125 152.476 791.419 156.524 791.231C188.095 789.763 219.593 786.444 251.085 784.181C323.695 778.964 397.55 781.417 470.378 781.417C493.054 781.417 560.526 778.647 538.39 782.591C511.705 787.346 482.565 786.393 455.379 786.393C407.511 786.393 359.78 788.103 311.943 789.503C246.703 791.412 181.265 790.866 116.096 793.58C90.2813 794.656 61.0046 796.458 35.4132 792.889C28.7381 791.959 14.2897 795.305 9.03607 791.092C8.081 790.327 26.3956 786.069 28.2586 785.771C44.9821 783.089 61.5819 780.625 78.5132 778.928C127.301 774.039 177.448 776.44 226.518 776.44C300.259 776.44 373.937 777.684 447.621 777.684C471.508 777.684 495.349 778.928 519.167 778.928C529.751 778.928 540.153 780.172 550.716 780.172C554.492 780.172 548.915 780.444 547.096 781.417" stroke="black" stroke-opacity="0.5" stroke-linecap="round"/>
<path d="M87.8504 622C87.1143 642.611 80.0861 663.852 77.1314 684.203C73.0131 712.568 70.3102 740.833 70.3102 769.467C70.3102 775.32 68.9901 805.009 65.1944 783.922C59.3187 751.279 59.1666 714.743 66.0064 682.254C69.6435 664.978 79.0803 648.074 79.0803 630.202C79.0803 628.307 79.0803 626.412 79.0803 624.517C79.0803 616.035 75.0581 641.001 73.2336 649.285C65.89 682.628 58.0585 716.073 56.0183 750.303C55.2478 763.23 52.8389 784.546 58.9416 796.752C59.2333 797.335 60.0785 785.427 60.0785 784.003C60.0785 771.311 60.9839 758.737 63.3267 746.243C67.7417 722.696 75.0607 699.991 78.2683 676.163C78.9125 671.378 80.542 643.704 80.542 663.495C80.542 701.588 71.7728 740.646 65.9252 778.237C63.8889 791.328 62.3206 804.483 60.0785 817.54C59.2022 822.643 60.0233 829.891 57.886 834.593C56.5717 837.485 56.0313 835.081 55.6934 832.969C53.0868 816.678 54.2615 799.575 56.0183 783.272C59.6008 750.026 62.0612 717.594 69.9854 685.177C70.9947 681.048 71.9675 682.171 71.6907 685.908C70.98 695.503 67.1736 704.93 64.4635 714.086C58.1903 735.279 46.7489 756.409 44 778.4" stroke="black" stroke-opacity="0.5" stroke-linecap="round"/>
<path d="M507.926 652.348C505.56 650.245 505.022 651.678 504.678 654.459C500.554 687.861 503.107 722.468 504.353 755.965C504.967 772.469 506.077 788.748 507.601 805.175C508.046 809.966 508.632 815.677 507.601 820.441C505.138 831.836 503.438 810.859 503.216 808.423C500.623 779.9 499.832 751.132 500.943 722.509C502.065 693.58 506.399 665.039 509.063 636.269C509.764 628.699 510.85 605.93 510.85 613.532C510.85 634.934 502.042 656.356 500.943 678.009C499.728 701.935 499.154 727.163 500.943 751.093C501.695 761.152 505.249 775.896 499.156 785.036C495.726 790.181 496.242 777.932 496.233 776.916C496.127 765.116 496.233 753.31 496.233 741.51C496.233 715.749 495.44 689.634 500.293 664.204C502.392 653.208 506.015 641.994 506.465 630.748C506.524 629.273 504.953 638.997 504.678 640.167C501.533 653.563 497.276 666.553 494.771 680.12C489.884 706.593 486.001 735 486.001 761.974C486.001 771.556 485.743 788.026 493.309 795.593C497.656 799.939 499.073 792.835 500.618 789.746" stroke="black" stroke-opacity="0.5" stroke-linecap="round"/>
<path d="M349.312 902.044H749.765" stroke="black" stroke-opacity="0.6" stroke-linecap="round"/>
<path d="M376 908H526.762" stroke="black" stroke-opacity="0.6" stroke-linecap="round"/>
<defs>
<filter id="filter0_d_171_75" x="547" y="245" width="131.207" height="133.206" filterUnits="userSpaceOnUse" color-interpolation-filters="sRGB">
<feFlood flood-opacity="0" result="BackgroundImageFix"/>
<feColorMatrix in="SourceAlpha" type="matrix" values="0 0 0 0 0 0 0 0 0 0 0 0 0 0 0 0 0 0 127 0" result="hardAlpha"/>
<feMorphology radius="2" operator="dilate" in="SourceAlpha" result="effect1_dropShadow_171_75"/>
<feOffset dy="4"/>
<feColorMatrix type="matrix" values="0 0 0 0 0 0 0 0 0 0 0 0 0 0 0 0 0 0 1 0"/>
<feBlend mode="normal" in2="BackgroundImageFix" result="effect1_dropShadow_171_75"/>
<feBlend mode="normal" in="SourceGraphic" in2="effect1_dropShadow_171_75" result="shape"/>
</filter>
<filter id="filter1_d_171_75" x="550" y="178" width="119.605" height="121.606" filterUnits="userSpaceOnUse" color-interpolation-filters="sRGB">
<feFlood flood-opacity="0" result="BackgroundImageFix"/>
<feColorMatrix in="SourceAlpha" type="matrix" values="0 0 0 0 0 0 0 0 0 0 0 0 0 0 0 0 0 0 127 0" result="hardAlpha"/>
<feMorphology radius="2" operator="dilate" in="SourceAlpha" result="effect1_dropShadow_171_75"/>
<feOffset dy="4"/>
<feColorMatrix type="matrix" values="0 0 0 0 0 0 0 0 0 0 0 0 0 0 0 0 0 0 1 0"/>
<feBlend mode="normal" in2="BackgroundImageFix" result="effect1_dropShadow_171_75"/>
<feBlend mode="normal" in="SourceGraphic" in2="effect1_dropShadow_171_75" result="shape"/>
</filter>
<clipPath id="clip0_171_75">
<rect x="614.758" y="245" width="90" height="90" rx="6" transform="rotate(46.9401 614.758 245)" fill="white"/>
</clipPath>
<clipPath id="clip1_171_75">
<rect x="552" y="209.179" width="90" height="90" rx="6" transform="rotate(-20.2691 552 209.179)" fill="white"/>
</clipPath>
</defs>
</svg>
