<svg width="532" height="728" viewBox="0 0 532 728" fill="none" xmlns="http://www.w3.org/2000/svg">
<path d="M373.834 107.366L425.084 115.079C425.702 115.172 426.342 115.01 426.864 114.629C427.386 114.249 427.746 113.68 427.866 113.049C427.986 112.418 427.856 111.775 427.504 111.263C427.152 110.751 426.607 110.411 425.989 110.318L374.74 102.605C374.122 102.512 373.482 102.674 372.96 103.055C372.438 103.435 372.077 104.004 371.957 104.635C371.837 105.267 371.968 105.909 372.32 106.421C372.672 106.933 373.216 107.273 373.834 107.366Z" fill="black" fill-opacity="0.2"/>
<path d="M379.465 115.559C378.847 115.466 378.207 115.628 377.685 116.008C377.163 116.389 376.803 116.957 376.683 117.589C376.562 118.22 376.693 118.862 377.045 119.375C377.397 119.887 377.941 120.227 378.559 120.32L415.832 125.929C416.45 126.022 417.09 125.86 417.612 125.479C418.133 125.099 418.494 124.53 418.614 123.899C418.734 123.268 418.604 122.625 418.252 122.113C417.9 121.601 417.355 121.261 416.737 121.168L379.465 115.559Z" fill="black" fill-opacity="0.2"/>
<path d="M421.461 134.121L370.213 126.409C369.595 126.316 368.955 126.478 368.433 126.858C367.912 127.239 367.551 127.808 367.431 128.439C367.311 129.07 367.441 129.713 367.793 130.225C368.145 130.737 368.69 131.077 369.308 131.17L420.556 138.882C421.174 138.975 421.814 138.813 422.336 138.433C422.857 138.052 423.218 137.484 423.338 136.852C423.458 136.221 423.328 135.579 422.976 135.066C422.624 134.554 422.079 134.214 421.461 134.121Z" fill="black" fill-opacity="0.2"/>
<path d="M412.209 144.971L374.938 139.363C374.32 139.27 373.68 139.431 373.158 139.812C372.636 140.192 372.276 140.761 372.156 141.392C372.036 142.024 372.166 142.666 372.518 143.178C372.87 143.69 373.415 144.03 374.032 144.123L411.303 149.732C411.921 149.825 412.561 149.663 413.083 149.283C413.605 148.902 413.965 148.334 414.086 147.702C414.206 147.071 414.075 146.429 413.723 145.916C413.371 145.404 412.827 145.064 412.209 144.971Z" fill="black" fill-opacity="0.2"/>
<g filter="url(#filter0_d_249_110)">
<rect x="309" y="638.245" width="90" height="90" rx="6" transform="rotate(-18.9621 309 638.245)" fill="white"/>
<path d="M371.526 651.661L368.184 652.809L365.606 663.751L365.456 663.802L356.647 656.773L353.156 657.973L364.338 666.714L360.837 680.705L364.128 679.574L366.762 668.632L366.912 668.581L375.665 675.61L379.156 674.411L367.931 665.703L371.526 651.661Z" fill="#212B36"/>
<rect x="309.635" y="638.555" width="89" height="89" rx="5.5" transform="rotate(-18.9621 309.635 638.555)" stroke="#212B36"/>
</g>
<path d="M1 29L531 29" stroke="black" stroke-opacity="0.6" stroke-linecap="round"/>
<path d="M513 1L513 446" stroke="black" stroke-opacity="0.6" stroke-linecap="round"/>
<path d="M507.67 20.9863V124.062" stroke="black" stroke-opacity="0.6" stroke-linecap="round"/>
<defs>
<filter id="filter0_d_249_110" x="307" y="609" width="118.361" height="120.361" filterUnits="userSpaceOnUse" color-interpolation-filters="sRGB">
<feFlood flood-opacity="0" result="BackgroundImageFix"/>
<feColorMatrix in="SourceAlpha" type="matrix" values="0 0 0 0 0 0 0 0 0 0 0 0 0 0 0 0 0 0 127 0" result="hardAlpha"/>
<feMorphology radius="2" operator="dilate" in="SourceAlpha" result="effect1_dropShadow_249_110"/>
<feOffset dy="4"/>
<feColorMatrix type="matrix" values="0 0 0 0 0 0 0 0 0 0 0 0 0 0 0 0 0 0 1 0"/>
<feBlend mode="normal" in2="BackgroundImageFix" result="effect1_dropShadow_249_110"/>
<feBlend mode="normal" in="SourceGraphic" in2="effect1_dropShadow_249_110" result="shape"/>
</filter>
</defs>
</svg>
