<svg width="269" height="959" viewBox="0 0 269 959" fill="none" xmlns="http://www.w3.org/2000/svg">
<path d="M209.812 1.36475V653.865" stroke="black" stroke-opacity="0.6" stroke-linecap="round"/>
<path d="M201.198 208.097V535.424" stroke="black" stroke-opacity="0.6" stroke-linecap="round"/>
<path d="M47.2824 890.163L86.5875 912.989C87.0614 913.264 87.6251 913.34 88.1547 913.199C88.6844 913.059 89.1365 912.714 89.4117 912.24C89.6868 911.766 89.7625 911.202 89.622 910.673C89.4815 910.143 89.1364 909.691 88.6626 909.416L49.3574 886.59C48.8836 886.315 48.3198 886.239 47.7902 886.38C47.2606 886.52 46.8085 886.865 46.5333 887.339C46.2581 887.813 46.1825 888.377 46.3229 888.907C46.4634 889.436 46.8085 889.888 47.2824 890.163Z" fill="black" fill-opacity="0.2"/>
<path d="M42.0949 899.096L70.6804 915.696C71.1543 915.971 71.718 916.047 72.2476 915.907C72.7773 915.766 73.2294 915.421 73.5046 914.947C73.7797 914.473 73.8554 913.91 73.7149 913.38C73.5744 912.85 73.2293 912.398 72.7555 912.123L44.1699 895.523C43.6961 895.248 43.1323 895.172 42.6027 895.313C42.0731 895.453 41.621 895.798 41.3458 896.272C41.0706 896.746 40.995 897.31 41.1354 897.839C41.2759 898.369 41.621 898.821 42.0949 899.096Z" fill="black" fill-opacity="0.2"/>
<path d="M78.2877 927.282L38.9839 904.457C38.51 904.182 37.9463 904.106 37.4167 904.247C36.887 904.387 36.4349 904.732 36.1597 905.206C35.8846 905.68 35.8089 906.244 35.9494 906.773C36.0899 907.303 36.435 907.755 36.9088 908.03L76.2127 930.855C76.6865 931.13 77.2503 931.206 77.7799 931.065C78.3095 930.925 78.7616 930.579 79.0368 930.106C79.312 929.632 79.3876 929.068 79.2472 928.538C79.1067 928.009 78.7616 927.557 78.2877 927.282Z" fill="black" fill-opacity="0.2"/>
<path d="M62.3801 929.99L33.7959 913.39C33.322 913.115 32.7583 913.039 32.2287 913.18C31.6991 913.32 31.2469 913.665 30.9718 914.139C30.6966 914.613 30.6209 915.177 30.7614 915.706C30.9019 916.236 31.247 916.688 31.7208 916.963L60.3051 933.563C60.779 933.838 61.3427 933.914 61.8723 933.773C62.4019 933.633 62.8541 933.288 63.1292 932.814C63.4044 932.34 63.4801 931.776 63.3396 931.246C63.1991 930.717 62.854 930.265 62.3801 929.99Z" fill="black" fill-opacity="0.2"/>
<path d="M1 51L268 51" stroke="black" stroke-opacity="0.6" stroke-linecap="round"/>
</svg>
