<svg width="715" height="910" viewBox="0 0 715 910" fill="none" xmlns="http://www.w3.org/2000/svg">
<path d="M46.0205 1L46.0205 311" stroke="black" stroke-opacity="0.6" stroke-linecap="round"/>
<path d="M53.9023 69.9387V255.136" stroke="black" stroke-opacity="0.6" stroke-linecap="round"/>
<path d="M511.021 82V542.384" stroke="black" stroke-opacity="0.6" stroke-linecap="round"/>
<path d="M3.02051 114L594.021 114" stroke="black" stroke-opacity="0.6" stroke-linecap="round"/>
<g filter="url(#filter0_d_203_94)">
<g clip-path="url(#clip0_203_94)">
<rect x="652.778" y="255" width="90" height="90" rx="6" transform="rotate(46.9401 652.778 255)" fill="white"/>
<path d="M656.274 319.375C655.185 317.265 654.822 315.375 655.185 313.704C655.557 312.042 656.47 310.531 657.926 309.171L660.559 306.71C661.518 305.814 662.058 304.9 662.181 303.967C662.313 303.026 661.954 302.102 661.106 301.194L662.994 299.43C663.842 300.338 664.731 300.766 665.662 300.715C666.601 300.655 667.554 300.173 668.521 299.269L671.167 296.797C672.631 295.429 674.201 294.62 675.876 294.37C677.567 294.12 679.429 294.61 681.46 295.84L680.437 297.758C679.257 297.096 678.09 296.928 676.935 297.253C675.796 297.58 674.662 298.271 673.531 299.327L670.886 301.799C669.987 302.639 669.027 303.2 668.006 303.48C666.985 303.761 665.941 303.717 664.876 303.349C665.162 304.445 665.127 305.497 664.769 306.505C664.42 307.504 663.805 308.416 662.923 309.24L660.29 311.701C659.16 312.757 658.398 313.838 658.004 314.944C657.609 316.066 657.698 317.243 658.27 318.473L656.274 319.375Z" fill="#212B36"/>
<path d="M617.681 345.575L643.059 321.86L647.668 326.791L645.677 328.652L643.433 326.25L622.036 346.245L624.28 348.647L622.29 350.507L617.681 345.575Z" fill="#212B36"/>
</g>
<rect x="652.754" y="255.707" width="89" height="89" rx="5.5" transform="rotate(46.9401 652.754 255.707)" stroke="#212B36"/>
</g>
<g filter="url(#filter1_d_203_94)">
<g clip-path="url(#clip1_203_94)">
<rect x="590.021" y="219.179" width="90" height="90" rx="6" transform="rotate(-20.2691 590.021 219.179)" fill="white"/>
<path d="M641.424 244.327L640.046 242.625C641.087 241.79 641.683 240.783 641.834 239.603C641.989 238.434 641.799 237.124 641.263 235.673L640.015 232.292C639.581 231.116 639.448 229.997 639.618 228.935C639.788 227.873 640.303 226.914 641.161 226.06C639.961 225.991 638.952 225.608 638.132 224.911C637.313 224.214 636.682 223.267 636.239 222.069L634.985 218.672C634.449 217.221 633.74 216.096 632.858 215.297C631.972 214.488 630.864 214.11 629.535 214.164L629.482 211.991C631.838 211.808 633.71 212.209 635.099 213.196C636.494 214.167 637.539 215.592 638.233 217.472L639.488 220.869C639.947 222.111 640.582 222.97 641.395 223.444C642.203 223.908 643.195 223.922 644.371 223.488L645.267 225.912C644.09 226.346 643.35 227.013 643.045 227.913C642.736 228.802 642.809 229.861 643.263 231.093L644.512 234.473C645.202 236.342 645.334 238.104 644.909 239.76C644.495 241.413 643.333 242.935 641.424 244.327Z" fill="#212B36"/>
<path d="M657.9 287.37L656.957 284.814L660.057 283.669L649.911 256.198L646.811 257.343L645.867 254.787L652.216 252.442L664.249 285.026L657.9 287.37Z" fill="#212B36"/>
</g>
<rect x="590.663" y="219.475" width="89" height="89" rx="5.5" transform="rotate(-20.2691 590.663 219.475)" stroke="#212B36"/>
</g>
<path d="M90.7204 434.92C90.7993 436.191 90.8721 437.799 90.899 439.363C91.0779 443.298 90.8555 446.395 91.4302 450.292C91.6455 451.751 92.2038 453.622 92.6907 454.795C93.26 456.168 93.7561 457.597 94.4108 458.802C94.8733 459.654 95.3592 460.433 95.8215 461.284C96.3524 462.261 96.9231 463.394 97.508 464.202C98.608 465.723 99.9243 466.43 101.147 467.08C102.516 467.808 104.643 468.543 106.025 468.49C107.369 468.438 108.693 468.192 106.5 468.855C106.24 468.872 106.003 468.975 105.749 469.041C104.643 469.33 103.492 469.687 102.421 470.229C101.778 470.554 101.185 471.094 100.573 471.566C100.064 471.958 99.5301 472.319 99.0606 472.875C98.1298 473.977 97.3639 475.882 96.7896 477.759C96.2936 479.381 95.7797 480.978 95.2853 482.596C94.9682 483.634 94.7033 484.793 94.5439 486.009C94.3787 487.27 94.1675 488.432 94.0356 489.723C93.896 491.088 93.7752 492.471 93.6197 493.826C93.347 496.202 93.086 498.865 93.2332 501.418C93.3415 503.297 93.5987 505.293 93.3711 507.09C93.2188 508.292 93.028 509.475 92.8951 510.693C92.8946 510.785 92.8941 510.878 92.8936 510.97C92.8909 511.474 92.8038 512.035 92.82 512.526C92.8233 512.627 92.7808 511.986 92.791 511.84C92.8182 511.453 92.8539 511.071 92.8951 510.693C92.9124 507.641 92.941 504.607 92.7497 501.529C92.5577 498.438 92.2448 495.374 92.0527 492.283C91.9369 490.419 91.8804 488.514 91.5429 486.708C91.2024 484.886 90.7454 483.008 90.1412 481.466C88.9906 478.532 87.2713 476.643 85.7241 474.944L85.7025 474.92C84.4384 473.532 83.1445 471.57 81.7721 470.853C80.5856 470.233 79.5252 470.004 78.3323 470.078L75.1775 470.274C74.9394 470.289 76.2281 470.045 76.9961 469.908C81.4408 468.798 82.6642 468.148 83.8314 467.094C84.7552 466.26 85.5858 465.365 86.3375 463.967C87.2917 462.191 88.0964 460.151 88.7664 457.843C90.0695 453.354 90.5218 448.253 90.8496 442.92C90.912 441.906 90.921 440.649 90.899 439.363C90.879 438.923 90.5926 435.076 90.7204 434.92Z" fill="#FF7A00" fill-opacity="0.46"/>
<path d="M106.5 468.855C106.24 468.872 106.003 468.975 105.749 469.041C104.643 469.33 103.492 469.687 102.421 470.229C101.778 470.554 101.185 471.094 100.573 471.566C100.064 471.958 99.5301 472.319 99.0606 472.875C98.1298 473.977 97.3639 475.882 96.7896 477.759C96.2936 479.381 95.7797 480.978 95.2853 482.596C94.9682 483.634 94.7033 484.793 94.5439 486.009C94.3787 487.27 94.1675 488.432 94.0356 489.723C93.896 491.088 93.7752 492.471 93.6197 493.826C93.347 496.202 93.086 498.865 93.2332 501.418C93.3415 503.297 93.5987 505.293 93.3711 507.09C93.1715 508.665 92.9056 510.208 92.791 511.84C92.7808 511.986 92.8233 512.627 92.82 512.526C92.8038 512.035 92.8909 511.474 92.8936 510.97C92.9105 507.825 92.9468 504.7 92.7497 501.529C92.5577 498.438 92.2448 495.374 92.0527 492.283C91.9369 490.419 91.8804 488.514 91.5429 486.708C91.2024 484.886 90.7454 483.008 90.1412 481.466C88.9852 478.518 87.2553 476.626 85.7025 474.92C84.4384 473.532 83.1445 471.57 81.7721 470.853C80.5856 470.233 79.5252 470.004 78.3323 470.078C77.2807 470.144 76.2291 470.209 75.1775 470.274C74.7335 470.302 79.5976 469.429 76.4973 470.031C81.3515 468.845 82.6217 468.186 83.8314 467.094C84.7552 466.26 85.5858 465.365 86.3375 463.967C87.2917 462.191 88.0964 460.151 88.7664 457.843C90.0695 453.354 90.5218 448.253 90.8496 442.92C90.9877 440.672 90.8643 437.237 90.7204 434.92C90.5926 435.076 90.879 438.923 90.899 439.363C91.0779 443.298 90.8555 446.395 91.4302 450.292C91.6455 451.751 92.2038 453.622 92.6907 454.795C93.26 456.168 93.7561 457.597 94.4108 458.802C94.8733 459.654 95.3592 460.433 95.8215 461.284C96.3524 462.261 96.9231 463.394 97.508 464.202C98.608 465.723 99.9243 466.43 101.147 467.08C102.516 467.808 104.643 468.543 106.025 468.49C107.369 468.438 108.693 468.192 106.5 468.855ZM106.5 468.855C106.627 468.848 106.606 468.849 106.5 468.855Z" stroke="black" stroke-opacity="0.6" stroke-linecap="round"/>
<path d="M63.2728 658.521C111.326 658.521 159.384 660.073 207.463 659.902C264.477 659.699 321.474 656.683 378.468 659.902C414.458 661.934 450.217 665.393 486.078 668.491C490.703 668.89 497.04 670.639 501.705 669.488C502.909 669.19 491.021 666.259 489.807 666.113C463.164 662.917 434.434 665.423 407.59 665.423C361.208 665.423 314.916 666.278 268.549 666.88C221.516 667.491 174.497 670.945 127.466 670.945C111.1 670.945 78.3666 670.945 78.3666 670.945C78.3666 670.945 117.872 668.071 137.499 665.73C160.744 662.957 184.676 663.361 208.085 661.972C234.799 660.387 261.47 658.617 288.26 658.521C309.805 658.445 331.352 658.521 352.897 658.521C361.007 658.521 384.976 656.768 377.225 658.828C366.147 661.772 351.862 661.079 340.378 661.896C316.971 663.561 293.409 663.577 269.97 664.81C184.129 669.323 97.8586 662.865 12.4864 673.399C9.49089 673.768 3.2576 674.426 10.0891 673.552C27.2846 671.352 44.3615 666.74 61.6746 664.35C116.173 656.825 171.194 658.521 226.198 658.521C266.161 658.521 306.683 656.933 346.505 660.592C347.268 660.662 359.209 661.872 358.58 662.356C354.294 665.646 334.042 662.663 328.747 662.663C285.279 662.663 241.855 661.282 198.407 661.282C177.325 661.282 156.19 660.759 135.191 662.663C123.672 663.707 110.41 663.506 99.1429 665.73C78.2418 669.856 141.772 661.727 163.07 659.595C223.632 653.534 284.908 654.38 345.794 654.38C390.45 654.38 435.067 653 479.686 653C487.854 653 496.022 653 504.191 653C510.724 653 494.937 653 493.803 653C426.113 653 358.937 660.049 291.9 667.494C280.867 668.719 269.753 670.794 258.605 670.945C251.529 671.04 250.793 670.945 258.516 670.945C290.379 670.945 322.66 670.415 354.495 669.258C397.694 667.687 441.621 666.713 484.835 668.491C500.352 669.129 515.709 671.256 531.182 672.325C532.747 672.433 546.765 673.812 543.524 674.396C520.271 678.58 494.494 676.466 470.896 676.466C457.548 676.466 444.2 676.466 430.853 676.466" stroke="black" stroke-opacity="0.5" stroke-linecap="round"/>
<path d="M66.4054 777C103.966 777 141.5 778.952 178.974 780.781C229.111 783.229 279.182 782.592 329.303 784.705C368.124 786.342 407.101 787.22 445.879 789.271C461.228 790.083 476.741 792.077 492.1 792.41C513.347 792.87 449.569 791.945 428.334 792.695C351.563 795.409 274.872 794.978 198.032 794.978C171.711 794.978 145.058 795.941 118.771 794.693C106.138 794.093 93.5818 792.41 80.9217 792.41C71.1846 792.41 60.7319 791.529 51.0875 792.695C40.2393 794.007 51.6975 794.978 56.2528 794.978C77.5488 794.978 98.4327 793.701 119.662 792.41C154.205 790.31 188.976 791.126 223.592 791.126C310.127 791.126 396.507 794.978 483.016 794.978C518.88 794.978 411.231 794.498 375.434 796.263C309.682 799.504 243.533 801.274 177.727 803.682C151.327 804.648 123.312 805.481 96.863 803.968C86.1589 803.355 118.286 802.858 129.013 802.612C158.674 801.933 188.453 798.535 218.07 796.905C286.825 793.121 355.611 789.04 424.416 786.061C444.813 785.177 465.293 782.36 485.687 782.137C495.076 782.034 492.619 781.862 485.598 784.063C478.76 786.207 472.955 789.801 465.56 790.84C450.903 792.9 436.036 795.23 421.299 796.833C369.854 802.43 317.358 803.218 265.538 804.966C225.511 806.316 185.613 803.968 145.666 803.968C132.919 803.968 149.232 805.303 153.414 805.109C186.032 803.594 218.574 800.168 251.11 797.832C326.127 792.447 402.43 794.978 477.672 794.978C501.1 794.978 570.808 792.12 547.939 796.191C520.369 801.099 490.264 800.115 462.176 800.115C412.722 800.115 363.408 801.88 313.985 803.325C246.583 805.296 178.975 804.733 111.647 807.535C84.9757 808.645 54.7285 810.505 28.2888 806.821C21.3924 805.86 6.46503 809.314 1.03726 804.966C0.0505364 804.176 18.9722 799.781 20.8971 799.473C38.1749 796.705 55.3249 794.162 72.8175 792.41C123.222 787.363 175.032 789.842 225.729 789.842C301.914 789.842 378.034 791.126 454.161 791.126C478.84 791.126 503.471 792.41 528.079 792.41C539.014 792.41 549.761 793.694 560.674 793.694C564.574 793.694 558.813 793.975 556.933 794.978" stroke="black" stroke-opacity="0.5" stroke-linecap="round"/>
<path d="M82 607C81.1942 629.353 73.501 652.388 70.2667 674.458C65.7586 705.22 62.8 735.873 62.8 766.926C62.8 773.273 61.355 805.471 57.2 782.601C50.7683 747.201 50.6018 707.578 58.0889 672.344C62.0702 653.608 72.4 635.277 72.4 615.895C72.4 613.84 72.4 611.785 72.4 609.73C72.4 600.531 67.9971 627.606 66 636.59C57.9615 672.751 49.3889 709.02 47.1556 746.143C46.3122 760.161 43.6753 783.279 50.3556 796.516C50.6748 797.148 51.6 784.234 51.6 782.69C51.6 768.925 52.5911 755.29 55.1556 741.739C59.9883 716.203 68 691.58 71.5111 665.739C72.2163 660.549 74 630.538 74 652.001C74 693.312 64.4009 735.669 58 776.437C55.7711 790.633 54.0543 804.9 51.6 819.06C50.6408 824.595 51.5396 832.455 49.2 837.554C47.7614 840.69 47.1699 838.083 46.8 835.793C43.9467 818.125 45.2325 799.577 47.1556 781.897C51.0771 745.842 53.7703 710.671 62.4444 675.515C63.5492 671.037 64.6141 672.255 64.3111 676.307C63.5331 686.712 59.3665 696.937 56.4 706.866C49.5331 729.85 37.009 752.764 34 776.613" stroke="black" stroke-opacity="0.5" stroke-linecap="round"/>
<path d="M518.706 645.528C516.04 643.155 515.433 644.771 515.046 647.91C510.4 685.599 513.276 724.649 514.68 762.447C515.372 781.07 516.623 799.438 518.34 817.974C518.841 823.38 519.501 829.824 518.34 835.2C515.564 848.058 513.649 824.388 513.399 821.639C510.477 789.455 509.586 756.993 510.837 724.695C512.102 692.053 516.985 659.848 519.987 627.385C520.777 618.843 522 593.15 522 601.729C522 625.878 512.076 650.051 510.837 674.482C509.469 701.48 508.821 729.947 510.837 756.949C511.685 768.299 515.69 784.937 508.824 795.25C504.959 801.055 505.54 787.234 505.53 786.087C505.411 772.773 505.53 759.451 505.53 746.137C505.53 717.068 504.637 687.6 510.105 658.906C512.47 646.498 516.552 633.845 517.059 621.154C517.125 619.491 515.356 630.463 515.046 631.783C511.502 646.899 506.705 661.557 503.883 676.865C498.376 706.736 494.001 738.791 494.001 769.227C494.001 780.039 493.71 798.623 502.236 807.162C507.134 812.066 508.731 804.05 510.471 800.564" stroke="black" stroke-opacity="0.5" stroke-linecap="round"/>
<path d="M58.0205 903L695.021 903" stroke="black" stroke-opacity="0.6" stroke-linecap="round"/>
<path d="M321.708 908.956H472.47" stroke="black" stroke-opacity="0.6" stroke-linecap="round"/>
<defs>
<filter id="filter0_d_203_94" x="585.021" y="255" width="131.207" height="133.206" filterUnits="userSpaceOnUse" color-interpolation-filters="sRGB">
<feFlood flood-opacity="0" result="BackgroundImageFix"/>
<feColorMatrix in="SourceAlpha" type="matrix" values="0 0 0 0 0 0 0 0 0 0 0 0 0 0 0 0 0 0 127 0" result="hardAlpha"/>
<feMorphology radius="2" operator="dilate" in="SourceAlpha" result="effect1_dropShadow_203_94"/>
<feOffset dy="4"/>
<feColorMatrix type="matrix" values="0 0 0 0 0 0 0 0 0 0 0 0 0 0 0 0 0 0 1 0"/>
<feBlend mode="normal" in2="BackgroundImageFix" result="effect1_dropShadow_203_94"/>
<feBlend mode="normal" in="SourceGraphic" in2="effect1_dropShadow_203_94" result="shape"/>
</filter>
<filter id="filter1_d_203_94" x="588.021" y="188" width="119.605" height="121.606" filterUnits="userSpaceOnUse" color-interpolation-filters="sRGB">
<feFlood flood-opacity="0" result="BackgroundImageFix"/>
<feColorMatrix in="SourceAlpha" type="matrix" values="0 0 0 0 0 0 0 0 0 0 0 0 0 0 0 0 0 0 127 0" result="hardAlpha"/>
<feMorphology radius="2" operator="dilate" in="SourceAlpha" result="effect1_dropShadow_203_94"/>
<feOffset dy="4"/>
<feColorMatrix type="matrix" values="0 0 0 0 0 0 0 0 0 0 0 0 0 0 0 0 0 0 1 0"/>
<feBlend mode="normal" in2="BackgroundImageFix" result="effect1_dropShadow_203_94"/>
<feBlend mode="normal" in="SourceGraphic" in2="effect1_dropShadow_203_94" result="shape"/>
</filter>
<clipPath id="clip0_203_94">
<rect x="652.778" y="255" width="90" height="90" rx="6" transform="rotate(46.9401 652.778 255)" fill="white"/>
</clipPath>
<clipPath id="clip1_203_94">
<rect x="590.021" y="219.179" width="90" height="90" rx="6" transform="rotate(-20.2691 590.021 219.179)" fill="white"/>
</clipPath>
</defs>
</svg>
