<svg width="807" height="831" viewBox="0 0 807 831" fill="none" xmlns="http://www.w3.org/2000/svg">
<path d="M468.7 751.92C468.779 753.191 468.852 754.799 468.878 756.363C469.057 760.298 468.835 763.395 469.41 767.292C469.625 768.751 470.183 770.622 470.67 771.795C471.24 773.168 471.736 774.597 472.39 775.802C472.853 776.654 473.339 777.433 473.801 778.284C474.332 779.261 474.903 780.394 475.487 781.202C476.587 782.723 477.904 783.43 479.126 784.08C480.496 784.808 482.622 785.543 484.005 785.49C485.348 785.438 486.673 785.192 484.48 785.855C484.22 785.872 483.983 785.975 483.728 786.041C482.622 786.33 481.472 786.687 480.4 787.229C479.757 787.554 479.165 788.094 478.552 788.566C478.044 788.958 477.51 789.319 477.04 789.875C476.109 790.977 475.343 792.882 474.769 794.759C474.273 796.381 473.759 797.978 473.265 799.596C472.948 800.634 472.683 801.793 472.523 803.009C472.358 804.27 472.147 805.432 472.015 806.723C471.876 808.088 471.755 809.471 471.599 810.826C471.326 813.202 471.066 815.865 471.213 818.418C471.321 820.297 471.578 822.293 471.351 824.09C471.198 825.292 471.007 826.475 470.875 827.693C470.874 827.785 470.874 827.878 470.873 827.97C470.87 828.474 470.783 829.035 470.8 829.526C470.803 829.627 470.76 828.986 470.77 828.84C470.798 828.453 470.833 828.071 470.875 827.693C470.892 824.641 470.92 821.607 470.729 818.529C470.537 815.438 470.224 812.374 470.032 809.283C469.916 807.419 469.86 805.514 469.522 803.708C469.182 801.886 468.725 800.008 468.121 798.466C466.97 795.532 465.251 793.643 463.704 791.944L463.682 791.92C462.418 790.532 461.124 788.57 459.752 787.853C458.565 787.233 457.505 787.004 456.312 787.078L453.157 787.274C452.919 787.289 454.208 787.045 454.976 786.908C459.42 785.798 460.644 785.148 461.811 784.094C462.735 783.26 463.565 782.365 464.317 780.967C465.271 779.191 466.076 777.151 466.746 774.843C468.049 770.354 468.501 765.253 468.829 759.92C468.891 758.906 468.901 757.649 468.878 756.363C468.858 755.923 468.572 752.076 468.7 751.92Z" fill="#FF7A00" fill-opacity="0.46"/>
<path d="M484.48 785.855C484.22 785.872 483.983 785.975 483.728 786.041C482.622 786.33 481.472 786.687 480.4 787.229C479.757 787.554 479.165 788.094 478.552 788.566C478.044 788.958 477.51 789.319 477.04 789.875C476.109 790.977 475.343 792.882 474.769 794.759C474.273 796.381 473.759 797.978 473.265 799.596C472.948 800.634 472.683 801.793 472.523 803.009C472.358 804.27 472.147 805.432 472.015 806.723C471.876 808.088 471.755 809.471 471.599 810.826C471.326 813.202 471.066 815.865 471.213 818.418C471.321 820.297 471.578 822.293 471.351 824.09C471.151 825.665 470.885 827.208 470.771 828.84C470.76 828.986 470.803 829.627 470.8 829.526C470.783 829.035 470.87 828.474 470.873 827.97C470.89 824.825 470.926 821.7 470.729 818.529C470.537 815.438 470.224 812.374 470.032 809.283C469.916 807.419 469.86 805.514 469.522 803.708C469.182 801.886 468.725 800.008 468.121 798.466C466.965 795.518 465.235 793.626 463.682 791.92C462.418 790.532 461.124 788.57 459.752 787.853C458.565 787.233 457.505 787.004 456.312 787.078C455.26 787.144 454.209 787.209 453.157 787.274C452.713 787.302 457.577 786.429 454.477 787.031C459.331 785.845 460.601 785.186 461.811 784.094C462.735 783.26 463.565 782.365 464.317 780.967C465.271 779.191 466.076 777.151 466.746 774.843C468.049 770.354 468.501 765.253 468.829 759.92C468.967 757.672 468.844 754.237 468.7 751.92C468.572 752.076 468.858 755.923 468.878 756.363C469.057 760.298 468.835 763.395 469.41 767.292C469.625 768.751 470.183 770.622 470.67 771.795C471.24 773.168 471.736 774.597 472.39 775.802C472.853 776.654 473.339 777.433 473.801 778.284C474.332 779.261 474.903 780.394 475.487 781.202C476.587 782.723 477.904 783.43 479.126 784.08C480.496 784.808 482.622 785.543 484.005 785.49C485.348 785.438 486.673 785.192 484.48 785.855ZM484.48 785.855C484.606 785.848 484.585 785.849 484.48 785.855Z" stroke="black" stroke-opacity="0.6" stroke-linecap="round"/>
<path d="M1 683L806 683" stroke="black" stroke-opacity="0.6" stroke-linecap="round"/>
<path d="M90 246V550" stroke="black" stroke-opacity="0.6" stroke-linecap="round"/>
<path d="M726 469V753.896" stroke="black" stroke-opacity="0.6" stroke-linecap="round"/>
<path d="M164.563 37.3105C277.524 34.9071 390.049 31.7302 503.024 34.712C539.983 35.6874 576.899 35.8488 613.868 35.8488C626.862 35.8488 588.096 32.3578 575.133 31.4638C557.103 30.2203 539.145 27.8773 521.132 26.3479C491.934 23.8688 462.792 24.1554 433.513 24.1554C378.484 24.1554 323.653 25.1943 268.667 27.4036C239.752 28.5653 152.922 28.5404 181.86 28.5404C309.648 28.5404 436.165 49.0039 564.008 49.0039C574.752 49.0039 586.19 50.1123 596.896 48.9227C602.354 48.3162 591.785 45.3833 591.293 45.2685C568.7 39.9968 545.272 38.1971 522.35 34.712C469.526 26.6803 414.576 25.0635 361.241 24.2366C326.361 23.6958 290.147 21.6439 255.512 26.7539C252.403 27.2126 243.117 28.3661 246.255 28.5404C257.3 29.154 268.103 29.9407 279.224 30.0021C350.15 30.394 421.062 34.9366 491.899 37.9601C522.754 39.2771 553.676 38.7722 584.553 38.7722C606.147 38.7722 628.031 39.8569 649.516 37.3105C664.996 35.4759 681.024 32.9255 696.615 32.9255C703.314 32.9255 708.986 34.9489 715.536 35.7676C717.621 36.0283 723.454 35.8488 717.566 35.8488C704.945 35.8488 692.485 35.4993 679.887 34.712C632.436 31.7463 584.805 29.6222 537.292 28.2156C494.053 26.9355 450.787 25.7478 407.527 25.6171C376.69 25.5239 345.409 24.2079 314.629 26.4291C286.04 28.4922 257.475 30.9532 228.877 32.9255C212.433 34.0596 195.582 37.3105 179.18 37.3105C164.018 37.3105 149.06 40.2339 134.031 40.2339C123.311 40.2339 155.388 38.3153 166.025 36.9857C188.209 34.2127 211.261 35.8488 233.587 35.8488C284.286 35.8488 334.984 35.8488 385.683 35.8488C388.193 35.8488 408.424 36.0985 403.792 35.7676C387.82 34.6268 371.686 32.3429 355.719 30.8141C306.977 26.1474 258.282 19.7703 209.226 19.7703C182.223 19.7703 155.045 18.7089 128.184 21.1508C113.388 22.4959 137.602 22.3697 134.68 23.8306C131.349 25.4962 122.184 25.6171 118.602 25.6171C111.058 25.6171 122.172 27.5645 123.636 28.5404" stroke="black" stroke-opacity="0.5" stroke-linecap="round"/>
<path d="M189.412 149.86C185.925 149.908 162.28 151.259 177.069 152.458C189.997 153.507 202.977 151.922 215.884 151.322C267.09 148.94 317.981 148.398 369.28 148.398C431.162 148.398 492.696 150.495 554.426 154.976C571.874 156.242 589.294 158.492 606.803 158.63C613.18 158.68 623.077 160.468 629.134 157.818C635.334 155.105 617.013 151.536 610.457 149.86C587.335 143.949 563.582 140.474 539.89 137.842C479.535 131.135 419.717 127.935 358.967 127.935C312.839 127.935 267.77 131.063 221.894 134.918C214.297 135.557 206.62 136.705 198.994 136.705C197.98 136.705 190.191 137.61 190.711 137.842C195.696 140.057 205.3 138.13 210.525 138.166C229.844 138.302 249.298 139.385 268.586 140.44C325.683 143.563 382.742 147.504 439.846 150.51C467.043 151.941 494.228 152.783 521.457 152.783C547.498 152.783 469.478 149.494 443.501 147.667C347.127 140.891 248.949 136.609 152.383 142.551C144.729 143.022 137.157 144.013 129.483 144.013C123.926 144.013 135.827 144.013 136.467 144.013C181.386 144.013 226.293 142.077 271.266 142.633C328.612 143.341 385.789 149.212 443.095 150.997C478.18 152.089 513.551 151.888 548.66 151.322C622.579 150.129 401.388 135.243 327.459 135.243C310.832 135.243 260.973 136.705 277.6 136.705C344.764 136.705 411.448 132.242 478.743 136.055C533.014 139.13 587.973 146.179 642.289 140.359C653.152 139.195 664.072 137.898 674.69 135.243C678.645 134.254 682.58 132.32 686.708 132.32C709.445 132.32 641.233 132.32 618.496 132.32C574.967 132.32 530.548 129.674 487.107 132.645C486.308 132.699 470.902 133.73 476.388 135.974C484.483 139.285 494.342 137.95 502.861 138.491C538.698 140.767 574.869 144.132 610.051 151.646C625.697 154.988 641.107 158.283 656.906 160.822C658.55 161.087 670.774 163.015 668.518 163.015C640.818 163.015 613.256 153.991 586.014 149.86C533.619 141.915 481.308 136.705 428.315 136.705C412.543 136.705 396.956 135.907 381.217 135.324C374.624 135.08 369.422 134.921 363.352 132.32" stroke="black" stroke-opacity="0.5" stroke-linecap="round"/>
<path d="M145.562 12.4619C147.226 12.4619 150.98 11.8778 151.083 14.5732C151.573 27.3117 148.195 42.4805 146.698 54.6882C143.473 81.002 140.044 107.333 138.091 133.781C136.677 152.926 133.593 182.262 141.258 201.425C142.804 205.29 144.351 193.688 145.643 189.731C149.533 177.817 152.092 165.508 154.332 153.189C161.19 115.467 165.658 77.4354 170.41 39.4218C171.536 30.4167 172.111 15.1464 179.18 8.07687C181.136 6.1212 179.568 13.7359 178.693 16.3597C171.678 37.4041 162.589 57.697 155.956 78.8871C147.436 106.103 145.059 133.213 141.501 161.228C135.769 206.373 148.857 70.4669 154.981 25.3734C156.016 17.7502 157.871 10.1137 158.635 2.47376C159.206 -3.23118 158.586 9.43683 158.554 9.86336C157.612 22.5875 153.671 35.078 151.489 47.6234C148.219 66.4304 146.199 85.4935 145.237 104.548C144.183 125.406 144.1 146.198 144.1 167.075C144.1 167.725 144.1 169.674 144.1 169.024C144.1 165.23 144.39 161.43 144.749 157.655C146.926 134.802 150.708 112.231 152.058 89.2813C153.314 67.9309 152.87 46.5084 152.87 25.1298C152.87 13.274 152.87 48.8415 152.87 60.6973C152.87 79.4947 150.211 96.8753 148.485 115.429C147.815 122.636 140.329 136.069 147.023 141.09" stroke="black" stroke-opacity="0.5" stroke-linecap="round"/>
<path d="M671.766 34.3871C669.193 40.498 669.009 48.4318 668.031 54.6882C662.671 88.9716 656.79 123.172 650.247 157.249C647.569 171.194 645.926 185.238 643.669 199.232C643.551 199.966 639.769 208.875 638.878 207.271C636.929 203.762 638.115 197.14 638.147 193.385C638.244 182.04 639.388 170.984 642.045 159.929C652.117 118.031 665.612 75.7656 678.75 34.7119C680.986 27.7238 677.909 49.3841 676.801 56.6371C672.969 81.7166 663.019 105.43 652.764 128.503C647.033 141.398 640.768 153.831 635.874 167.075C632.194 177.033 637.736 159.675 638.472 157.655C656.196 109.019 669.347 58.7759 686.951 10.0258C690.869 -0.822523 686.014 10.3247 683.135 14.5732C672.572 30.1576 664.575 46.3427 663.321 65.4072C662.179 82.763 662.965 100.235 660.722 117.54C659.796 124.683 657.331 145.603 655.769 138.572C655.114 135.625 656.603 131.642 657.312 128.909C660.209 117.735 662.951 106.519 666.244 95.4528C672.751 73.5846 679.158 51.674 685.49 29.7584C690.943 10.8799 683.072 36.4538 681.511 41.0459C670.893 72.2725 661.534 100.628 661.534 133.457C661.534 138.789 661.534 154.786 661.534 149.454C661.534 132.326 661.686 115.492 664.62 98.5386C668.309 77.2247 675.463 56.6722 683.135 36.4984C685.344 30.6889 684.88 34.8882 683.947 38.3661C681.778 46.4493 677.157 53.7166 673.228 61.0222C665.358 75.6536 655.132 89.469 649.922 105.36C645.063 120.179 642.21 135.25 638.878 150.428C637.886 154.95 635.224 168.456 635.224 163.827C635.224 150.779 646.473 134.588 651.302 122.9C661.148 99.0682 671.037 75.0991 680.292 51.034C682.292 45.8355 684.323 43.0861 681.023 49.9783C676.214 60.0249 669.072 69.0833 662.915 78.3187C651.427 95.5501 638.455 111.735 627.104 129.071C625.093 132.142 620.421 146.377 619.146 142.551" stroke="black" stroke-opacity="0.5" stroke-linecap="round"/>
</svg>
