<svg width="723" height="831" viewBox="0 0 723 831" fill="none" xmlns="http://www.w3.org/2000/svg">
<path d="M384.7 751.92C384.779 753.191 384.852 754.799 384.878 756.363C385.057 760.298 384.835 763.395 385.41 767.292C385.625 768.751 386.183 770.622 386.67 771.795C387.24 773.168 387.736 774.597 388.39 775.802C388.853 776.654 389.339 777.433 389.801 778.284C390.332 779.261 390.903 780.394 391.487 781.202C392.587 782.723 393.904 783.43 395.126 784.08C396.496 784.808 398.622 785.543 400.005 785.49C401.348 785.438 402.673 785.192 400.48 785.855C400.22 785.872 399.983 785.975 399.728 786.041C398.622 786.33 397.472 786.687 396.4 787.229C395.757 787.554 395.165 788.094 394.552 788.566C394.044 788.958 393.51 789.319 393.04 789.875C392.109 790.977 391.343 792.882 390.769 794.759C390.273 796.381 389.759 797.978 389.265 799.596C388.948 800.634 388.683 801.793 388.523 803.009C388.358 804.27 388.147 805.432 388.015 806.723C387.876 808.088 387.755 809.471 387.599 810.826C387.326 813.202 387.066 815.865 387.213 818.418C387.321 820.297 387.578 822.293 387.351 824.09C387.198 825.292 387.007 826.475 386.875 827.693C386.874 827.785 386.874 827.878 386.873 827.97C386.87 828.474 386.783 829.035 386.8 829.526C386.803 829.627 386.76 828.986 386.77 828.84C386.798 828.453 386.833 828.071 386.875 827.693C386.892 824.641 386.92 821.607 386.729 818.529C386.537 815.438 386.224 812.374 386.032 809.283C385.916 807.419 385.86 805.514 385.522 803.708C385.182 801.886 384.725 800.008 384.121 798.466C382.97 795.532 381.251 793.643 379.704 791.944L379.682 791.92C378.418 790.532 377.124 788.57 375.752 787.853C374.565 787.233 373.505 787.004 372.312 787.078L369.157 787.274C368.919 787.289 370.208 787.045 370.976 786.908C375.42 785.798 376.644 785.148 377.811 784.094C378.735 783.26 379.565 782.365 380.317 780.967C381.271 779.191 382.076 777.151 382.746 774.843C384.049 770.354 384.501 765.253 384.829 759.92C384.891 758.906 384.901 757.649 384.878 756.363C384.858 755.923 384.572 752.076 384.7 751.92Z" fill="#FF7A00" fill-opacity="0.46"/>
<path d="M400.48 785.855C400.22 785.872 399.983 785.975 399.728 786.041C398.622 786.33 397.472 786.687 396.4 787.229C395.757 787.554 395.165 788.094 394.552 788.566C394.044 788.958 393.51 789.319 393.04 789.875C392.109 790.977 391.343 792.882 390.769 794.759C390.273 796.381 389.759 797.978 389.265 799.596C388.948 800.634 388.683 801.793 388.523 803.009C388.358 804.27 388.147 805.432 388.015 806.723C387.876 808.088 387.755 809.471 387.599 810.826C387.326 813.202 387.066 815.865 387.213 818.418C387.321 820.297 387.578 822.293 387.351 824.09C387.151 825.665 386.885 827.208 386.771 828.84C386.76 828.986 386.803 829.627 386.8 829.526C386.783 829.035 386.87 828.474 386.873 827.97C386.89 824.825 386.926 821.7 386.729 818.529C386.537 815.438 386.224 812.374 386.032 809.283C385.916 807.419 385.86 805.514 385.522 803.708C385.182 801.886 384.725 800.008 384.121 798.466C382.965 795.518 381.235 793.626 379.682 791.92C378.418 790.532 377.124 788.57 375.752 787.853C374.565 787.233 373.505 787.004 372.312 787.078C371.26 787.144 370.209 787.209 369.157 787.274C368.713 787.302 373.577 786.429 370.477 787.031C375.331 785.845 376.601 785.186 377.811 784.094C378.735 783.26 379.565 782.365 380.317 780.967C381.271 779.191 382.076 777.151 382.746 774.843C384.049 770.354 384.501 765.253 384.829 759.92C384.967 757.672 384.844 754.237 384.7 751.92C384.572 752.076 384.858 755.923 384.878 756.363C385.057 760.298 384.835 763.395 385.41 767.292C385.625 768.751 386.183 770.622 386.67 771.795C387.24 773.168 387.736 774.597 388.39 775.802C388.853 776.654 389.339 777.433 389.801 778.284C390.332 779.261 390.903 780.394 391.487 781.202C392.587 782.723 393.904 783.43 395.126 784.08C396.496 784.808 398.622 785.543 400.005 785.49C401.348 785.438 402.673 785.192 400.48 785.855ZM400.48 785.855C400.606 785.848 400.585 785.849 400.48 785.855Z" stroke="black" stroke-opacity="0.6" stroke-linecap="round"/>
<path d="M1 683L722 683" stroke="black" stroke-opacity="0.6" stroke-linecap="round"/>
<path d="M34 248V552" stroke="black" stroke-opacity="0.6" stroke-linecap="round"/>
<path d="M671 472V756.896" stroke="black" stroke-opacity="0.6" stroke-linecap="round"/>
<path d="M108.563 37.3105C221.524 34.9071 334.049 31.7302 447.024 34.712C483.983 35.6874 520.899 35.8488 557.868 35.8488C570.862 35.8488 532.096 32.3578 519.133 31.4638C501.103 30.2203 483.145 27.8773 465.132 26.3479C435.934 23.8688 406.792 24.1554 377.513 24.1554C322.484 24.1554 267.653 25.1943 212.667 27.4036C183.752 28.5653 96.9216 28.5404 125.86 28.5404C253.648 28.5404 380.165 49.0039 508.008 49.0039C518.752 49.0039 530.19 50.1123 540.896 48.9227C546.354 48.3162 535.785 45.3833 535.293 45.2685C512.7 39.9968 489.272 38.1971 466.35 34.712C413.526 26.6803 358.576 25.0635 305.241 24.2366C270.361 23.6958 234.147 21.6439 199.512 26.7539C196.403 27.2126 187.117 28.3661 190.255 28.5404C201.3 29.154 212.103 29.9407 223.224 30.0021C294.15 30.394 365.062 34.9366 435.899 37.9601C466.754 39.2771 497.676 38.7722 528.553 38.7722C550.147 38.7722 572.031 39.8569 593.516 37.3105C608.996 35.4759 625.024 32.9255 640.615 32.9255C647.314 32.9255 652.986 34.9489 659.536 35.7676C661.621 36.0283 667.454 35.8488 661.566 35.8488C648.945 35.8488 636.485 35.4993 623.887 34.712C576.436 31.7463 528.805 29.6222 481.292 28.2156C438.053 26.9355 394.787 25.7478 351.527 25.6171C320.69 25.5239 289.409 24.2079 258.629 26.4291C230.04 28.4922 201.475 30.9532 172.877 32.9255C156.433 34.0596 139.582 37.3105 123.18 37.3105C108.018 37.3105 93.0599 40.2339 78.0305 40.2339C67.3108 40.2339 99.3882 38.3153 110.025 36.9857C132.209 34.2127 155.261 35.8488 177.587 35.8488C228.286 35.8488 278.984 35.8488 329.683 35.8488C332.193 35.8488 352.424 36.0985 347.792 35.7676C331.82 34.6268 315.686 32.3429 299.719 30.8141C250.977 26.1474 202.282 19.7703 153.226 19.7703C126.223 19.7703 99.0449 18.7089 72.1838 21.1508C57.388 22.4959 81.6018 22.3697 78.6802 23.8306C75.349 25.4962 66.1836 25.6171 62.6017 25.6171C55.0581 25.6171 66.1725 27.5645 67.6363 28.5404" stroke="black" stroke-opacity="0.5" stroke-linecap="round"/>
<path d="M133.412 149.86C129.925 149.908 106.28 151.259 121.069 152.458C133.997 153.507 146.977 151.922 159.884 151.322C211.09 148.94 261.981 148.398 313.28 148.398C375.162 148.398 436.696 150.495 498.426 154.976C515.874 156.242 533.294 158.492 550.803 158.63C557.18 158.68 567.077 160.468 573.134 157.818C579.334 155.105 561.013 151.536 554.457 149.86C531.335 143.949 507.582 140.474 483.89 137.842C423.535 131.135 363.717 127.935 302.967 127.935C256.839 127.935 211.77 131.063 165.894 134.918C158.297 135.557 150.62 136.705 142.994 136.705C141.98 136.705 134.191 137.61 134.711 137.842C139.696 140.057 149.3 138.13 154.525 138.166C173.844 138.302 193.298 139.385 212.586 140.44C269.683 143.563 326.742 147.504 383.846 150.51C411.043 151.941 438.228 152.783 465.457 152.783C491.498 152.783 413.478 149.494 387.501 147.667C291.127 140.891 192.949 136.609 96.3826 142.551C88.7294 143.022 81.1569 144.013 73.483 144.013C67.9264 144.013 79.8271 144.013 80.4665 144.013C125.386 144.013 170.293 142.077 215.266 142.633C272.612 143.341 329.789 149.212 387.095 150.997C422.18 152.089 457.551 151.888 492.66 151.322C566.579 150.129 345.388 135.243 271.459 135.243C254.832 135.243 204.973 136.705 221.6 136.705C288.764 136.705 355.448 132.242 422.743 136.055C477.014 139.13 531.973 146.179 586.289 140.359C597.152 139.195 608.072 137.898 618.69 135.243C622.645 134.254 626.58 132.32 630.708 132.32C653.445 132.32 585.233 132.32 562.496 132.32C518.967 132.32 474.548 129.674 431.107 132.645C430.308 132.699 414.902 133.73 420.388 135.974C428.483 139.285 438.342 137.95 446.861 138.491C482.698 140.767 518.869 144.132 554.051 151.646C569.697 154.988 585.107 158.283 600.906 160.822C602.55 161.087 614.774 163.015 612.518 163.015C584.818 163.015 557.256 153.991 530.014 149.86C477.619 141.915 425.308 136.705 372.315 136.705C356.543 136.705 340.956 135.907 325.217 135.324C318.624 135.08 313.422 134.921 307.352 132.32" stroke="black" stroke-opacity="0.5" stroke-linecap="round"/>
<path d="M89.5615 12.4619C91.2257 12.4619 94.9798 11.8778 95.0834 14.5732C95.5734 27.3117 92.1948 42.4805 90.6984 54.6882C87.4728 81.002 84.044 107.333 82.0907 133.781C80.6768 152.926 77.5926 182.262 85.2577 201.425C86.8037 205.29 88.3506 193.688 89.6427 189.731C93.5332 177.817 96.0919 165.508 98.3316 153.189C105.19 115.467 109.658 77.4354 114.41 39.4218C115.536 30.4167 116.111 15.1464 123.18 8.07687C125.136 6.1212 123.568 13.7359 122.693 16.3597C115.678 37.4041 106.589 57.697 99.9557 78.8871C91.4358 106.103 89.0589 133.213 85.5013 161.228C79.7686 206.373 92.8574 70.4669 98.9812 25.3734C100.016 17.7502 101.871 10.1137 102.635 2.47376C103.206 -3.23118 102.586 9.43683 102.554 9.86336C101.612 22.5875 97.6713 35.078 95.4895 47.6234C92.2187 66.4304 90.1991 85.4935 89.2367 104.548C88.1833 125.406 88.0999 146.198 88.0999 167.075C88.0999 167.725 88.0999 169.674 88.0999 169.024C88.0999 165.23 88.39 161.43 88.7495 157.655C90.9261 134.802 94.7079 112.231 96.0579 89.2813C97.3138 67.9309 96.8699 46.5084 96.8699 25.1298C96.8699 13.274 96.8699 48.8415 96.8699 60.6973C96.8699 79.4947 94.2108 96.8753 92.4849 115.429C91.8145 122.636 84.3293 136.069 91.0232 141.09" stroke="black" stroke-opacity="0.5" stroke-linecap="round"/>
<path d="M615.766 34.3871C613.193 40.498 613.009 48.4318 612.031 54.6882C606.671 88.9716 600.79 123.172 594.247 157.249C591.569 171.194 589.926 185.238 587.669 199.232C587.551 199.966 583.769 208.875 582.878 207.271C580.929 203.762 582.115 197.14 582.147 193.385C582.244 182.04 583.388 170.984 586.045 159.929C596.117 118.031 609.612 75.7656 622.75 34.7119C624.986 27.7238 621.909 49.3841 620.801 56.6371C616.969 81.7166 607.019 105.43 596.764 128.503C591.033 141.398 584.768 153.831 579.874 167.075C576.194 177.033 581.736 159.675 582.472 157.655C600.196 109.019 613.347 58.7759 630.951 10.0258C634.869 -0.822523 630.014 10.3247 627.135 14.5732C616.572 30.1576 608.575 46.3427 607.321 65.4072C606.179 82.763 606.965 100.235 604.722 117.54C603.796 124.683 601.331 145.603 599.769 138.572C599.114 135.625 600.603 131.642 601.312 128.909C604.209 117.735 606.951 106.519 610.244 95.4528C616.751 73.5846 623.158 51.674 629.49 29.7584C634.943 10.8799 627.072 36.4538 625.511 41.0459C614.893 72.2725 605.534 100.628 605.534 133.457C605.534 138.789 605.534 154.786 605.534 149.454C605.534 132.326 605.686 115.492 608.62 98.5386C612.309 77.2247 619.463 56.6722 627.135 36.4984C629.344 30.6889 628.88 34.8882 627.947 38.3661C625.778 46.4493 621.157 53.7166 617.228 61.0222C609.358 75.6536 599.132 89.469 593.922 105.36C589.063 120.179 586.21 135.25 582.878 150.428C581.886 154.95 579.224 168.456 579.224 163.827C579.224 150.779 590.473 134.588 595.302 122.9C605.148 99.0682 615.037 75.0991 624.292 51.034C626.292 45.8355 628.323 43.0861 625.023 49.9783C620.214 60.0249 613.072 69.0833 606.915 78.3187C595.427 95.5501 582.455 111.735 571.104 129.071C569.093 132.142 564.421 146.377 563.146 142.551" stroke="black" stroke-opacity="0.5" stroke-linecap="round"/>
<path d="M29.0005 223L29.0005 818" stroke="black" stroke-opacity="0.6" stroke-linecap="round"/>
</svg>
