<svg width="723" height="870" viewBox="0 0 723 870" fill="none" xmlns="http://www.w3.org/2000/svg">
<path d="M384.72 790.92C384.799 792.191 384.872 793.799 384.898 795.363C385.077 799.298 384.855 802.395 385.43 806.292C385.645 807.751 386.203 809.622 386.69 810.795C387.26 812.168 387.756 813.597 388.41 814.802C388.873 815.654 389.359 816.433 389.821 817.284C390.352 818.261 390.923 819.394 391.507 820.202C392.607 821.723 393.924 822.43 395.146 823.08C396.516 823.808 398.642 824.543 400.025 824.49C401.369 824.438 402.693 824.192 400.5 824.855C400.24 824.872 400.003 824.975 399.748 825.041C398.642 825.33 397.492 825.687 396.42 826.229C395.778 826.554 395.185 827.094 394.572 827.566C394.064 827.958 393.53 828.319 393.06 828.875C392.129 829.977 391.363 831.882 390.789 833.759C390.293 835.381 389.779 836.978 389.285 838.596C388.968 839.634 388.703 840.793 388.543 842.009C388.378 843.27 388.167 844.432 388.035 845.723C387.896 847.088 387.775 848.471 387.619 849.826C387.347 852.202 387.086 854.865 387.233 857.418C387.341 859.297 387.598 861.293 387.371 863.09C387.218 864.292 387.027 865.475 386.895 866.693C386.894 866.785 386.894 866.878 386.893 866.97C386.89 867.474 386.803 868.035 386.82 868.526C386.823 868.627 386.78 867.986 386.791 867.84C386.818 867.453 386.853 867.071 386.895 866.693C386.912 863.641 386.94 860.607 386.749 857.529C386.557 854.438 386.244 851.374 386.052 848.283C385.936 846.419 385.88 844.514 385.542 842.708C385.202 840.886 384.745 839.008 384.141 837.466C382.99 834.532 381.271 832.643 379.724 830.944L379.702 830.92C378.438 829.532 377.144 827.57 375.772 826.853C374.585 826.233 373.525 826.004 372.332 826.078L369.177 826.274C368.939 826.289 370.228 826.045 370.996 825.908C375.44 824.798 376.664 824.148 377.831 823.094C378.755 822.26 379.585 821.365 380.337 819.967C381.291 818.191 382.096 816.151 382.766 813.843C384.069 809.354 384.521 804.253 384.849 798.92C384.911 797.906 384.921 796.649 384.898 795.363C384.878 794.923 384.592 791.076 384.72 790.92Z" fill="#FF7A00" fill-opacity="0.46"/>
<path d="M400.5 824.855C400.24 824.872 400.003 824.975 399.748 825.041C398.642 825.33 397.492 825.687 396.42 826.229C395.778 826.554 395.185 827.094 394.572 827.566C394.064 827.958 393.53 828.319 393.06 828.875C392.129 829.977 391.363 831.882 390.789 833.759C390.293 835.381 389.779 836.978 389.285 838.596C388.968 839.634 388.703 840.793 388.543 842.009C388.378 843.27 388.167 844.432 388.035 845.723C387.896 847.088 387.775 848.471 387.619 849.826C387.347 852.202 387.086 854.865 387.233 857.418C387.341 859.297 387.598 861.293 387.371 863.09C387.171 864.665 386.905 866.208 386.791 867.84C386.78 867.986 386.823 868.627 386.82 868.526C386.803 868.035 386.89 867.474 386.893 866.97C386.91 863.825 386.946 860.7 386.749 857.529C386.557 854.438 386.244 851.374 386.052 848.283C385.936 846.419 385.88 844.514 385.542 842.708C385.202 840.886 384.745 839.008 384.141 837.466C382.985 834.518 381.255 832.626 379.702 830.92C378.438 829.532 377.144 827.57 375.772 826.853C374.585 826.233 373.525 826.004 372.332 826.078C371.28 826.144 370.229 826.209 369.177 826.274C368.733 826.302 373.597 825.429 370.497 826.031C375.351 824.845 376.621 824.186 377.831 823.094C378.755 822.26 379.585 821.365 380.337 819.967C381.291 818.191 382.096 816.151 382.766 813.843C384.069 809.354 384.521 804.253 384.849 798.92C384.987 796.672 384.864 793.237 384.72 790.92C384.592 791.076 384.878 794.923 384.898 795.363C385.077 799.298 384.855 802.395 385.43 806.292C385.645 807.751 386.203 809.622 386.69 810.795C387.26 812.168 387.756 813.597 388.41 814.802C388.873 815.654 389.359 816.433 389.821 817.284C390.352 818.261 390.923 819.394 391.507 820.202C392.607 821.723 393.924 822.43 395.146 823.08C396.516 823.808 398.642 824.543 400.025 824.49C401.369 824.438 402.693 824.192 400.5 824.855ZM400.5 824.855C400.626 824.848 400.605 824.849 400.5 824.855Z" stroke="black" stroke-opacity="0.6" stroke-linecap="round"/>
<path d="M1.02002 722L722.02 722" stroke="black" stroke-opacity="0.6" stroke-linecap="round"/>
<path d="M34.02 287V591" stroke="black" stroke-opacity="0.6" stroke-linecap="round"/>
<path d="M671.02 511V795.896" stroke="black" stroke-opacity="0.6" stroke-linecap="round"/>
<path d="M104.653 63.4351C227.127 61.3475 349.127 58.588 471.616 61.178C511.688 62.0253 551.712 62.1655 591.795 62.1655C605.883 62.1655 563.853 59.1331 549.798 58.3566C530.25 57.2765 510.779 55.2412 491.25 53.9128C459.592 51.7594 427.997 52.0083 396.251 52.0083C336.588 52.0083 277.14 52.9108 217.524 54.8298C186.174 55.8389 92.0309 55.8173 123.406 55.8173C261.956 55.8173 399.127 73.5923 537.736 73.5923C549.385 73.5923 561.786 74.555 573.394 73.5218C579.312 72.9949 567.852 70.4473 567.319 70.3476C542.823 65.7685 517.422 64.2052 492.57 61.178C435.298 54.2015 375.72 52.7971 317.893 52.0789C280.076 51.6091 240.812 49.8268 203.261 54.2655C199.89 54.6639 189.822 55.6658 193.224 55.8173C205.199 56.3503 216.912 57.0335 228.97 57.0869C305.868 57.4273 382.752 61.3731 459.554 63.9994C493.008 65.1434 526.534 64.7048 560.011 64.7048C583.424 64.7048 607.151 65.647 630.445 63.4351C647.229 61.8415 664.606 59.6262 681.51 59.6262C688.773 59.6262 694.923 61.3838 702.024 62.095C704.285 62.3214 710.61 62.1655 704.225 62.1655C690.542 62.1655 677.032 61.8619 663.373 61.178C611.926 58.6019 560.284 56.757 508.77 55.5351C461.89 54.4232 414.98 53.3915 368.077 53.278C334.643 53.1971 300.728 52.054 267.356 53.9833C236.36 55.7754 205.389 57.913 174.383 59.6262C156.554 60.6113 138.283 63.4351 120.501 63.4351C104.062 63.4351 87.844 65.9744 71.5489 65.9744C59.9265 65.9744 94.7052 64.3079 106.238 63.153C130.289 60.7444 155.283 62.1655 179.49 62.1655C234.458 62.1655 289.426 62.1655 344.394 62.1655C347.116 62.1655 369.05 62.3823 364.028 62.095C346.711 61.104 329.218 59.1202 311.906 57.7923C259.06 53.7386 206.264 48.1994 153.077 48.1994C123.8 48.1994 94.333 47.2774 65.2098 49.3985C49.1681 50.5669 75.421 50.4573 72.2533 51.7262C68.6416 53.173 58.7043 53.278 54.8208 53.278C46.6419 53.278 58.6923 54.9696 60.2794 55.8173" stroke="black" stroke-opacity="0.5" stroke-linecap="round"/>
<path d="M118.093 213.375C114.113 213.407 87.1218 214.293 104.003 215.079C118.762 215.766 133.579 214.727 148.313 214.333C206.766 212.772 264.86 212.417 323.42 212.417C394.061 212.417 464.304 213.792 534.771 216.729C554.688 217.559 574.574 219.035 594.561 219.125C601.842 219.158 613.139 220.33 620.053 218.593C627.131 216.814 606.217 214.474 598.733 213.375C572.338 209.5 545.223 207.221 518.178 205.495C449.28 201.099 380.995 199 311.647 199C258.99 199 207.542 201.051 155.173 203.579C146.501 203.997 137.737 204.75 129.032 204.75C127.874 204.75 118.982 205.344 119.577 205.495C125.267 206.948 136.23 205.684 142.195 205.708C164.249 205.797 186.456 206.507 208.474 207.199C273.653 209.246 338.787 211.83 403.974 213.801C435.02 214.739 466.053 215.292 497.136 215.292C526.863 215.292 437.799 213.135 408.146 211.937C298.131 207.495 186.057 204.687 75.8231 208.583C67.0866 208.892 58.4424 209.542 49.6823 209.542C43.3393 209.542 56.9244 209.542 57.6543 209.542C108.931 209.542 160.194 208.273 211.533 208.637C276.995 209.101 342.265 212.95 407.682 214.12C447.734 214.837 488.111 214.705 528.189 214.333C612.57 213.552 360.072 203.792 275.68 203.792C256.7 203.792 199.783 204.75 218.763 204.75C295.434 204.75 371.556 201.824 448.376 204.324C510.329 206.34 573.067 210.961 635.07 207.146C647.471 206.383 659.936 205.532 672.057 203.792C676.572 203.143 681.064 201.875 685.776 201.875C711.731 201.875 633.865 201.875 607.91 201.875C558.219 201.875 507.514 200.141 457.924 202.088C457.012 202.124 439.425 202.799 445.688 204.271C454.928 206.442 466.183 205.567 475.908 205.921C516.818 207.413 558.108 209.619 598.269 214.546C616.13 216.737 633.721 218.898 651.756 220.562C653.633 220.736 667.586 222 665.012 222C633.391 222 601.928 216.083 570.831 213.375C511.019 208.166 451.304 204.75 390.811 204.75C372.806 204.75 355.013 204.227 337.046 203.845C329.52 203.685 323.582 203.581 316.653 201.875" stroke="black" stroke-opacity="0.5" stroke-linecap="round"/>
<path d="M101.688 15.8684C103.244 15.8684 106.754 15.1107 106.851 18.6072C107.309 35.1317 104.15 54.8086 102.751 70.6446C99.7352 104.779 96.5292 138.935 94.7028 173.244C93.3808 198.079 90.4971 236.134 97.664 260.992C99.1095 266.005 100.556 250.956 101.764 245.823C105.402 230.367 107.794 214.4 109.888 198.42C116.301 149.487 120.479 100.152 124.922 50.8409C125.974 39.1595 126.512 19.3508 133.122 10.1801C134.95 7.64325 133.484 17.5211 132.666 20.9247C126.107 48.2235 117.609 74.5476 111.407 102.036C103.441 137.34 101.218 172.507 97.8918 208.849C92.5317 267.411 104.77 91.1127 110.496 32.6173C111.464 22.7285 113.198 12.8223 113.912 2.91177C114.446 -4.4887 113.866 11.9443 113.836 12.4976C112.955 29.0034 109.271 45.2061 107.231 61.4801C104.173 85.8765 102.284 110.605 101.384 135.323C100.399 162.38 100.321 189.352 100.321 216.433C100.321 217.276 100.321 219.804 100.321 218.961C100.321 214.039 100.593 209.11 100.929 204.214C102.964 174.568 106.5 145.29 107.762 115.519C108.937 87.823 108.522 60.0337 108.522 32.3013C108.522 16.9218 108.522 63.0602 108.522 78.4396C108.522 102.824 106.035 125.37 104.421 149.438C103.795 158.786 96.7959 176.212 103.055 182.725" stroke="black" stroke-opacity="0.5" stroke-linecap="round"/>
<path d="M637.298 53.996C635.181 62.011 635.029 72.4168 634.225 80.6225C629.815 125.588 624.975 170.444 619.591 215.139C617.388 233.429 616.036 251.849 614.179 270.203C614.082 271.166 610.97 282.851 610.237 280.747C608.633 276.145 609.609 267.458 609.636 262.535C609.715 247.655 610.656 233.153 612.843 218.654C621.13 163.702 632.235 108.267 643.045 54.4221C644.885 45.2566 642.353 73.6657 641.441 83.1787C638.288 116.072 630.101 147.174 621.663 177.436C616.947 194.348 611.792 210.656 607.765 228.027C604.737 241.087 609.297 218.321 609.903 215.672C624.486 151.882 635.308 85.9838 649.793 22.0443C653.017 7.81592 649.022 22.4363 646.653 28.0086C637.961 48.4487 631.381 69.6768 630.349 94.6813C629.41 117.445 630.057 140.361 628.211 163.058C627.449 172.426 625.421 199.865 624.135 190.643C623.596 186.777 624.822 181.553 625.405 177.969C627.788 163.313 630.045 148.603 632.755 134.088C638.109 105.407 643.381 76.6691 648.591 47.9252C653.078 23.1645 646.601 56.7067 645.317 62.7295C636.58 103.686 628.879 140.876 628.879 183.933C628.879 190.927 628.879 211.909 628.879 204.915C628.879 182.451 629.004 160.371 631.418 138.136C634.454 110.181 640.34 83.2246 646.653 56.7652C648.471 49.1456 648.089 54.6533 647.321 59.2148C645.537 69.8165 641.734 79.3481 638.501 88.93C632.025 108.12 623.611 126.24 619.324 147.082C615.326 166.519 612.978 186.286 610.237 206.193C609.42 212.124 607.23 229.838 607.23 223.766C607.23 206.652 616.487 185.418 620.46 170.087C628.562 138.83 636.698 107.393 644.314 75.8297C645.959 69.0116 647.631 65.4054 644.916 74.4452C640.958 87.622 635.081 99.5027 630.015 111.616C620.563 134.216 609.888 155.444 600.548 178.182C598.894 182.21 595.049 200.879 594 195.862" stroke="black" stroke-opacity="0.5" stroke-linecap="round"/>
<path d="M29.0205 262L29.0205 857" stroke="black" stroke-opacity="0.6" stroke-linecap="round"/>
</svg>
