<svg width="1439" height="942" viewBox="0 0 1439 942" fill="none" xmlns="http://www.w3.org/2000/svg">
<rect x="-1" width="1440" height="900" fill="#F4FBFB"/>
<path d="M809 844.2C809 844.783 808.783 845.343 808.398 845.756C808.012 846.168 807.49 846.4 806.944 846.4H798.148L787.185 881.6H794.611C795.156 881.6 795.679 881.831 796.065 882.244C796.45 882.656 796.667 883.216 796.667 883.799C796.667 884.383 796.45 884.943 796.065 885.355C795.679 885.768 795.156 885.999 794.611 885.999H784.341L784.334 886L784.327 885.999H774.056C773.51 885.999 772.988 885.768 772.602 885.355C772.217 884.943 772 884.383 772 883.799C772 883.216 772.217 882.656 772.602 882.244C772.988 881.831 773.51 881.6 774.056 881.6H782.852L793.815 846.4H786.389C785.844 846.4 785.321 846.168 784.935 845.756C784.55 845.343 784.333 844.783 784.333 844.2C784.333 843.617 784.55 843.057 784.935 842.644C785.321 842.232 785.844 842 786.389 842H806.944C807.49 842 808.012 842.232 808.398 842.644C808.783 843.057 809 843.617 809 844.2Z" fill="black" fill-opacity="0.2"/>
<path d="M764.626 504.812C885.369 495.699 1007.67 507.367 1128.78 504.676C1152.31 504.153 1176.54 501.766 1199.9 498.693C1212.48 497.037 1221.12 495.021 1202.75 495.021" stroke="black" stroke-opacity="0.6" stroke-linecap="round"/>
<path d="M791.143 465.76C778.571 530.311 774.491 596.458 757.72 660.179C755.925 666.999 745.637 692.338 752.443 695.76" stroke="black" stroke-opacity="0.6" stroke-linecap="round"/>
<path d="M1173.14 471.76C1163.45 533.853 1152.76 595.902 1138.72 657.152C1137.01 664.593 1122.04 706.871 1130.95 679.826" stroke="black" stroke-opacity="0.6" stroke-linecap="round"/>
<path d="M720 660.049C791.831 661.486 863.824 655.707 935.705 656.035C992.912 656.296 1050.91 661.832 1108.05 658.191C1135.34 656.452 1162.67 654.278 1189.91 652.555C1196.54 652.136 1176.78 650.181 1170.14 650.048" stroke="black" stroke-opacity="0.6" stroke-linecap="round"/>
<path d="M732.481 660.951C779.599 663.568 826.896 662.868 874.127 664.278C912.675 665.428 950.964 667.598 989.527 665.387C1021.99 663.525 1054.72 663.169 1087.24 663.169C1103.38 663.169 1118.57 666.188 1134.5 667.605C1141.85 668.258 1151.9 670.633 1159.21 668.467C1165.25 666.677 1169.04 670.932 1174.98 670.932" stroke="black" stroke-opacity="0.6" stroke-linecap="round"/>
<path d="M739.994 497.904C740.628 495.628 749.029 496.828 750.008 496.815C761.136 496.664 772.227 496.544 783.351 496.84C804.415 497.401 825.479 497.963 846.543 498.524C876.492 499.322 905.91 498.521 935.829 497.02C973.591 495.125 1011.34 495.734 1049.12 494.491C1111.38 492.443 1173.27 491.697 1235.53 493.356C1243.65 493.573 1236.5 493.277 1232.7 493.281C1227.08 493.287 1219.88 498.453 1214.75 500.569" stroke="black" stroke-opacity="0.6" stroke-linecap="round"/>
<path d="M794.586 458C794.586 467.113 791.796 476.078 790.15 484.986C786.282 505.921 783.118 527.004 780.107 548.077C773.727 592.736 766.297 637.357 756.017 681.283C752.867 694.743 748.007 709.556 748.007 723.487C748.007 723.495 747.973 721.486 748.007 720.838C748.203 717.122 750.953 713.026 752.443 709.747" stroke="black" stroke-opacity="0.6" stroke-linecap="round"/>
<path d="M1173.87 465.763C1173.87 467.345 1173.87 468.876 1173.62 470.446C1169.38 497.215 1166.12 524.101 1161.3 550.788C1155.08 585.248 1144.42 618.454 1136.23 652.448C1133.09 665.474 1129.51 680.031 1129.51 693.359C1129.51 696.85 1125.84 723.995 1121.75 721.947" stroke="black" stroke-opacity="0.6" stroke-linecap="round"/>
<path d="M432 300.738L597.624 299.981" stroke="black" stroke-opacity="0.6" stroke-linecap="round"/>
<path d="M573.994 400.971L573.423 276" stroke="black" stroke-opacity="0.6" stroke-linecap="round"/>
<path d="M187 901.41L363.166 901.41" stroke="black" stroke-opacity="0.6" stroke-linecap="round"/>
<path d="M209 941L209 580" stroke="black" stroke-opacity="0.6" stroke-linecap="round"/>
<g filter="url(#filter0_d_236_101)">
<rect x="38" y="463.15" width="90" height="90" rx="6" transform="rotate(-25.7857 38 463.15)" fill="white"/>
<path d="M97.2692 462.286L100.824 469.644L90.3863 474.686L100.315 495.238L97.3975 496.647L86.2161 473.503L96.8484 468.366L94.5463 463.601L97.2692 462.286Z" fill="#212B36"/>
<rect x="38.6677" y="463.383" width="89" height="89" rx="5.5" transform="rotate(-25.7857 38.6677 463.383)" stroke="#212B36"/>
</g>
<g filter="url(#filter1_d_236_101)">
<rect x="1188.26" y="215" width="90" height="90" rx="6" transform="rotate(47.4118 1188.26 215)" fill="white"/>
<path d="M1172.03 280.095L1190.96 262.701L1193.15 265.086L1185.14 272.444L1188.41 275.995C1190.03 277.762 1191.09 279.386 1191.57 280.867C1192.05 282.348 1192.09 283.692 1191.7 284.898C1191.31 286.105 1190.61 287.171 1189.61 288.097C1188.49 289.12 1187.29 289.757 1185.98 290.008C1184.7 290.277 1183.36 290.118 1181.98 289.534C1180.59 288.949 1179.19 287.879 1177.76 286.324L1172.03 280.095ZM1179.58 284.209C1180.99 285.747 1182.34 286.644 1183.62 286.902C1184.92 287.143 1186.16 286.72 1187.34 285.632C1188.15 284.885 1188.62 284.098 1188.74 283.27C1188.89 282.445 1188.74 281.563 1188.27 280.626C1187.81 279.707 1187.08 278.699 1186.07 277.604L1183.08 274.344L1176.27 280.605L1179.58 284.209Z" fill="#212B36"/>
<rect x="1188.23" y="215.706" width="89" height="89" rx="5.5" transform="rotate(47.4118 1188.23 215.706)" stroke="#212B36"/>
</g>
<path d="M1311.17 780.736C1311.23 781.753 1311.29 783.04 1311.31 784.292C1311.45 787.441 1311.27 789.92 1311.73 793.038C1311.91 794.207 1312.35 795.704 1312.74 796.643C1313.2 797.741 1313.6 798.885 1314.12 799.85C1314.49 800.531 1314.88 801.154 1315.25 801.836C1315.67 802.618 1316.13 803.524 1316.6 804.171C1317.48 805.389 1318.53 805.954 1319.51 806.474C1320.61 807.057 1322.31 807.645 1323.41 807.603C1324.49 807.561 1325.55 807.364 1323.79 807.895C1323.59 807.908 1323.4 807.991 1323.19 808.044C1322.31 808.275 1321.39 808.561 1320.53 808.995C1320.02 809.255 1319.54 809.687 1319.05 810.065C1318.64 810.379 1318.22 810.668 1317.84 811.112C1317.1 811.994 1316.48 813.519 1316.02 815.021C1315.63 816.319 1315.21 817.597 1314.82 818.892C1314.57 819.723 1314.35 820.65 1314.23 821.624C1314.09 822.633 1313.92 823.563 1313.82 824.596C1313.71 825.689 1313.61 826.795 1313.49 827.88C1313.27 829.781 1313.06 831.912 1313.18 833.956C1313.26 835.46 1313.47 837.058 1313.29 838.495C1313.17 839.457 1313.01 840.404 1312.91 841.379C1312.91 841.453 1312.91 841.527 1312.9 841.601C1312.9 842.004 1312.83 842.453 1312.85 842.846C1312.85 842.927 1312.81 842.413 1312.82 842.297C1312.84 841.987 1312.87 841.682 1312.91 841.379C1312.92 838.937 1312.94 836.508 1312.79 834.045C1312.64 831.571 1312.39 829.119 1312.23 826.645C1312.14 825.153 1312.09 823.629 1311.82 822.183C1311.55 820.725 1311.19 819.222 1310.7 817.988C1309.78 815.639 1308.41 814.128 1307.17 812.768L1307.15 812.749C1306.14 811.638 1305.1 810.068 1304 809.494C1303.05 808.998 1302.21 808.815 1301.25 808.874L1298.73 809.031C1298.54 809.043 1299.57 808.847 1300.18 808.738C1303.74 807.849 1304.72 807.329 1305.65 806.486C1306.39 805.818 1307.06 805.102 1307.66 803.983C1308.42 802.562 1309.07 800.929 1309.6 799.082C1310.64 795.489 1311.01 791.407 1311.27 787.139C1311.32 786.327 1311.33 785.321 1311.31 784.292C1311.31 784.292 1311.31 784.292 1311.31 784.292C1311.29 783.94 1311.06 780.861 1311.17 780.736Z" fill="#FF7A00" fill-opacity="0.46"/>
<path d="M1323.79 807.895C1323.59 807.908 1323.4 807.991 1323.19 808.044C1322.31 808.275 1321.39 808.561 1320.53 808.995C1320.02 809.255 1319.54 809.687 1319.05 810.065C1318.64 810.379 1318.22 810.668 1317.84 811.112C1317.1 811.994 1316.48 813.519 1316.02 815.021C1315.63 816.319 1315.21 817.597 1314.82 818.892C1314.57 819.723 1314.35 820.65 1314.23 821.624C1314.09 822.633 1313.92 823.563 1313.82 824.596C1313.71 825.689 1313.61 826.795 1313.49 827.88C1313.27 829.781 1313.06 831.912 1313.18 833.956C1313.26 835.46 1313.47 837.058 1313.29 838.495C1313.13 839.756 1312.91 840.991 1312.82 842.297C1312.81 842.413 1312.85 842.927 1312.85 842.846C1312.83 842.453 1312.9 842.004 1312.9 841.601C1312.92 839.084 1312.95 836.583 1312.79 834.045C1312.64 831.571 1312.39 829.119 1312.23 826.645C1312.14 825.153 1312.09 823.629 1311.82 822.183C1311.55 820.725 1311.19 819.222 1310.7 817.988C1309.78 815.628 1308.39 814.114 1307.15 812.749C1306.14 811.638 1305.1 810.068 1304 809.494C1303.05 808.998 1302.21 808.815 1301.25 808.874C1300.41 808.926 1299.57 808.979 1298.73 809.031C1298.37 809.053 1302.26 808.354 1299.78 808.837C1303.67 807.887 1304.68 807.36 1305.65 806.486C1306.39 805.818 1307.06 805.102 1307.66 803.983C1308.42 802.562 1309.07 800.929 1309.6 799.082C1310.64 795.489 1311.01 791.407 1311.27 787.139C1311.38 785.34 1311.28 782.59 1311.17 780.736C1311.06 780.861 1311.29 783.94 1311.31 784.292C1311.45 787.441 1311.27 789.92 1311.73 793.038C1311.91 794.207 1312.35 795.704 1312.74 796.643C1313.2 797.741 1313.6 798.885 1314.12 799.85C1314.49 800.531 1314.88 801.154 1315.25 801.836C1315.67 802.618 1316.13 803.524 1316.6 804.171C1317.48 805.389 1318.53 805.954 1319.51 806.474C1320.61 807.057 1322.31 807.645 1323.41 807.603C1324.49 807.561 1325.55 807.364 1323.79 807.895ZM1323.79 807.895C1323.9 807.889 1323.88 807.89 1323.79 807.895Z" stroke="black" stroke-opacity="0.6" stroke-linecap="round"/>
<path d="M895.254 218.31V436.738" stroke="black" stroke-opacity="0.6" stroke-linecap="round"/>
<path d="M879.368 426.81H1050.14" stroke="black" stroke-opacity="0.6" stroke-linecap="round"/>
<defs>
<filter id="filter0_d_236_101" x="36" y="424" width="124.189" height="126.189" filterUnits="userSpaceOnUse" color-interpolation-filters="sRGB">
<feFlood flood-opacity="0" result="BackgroundImageFix"/>
<feColorMatrix in="SourceAlpha" type="matrix" values="0 0 0 0 0 0 0 0 0 0 0 0 0 0 0 0 0 0 127 0" result="hardAlpha"/>
<feMorphology radius="2" operator="dilate" in="SourceAlpha" result="effect1_dropShadow_236_101"/>
<feOffset dy="4"/>
<feColorMatrix type="matrix" values="0 0 0 0 0 0 0 0 0 0 0 0 0 0 0 0 0 0 1 0"/>
<feBlend mode="normal" in2="BackgroundImageFix" result="effect1_dropShadow_236_101"/>
<feBlend mode="normal" in="SourceGraphic" in2="effect1_dropShadow_236_101" result="shape"/>
</filter>
<filter id="filter1_d_236_101" x="1120" y="215" width="131.167" height="133.167" filterUnits="userSpaceOnUse" color-interpolation-filters="sRGB">
<feFlood flood-opacity="0" result="BackgroundImageFix"/>
<feColorMatrix in="SourceAlpha" type="matrix" values="0 0 0 0 0 0 0 0 0 0 0 0 0 0 0 0 0 0 127 0" result="hardAlpha"/>
<feMorphology radius="2" operator="dilate" in="SourceAlpha" result="effect1_dropShadow_236_101"/>
<feOffset dy="4"/>
<feColorMatrix type="matrix" values="0 0 0 0 0 0 0 0 0 0 0 0 0 0 0 0 0 0 1 0"/>
<feBlend mode="normal" in2="BackgroundImageFix" result="effect1_dropShadow_236_101"/>
<feBlend mode="normal" in="SourceGraphic" in2="effect1_dropShadow_236_101" result="shape"/>
</filter>
</defs>
</svg>
