<svg width="462" height="235" viewBox="0 0 462 235" fill="none" xmlns="http://www.w3.org/2000/svg">
<path d="M87 0.901794L87 234.036" stroke="black" stroke-opacity="0.6" stroke-linecap="round"/>
<path d="M93 109.566V218.346" stroke="black" stroke-opacity="0.6" stroke-linecap="round"/>
<path d="M1.29346 39.004H461.476" stroke="black" stroke-opacity="0.6" stroke-linecap="round"/>
<path d="M254.704 80.366C254.797 81.4361 254.894 82.7899 254.958 84.1068C254.958 84.1068 254.958 84.1068 254.958 84.1068C255.198 87.4203 255.13 90.031 255.648 93.3086C255.842 94.5365 256.29 96.1074 256.668 97.092C257.11 98.2432 257.501 99.4427 257.998 100.453C258.349 101.166 258.715 101.818 259.066 102.531C259.469 103.35 259.905 104.299 260.341 104.975C261.162 106.247 262.112 106.831 262.994 107.368C263.982 107.97 268.525 108.056 269.5 108C270.448 107.945 268.356 108.241 266.826 108.819C266.643 108.835 266.478 108.924 266.3 108.982C265.528 109.234 264.725 109.545 263.984 110.01C263.54 110.289 263.137 110.75 262.718 111.152C262.37 111.487 262.003 111.796 261.687 112.268C261.062 113.204 260.576 114.816 260.224 116.402C259.921 117.772 259.604 119.122 259.301 120.489C259.107 121.366 258.953 122.344 258.876 123.37C258.795 124.434 258.68 125.415 258.624 126.503C258.564 127.654 258.519 128.82 258.448 129.963C258.324 131.966 258.216 134.212 258.394 136.362C258.524 137.944 258.764 139.623 258.655 141.138C258.582 142.152 258.481 143.15 258.422 144.177C258.424 144.255 258.427 144.333 258.429 144.411C258.442 144.836 258.396 145.309 258.422 145.722C258.427 145.807 258.379 145.267 258.382 145.145C258.39 144.818 258.404 144.496 258.422 144.177C258.346 141.607 258.279 139.05 258.056 136.459C257.831 133.856 257.522 131.279 257.297 128.677C257.162 127.107 257.067 125.503 256.776 123.984C256.484 122.453 256.107 120.874 255.636 119.581C254.738 117.118 253.47 115.542 252.328 114.124L252.312 114.104C251.38 112.945 250.409 111.304 249.419 110.711C248.563 110.199 247.808 110.015 246.968 110.088C246.227 110.152 242.741 110.436 242 110.5C241.687 110.527 247.672 108.966 245.5 109.5C248.894 108.459 249.943 108.458 250.765 107.527C251.394 106.817 251.955 106.056 252.445 104.871C253.068 103.368 253.578 101.642 253.984 99.6922C254.775 95.8998 254.948 91.5994 255.026 87.1039C255.041 86.2488 255.011 85.1902 254.958 84.1068C254.931 83.7367 254.618 80.4982 254.704 80.366Z" fill="#FF7A00" fill-opacity="0.46"/>
<path d="M266.826 108.819C266.643 108.835 266.478 108.924 266.3 108.982C265.528 109.234 264.725 109.545 263.984 110.01C263.54 110.289 263.137 110.75 262.718 111.152C262.37 111.487 262.003 111.796 261.687 112.268C261.062 113.204 260.576 114.816 260.224 116.402C259.921 117.772 259.604 119.122 259.301 120.489C259.107 121.366 258.953 122.344 258.876 123.37C258.795 124.434 258.68 125.415 258.624 126.503C258.564 127.654 258.519 128.82 258.448 129.963C258.324 131.966 258.216 134.212 258.394 136.362C258.524 137.944 258.764 139.623 258.655 141.138C258.559 142.467 258.416 143.769 258.382 145.145C258.379 145.267 258.427 145.807 258.422 145.722C258.396 145.309 258.442 144.836 258.429 144.411C258.35 141.761 258.286 139.129 258.056 136.459C257.831 133.856 257.522 131.279 257.297 128.677C257.162 127.107 257.067 125.503 256.776 123.984C256.484 122.453 256.107 120.874 255.636 119.581C254.734 117.107 253.458 115.527 252.312 114.104C251.38 112.945 250.409 111.304 249.419 110.711C248.563 110.199 247.808 110.015 246.968 110.088C246.227 110.152 242.741 110.436 242 110.5C241.687 110.527 247.672 108.966 245.5 109.5C248.894 108.459 249.943 108.458 250.765 107.527C251.394 106.817 251.955 106.056 252.445 104.871C253.068 103.368 253.578 101.642 253.984 99.6922C254.775 95.8998 254.948 91.5994 255.026 87.1039C255.059 85.2094 254.873 82.3165 254.704 80.366C254.618 80.4982 254.931 83.7369 254.958 84.1068C255.198 87.4203 255.13 90.031 255.648 93.3086C255.842 94.5365 256.29 96.1074 256.668 97.092C257.11 98.2432 257.501 99.4427 257.998 100.453C258.349 101.166 258.715 101.818 259.066 102.531C259.469 103.35 259.905 104.299 260.341 104.975C261.162 106.247 262.112 106.831 262.994 107.368C263.982 107.97 268.525 108.056 269.5 108C270.448 107.945 268.356 108.241 266.826 108.819ZM266.826 108.819C266.915 108.811 266.9 108.812 266.826 108.819Z" stroke="black" stroke-opacity="0.6" stroke-linecap="round"/>
</svg>
