<svg width="991" height="689" viewBox="0 0 991 689" fill="none" xmlns="http://www.w3.org/2000/svg">
<rect x="299.5" y="139.5" width="417" height="120" fill="#FF7A00" fill-opacity="0.46" stroke="black"/>
<path d="M299.5 141.5H299.935H300.869H301.8H302.731H303.659H304.587H305.512H306.436H307.359H308.28H309.199H310.117H311.033H311.948H312.861H313.773H314.683H315.592H316.499H317.405H318.309H319.212H320.113H321.013H321.912H322.809H323.704H324.598H325.491H326.382H327.272H328.16H329.047H329.933H330.817H331.7H332.581H333.461H334.34H335.217H336.093H336.968H337.841H338.713H339.584H340.453H341.321H342.188H343.053H343.917H344.78H345.642H346.502H347.361H348.218H349.075H349.93H350.784H351.637H352.488H353.338H354.187H355.035H355.881H356.727H357.571H358.414H359.256H360.096H360.936H361.774H362.611H363.447H364.282H365.115H365.948H366.779H367.609H368.439H369.267H370.093H370.919H371.744H372.568H373.39H374.212H375.032H375.852H376.67H377.487H378.303H379.119H379.933H380.746H381.558H382.369H383.179H383.988H384.796H385.604H386.41H387.215H388.019H388.822H389.625H390.426H391.226H392.026H392.824H393.622H394.419H395.215H396.009H396.803H397.597H398.389H399.18H399.971H400.76H401.549H402.337H403.124H403.91H404.695H405.48H406.264H407.047H407.829H408.61H409.391H410.17H410.949H411.727H412.505H413.281H414.057H414.832H415.607H416.38H417.153H417.925H418.697H419.467H420.237H421.007H421.775H422.543H423.31H424.077H424.843H425.608H426.373H427.137H427.9H428.662H429.424H430.186H430.946H431.707H432.466H433.225H433.983H434.741H435.498H436.255H437.011H437.766H438.521H439.275H440.029H440.782H441.535H442.287H443.039H443.79H444.541H445.291H446.04H446.79H447.538H448.286H449.034H449.781H450.528H451.274H452.02H452.766H453.511H454.255H455H455.743H456.487H457.23H457.972H458.714H459.456H460.198H460.939H461.679H462.42H463.16H463.899H464.638H465.377H466.116H466.854H467.592H468.33H469.067H469.804H470.541H471.278H472.014H472.75H473.486H474.221H474.956H475.691H476.426H477.16H477.895H478.629H479.363H480.096H480.83H481.563H482.296H483.029H483.761H484.494H485.226H485.958H486.69H487.422H488.154H488.886H489.617H490.349H491.08H491.811H492.542H493.273H494.004H494.735H495.465H496.196H496.927H497.657H498.388H499.118H499.848H500.579H501.309H502.039H502.77H503.5H504.23H504.961H505.691H506.421H507.152H507.882H508.612H509.343H510.073H510.804H511.535H512.265H512.996H513.727H514.458H515.189H515.92H516.651H517.383H518.114H518.846H519.578H520.31H521.042H521.774H522.506H523.239H523.971H524.704H525.437H526.17H526.904H527.637H528.371H529.105H529.84H530.574H531.309H532.044H532.779H533.514H534.25H534.986H535.722H536.459H537.196H537.933H538.67H539.408H540.146H540.884H541.623H542.362H543.101H543.84H544.58H545.321H546.061H546.802H547.544H548.286H549.028H549.77H550.513H551.257H552H552.745H553.489H554.234H554.98H555.726H556.472H557.219H557.966H558.714H559.462H560.21H560.96H561.709H562.459H563.21H563.961H564.713H565.465H566.218H566.971H567.725H568.479H569.234H569.989H570.745H571.502H572.259H573.017H573.775H574.534H575.293H576.054H576.814H577.576H578.338H579.1H579.863H580.627H581.392H582.157H582.923H583.69H584.457H585.225H585.993H586.763H587.533H588.303H589.075H589.847H590.62H591.393H592.168H592.943H593.719H594.495H595.273H596.051H596.83H597.609H598.39H599.171H599.953H600.736H601.52H602.305H603.09H603.876H604.663H605.451H606.24H607.029H607.82H608.611H609.403H610.197H610.991H611.785H612.581H613.378H614.176H614.974H615.774H616.574H617.375H618.178H618.981H619.785H620.59H621.396H622.204H623.012H623.821H624.631H625.442H626.254H627.067H627.881H628.697H629.513H630.33H631.148H631.968H632.788H633.61H634.432H635.256H636.081H636.906H637.733H638.561H639.391H640.221H641.052H641.885H642.718H643.553H644.389H645.226H646.064H646.904H647.744H648.586H649.429H650.273H651.119H651.965H652.813H653.662H654.512H655.363H656.216H657.07H657.925H658.782H659.639H660.498H661.358H662.22H663.083H663.947H664.812H665.679H666.547H667.416H668.287H669.159H670.032H670.907H671.783H672.66H673.539H674.419H675.3H676.183H677.067H677.953H678.84H679.728H680.618H681.509H682.402H683.296H684.191H685.088H685.987H686.887H687.788H688.691H689.595H690.501H691.408H692.317H693.227H694.139H695.052H695.967H696.883H697.801H698.72H699.641H700.564H701.488H702.413H703.341H704.269H705.2H706.131H707.065H707.5V261.5H299.5V141.5Z" fill="white" stroke="black"/>
<rect x="248.5" y="255.5" width="417" height="120" fill="#FF7A00" fill-opacity="0.46" stroke="black"/>
<path d="M257.5 258.5H257.935H258.869H259.8H260.731H261.659H262.587H263.512H264.436H265.359H266.28H267.199H268.117H269.033H269.948H270.861H271.773H272.683H273.592H274.499H275.405H276.309H277.212H278.113H279.013H279.912H280.809H281.704H282.598H283.491H284.382H285.272H286.16H287.047H287.933H288.817H289.7H290.581H291.461H292.34H293.217H294.093H294.968H295.841H296.713H297.584H298.453H299.321H300.188H301.053H301.917H302.78H303.642H304.502H305.361H306.218H307.075H307.93H308.784H309.637H310.488H311.338H312.187H313.035H313.881H314.727H315.571H316.414H317.256H318.096H318.936H319.774H320.611H321.447H322.282H323.115H323.948H324.779H325.609H326.439H327.267H328.093H328.919H329.744H330.568H331.39H332.212H333.032H333.852H334.67H335.487H336.303H337.119H337.933H338.746H339.558H340.369H341.179H341.988H342.796H343.604H344.41H345.215H346.019H346.822H347.625H348.426H349.226H350.026H350.824H351.622H352.419H353.215H354.009H354.803H355.597H356.389H357.18H357.971H358.76H359.549H360.337H361.124H361.91H362.695H363.48H364.264H365.047H365.829H366.61H367.391H368.17H368.949H369.727H370.505H371.281H372.057H372.832H373.607H374.38H375.153H375.925H376.697H377.467H378.237H379.007H379.775H380.543H381.31H382.077H382.843H383.608H384.373H385.137H385.9H386.662H387.424H388.186H388.946H389.707H390.466H391.225H391.983H392.741H393.498H394.255H395.011H395.766H396.521H397.275H398.029H398.782H399.535H400.287H401.039H401.79H402.541H403.291H404.04H404.79H405.538H406.286H407.034H407.781H408.528H409.274H410.02H410.766H411.511H412.255H413H413.743H414.487H415.23H415.972H416.714H417.456H418.198H418.939H419.679H420.42H421.16H421.899H422.638H423.377H424.116H424.854H425.592H426.33H427.067H427.804H428.541H429.278H430.014H430.75H431.486H432.221H432.956H433.691H434.426H435.16H435.895H436.629H437.363H438.096H438.83H439.563H440.296H441.029H441.761H442.494H443.226H443.958H444.69H445.422H446.154H446.886H447.617H448.349H449.08H449.811H450.542H451.273H452.004H452.735H453.465H454.196H454.927H455.657H456.388H457.118H457.848H458.579H459.309H460.039H460.77H461.5H462.23H462.961H463.691H464.421H465.152H465.882H466.612H467.343H468.073H468.804H469.535H470.265H470.996H471.727H472.458H473.189H473.92H474.651H475.383H476.114H476.846H477.578H478.31H479.042H479.774H480.506H481.239H481.971H482.704H483.437H484.17H484.904H485.637H486.371H487.105H487.84H488.574H489.309H490.044H490.779H491.514H492.25H492.986H493.722H494.459H495.196H495.933H496.67H497.408H498.146H498.884H499.623H500.362H501.101H501.84H502.58H503.321H504.061H504.802H505.544H506.286H507.028H507.77H508.513H509.257H510H510.745H511.489H512.234H512.98H513.726H514.472H515.219H515.966H516.714H517.462H518.21H518.96H519.709H520.459H521.21H521.961H522.713H523.465H524.218H524.971H525.725H526.479H527.234H527.989H528.745H529.502H530.259H531.017H531.775H532.534H533.293H534.054H534.814H535.576H536.338H537.1H537.863H538.627H539.392H540.157H540.923H541.69H542.457H543.225H543.993H544.763H545.533H546.303H547.075H547.847H548.62H549.393H550.168H550.943H551.719H552.495H553.273H554.051H554.83H555.609H556.39H557.171H557.953H558.736H559.52H560.305H561.09H561.876H562.663H563.451H564.24H565.029H565.82H566.611H567.403H568.197H568.991H569.785H570.581H571.378H572.176H572.974H573.774H574.574H575.375H576.178H576.981H577.785H578.59H579.396H580.204H581.012H581.821H582.631H583.442H584.254H585.067H585.881H586.697H587.513H588.33H589.148H589.968H590.788H591.61H592.432H593.256H594.081H594.906H595.733H596.561H597.391H598.221H599.052H599.885H600.718H601.553H602.389H603.226H604.064H604.904H605.744H606.586H607.429H608.273H609.119H609.965H610.813H611.662H612.512H613.363H614.216H615.07H615.925H616.782H617.639H618.498H619.358H620.22H621.083H621.947H622.812H623.679H624.547H625.416H626.287H627.159H628.032H628.907H629.783H630.66H631.539H632.419H633.3H634.183H635.067H635.953H636.84H637.728H638.618H639.509H640.402H641.296H642.191H643.088H643.987H644.887H645.788H646.691H647.595H648.501H649.408H650.317H651.227H652.139H653.052H653.967H654.883H655.801H656.72H657.641H658.564H659.488H660.413H661.341H662.269H663.2H664.131H665.065H665.5V378.5H257.5V258.5Z" fill="white" stroke="black"/>
<rect x="332.5" y="356.5" width="417" height="120" fill="#FF7A00" fill-opacity="0.46" stroke="black"/>
<path d="M327.5 348.5H327.935H328.869H329.8H330.731H331.659H332.587H333.512H334.436H335.359H336.28H337.199H338.117H339.033H339.948H340.861H341.773H342.683H343.592H344.499H345.405H346.309H347.212H348.113H349.013H349.912H350.809H351.704H352.598H353.491H354.382H355.272H356.16H357.047H357.933H358.817H359.7H360.581H361.461H362.34H363.217H364.093H364.968H365.841H366.713H367.584H368.453H369.321H370.188H371.053H371.917H372.78H373.642H374.502H375.361H376.218H377.075H377.93H378.784H379.637H380.488H381.338H382.187H383.035H383.881H384.727H385.571H386.414H387.256H388.096H388.936H389.774H390.611H391.447H392.282H393.115H393.948H394.779H395.609H396.439H397.267H398.093H398.919H399.744H400.568H401.39H402.212H403.032H403.852H404.67H405.487H406.303H407.119H407.933H408.746H409.558H410.369H411.179H411.988H412.796H413.604H414.41H415.215H416.019H416.822H417.625H418.426H419.226H420.026H420.824H421.622H422.419H423.215H424.009H424.803H425.597H426.389H427.18H427.971H428.76H429.549H430.337H431.124H431.91H432.695H433.48H434.264H435.047H435.829H436.61H437.391H438.17H438.949H439.727H440.505H441.281H442.057H442.832H443.607H444.38H445.153H445.925H446.697H447.467H448.237H449.007H449.775H450.543H451.31H452.077H452.843H453.608H454.373H455.137H455.9H456.662H457.424H458.186H458.946H459.707H460.466H461.225H461.983H462.741H463.498H464.255H465.011H465.766H466.521H467.275H468.029H468.782H469.535H470.287H471.039H471.79H472.541H473.291H474.04H474.79H475.538H476.286H477.034H477.781H478.528H479.274H480.02H480.766H481.511H482.255H483H483.743H484.487H485.23H485.972H486.714H487.456H488.198H488.939H489.679H490.42H491.16H491.899H492.638H493.377H494.116H494.854H495.592H496.33H497.067H497.804H498.541H499.278H500.014H500.75H501.486H502.221H502.956H503.691H504.426H505.16H505.895H506.629H507.363H508.096H508.83H509.563H510.296H511.029H511.761H512.494H513.226H513.958H514.69H515.422H516.154H516.886H517.617H518.349H519.08H519.811H520.542H521.273H522.004H522.735H523.465H524.196H524.927H525.657H526.388H527.118H527.848H528.579H529.309H530.039H530.77H531.5H532.23H532.961H533.691H534.421H535.152H535.882H536.612H537.343H538.073H538.804H539.535H540.265H540.996H541.727H542.458H543.189H543.92H544.651H545.383H546.114H546.846H547.578H548.31H549.042H549.774H550.506H551.239H551.971H552.704H553.437H554.17H554.904H555.637H556.371H557.105H557.84H558.574H559.309H560.044H560.779H561.514H562.25H562.986H563.722H564.459H565.196H565.933H566.67H567.408H568.146H568.884H569.623H570.362H571.101H571.84H572.58H573.321H574.061H574.802H575.544H576.286H577.028H577.77H578.513H579.257H580H580.745H581.489H582.234H582.98H583.726H584.472H585.219H585.966H586.714H587.462H588.21H588.96H589.709H590.459H591.21H591.961H592.713H593.465H594.218H594.971H595.725H596.479H597.234H597.989H598.745H599.502H600.259H601.017H601.775H602.534H603.293H604.054H604.814H605.576H606.338H607.1H607.863H608.627H609.392H610.157H610.923H611.69H612.457H613.225H613.993H614.763H615.533H616.303H617.075H617.847H618.62H619.393H620.168H620.943H621.719H622.495H623.273H624.051H624.83H625.609H626.39H627.171H627.953H628.736H629.52H630.305H631.09H631.876H632.663H633.451H634.24H635.029H635.82H636.611H637.403H638.197H638.991H639.785H640.581H641.378H642.176H642.974H643.774H644.574H645.375H646.178H646.981H647.785H648.59H649.396H650.204H651.012H651.821H652.631H653.442H654.254H655.067H655.881H656.697H657.513H658.33H659.148H659.968H660.788H661.61H662.432H663.256H664.081H664.906H665.733H666.561H667.391H668.221H669.052H669.885H670.718H671.553H672.389H673.226H674.064H674.904H675.744H676.586H677.429H678.273H679.119H679.965H680.813H681.662H682.512H683.363H684.216H685.07H685.925H686.782H687.639H688.498H689.358H690.22H691.083H691.947H692.812H693.679H694.547H695.416H696.287H697.159H698.032H698.907H699.783H700.66H701.539H702.419H703.3H704.183H705.067H705.953H706.84H707.728H708.618H709.509H710.402H711.296H712.191H713.088H713.987H714.887H715.788H716.691H717.595H718.501H719.408H720.317H721.227H722.139H723.052H723.967H724.883H725.801H726.72H727.641H728.564H729.488H730.413H731.341H732.269H733.2H734.131H735.065H735.5V468.5H327.5V348.5Z" fill="white" stroke="black"/>
<path d="M753.685 303.793C751.145 300.936 756.437 301.123 758.348 300.725C786.705 294.817 815.152 293.22 844.065 292.81C876.808 292.345 911.153 292.251 943.587 297.657C952.824 299.197 980.992 299.375 971.628 299.375C967.087 299.375 962.547 299.375 958.006 299.375" stroke="black" stroke-opacity="0.6" stroke-linecap="round"/>
<path d="M951.38 283.913C963.299 289.128 976.327 290.868 987.826 296.921C991.945 299.089 991.077 299.218 986.477 300.48C976.839 303.122 966.897 305.799 957.148 307.965C952.723 308.949 952.484 309.843 952.484 304.897" stroke="black" stroke-opacity="0.6" stroke-linecap="round"/>
<path d="M591.332 503.697C594.312 498.731 596.049 510.748 596.241 511.796C600.331 534.116 601.175 556.69 602.376 579.29C603.542 601.212 605.69 667.018 605.69 645.065" stroke="black" stroke-opacity="0.6" stroke-linecap="round"/>
<path d="M586.914 640.647C587.118 639.222 588.811 641.339 589.368 641.752C595.472 646.273 598.825 655.184 602.56 661.57C602.814 662.005 606.219 669.361 607.285 669.056C608.56 668.692 609.993 657.234 610.353 655.864C613.849 642.55 617.469 629.59 621.643 616.472C624.084 608.8 615.835 620.126 614.525 621.872" stroke="black" stroke-opacity="0.6" stroke-linecap="round"/>
<path d="M528.379 117.142C528.379 114.564 528.663 112.146 529.115 109.595C532.335 91.4457 534.434 73.1702 536.539 54.8643C537.669 45.0456 538.594 35.3634 538.319 25.4739C538.069 16.4916 533.161 19.4653 529.483 24.3694" stroke="black" stroke-opacity="0.6" stroke-linecap="round"/>
<path d="M522.857 27.6827C520.27 27.3594 524.561 24.7563 525.127 24.2467C532.112 17.9596 538.763 10.2898 543.166 1.97382C544.482 -0.512305 543.841 1.84692 543.841 3.50776C543.841 8.85553 542.736 14.0851 542.736 19.4608C542.736 30.9702 542.189 42.3982 544.7 53.6985C545.864 58.938 546.05 50.374 546.05 48.6671" stroke="black" stroke-opacity="0.6" stroke-linecap="round"/>
<path d="M391.115 557C388.369 562.242 384.668 566.944 381.052 571.603C367.724 588.777 353.585 605.299 338.347 620.812C324.421 634.991 308.871 648.417 292.39 659.59C285.931 663.969 279.82 669.557 272.449 672.353C269.48 673.479 265.097 674.183 263 676.28" stroke="black" stroke-opacity="0.6" stroke-linecap="round"/>
<path d="M279.879 646.17C279.011 646.387 278.994 646.726 278.652 647.581C276.688 652.491 273.03 656.686 269.633 660.65C263.206 668.148 255.979 675.791 247.851 681.512C244.499 683.87 237.009 687.227 244.66 688.077C256.568 689.4 268.061 685.649 279.389 682.678C292.986 679.111 307.38 678.703 320.744 674.885" stroke="black" stroke-opacity="0.6" stroke-linecap="round"/>
<path d="M251.164 414.237C233.546 407.095 214.471 416.294 198.642 424.423C187.385 430.203 178.242 438.199 172.381 449.518C165.9 462.032 162.249 480.392 174.099 491.057C183.928 499.904 201.783 502.956 214.043 498.052C223.025 494.459 231.644 488.035 229.934 477.436C223.393 436.877 95.7102 488.083 110.9 541.248" stroke="black" stroke-opacity="0.6" stroke-linecap="round"/>
<path d="M102.367 513C94.8361 517.236 107.519 538.95 109.362 544.415C111.857 551.814 112.299 543.865 114.639 539.445C117.406 534.219 122.171 525.248 127.769 522.449C132.194 520.237 132.482 520.976 129.978 525.149" stroke="black" stroke-opacity="0.6" stroke-linecap="round"/>
<path d="M775.773 447.37C775.773 474.849 776.082 506.078 789.518 531.062C800.369 551.242 815.88 567.421 838.052 574.504C847.092 577.392 857.763 577.694 867.197 577.694C876.269 577.694 884.775 574.857 892.844 570.822C897.37 568.559 900.423 570.268 902.784 565.546" stroke="black" stroke-opacity="0.6" stroke-linecap="round"/>
<path d="M871 551C885.936 557.359 901.895 558.872 918 559.651C921.768 559.834 932.664 558.762 929.29 560.449C921.387 564.401 916.431 567.924 911.005 575.543C909.116 578.196 894.596 604.214 896.402 605.118" stroke="black" stroke-opacity="0.6" stroke-linecap="round"/>
<path d="M742.64 151.38C750.007 151.38 757.147 148.303 763.993 145.858C773.153 142.587 788.024 138.566 790.561 127.573C792.529 119.043 789.395 117.529 781.296 121.683C773.476 125.693 768.103 132.925 766.447 141.44C761.936 164.639 794.738 160.621 808.293 156.166C836.423 146.921 864.61 131.496 886.586 111.559C897.698 101.478 909.436 90.459 911.62 75.1737" stroke="black" stroke-opacity="0.6" stroke-linecap="round"/>
<path d="M877 93.446C881.038 92.9974 886.305 88.9627 889.456 87.0035C898.577 81.3303 906.574 74.291 913.876 66.4486C915.838 64.3416 918.397 61.7519 919.828 59.2084C920.531 57.9587 920.073 62.6994 920.073 63.6261C920.073 78.5398 927.154 95.3973 922.282 110.013" stroke="black" stroke-opacity="0.6" stroke-linecap="round"/>
<path d="M24.6118 113.839C29.6123 113.339 34.1687 112.606 39.3956 112.578C64.7122 112.441 94.6648 112.219 118.242 122.892C128.104 127.357 134.429 136.211 135.776 146.844C138.745 170.261 98.9364 166.184 85.5232 163.863C83.5541 163.522 68.5109 162.051 71.6562 157.158C76.1087 150.232 96.4572 152.784 103 153.147C119.621 154.071 137.047 160.263 152.566 165.926C171.48 172.827 190.393 175.402 210.268 177.787" stroke="black" stroke-opacity="0.6" stroke-linecap="round"/>
<path d="M34.6821 102.122C25.1207 107.434 14.0921 109.582 3.45213 112.037C-2.03512 113.304 3.40937 115.068 5.82703 115.748C16.8177 118.839 28.4887 121.682 38.9569 126.168" stroke="black" stroke-opacity="0.6" stroke-linecap="round"/>
<path d="M385.907 101.68C386.098 90.8428 389.07 78.5556 385.785 67.9949C382.223 56.5464 375.205 45.7489 367.623 36.5797C346.474 11.0047 309.234 4.67268 277.918 4.48955C255.586 4.35895 226.368 7.30853 208.215 22.1606C206.51 23.5559 203.5 27 203.5 33.5" stroke="black" stroke-opacity="0.6" stroke-linecap="round"/>
<path d="M193.606 17.7856C196.245 26.5497 195.833 35.7375 195.833 44.7767C195.833 45.413 195.125 50.9119 196.729 49.8782C199.023 48.3998 200.684 45.1765 202.356 43.1072C205.282 39.4859 208.494 35.9276 212.25 33.1517C215.257 30.9288 218.586 29.1717 221.587 26.9682C222.606 26.2201 223.377 25.3052 223.937 24.1856" stroke="black" stroke-opacity="0.6" stroke-linecap="round"/>
<path d="M208.091 297.166C160.424 290.444 111.78 291.689 63.8999 295.816C60.832 296.081 57.8494 296.394 54.8189 296.921C53.8465 297.09 51.0525 296.68 51.8737 297.228C53.426 298.263 51.9023 299.375 54.5735 299.375" stroke="black" stroke-opacity="0.6" stroke-linecap="round"/>
<path d="M64.7371 276.459C64.6381 277.349 63.7393 277.701 63.0561 278.14C56.8135 282.146 50.1537 285.473 43.6712 289.066C38.0341 292.19 31.6195 294.6 26.4551 298.474C22.7482 301.254 29.3327 302.331 31.1184 302.567C39.9632 303.738 48.9301 303.209 57.7964 304.275C62.795 304.877 67.6063 306.01 72.5453 306.716" stroke="black" stroke-opacity="0.6" stroke-linecap="round"/>
</svg>
