<svg width="134" height="428" viewBox="0 0 134 428" fill="none" xmlns="http://www.w3.org/2000/svg">
<path d="M14.1656 2.13945C14.2288 3.15676 14.2871 4.44354 14.3085 5.69493C14.4517 8.84437 14.2737 11.323 14.7337 14.4416C14.906 15.6099 15.3529 17.1068 15.7425 18.0462C16.1982 19.1445 16.5952 20.2881 17.1191 21.2529C17.4893 21.9347 17.8781 22.5576 18.2482 23.239C18.673 24.0214 19.1298 24.9274 19.5979 25.5746C20.4782 26.7918 21.5317 27.3574 22.5099 27.8776C23.606 28.4604 25.3082 29.0484 26.4146 29.0058C27.4899 28.9645 28.5498 28.7677 26.7945 29.2987C26.5865 29.3117 26.3968 29.3943 26.1933 29.4474C25.308 29.6782 24.3872 29.9644 23.5297 30.3979C23.0153 30.6579 22.5411 31.0902 22.0509 31.4681C21.6437 31.7819 21.2163 32.0709 20.8405 32.5157C20.0955 33.3977 19.4826 34.9224 19.023 36.4248C18.626 37.7224 18.2147 39.0007 17.819 40.2957C17.5652 41.1264 17.3532 42.0537 17.2256 43.0274C17.0935 44.0362 16.9245 44.9666 16.8189 45.9993C16.7072 47.0921 16.6104 48.1987 16.486 49.283C16.2678 51.1844 16.0589 53.3156 16.1767 55.3596C16.2634 56.8635 16.4692 58.4609 16.287 59.8988C16.1652 60.8606 16.0124 61.8071 15.9061 62.782C15.9057 62.856 15.9053 62.9299 15.9049 63.0039C15.9027 63.4076 15.8331 63.8566 15.846 64.2495C15.8487 64.3301 15.8146 63.8168 15.8228 63.7003C15.8445 63.3906 15.8731 63.0849 15.9061 62.782C15.92 60.3399 15.9428 57.9115 15.7898 55.4481C15.6361 52.9739 15.3856 50.5224 15.2319 48.0487C15.1392 46.5567 15.094 45.0321 14.8239 43.5867C14.5514 42.1285 14.1856 40.625 13.7021 39.3916C12.7812 37.0427 11.4052 35.5314 10.167 34.1713L10.1497 34.1524C9.13804 33.0412 8.10248 31.4716 7.00411 30.8973C6.05449 30.4009 5.20587 30.2182 4.25113 30.2775L1.72629 30.4344C1.53573 30.4462 2.56715 30.2507 3.18178 30.1412C6.73893 29.2528 7.71809 28.7325 8.65218 27.8891C9.39154 27.2215 10.0563 26.5054 10.6579 25.3861C11.4216 23.9651 12.0656 22.3323 12.6018 20.485C13.6447 16.8924 14.0067 12.8104 14.269 8.54192C14.3189 7.73003 14.3262 6.72446 14.3085 5.69493C14.3085 5.69493 14.3085 5.69493 14.3085 5.69492C14.2926 5.34334 14.0634 2.26402 14.1656 2.13945Z" fill="#FF7A00" fill-opacity="0.46"/>
<path d="M26.7945 29.2987C26.5865 29.3117 26.3968 29.3943 26.1933 29.4474C25.308 29.6782 24.3872 29.9644 23.5297 30.3979C23.0153 30.6579 22.5411 31.0902 22.0509 31.4681C21.6437 31.7819 21.2163 32.0709 20.8405 32.5157C20.0955 33.3977 19.4826 34.9224 19.023 36.4248C18.626 37.7224 18.2147 39.0007 17.819 40.2957C17.5652 41.1264 17.3532 42.0537 17.2256 43.0274C17.0935 44.0362 16.9245 44.9666 16.8189 45.9993C16.7072 47.0921 16.6104 48.1987 16.486 49.283C16.2678 51.1844 16.0589 53.3156 16.1767 55.3596C16.2634 56.8635 16.4692 58.4609 16.287 59.8988C16.1273 61.1595 15.9145 62.3939 15.8228 63.7003C15.8146 63.8168 15.8487 64.3301 15.846 64.2495C15.8331 63.8566 15.9027 63.4076 15.9049 63.0039C15.9184 60.487 15.9474 57.9861 15.7898 55.4481C15.6361 52.9739 15.3856 50.5224 15.2319 48.0487C15.1392 46.5567 15.094 45.0321 14.8239 43.5867C14.5514 42.1285 14.1856 40.625 13.7021 39.3916C12.7769 37.0318 11.3924 35.5174 10.1497 34.1524C9.13804 33.0412 8.10248 31.4716 7.00411 30.8973C6.05449 30.4009 5.20587 30.2182 4.25113 30.2775C3.40952 30.3298 2.56791 30.3821 1.72629 30.4344C1.37099 30.4564 5.26377 29.7577 2.78255 30.2399C6.66752 29.2903 7.68406 28.7632 8.65218 27.8891C9.39154 27.2215 10.0563 26.5054 10.6579 25.3861C11.4216 23.9651 12.0656 22.3323 12.6018 20.485C13.6447 16.8924 14.0067 12.8104 14.269 8.54192C14.3796 6.74317 14.2808 3.99371 14.1656 2.13945C14.0634 2.26402 14.2926 5.34334 14.3085 5.69492C14.4517 8.84436 14.2737 11.323 14.7337 14.4416C14.906 15.6099 15.3529 17.1068 15.7425 18.0462C16.1982 19.1445 16.5952 20.2881 17.1191 21.2529C17.4893 21.9347 17.8781 22.5576 18.2482 23.239C18.673 24.0214 19.1298 24.9274 19.5979 25.5746C20.4782 26.7918 21.5317 27.3574 22.5099 27.8776C23.606 28.4604 25.3082 29.0484 26.4146 29.0058C27.4899 28.9645 28.5498 28.7677 26.7945 29.2987ZM26.7945 29.2987C26.896 29.2924 26.8791 29.2935 26.7945 29.2987Z" stroke="black" stroke-opacity="0.6" stroke-linecap="round"/>
<g filter="url(#filter0_d_216_160)">
<rect x="15.813" y="340.289" width="90" height="90" rx="6" transform="rotate(-22.5236 15.813 340.289)" fill="white"/>
<path d="M84.8975 367.379C85.2439 368.276 85.602 368.711 85.9716 368.684C86.1411 368.665 86.3449 368.606 86.5831 368.507L83.9974 362.272L83.1206 362.636C83.5591 366.691 82.1699 369.398 78.9531 370.758C75.186 372.32 72.062 370.507 69.5809 365.32C69.3887 364.917 69.2073 364.511 69.0367 364.099C67.2051 359.683 67.2459 356.355 69.1589 354.115C69.7767 353.402 70.5727 352.844 71.5469 352.44C74.5959 351.226 77.3825 352.164 79.9067 355.253L80.816 354.876L78.1733 348.778C77.6537 348.994 77.4224 349.293 77.4795 349.675C77.5349 349.931 77.6569 350.286 77.8455 350.741C75.616 350.321 73.2889 350.614 70.8641 351.619C67.3569 353.074 65.202 355.464 64.3996 358.791C63.8457 361.127 64.0537 363.463 65.0233 365.802C66.1815 368.594 68.0369 370.591 70.5896 371.79C73.3081 373.023 76.2044 373.001 79.2787 371.726C81.4347 370.807 83.3076 369.358 84.8975 367.379Z" fill="#212B36"/>
<rect x="16.4664" y="340.559" width="89" height="89" rx="5.5" transform="rotate(-22.5236 16.4664 340.559)" stroke="#212B36"/>
</g>
<defs>
<filter id="filter0_d_216_160" x="13.813" y="305.813" width="121.611" height="123.61" filterUnits="userSpaceOnUse" color-interpolation-filters="sRGB">
<feFlood flood-opacity="0" result="BackgroundImageFix"/>
<feColorMatrix in="SourceAlpha" type="matrix" values="0 0 0 0 0 0 0 0 0 0 0 0 0 0 0 0 0 0 127 0" result="hardAlpha"/>
<feMorphology radius="2" operator="dilate" in="SourceAlpha" result="effect1_dropShadow_216_160"/>
<feOffset dy="4"/>
<feColorMatrix type="matrix" values="0 0 0 0 0 0 0 0 0 0 0 0 0 0 0 0 0 0 1 0"/>
<feBlend mode="normal" in2="BackgroundImageFix" result="effect1_dropShadow_216_160"/>
<feBlend mode="normal" in="SourceGraphic" in2="effect1_dropShadow_216_160" result="shape"/>
</filter>
</defs>
</svg>
