<svg width="601" height="250" viewBox="0 0 601 250" fill="none" xmlns="http://www.w3.org/2000/svg">
<path d="M388.738 56.7323C385.302 51.7408 381.529 51.0784 375.422 49.9892C364.155 47.9795 352.664 46.5366 341.292 45.2358C309.343 41.5814 277.88 39.8193 245.728 39.8193C211.136 39.8193 174.468 43.5244 143.562 60.2144C124.118 70.715 102.911 88.6912 102.718 112.446C102.511 138.023 124.84 155.897 143.562 170.647C174.187 194.772 210.693 209.944 247.743 221.662C289.806 234.966 331.699 238.176 375.59 239.294C414.111 240.274 456.082 238.345 491.408 221.275C518.006 208.423 549.096 190.691 563.528 163.959C574.386 143.848 570.699 121.725 558.269 103.437C536.862 71.9408 497.119 55.4617 462.034 44.241C415.29 29.2917 364.793 21.8511 315.779 19.9768C263.252 17.9682 208.263 20.9981 160.348 45.0148C135.608 57.415 112.133 79.3773 103.39 105.979C94.9883 131.541 99.5129 159.175 118.273 178.882C147.606 209.696 192.609 229.429 233.867 237.58C258.865 242.519 284.525 243.9 309.96 244.544C339.503 245.293 369.09 244.849 398.25 239.736C445.12 231.517 489.192 218.075 529.734 192.81C550.182 180.068 575.922 161.778 574.998 135.328C574.617 124.395 569.993 115.578 564.424 106.366C555.678 91.8994 545.575 79.7274 531.525 69.8869C516.402 59.2953 498.137 51.6865 480.945 45.0148C458.028 36.1211 434.001 29.1216 410.335 22.464C359.813 8.25167 309.118 1.01874 256.583 1.01874C213.135 1.01874 165.908 7.47162 127.505 28.9308C102.024 43.169 76.5411 66.2961 75.5823 97.0804C74.6779 126.115 99.3528 147.341 121.294 163.185C159.625 190.863 201.27 211.51 246.847 224.813C305.908 242.05 367.424 250.045 429.023 248.524C474.632 247.398 523.57 236.276 561.346 209.889C574.563 200.658 586.954 190.091 593.574 175.124C600.376 159.743 602.821 141.082 595.756 125.379C579.468 89.1772 536.979 66.6241 501.927 52.3659C469.713 39.2625 435.007 31.3506 400.824 25.2829C342.963 15.0123 283.149 19.9185 225.25 27.4385C181.039 33.1807 137.112 43.0703 93.8782 53.7476C62.6025 61.4716 31.6384 69.7093 1 79.6147" stroke="black" stroke-opacity="0.6" stroke-linecap="round"/>
</svg>
