<svg width="302" height="102" viewBox="0 0 302 102" fill="none" xmlns="http://www.w3.org/2000/svg">
<g filter="url(#filter0_d_76_31)">
<rect x="2.5" y="0.252625" width="297" height="95" rx="6" fill="white"/>
<path d="M20.8213 77.4064C20.0938 77.4064 19.4639 77.2429 18.9316 76.9157C18.4043 76.5837 17.9966 76.1271 17.7085 75.5461C17.4204 74.9601 17.2764 74.2888 17.2764 73.5319V72.5065C17.2764 71.4665 17.4229 70.5656 17.7158 69.8039C18.0137 69.0422 18.4336 68.4294 18.9756 67.9655C19.5176 67.5016 20.1572 67.1965 20.8945 67.05C21.5098 66.9377 21.9541 66.8034 22.2275 66.6472C22.5059 66.4909 22.645 66.2346 22.645 65.8781H23.7583L23.7729 65.9221C23.7827 66.3517 23.7363 66.7009 23.6338 66.9694C23.5361 67.238 23.3799 67.4528 23.165 67.614C22.9502 67.7751 22.6768 67.902 22.3447 67.9948C22.0127 68.0876 21.6196 68.173 21.1655 68.2512C20.7212 68.3244 20.3159 68.4636 19.9497 68.6686C19.5884 68.8688 19.2881 69.1447 19.0488 69.4963C18.8145 69.843 18.6606 70.2751 18.5874 70.7927L18.6167 70.8293C18.9048 70.5217 19.2661 70.2702 19.7007 70.0749C20.1401 69.8796 20.6064 69.7819 21.0996 69.7819C21.7686 69.7819 22.3472 69.9357 22.8354 70.2433C23.3237 70.551 23.6997 70.9758 23.9634 71.5178C24.2319 72.0549 24.3662 72.6725 24.3662 73.3708V73.5319C24.3662 74.2888 24.2222 74.9601 23.9341 75.5461C23.646 76.1271 23.2358 76.5837 22.7036 76.9157C22.1763 77.2429 21.5488 77.4064 20.8213 77.4064ZM20.8213 76.2785C21.2803 76.2785 21.666 76.1613 21.9785 75.9269C22.291 75.6877 22.5254 75.363 22.6816 74.9528C22.8428 74.5378 22.9233 74.0641 22.9233 73.5319V73.3708C22.9233 72.902 22.8428 72.4821 22.6816 72.111C22.5205 71.7399 22.2837 71.447 21.9712 71.2321C21.6587 71.0173 21.2705 70.9099 20.8066 70.9099C20.3477 70.9099 19.9619 71.0173 19.6494 71.2321C19.3418 71.447 19.1099 71.7399 18.9536 72.111C18.7974 72.4821 18.7192 72.902 18.7192 73.3708V73.5319C18.7192 74.0641 18.7974 74.5378 18.9536 74.9528C19.1099 75.363 19.3442 75.6877 19.6567 75.9269C19.9692 76.1613 20.3574 76.2785 20.8213 76.2785ZM29.1636 77.4064C28.4312 77.4064 27.7988 77.2355 27.2666 76.8937C26.7393 76.5471 26.3315 76.071 26.0435 75.4655C25.7554 74.8552 25.6113 74.1594 25.6113 73.3781V73.217C25.6113 72.4357 25.7554 71.7424 26.0435 71.1369C26.3315 70.5266 26.7393 70.048 27.2666 69.7014C27.7988 69.3547 28.4263 69.1813 29.1489 69.1813C29.8813 69.1813 30.5112 69.3547 31.0386 69.7014C31.5708 70.048 31.981 70.5241 32.269 71.1296C32.5571 71.735 32.7012 72.4308 32.7012 73.217V73.3781C32.7012 74.1642 32.5571 74.8625 32.269 75.4728C31.981 76.0783 31.5732 76.5519 31.0459 76.8937C30.5186 77.2355 29.8911 77.4064 29.1636 77.4064ZM29.1636 76.2785C29.6226 76.2785 30.0059 76.154 30.3135 75.905C30.626 75.6511 30.8604 75.3068 31.0166 74.8723C31.1777 74.4328 31.2583 73.9348 31.2583 73.3781V73.217C31.2583 72.6603 31.1777 72.1647 31.0166 71.7302C30.8604 71.2907 30.626 70.9465 30.3135 70.6974C30.001 70.4435 29.6128 70.3166 29.1489 70.3166C28.6899 70.3166 28.3042 70.4435 27.9917 70.6974C27.6792 70.9465 27.4448 71.2907 27.2886 71.7302C27.1323 72.1647 27.0542 72.6603 27.0542 73.217V73.3781C27.0542 73.9348 27.1323 74.4328 27.2886 74.8723C27.4448 75.3068 27.6792 75.6511 27.9917 75.905C28.3091 76.154 28.6997 76.2785 29.1636 76.2785ZM35.6895 77.2526V76.3298L36.8833 76.1247V70.4484H35.2134L35.1035 71.6862H33.873V69.3278H41.373V71.6862H40.1353L40.0254 70.4484H38.3262V76.1247L39.52 76.3298V77.2526H35.6895Z" fill="#212B36"/>
<rect x="3" y="0.752625" width="296" height="94" rx="5.5" stroke="#212B36"/>
</g>
<path d="M267.003 74.2514C267.832 74.2514 268.503 73.5798 268.503 72.7514C268.503 71.923 267.832 71.2514 267.003 71.2514V74.2514ZM126 72.7514L141 81.4117V64.0911L126 72.7514ZM267.003 71.2514H139.5V74.2514H267.003V71.2514Z" fill="black"/>
<path d="M278.333 52.5C275.234 60.8199 274.5 73.2617 266.953 72.7264" stroke="black" stroke-width="3" stroke-linecap="round"/>
<defs>
<filter id="filter0_d_76_31" x="0.5" y="0.252625" width="301" height="101" filterUnits="userSpaceOnUse" color-interpolation-filters="sRGB">
<feFlood flood-opacity="0" result="BackgroundImageFix"/>
<feColorMatrix in="SourceAlpha" type="matrix" values="0 0 0 0 0 0 0 0 0 0 0 0 0 0 0 0 0 0 127 0" result="hardAlpha"/>
<feMorphology radius="2" operator="dilate" in="SourceAlpha" result="effect1_dropShadow_76_31"/>
<feOffset dy="4"/>
<feColorMatrix type="matrix" values="0 0 0 0 0 0 0 0 0 0 0 0 0 0 0 0 0 0 1 0"/>
<feBlend mode="normal" in2="BackgroundImageFix" result="effect1_dropShadow_76_31"/>
<feBlend mode="normal" in="SourceGraphic" in2="effect1_dropShadow_76_31" result="shape"/>
</filter>
</defs>
</svg>
