<svg width="68" height="80" viewBox="0 0 68 80" fill="none" xmlns="http://www.w3.org/2000/svg">
<path d="M28.321 13.5821C24.4395 13.5821 21.9668 14.1373 21.1349 9.56184C20.3258 5.11205 24.52 1.93799 28.522 1.11939C39.3278 -1.09089 37.826 13.5552 36.8137 20.4164C34.361 37.0404 24.4235 55.6073 12.9437 67.8047C10.272 70.6433 1.18457 80.4202 1.18457 71.2721C1.18457 65.9371 1.87507 59.9303 8.52146 60.6688C16.4808 61.5532 26.2442 66.6825 33.0448 70.5686C39.4638 74.2366 49.7386 79.5242 50.9347 68.7595" stroke="black" stroke-opacity="0.6" stroke-linecap="round"/>
<path d="M23.7983 15.3914C18.2144 15.3914 18.371 11.1512 18.371 6.34596C18.371 0.720778 32.4408 2.19036 35.0046 5.89369C36.9609 8.71938 35.745 16.8057 35.3564 19.9142C34.6622 25.4683 33.3817 32.2394 31.487 37.5026C27.5234 48.5124 20.0112 59.5494 8.622 64.036C6.55201 64.8515 4.73237 65.1416 2.54143 65.1416C0.0260565 65.1416 -0.0111715 63.3108 2.29016 62.6289C7.90051 60.9666 20.4842 61.2232 25.6074 63.7848C28.8684 65.4153 30.936 65.847 33.5473 68.5588C35.7974 70.8953 36.5598 74.3429 39.1756 76.3982C41.6196 78.3185 48.1267 80.7076 50.0302 76.9007" stroke="black" stroke-opacity="0.6" stroke-linecap="round"/>
<path d="M64.503 71.4726C60.8692 71.0184 58.9205 71.0535 58.2214 76.2969C57.6473 80.6025 64.6314 75.6568 65.4075 74.1863C74.0051 57.8961 51.9986 77.8045 59.5279 77.8045C61.2891 77.8045 67.8497 74.35 64.503 72.5782C61.3974 70.9341 59.9802 73.9032 59.9802 76.4476C59.9802 79.2373 66.3121 78.0168 66.3121 75.0908C66.3121 72.1404 61.4418 75.2289 60.8848 76.8999" stroke="black" stroke-opacity="0.6" stroke-linecap="round"/>
</svg>
