<svg width="27" height="27" viewBox="0 0 27 27" fill="none" xmlns="http://www.w3.org/2000/svg">
<path d="M13.8738 1.7666C14.0784 9.95119 14.1145 18.116 13.8738 26.2997" stroke="black" stroke-opacity="0.6" stroke-linecap="round"/>
<path d="M13.1072 4.83322C13.1072 1.04241 13.1205 12.4158 13.0221 16.2053C12.9604 18.5776 12.8719 25.6867 12.7239 23.3182C12.6487 22.1154 12.4993 20.9737 12.3406 19.7831" stroke="black" stroke-opacity="0.6" stroke-linecap="round"/>
<path d="M12.7239 1C12.5582 8.54088 12.8224 16.1481 12.3406 23.6164" stroke="black" stroke-opacity="0.6" stroke-linecap="round"/>
<path d="M13.1072 4.83301C13.1388 9.54924 13.2526 14.2599 13.4053 18.9736C13.517 22.4199 13.174 18.4342 13.1072 17.8662" stroke="black" stroke-opacity="0.6" stroke-linecap="round"/>
<path d="M14.2571 4.4502V24.3833" stroke="black" stroke-opacity="0.6" stroke-linecap="round"/>
<path d="M1.69092 14.6611C9.87551 14.4565 18.0403 14.4204 26.224 14.6611" stroke="black" stroke-opacity="0.6" stroke-linecap="round"/>
<path d="M3.62473 14.0927C-0.166082 14.0927 11.2073 14.0795 14.9968 14.1779C17.3691 14.2395 24.4782 14.328 22.1097 14.476C20.9069 14.5512 19.7652 14.7006 18.5746 14.8594" stroke="black" stroke-opacity="0.6" stroke-linecap="round"/>
<path d="M1.22388 12.6606C8.76476 12.8263 16.372 12.5621 23.8403 13.0439" stroke="black" stroke-opacity="0.6" stroke-linecap="round"/>
<path d="M5.50293 13.3018C10.2192 13.2701 14.9298 13.1564 19.6435 13.0036C23.0898 12.8919 19.1041 13.2349 18.5361 13.3018" stroke="black" stroke-opacity="0.6" stroke-linecap="round"/>
<path d="M4.29053 14.96L24.2237 14.96" stroke="black" stroke-opacity="0.6" stroke-linecap="round"/>
</svg>
