<svg width="691" height="1038" viewBox="0 0 691 1038" fill="none" xmlns="http://www.w3.org/2000/svg">
<path d="M217.733 128.133C148.267 199.067 91.3334 257.6 91.3334 258.133C91.3334 259.333 345.6 508.667 346.8 508.667C347.2 508.667 373.2 482.267 404.8 450C436.267 417.733 462.4 391.333 462.8 391.333C463.2 391.333 466.8 397.067 470.667 404.133C501.2 459.2 517.867 526.267 522.933 614.133C523.733 629.467 524.933 642 525.6 642C528.133 642 687.467 620.533 689.2 620C690.667 619.467 690.8 614.933 690.133 595.6C685.2 461.067 662.8 374.667 610 286.8C589.333 252.267 567.733 223.2 539.333 191.333C527.6 178.267 349.867 2.66657 345.733 0.266572C344.8 -0.400095 297.467 46.9332 217.733 128.133Z" fill="black"/>
<path d="M81.3334 406.267C38.4 412 2.53335 417.067 1.46669 417.333C1.95743e-05 417.867 -0.133314 422.4 0.533353 441.733C5.46669 576.267 27.8667 662.667 80.6667 750.533C101.333 785.067 122.933 814.133 151.333 846C163.067 859.067 340.8 1034.67 344.933 1037.07C345.867 1037.73 393.2 990.4 472.933 909.2C542.4 838.267 599.333 779.733 599.333 779.2C599.333 778 345.067 528.667 343.867 528.667C343.467 528.667 317.467 555.067 285.867 587.333C254.4 619.6 228.267 646 227.867 646C227.467 646 223.867 640.267 220 633.2C189.467 578.133 172.8 511.067 167.733 423.2L166.133 395.333L162.8 395.467C160.933 395.6 124.267 400.4 81.3334 406.267Z" fill="black"/>
</svg>
