<svg width="271" height="347" viewBox="0 0 271 347" fill="none" xmlns="http://www.w3.org/2000/svg">
<g filter="url(#filter0_d_141_77)">
<rect x="4" y="71" width="263" height="268" rx="131.5" fill="#FBFBFB"/>
<line x1="83.6353" y1="179.507" x2="134.96" y2="222.574" stroke="#9A9A9A" stroke-width="8" stroke-linecap="round"/>
<line x1="136.493" y1="223.574" x2="187.818" y2="180.507" stroke="#9A9A9A" stroke-width="8" stroke-linecap="round"/>
<rect x="71" width="136" height="105" rx="52.5" fill="#43B0FF"/>
<path d="M121.822 28.4545V83H115.217V35.3793H114.898L101.581 44.2216V37.5099L115.217 28.4545H121.822ZM137.51 83V78.206L155.514 58.4972C157.627 56.1889 159.367 54.1825 160.734 52.478C162.101 50.7557 163.113 49.1399 163.77 47.6307C164.445 46.1037 164.782 44.5057 164.782 42.8366C164.782 40.919 164.321 39.2589 163.397 37.8562C162.492 36.4535 161.249 35.3704 159.669 34.6069C158.088 33.8434 156.313 33.4616 154.342 33.4616C152.247 33.4616 150.418 33.8967 148.855 34.7667C147.311 35.619 146.112 36.8175 145.26 38.3622C144.425 39.907 144.008 41.718 144.008 43.7955H137.723C137.723 40.5994 138.46 37.794 139.933 35.3793C141.407 32.9645 143.413 31.0824 145.952 29.733C148.509 28.3835 151.377 27.7088 154.555 27.7088C157.751 27.7088 160.583 28.3835 163.051 29.733C165.519 31.0824 167.455 32.9023 168.857 35.1928C170.26 37.4833 170.961 40.0312 170.961 42.8366C170.961 44.843 170.597 46.805 169.869 48.7227C169.159 50.6225 167.916 52.7443 166.141 55.0881C164.383 57.4141 161.941 60.255 158.816 63.6108L146.565 76.7145V77.1406H171.92V83H137.51Z" fill="white"/>
</g>
<defs>
<filter id="filter0_d_141_77" x="0" y="0" width="271" height="347" filterUnits="userSpaceOnUse" color-interpolation-filters="sRGB">
<feFlood flood-opacity="0" result="BackgroundImageFix"/>
<feColorMatrix in="SourceAlpha" type="matrix" values="0 0 0 0 0 0 0 0 0 0 0 0 0 0 0 0 0 0 127 0" result="hardAlpha"/>
<feOffset dy="4"/>
<feGaussianBlur stdDeviation="2"/>
<feComposite in2="hardAlpha" operator="out"/>
<feColorMatrix type="matrix" values="0 0 0 0 0 0 0 0 0 0 0 0 0 0 0 0 0 0 0.25 0"/>
<feBlend mode="normal" in2="BackgroundImageFix" result="effect1_dropShadow_141_77"/>
<feBlend mode="normal" in="SourceGraphic" in2="effect1_dropShadow_141_77" result="shape"/>
</filter>
</defs>
</svg>
