<svg width="311" height="46" viewBox="0 0 311 46" fill="none" xmlns="http://www.w3.org/2000/svg">
<path d="M40.6959 9.47974C35.5148 9.99785 29.8353 14.7869 25.182 16.9399C23.7431 17.6057 20.9413 19.4085 23.9528 20.1614C30.4762 21.7922 37.1651 23.4227 43.7478 24.7392" stroke="black" stroke-opacity="0.6" stroke-linecap="round"/>
<path d="M24.6734 7.19067C18.7105 11.4189 12.044 14.3087 5.51426 17.5332C4.32094 18.1225 1.40936 18.9867 1.06357 20.5427C0.0836599 24.9524 10.7125 25.8053 13.6103 26.6465C18.2429 27.9915 22.6759 28.0983 26.7928 30.8429C29.2504 32.4813 31.5585 35.3964 33.8291 32.3689" stroke="black" stroke-opacity="0.6" stroke-linecap="round"/>
<path d="M58.2443 10.2427C58.2443 17.4642 55.9554 24.4316 55.9554 31.606C55.9554 32.3378 54.4294 29.6806 54.4294 28.5541" stroke="black" stroke-opacity="0.6" stroke-linecap="round"/>
<path d="M49.8517 1.087C49.386 2.07659 48.4899 6.41346 50.4451 3.96935C51.7288 2.36476 47.7487 2.3098 48.3681 4.478C48.8173 6.05013 51.6655 2.6667 51.3353 1.51088C50.9177 0.0493693 46.4481 2.05562 49.0887 3.37593" stroke="black" stroke-opacity="0.6" stroke-linecap="round"/>
<path d="M68.163 1.8501C62.6451 1.8501 66.1412 10.3725 68.5445 6.04646C69.8995 3.60754 64.3481 1.75999 64.3481 6.42795C64.3481 11.3504 71.2682 4.64474 66.9762 3.41844C66.0034 3.1405 64.1999 4.902 66.2556 4.902C67.8432 4.902 67.6187 2.71996 66.6371 5.66497" stroke="black" stroke-opacity="0.6" stroke-linecap="round"/>
<path d="M79.6077 33.8948V43.0505" stroke="black" stroke-opacity="0.6" stroke-linecap="round"/>
<path d="M100.971 7.95398C100.816 6.71533 99.0836 7.13742 98.3005 7.57249C94.5062 9.68045 91.6002 14.2267 90.4588 18.4661C89.2242 23.0517 89.863 27.545 94.9095 28.5543C99.6618 29.5048 104.589 29.8503 108.982 27.4098C112.755 25.3139 111.201 24.7394 107.838 24.7394" stroke="black" stroke-opacity="0.6" stroke-linecap="round"/>
<path d="M91.8152 17.8728C91.9654 19.0747 95.8402 19.3988 96.8169 19.3988C97.5826 19.3988 107.015 19.3988 104.023 19.3988" stroke="black" stroke-opacity="0.6" stroke-linecap="round"/>
<path d="M124.623 29.3171C124.623 31.5011 124.918 43.3994 126.149 38.4728" stroke="black" stroke-opacity="0.6" stroke-linecap="round"/>
<path d="M137.594 7.95386V34.658" stroke="black" stroke-opacity="0.6" stroke-linecap="round"/>
<path d="M138.357 8.71653C138.458 7.90477 148.45 8.30364 149.038 9.47951" stroke="black" stroke-opacity="0.6" stroke-linecap="round"/>
<path d="M148.275 9.47978C148.275 7.39063 147.868 5.13193 149.038 3.37598" stroke="black" stroke-opacity="0.6" stroke-linecap="round"/>
<path d="M168.113 9.47986C168.581 7.60448 184.35 13.5687 180.744 15.5837C177.036 17.6558 168.487 20.9381 166.587 24.7394" stroke="black" stroke-opacity="0.6" stroke-linecap="round"/>
<path d="M181.847 6.42773C185.685 9.8819 191.445 11.9643 195.962 14.3966C196.748 14.8199 200.073 15.3762 200.073 16.7703C200.073 19.2724 187.454 23.2132 184.899 23.2132" stroke="black" stroke-opacity="0.6" stroke-linecap="round"/>
<path d="M210 13C218.043 14.0838 226.16 14.9974 234.247 14.9974C236.075 14.9974 237.399 15.1016 239 13.9987" stroke="black" stroke-opacity="0.6" stroke-linecap="round"/>
<path d="M274.433 13.8721C278.009 2.69616 268.628 3.01755 260.161 3.01755C251.396 3.01755 262.517 20.5012 264.684 22.7166C271.48 29.6639 279.849 34.4413 286.393 41.7121C288.336 43.8714 271.897 47.1623 276.242 42.8177" stroke="black" stroke-opacity="0.6" stroke-linecap="round"/>
<path d="M273.528 12.0629C273.528 6.36982 298.67 8.48979 302.273 8.44475C307.929 8.37405 312.078 11.7739 308.605 17.6912C304.247 25.1147 294.997 30.0973 288.001 34.6766C285.559 36.2752 282.651 38.1216 279.91 39.1491C278.906 39.5258 276.518 40.1039 278.956 40.1039" stroke="black" stroke-opacity="0.6" stroke-linecap="round"/>
</svg>
