<svg width="59" height="79" viewBox="0 0 59 79" fill="none" xmlns="http://www.w3.org/2000/svg">
<path d="M11.9884 13.9347C14.0996 5.49017 24.6963 -1.35933 33.6473 1.77352C41.1296 4.39232 36.7768 19.2658 33.6976 23.8847C29.6919 29.8932 23.509 31.3251 18.4208 35.1413C17.2522 36.0177 20.5771 33.0576 21.9385 32.5281C24.4508 31.5511 28.5906 31.6501 31.1849 32.2266C39.8423 34.1505 45.2412 50.8145 46.7633 58.2073C48.9208 68.6865 42.5707 73.2296 32.592 74.3384C23.3663 75.3634 7.04298 75.0665 1.68663 65.5441C-0.329172 61.9605 2.51897 60.4906 4.75205 58.2575" stroke="black" stroke-opacity="0.6" stroke-linecap="round"/>
<path d="M11.9884 11.2216C12.732 4.52951 33.8155 -1.0117 37.3157 5.79435C40.0877 11.1842 39.1248 18.2055 39.1248 24.0863C39.1248 29.3598 35.9181 29.8201 31.4362 31.574C28.3586 32.7782 25.299 32.5427 22.3907 33.8353C18.5031 35.5631 23.7658 34.7399 25.5566 34.7399C31.178 34.7399 36.3446 38.3565 40.4816 41.5742C42.7297 43.3227 42.743 45.2381 42.743 47.8558C42.743 50.4494 44.5521 52.5904 44.5521 55.0922C44.5521 61.4532 45.8449 68.5656 39.8284 72.7309C35.7375 75.563 32.317 76.3491 27.3657 76.3491C23.5962 76.3491 17.3265 76.2526 13.7975 74.9923C9.169 73.3392 8.97365 69.2395 7.46565 65.0925C6.51793 62.4863 1.87479 63.0262 3.84745 60.0672" stroke="black" stroke-opacity="0.6" stroke-linecap="round"/>
<path d="M51.7882 70.9219C49.7057 70.9219 47.7491 75.4853 48.2203 77.6055C48.8121 80.2688 53.5973 75.1604 53.5973 73.1832C53.5973 68.3983 49.0167 75.5846 50.5821 76.1482C53.2548 77.1103 61.1725 72.731 55.4064 72.731C53.6193 72.731 48.4734 77.5342 50.4816 78.108C54.6059 79.2864 55.1001 74.0461 53.1953 74.5903C52.4706 74.7974 52.0042 75.8869 51.3862 76.2989C49.8821 77.3016 54.643 74.6917 56.1099 73.6355C61.9272 69.4471 51.2305 73.0779 53.5973 75.4446" stroke="black" stroke-opacity="0.6" stroke-linecap="round"/>
</svg>
