<svg width="45" height="93" viewBox="0 0 45 93" fill="none" xmlns="http://www.w3.org/2000/svg">
<path d="M0.516357 52.1317C3.25107 51.8279 7.48687 46.8876 9.26032 45.3979C17.7627 38.2559 25.1766 31.554 30.4167 21.7289C32.413 17.9857 35.7937 13.7076 35.7937 9.26621C35.7937 5.12915 34.3555 17.4415 33.0801 21.3771C26.8448 40.6175 22.3383 60.5039 17.2505 80.0722C16.2725 83.8338 15.2021 87.5935 14.1348 91.3288C13.2639 94.3772 15.1247 85.0575 15.8937 81.9818" stroke="black" stroke-opacity="0.6" stroke-linecap="round"/>
<path d="M1.4209 49.4183C8.84577 49.4183 17.4068 39.893 22.4768 35.3475C28.6784 29.7875 33.0524 23.0772 37.1505 15.95C39.6026 11.6855 42.2584 6.60001 43.7336 1.87928C45.0263 -2.25711 41.0369 10.1235 39.4119 14.1409C34.2412 26.924 30.7149 40.0351 26.2457 53.0365C24.357 58.5309 20.4164 64.2846 20.4164 70.2229" stroke="black" stroke-opacity="0.6" stroke-linecap="round"/>
<path d="M1.4209 81.9822C5.69797 78.1804 15.0928 77.3375 20.4164 78.8163C21.9709 79.2481 29.7838 80.1731 25.3412 80.1731C19.9397 80.1731 14.6634 81.0777 9.31057 81.0777C5.56248 81.0777 16.6837 82.4972 20.4164 82.8365C23.8005 83.1442 29.0486 83.6644 32.1755 82.1832C37.0718 79.864 30.9371 78.0197 28.5573 77.6605C23.0549 76.83 18.4537 78.7135 13.18 79.2686C10.0945 79.5934 14.2395 79.82 15.8937 79.2686" stroke="black" stroke-opacity="0.6" stroke-linecap="round"/>
<path d="M38.5073 70.2229C38.5073 73.6555 38.0312 75.6638 42.427 73.8411C45.0622 72.7485 44.4137 68.7273 42.1255 67.7103C35.0944 64.5854 35.1777 75.8251 42.5275 72.4843C44.5718 71.5551 44.6977 67.8874 42.0752 67.5596C40.0187 67.3025 35.3255 71.1876 38.1053 71.9818C39.8605 72.4833 43.8416 70.0026 41.6229 69.3687C38.9861 68.6153 39.0966 71.2851 37.6027 72.032" stroke="black" stroke-opacity="0.6" stroke-linecap="round"/>
</svg>
