<svg width="49" height="48" viewBox="0 0 49 48" fill="none" xmlns="http://www.w3.org/2000/svg">
<g clip-path="url(#clip0_187_193)">
<path d="M0.223877 16.1C0.223877 10.4051 0.223877 7.55764 1.34974 5.39026C2.2985 3.56382 3.7877 2.07462 5.61413 1.12587C7.78152 0 10.629 0 16.3239 0H32.1239C37.8188 0 40.6662 0 42.8336 1.12587C44.6601 2.07462 46.1493 3.56382 47.098 5.39026C48.2239 7.55764 48.2239 10.4051 48.2239 16.1V31.9C48.2239 37.5949 48.2239 40.4424 47.098 42.6097C46.1493 44.4362 44.6601 45.9254 42.8336 46.8741C40.6662 48 37.8188 48 32.1239 48H16.3239C10.629 48 7.78152 48 5.61413 46.8741C3.7877 45.9254 2.2985 44.4362 1.34974 42.6097C0.223877 40.4424 0.223877 37.5949 0.223877 31.9V16.1Z" fill="black"/>
<path d="M14.7873 28.7404C14.9827 27.1231 15.646 26.2175 16.896 25.2892C18.6846 24.032 20.9188 24.7432 20.9188 24.7432V20.5242C21.462 20.5103 22.0053 20.5425 22.5426 20.6204V26.0498C22.5426 26.0498 20.309 25.3386 18.5205 26.5965C17.2711 27.5242 16.6064 28.4304 16.4118 30.0477C16.4057 30.926 16.5705 32.074 17.3294 33.0667C17.1418 32.9704 16.9505 32.8608 16.7556 32.7377C15.0837 31.615 14.7792 29.9307 14.7873 28.7404ZM31.7676 12.7234C30.5372 11.3751 30.0719 10.0139 29.9037 9.05762H31.4515C31.4515 9.05762 31.1429 11.5649 33.392 14.0307L33.4232 14.0638C32.817 13.6825 32.2611 13.2324 31.7676 12.7234ZM39.2237 16.5458V21.8659C39.2237 21.8659 37.2486 21.7886 35.787 21.4167C33.7461 20.8967 32.4343 20.0991 32.4343 20.0991C32.4343 20.0991 31.5282 19.5302 31.4549 19.4906V30.4768C31.4549 31.0885 31.2874 32.6162 30.7766 33.8903C30.1099 35.5571 29.081 36.6511 28.8918 36.8748C28.8918 36.8748 27.6404 38.3537 25.4326 39.3496C23.4426 40.248 21.6954 40.2252 21.1731 40.248C21.1731 40.248 18.1529 40.3676 15.4351 38.6014C14.8474 38.2121 14.2988 37.7711 13.7964 37.2843L13.81 37.2941C16.5284 39.0603 19.548 38.9407 19.548 38.9407C20.071 38.9179 21.8182 38.9407 23.8075 38.0423C26.0132 37.0464 27.2666 35.5675 27.2666 35.5675C27.4538 35.3438 28.4875 34.2498 29.1515 32.5824C29.6609 31.3089 29.8298 29.7805 29.8298 29.1688V18.184C29.903 18.2243 30.8085 18.7931 30.8085 18.7931C30.8085 18.7931 32.121 19.5914 34.1618 20.1108C35.6242 20.4826 37.5986 20.56 37.5986 20.56V16.3911C38.2741 16.5425 38.85 16.5835 39.2237 16.5458Z" fill="#FD355A"/>
<path d="M37.5995 16.3911V20.5587C37.5995 20.5587 35.625 20.4813 34.1627 20.1095C32.1218 19.5894 30.8094 18.7918 30.8094 18.7918C30.8094 18.7918 29.9039 18.223 29.8307 18.1826V29.1701C29.8307 29.7819 29.6631 31.3102 29.1524 32.5837C28.4857 34.2511 27.4568 35.3451 27.2675 35.5688C27.2675 35.5688 26.0155 37.0477 23.8084 38.0436C21.8191 38.942 20.0719 38.9192 19.5489 38.942C19.5489 38.942 16.5293 39.0616 13.8108 37.2954L13.7973 37.2856C13.5103 37.0077 13.2401 36.7142 12.9881 36.4067C12.1206 35.3491 11.5888 34.0983 11.4552 33.7414C11.455 33.7399 11.455 33.7384 11.4552 33.7369C11.2402 33.1167 10.7885 31.6274 10.8502 30.1849C10.9594 27.6399 11.8547 26.0778 12.0914 25.6864C12.7184 24.6192 13.5337 23.6644 14.5013 22.8645C15.3551 22.1742 16.3229 21.6249 17.3649 21.2393C18.4914 20.7865 19.6976 20.5438 20.919 20.5242V24.7432C20.919 24.7432 18.6848 24.0346 16.8969 25.2892C15.6469 26.2175 14.9835 27.1231 14.7882 28.7404C14.7801 29.9307 15.0846 31.615 16.7552 32.7384C16.95 32.8619 17.1413 32.9715 17.329 33.0673C17.6208 33.4467 17.976 33.7772 18.3803 34.0457C20.0122 35.0786 21.3795 35.1508 23.1281 34.4799C24.294 34.0314 25.1717 33.0205 25.5787 31.9004C25.8344 31.201 25.831 30.4969 25.831 29.7688V9.05762H29.9005C30.0687 10.0139 30.534 11.3751 31.7644 12.7234C32.2579 13.2324 32.8138 13.6825 33.42 14.0638C33.5991 14.2491 34.5147 15.165 35.6902 15.7273C36.2979 16.018 36.9386 16.2407 37.5995 16.3911Z" fill="white"/>
<path d="M9.83545 32.4463V32.4495L9.93643 32.7232C9.92483 32.6914 9.8873 32.5945 9.83545 32.4463Z" fill="#33F3ED"/>
<path d="M17.3649 21.2398C16.3229 21.6254 15.3551 22.1747 14.5013 22.865C13.5334 23.6667 12.7182 24.6236 12.0921 25.6928C11.8554 26.0828 10.9601 27.6462 10.8509 30.1913C10.7892 31.6338 11.2409 33.1231 11.4559 33.7432C11.4557 33.7448 11.4557 33.7463 11.4559 33.7478C11.5915 34.1014 12.1213 35.3522 12.9888 36.4131C13.2408 36.7206 13.5109 37.0141 13.7979 37.292C12.8783 36.6824 12.0582 35.9454 11.3643 35.1051C10.5043 34.0566 9.97389 32.8188 9.83553 32.4535C9.83537 32.4509 9.83537 32.4483 9.83553 32.4457V32.4412C9.61984 31.8216 9.16676 30.3317 9.22984 28.8872C9.33904 26.3422 10.2343 24.7801 10.4711 24.3887C11.097 23.3194 11.9122 22.3626 12.8802 21.5609C13.7339 20.8704 14.7017 20.3211 15.7439 19.9358C16.3939 19.6773 17.0711 19.4866 17.7637 19.367C18.8075 19.1923 19.8736 19.1772 20.9224 19.3221V20.5247C19.6999 20.5439 18.4924 20.7866 17.3649 21.2398Z" fill="#33F3ED"/>
<path d="M29.9039 9.05794H25.8343V29.7698C25.8343 30.4979 25.8343 31.2 25.582 31.9014C25.171 33.0208 24.2967 34.0317 23.1314 34.4802C21.3822 35.1537 20.0148 35.0789 18.3836 34.046C17.9787 33.7788 17.6225 33.4493 17.3296 33.0709C18.7193 33.7814 19.9633 33.7691 21.5043 33.1762C22.6689 32.7276 23.5445 31.7168 23.9542 30.5967C24.2105 29.8972 24.2072 29.1932 24.2072 28.4658V7.75H29.8265C29.8265 7.75 29.7635 8.26486 29.9039 9.05794ZM37.5994 15.2388V16.3914C36.9397 16.2408 36.3002 16.0181 35.6935 15.7277C34.5181 15.1653 33.6024 14.2494 33.4234 14.0641C33.6311 14.1949 33.8467 14.3138 34.0691 14.4204C35.4982 15.1042 36.9055 15.3084 37.5994 15.2388Z" fill="#33F3ED"/>
</g>
<defs>
<clipPath id="clip0_187_193">
<rect width="48" height="48" fill="white" transform="translate(0.223877)"/>
</clipPath>
</defs>
</svg>
