<svg width="49" height="48" viewBox="0 0 49 48" fill="none" xmlns="http://www.w3.org/2000/svg">
<path d="M0.223877 16.1C0.223877 10.4051 0.223877 7.55764 1.34974 5.39026C2.2985 3.56382 3.7877 2.07462 5.61413 1.12587C7.78152 0 10.629 0 16.3239 0H32.1239C37.8188 0 40.6662 0 42.8336 1.12587C44.6601 2.07462 46.1493 3.56382 47.098 5.39026C48.2239 7.55764 48.2239 10.4051 48.2239 16.1V31.9C48.2239 37.5949 48.2239 40.4424 47.098 42.6097C46.1493 44.4362 44.6601 45.9254 42.8336 46.8741C40.6662 48 37.8188 48 32.1239 48H16.3239C10.629 48 7.78152 48 5.61413 46.8741C3.7877 45.9254 2.2985 44.4362 1.34974 42.6097C0.223877 40.4424 0.223877 37.5949 0.223877 31.9V16.1Z" fill="#1EA1F2"/>
<path fill-rule="evenodd" clip-rule="evenodd" d="M37.5468 18.1526C37.5585 18.4524 37.5623 18.7521 37.5623 19.0519C37.5623 28.1414 31.1683 38.6347 19.4759 38.6347C15.8842 38.6347 12.5444 37.49 9.73047 35.5412C10.2279 35.5957 10.7331 35.6367 11.246 35.6367C14.224 35.6367 16.9669 34.5327 19.1426 32.6793C16.3609 32.6385 14.0121 30.6352 13.202 27.9097C13.5909 27.9915 13.9914 28.0325 14.401 28.0325C14.9785 28.0325 15.5392 27.9508 16.0767 27.7873C13.1658 27.1605 10.9734 24.3805 10.9734 21.0418C10.9734 21.0009 10.9734 20.9872 10.9734 20.96C11.8312 21.4642 12.8131 21.7774 13.8558 21.8183C12.1478 20.5782 11.025 18.466 11.025 16.0812C11.025 14.8275 11.3377 13.6419 11.8881 12.6198C15.0224 16.7898 19.7085 19.529 24.9914 19.8151C24.8828 19.3109 24.8273 18.7796 24.8273 18.2481C24.8273 14.4461 27.6735 11.3662 31.1851 11.3662C33.0133 11.3662 34.6644 12.1976 35.8233 13.5331C37.2742 13.2333 38.6334 12.661 39.8634 11.8706C39.3866 13.4786 38.3801 14.8275 37.0649 15.6724C38.3517 15.5088 39.5791 15.1412 40.7174 14.5961C39.8634 15.9724 38.7884 17.1851 37.5468 18.1526Z" fill="white"/>
</svg>
