<svg width="284" height="108" viewBox="0 0 284 108" fill="none" xmlns="http://www.w3.org/2000/svg">
<path d="M39.3572 30.2993C24.9706 40.29 18.1553 55.5086 29.4072 70.3004C46.6389 92.9532 70.1789 99.8387 97.6503 104.673C127.639 109.951 159.488 107.227 189.11 100.854C206.41 97.1322 222.769 91.3992 238.157 82.7631C246.744 77.9438 254.972 71.4188 260.067 62.863C266.777 51.595 262.328 42.347 252.63 34.822C214.986 5.61557 164.926 0.290234 118.957 7.38408C90.0124 11.8509 58.6318 19.8133 32.7741 33.9175C19.9673 40.903 -1.8834 54.1888 1.31598 71.9085C3.10356 81.8089 13.2788 88.0326 21.7186 91.708C38.4448 98.992 56.8239 100.455 74.8356 101.206C114.414 102.855 156.897 105.013 195.643 95.3262C221.41 88.8844 243.102 73.9208 263.534 57.486C270.696 51.7256 292.516 36.3813 278.66 26.6309C269.629 20.2751 258.101 17.3584 247.504 14.9722C228.98 10.8014 209.975 8.02273 191.171 5.47448C154.029 0.441254 117.966 -1.01575 80.6649 4.62019C67.3782 6.62773 47.423 8.67535 35.6385 17.1331C30.9862 20.4721 28.4818 27.2999 25.789 32.1084" stroke="black" stroke-opacity="0.6" stroke-linecap="round"/>
</svg>
