<svg width="22" height="12" viewBox="0 0 22 12" fill="none" xmlns="http://www.w3.org/2000/svg">
<path d="M21.9239 0.61731C21.8482 0.434585 21.72 0.278409 21.5556 0.168529C21.3911 0.0586486 21.1978 1.16746e-07 21 0H1C0.802221 -7.78886e-07 0.608878 0.058649 0.444427 0.168532C0.279976 0.278416 0.151803 0.434597 0.0761168 0.617327C0.000430226 0.800056 -0.0193706 1.00113 0.0192187 1.19511C0.057808 1.38909 0.153054 1.56727 0.292912 1.70712L10.2929 11.7071C10.3858 11.8 10.496 11.8736 10.6173 11.9239C10.7386 11.9741 10.8687 12 11 12C11.1313 12 11.2614 11.9741 11.3827 11.9239C11.504 11.8736 11.6142 11.8 11.7071 11.7071L21.7071 1.70712C21.847 1.56727 21.9422 1.38909 21.9808 1.1951C22.0194 1.00111 21.9996 0.800041 21.9239 0.61731Z" fill="#495340"/>
</svg>
